<?xml version="1.0" encoding="UTF-8" standalone="no"?>
<svg
   xmlns:dc="http://purl.org/dc/elements/1.1/"
   xmlns:cc="http://creativecommons.org/ns#"
   xmlns:rdf="http://www.w3.org/1999/02/22-rdf-syntax-ns#"
   xmlns:svg="http://www.w3.org/2000/svg"
   xmlns="http://www.w3.org/2000/svg"
   xmlns:sodipodi="http://sodipodi.sourceforge.net/DTD/sodipodi-0.dtd"
   xmlns:inkscape="http://www.inkscape.org/namespaces/inkscape"
   viewBox="0 0 999 843"
   version="1.1"
   id="svg90"
   sodipodi:docname="akvobotelo.svg"
   inkscape:version="0.92.4 5da689c313, 2019-01-14">
  <metadata
     id="metadata96">
    <rdf:RDF>
      <cc:Work
         rdf:about="">
        <dc:format>image/svg+xml</dc:format>
        <dc:type
           rdf:resource="http://purl.org/dc/dcmitype/StillImage" />
        <dc:title></dc:title>
      </cc:Work>
    </rdf:RDF>
  </metadata>
  <defs
     id="defs94" />
  <sodipodi:namedview
     pagecolor="#ffffff"
     bordercolor="#666666"
     borderopacity="1"
     objecttolerance="10"
     gridtolerance="10"
     guidetolerance="10"
     inkscape:pageopacity="0"
     inkscape:pageshadow="2"
     inkscape:window-width="1920"
     inkscape:window-height="1032"
     id="namedview92"
     showgrid="false"
     inkscape:zoom="0.55655656"
     inkscape:cx="403.23896"
     inkscape:cy="410.28333"
     inkscape:window-x="0"
     inkscape:window-y="0"
     inkscape:window-maximized="1"
     inkscape:current-layer="svg90" />
  <path
     d="m 572.6883,462.68824 -73.9188,64.35069 -65.43694,55.80329 -47.71233,38.05961 -25.10952,21.41289 -8.25782,5.72785 -7.49693,5.07899 -8.03378,2.90832 -8.03379,2.90832 -8.68266,2.14742 -7.92176,1.49855 -7.92176,1.49855 -4.1173,-1.74583 -3.46841,-0.98493 -4.11729,-1.74583 -4.11729,-1.74583 -3.3564,-2.3947 -5.83988,-6.84805 -1.07371,-4.34133 -3.46842,-0.98493 -3.46841,-0.98494 -2.70752,-1.63381 -1.83461,-3.69245 0.11202,-1.40977 -4.22931,-0.33606 -4.11729,-1.74583 -3.3564,-2.3947 -3.35639,-2.3947 -5.83988,-6.84805 -3.3564,-2.39471 -3.3564,-2.3947 -1.18573,-2.93156 -4.54213,-5.32626 -1.18573,-2.93156 -2.5955,-3.04358 -0.53685,-2.17067 -1.18574,-2.93156 0.22404,-2.81954 -3.46841,-0.98493 -2.70752,-1.63381 -1.94663,-2.28268 -1.18573,-2.93156 0.98493,-3.46842 -1.83461,-3.69245 -3.35639,-2.3947 -1.18573,-2.93156 -2.05865,-0.87292 -1.94663,-2.28268 -0.53685,-2.17067 -1.94663,-2.28268 -0.53685,-2.17066 0.11201,-1.40977 -0.53685,-2.17067 -4.09405,-10.96534 -1.38653,-9.33154 0.0232,-9.21951 2.08188,-8.3466 3.49166,-8.23458 4.14053,-7.47369 4.90143,-8.12256 5.66232,-8.77144 10.76454,-10.49403 28.26512,-25.41816 40.55146,-37.20994 48.1604,-43.69869 49.03332,-45.75733 45.87772,-41.75207 36.859,-35.37533 22.28998,-21.63693 24.01257,-16.5347 24.88549,-18.59335 24.66145,-15.77381 25.95919,-14.25202 11.5022,-1.92338 12.68793,1.00817 13.98569,2.52996 13.98568,2.52997 13.11276,4.5886 10.40525,2.9548 9.1075,1.43301 3.58043,-0.42483 3.69246,-1.83461 2.28268,-1.94663 0.87291,-2.05864 0.98494,-3.46842 0.87291,-2.05864 0.87292,-2.05865 2.93155,-1.18573 4.34133,-1.07371 8.36985,-7.13763 2.3947,-3.3564 1.09695,-4.87818 13.69611,-11.67976 5.21424,-3.13236 5.52706,1.85785 5.41504,3.26761 4.65415,3.9165 9.08425,10.65252 3.13236,5.21425 4.54213,5.32626 3.13236,5.21424 -2.73076,7.58571 -4.02851,6.06392 -12.17432,10.382 -5.63908,-0.44807 -4.34133,1.07371 -2.3947,3.35639 -3.91649,4.65415 -3.9165,4.65415 -5.10222,1.72259 -5.86312,2.37146 -3.26762,5.41504 -0.0232,9.21952 0.73766,8.57064 2.14742,8.68266 2.14743,8.68265 2.14742,8.68266 0.73766,8.57064 -0.78414,9.86839 -2.08189,8.3466 -2.41794,12.57592 -9.15397,17.00602 -15.12912,20.78725 -18.82157,22.62186 -23.27491,25.10534 -26.20648,26.29108 -27.72827,27.58882 z"
     id="path2"
     inkscape:connector-curvature="0" />
  <path
     d="m 751.06302,181.77818 -1.18574,-2.93155 -1.8346,-3.69246 -2.48349,-4.45335 -7.7865,-9.13073 -4.65415,-3.9165 -3.24437,-3.80447 -3.3564,-2.3947 1.63381,-2.70752 2.28268,-1.94663 1.63381,-2.70752 6.73603,-4.43011 3.3564,2.3947 4.00527,3.1556 4.65415,3.91649 4.54213,5.32627 3.13235,5.21424 3.24438,3.80447 1.83461,3.69246 0.53685,2.17066 -2.3947,3.3564 z"
     id="path4"
     inkscape:connector-curvature="0"
     style="fill:#007fff" />
  <g
     id="g14"
     style="fill:#aad4ff"
     transform="rotate(49.543133,498,380.5)">
    <path
       d="m 545,717 v -1 l 2,-2 1,-1 1,-1 2,1 -1,2 h -1 l -2,1 z"
       id="path6"
       inkscape:connector-curvature="0" />
    <path
       d="m 508,80 -5,-1 -4,-1 h -12 l -4,1 -4,1 -5,1 1,-4 v -9 l 4,-1 4,-1 4,-1 h 9 l 4,1 4,1 4,1 -1,3 v 5 z"
       id="path8"
       inkscape:connector-curvature="0" />
    <path
       d="m 476,718 v -2 l 6,4 h -3 l -1,-1 z"
       id="path10"
       inkscape:connector-curvature="0" />
    <path
       d="m 520,117 -4,-2 -3,-2 -3,-3 -2,-3 -2,-3 -2,-4 v -9 l -3,-1 h -7 l -4,-1 -3,1 h -3 l -3,1 h -3 v 7 l -2,7 -4,7 -6,5 -3,2 -4,2 -4,2 -3,2 -1,1 v 1 l -1,2 v 1 l -6,38 -2,65 -1,83 2,94 2,95 3,88 3,73 2,49 2,1 h 7 l 13,-10 h 3 l 3,1 3,1 2,1 2,3 2,3 1,3 1,3 h 28 l -12,-554 2,-21 3,-15 4,-9 z"
       id="path12"
       inkscape:connector-curvature="0" />
  </g>
  <path
     d="m 682.42818,215.33797 -11.95028,7.56246 -31.62152,23.02346 -44.55672,34.05434 -49.79422,46.40621 -35.98608,33.31669 -81.63977,72.24921 -84.57133,73.43494 -46.07852,35.35209 -3.24437,-3.80448 -1.18573,-2.93156 -1.94663,-2.28268 -1.18573,-2.93156 -0.53686,-2.17066 0.7609,-0.64888 49.68219,-44.99644 115.23115,-102.2095 124.78673,-106.41557 79.33384,-61.08307 1.52179,-1.29775 3.58043,-0.42483 4.99021,-0.31282 5.7511,-0.96169 5.63908,0.44807 4.22931,0.33606 1.18573,2.93156 z"
     id="path16"
     inkscape:connector-curvature="0"
     style="fill:#aaffff" />
  <g
     id="g22"
     style="fill:#ffffff"
     transform="rotate(49.543133,498,380.5)">
    <path
       d="m 486,149 -1,-1 -2,-1 -4,-1 -4,-1 h -4 l -5,1 -5,3 -3,5 -1,10 -2,27 -2,37 -1,42 v 41 l 2,35 5,23 9,5 6,-12 4,-27 3,-35 2,-42 2,-40 1,-35 z"
       id="path18"
       inkscape:connector-curvature="0" />
    <path
       d="m 472,408 -2,-1 h -4 l -3,6 v 17 l 3,14 h 3 l 2,-6 1,-3 z"
       id="path20"
       inkscape:connector-curvature="0" />
  </g>
  <g
     id="g28"
     style="fill:#aaffff"
     transform="rotate(49.543133,498,380.5)">
    <path
       d="m 593,682 1,-3 1,-3 v -3 l 1,-2 2,-62 1,-107 V 388 l -4,-83 v -30 l -2,-19 -2,-22 -3,-23 -5,-23 -8,-22 -2,-5 -3,-5 -3,-4 -3,-4 -4,-4 -3,-3 -4,-3 -4,-3 -3,-3 -4,-3 -4,-2 -4,-2 -3,-2 -4,-2 -4,-2 -4,-2 -3,5 -4,9 -3,15 -2,21 12,554 h 2 l 2,-1 h 6 l 1,-1 h 1 l 1,-1 -2,-4 v -2 l 2,-4 3,-6 4,-6 4,-5 5,-2 5,2 5,7 2,4 2,4 1,4 2,3 h 4 l 2,-1 2,-1 2,-1 2,-2 2,-1 1,-1 1,-9 2,-8 4,-6 z"
       id="path24"
       inkscape:connector-curvature="0" />
    <path
       d="m 407,168 -5,25 -3,25 -2,26 -2,26 2,44 3,103 4,121 2,96 1,9 v 9 l 2,9 2,8 h 5 l 3,1 2,2 3,2 2,3 2,5 2,6 1,8 2,6 2,5 2,5 4,1 3,1 4,1 4,1 -2,-49 -3,-73 -3,-88 -2,-95 -2,-94 1,-83 2,-65 6,-38 v -1 l 1,-2 v -1 l 1,-1 -7,4 -7,4 -6,5 -5,5 -6,5 -4,6 -5,6 z"
       id="path26"
       inkscape:connector-curvature="0" />
  </g>
  <path
     d="m 223.4395,501.61474 -3.1556,4.00527 -2.3947,3.3564 -2.50673,4.76617 -1.74582,4.11729 -0.98494,3.46841 -1.74583,4.11729 -0.33605,4.22931 -0.98494,3.46842 -1.74582,4.11729 -0.33606,4.22931 0.42484,3.58043 -0.33606,4.22931 2.50672,-4.76616 2.50672,-4.76617 3.26762,-5.41504 5.43828,-5.9519 3.26762,-5.41504 2.50672,-4.76617 0.98493,-3.46841 -0.42483,-3.58044 0.22404,-2.81954 -1.18574,-2.93156 z"
     id="path30"
     inkscape:connector-curvature="0"
     style="fill:#aad4ff" />
  <g
     id="g36"
     style="fill:#aaffff"
     transform="rotate(49.543133,498,380.5)">
    <path
       d="m 531,714 2,4 2,-3 2,-4 2,-4 3,-3 3,-1 4,-1 h 4 l 3,1 2,2 2,2 1,3 v 3 h 5 l -2,-3 -1,-4 -2,-4 -2,-4 -5,-7 -5,-2 -5,2 -4,5 -4,6 -3,6 -2,4 z"
       id="path32"
       inkscape:connector-curvature="0" />
    <path
       d="m 594,682 -6,1 -4,6 -2,8 -1,9 5,-5 3,-6 3,-7 z"
       id="path34"
       inkscape:connector-curvature="0" />
  </g>
  <path
     d="m 650.61004,187.27364 -2.93156,1.18573 -8.90669,4.96697 -15.64273,9.39707 -23.13966,14.47606 -30.86063,22.37458 -39.34248,30.92198 -49.34613,40.76714 -59.34979,50.61228 -4.45335,2.48348 -8.68266,2.14743 -2.5955,-3.04358 13.15925,-13.85043 18.37349,-16.98278 64.67605,-55.15441 37.93271,-31.034 38.46957,-28.86333 32.91927,-21.50167 25.08629,-12.19337 z"
     id="path38"
     inkscape:connector-curvature="0"
     style="fill:#aad4ff" />
  <path
     d="m 225.49814,502.48765 1.94663,2.28269 0.53686,2.17066 1.18573,2.93156 -0.44808,5.63908 -2.61874,6.17594 -4.90143,8.12256 -8.59388,9.95717 -0.11202,1.40977 -1.63381,2.70752 -1.74582,4.11729 -0.98494,3.46842 1.18574,2.93156 0.87291,-2.05865 1.09695,-4.87818 1.74583,-4.11729 1.63381,-2.70752 9.13073,-7.78651 4.02852,-6.06392 3.37963,-6.82481 1.20897,-6.28795 -1.49855,-7.92177 -5.83987,-6.84805 -0.11202,1.40977 -0.11202,1.40977 z"
     id="path40"
     inkscape:connector-curvature="0"
     style="fill:#aaffff" />
  <g
     id="g46"
     style="fill:#ffffff"
     transform="rotate(49.543133,498,380.5)">
    <path
       d="m 460,693 v -1 l 2,-3 3,-5 3,-5 3,-6 4,-4 4,-3 3,-1 4,2 3,4 2,6 3,6 2,7 2,5 1,4 v 1 h 3 v -1 l -1,-5 -1,-5 -2,-7 -2,-7 -4,-6 -4,-4 -5,-2 -6,1 -5,3 -4,5 -4,5 -2,6 -3,5 -1,3 v 1 z"
       id="path42"
       inkscape:connector-curvature="0" />
    <path
       d="m 530,699 v -1 l 1,-4 2,-6 2,-7 2,-6 2,-6 3,-4 3,-1 3,1 3,4 3,5 3,5 3,6 1,5 2,3 v 2 h 2 v -2 l -1,-4 -2,-5 -2,-6 -3,-7 -3,-5 -4,-4 -6,-1 -4,2 -4,4 -3,6 -2,7 -2,7 -1,6 -1,5 v 1 z"
       id="path44"
       inkscape:connector-curvature="0" />
  </g>
  <g
     id="g58"
     style="fill:#aad4ff"
     transform="rotate(49.543133,498,380.5)">
    <path
       d="m 480,677 -2,21 h -2 l -4,1 -5,2 -4,3 1,-2 2,-5 4,-5 3,-5 4,-5 2,-3 z"
       id="path48"
       inkscape:connector-curvature="0" />
    <path
       d="m 484,680 1,1 4,4 4,8 4,15 -1,-1 -4,-3 -4,-2 -4,-2 z"
       id="path50"
       inkscape:connector-curvature="0" />
    <ellipse
       cx="439"
       cy="693"
       rx="6"
       ry="19"
       id="ellipse52" />
    <ellipse
       cx="539"
       cy="689"
       rx="7"
       ry="13"
       id="ellipse54" />
    <path
       d="m 581,707 v -6 l 1,-6 1,-7 2,-7 3,-6 4,-3 5,-1 v -5 h -1 l -3,1 -4,1 -5,3 -4,5 -3,7 -1,11 2,14 z"
       id="path56"
       inkscape:connector-curvature="0" />
  </g>
  <g
     id="g66"
     style="fill:#999999"
     transform="rotate(49.543133,498,380.5)">
    <path
       d="m 469,709 v -1 l 2,-2 3,-1 4,-2 4,-1 4,2 4,3 3,7 h 3 v -4 l -2,-3 -2,-4 -4,-2 -5,-1 -7,2 -9,4 z"
       id="path60"
       inkscape:connector-curvature="0" />
    <path
       d="m 535,706 1,-2 2,-4 4,-3 h 6 l 3,-4 h -1 l -1,-1 h -2 l -3,1 -3,1 -3,2 -3,3 -3,5 z"
       id="path62"
       inkscape:connector-curvature="0" />
    <path
       d="m 582,697 v 7 l 3,-4 z"
       id="path64"
       inkscape:connector-curvature="0" />
  </g>
  <ellipse
     cx="605.6604"
     cy="-427.52844"
     rx="22"
     ry="2"
     id="ellipse68"
     transform="rotate(49.543133)"
     style="fill:#aad4ff" />
  <g
     id="g74"
     style="fill:#ffffff"
     transform="rotate(49.543133,498,380.5)">
    <ellipse
       cx="488"
       cy="84"
       rx="14"
       ry="2"
       id="ellipse70" />
    <path
       d="m 488,65 v 10 l -1,4 2,-1 v -1 l 2,-3 v -9 z"
       id="path72"
       inkscape:connector-curvature="0" />
  </g>
  <ellipse
     cx="607.6604"
     cy="-396.52844"
     rx="31"
     ry="4"
     id="ellipse76"
     transform="rotate(49.543133)"
     style="fill:#1e1e1e" />
  <g
     id="g82"
     style="fill:#aaffff"
     transform="rotate(49.543133,498,380.5)">
    <path
       d="m 468,120 -1,1 h -3 l -4,2 -4,2 -5,2 -5,4 -5,4 -4,4 v 1 l -1,1 v 1 h 2 l 2,-2 4,-2 4,-3 4,-4 5,-3 4,-3 4,-2 4,-1 h 4 v -1 l -2,-1 z"
       id="path78"
       inkscape:connector-curvature="0" />
    <path
       d="m 494,117 h 2 l 5,1 6,2 8,2 9,3 8,4 7,5 6,6 2,1 1,-1 -1,-2 -1,-1 -3,-2 -3,-4 -6,-3 -7,-4 -9,-3 -10,-3 -13,-2 h -2 v 1 z"
       id="path80"
       inkscape:connector-curvature="0" />
  </g>
  <ellipse
     cx="601.6604"
     cy="-403.52844"
     rx="13"
     ry="1"
     id="ellipse84"
     transform="rotate(49.543133)"
     style="fill:#00c623" />
  <path
     d="m 714.69857,193.0754 -6.08716,5.19101 -3.91649,4.65414 -0.98493,3.46842 2.5955,3.04358 1.83461,3.69245 1.18573,2.93156 0.64887,0.7609 0.22404,-2.81954 1.85785,-5.52706 3.37964,-6.82482 3.15559,-4.00527 1.63381,-2.70752 -1.29775,-1.52179 -2.70752,-1.63381 z"
     id="path86"
     inkscape:connector-curvature="0"
     style="fill:#aaffff" />
  <ellipse
     cx="600.6604"
     cy="-414.52844"
     rx="2"
     ry="9"
     id="ellipse88"
     transform="rotate(49.543133)"
     style="fill:#ffffff" />
</svg>
