<?xml version="1.0" encoding="UTF-8"?>
<svg version="1.1" viewBox="0 0 333.27 218.29" xmlns="http://www.w3.org/2000/svg" xmlns:xlink="http://www.w3.org/1999/xlink">
 <defs>
  <linearGradient id="ag" x1="171.7" x2="206.16" y1="469.3" y2="502.18" gradientUnits="userSpaceOnUse">
   <stop stop-color="#c3c3c3" offset="0"/>
   <stop stop-color="#f3f3f3" offset="1"/>
  </linearGradient>
  <linearGradient id="ah" x1="287.25" x2="172.86" y1="485.21" y2="498.74" gradientUnits="userSpaceOnUse">
   <stop stop-opacity=".30303" offset="0"/>
   <stop stop-opacity="0" offset="1"/>
  </linearGradient>
  <filter id="v" x="-.027406" y="-.12481" width="1.0548" height="1.2496" color-interpolation-filters="sRGB">
   <feGaussianBlur stdDeviation="1.7143243"/>
  </filter>
  <linearGradient id="ai" x1="103.86" x2="114.47" y1="454.37" y2="505.74" gradientUnits="userSpaceOnUse">
   <stop stop-color="#1a1a1a" stop-opacity=".17424" offset="0"/>
   <stop stop-color="#1a1a1a" stop-opacity=".05303" offset="1"/>
  </linearGradient>
  <filter id="x" x="-.202" y="-.15481" width="1.404" height="1.3096" color-interpolation-filters="sRGB">
   <feGaussianBlur stdDeviation="2.2670355"/>
  </filter>
  <radialGradient id="am" cx="385.5" cy="603.2" r="26.083" gradientTransform="matrix(5.405 -.093821 -1.4751 2.635 -1809.2 112.72)" gradientUnits="userSpaceOnUse">
   <stop stop-color="#997979" offset="0"/>
   <stop stop-color="#483737" offset="1"/>
  </radialGradient>
  <filter id="aa" color-interpolation-filters="sRGB">
   <feGaussianBlur stdDeviation="0.62261719"/>
  </filter>
  <filter id="ab" x="-.058804" y="-.10904" width="1.1176" height="1.2181" color-interpolation-filters="sRGB">
   <feGaussianBlur stdDeviation="3.7544315"/>
  </filter>
  <filter id="ac" x="-.050168" y="-.12691" width="1.1003" height="1.2538" color-interpolation-filters="sRGB">
   <feGaussianBlur stdDeviation="2.704557"/>
  </filter>
  <radialGradient id="an" cx="397.23" cy="600.68" r="26.083" gradientTransform="matrix(1 0 0 .37358 0 383.44)" gradientUnits="userSpaceOnUse">
   <stop stop-color="#997979" offset="0"/>
   <stop stop-color="#483737" offset="1"/>
  </radialGradient>
  <filter id="w" x="-.070918" y="-.10729" width="1.1418" height="1.2146">
   <feGaussianBlur stdDeviation="5.9724621"/>
  </filter>
  <filter id="y" x="-.096832" y="-.13382" width="1.1937" height="1.2676">
   <feGaussianBlur stdDeviation="16.845474"/>
  </filter>
  <linearGradient id="af" x1="-118.89" x2="-111.81" y1="527.6" y2="558.23" gradientUnits="userSpaceOnUse">
   <stop stop-opacity=".21656" offset="0"/>
   <stop stop-opacity="0" offset="1"/>
  </linearGradient>
  <filter id="z" x="-.37611" y="-.23556" width="1.7522" height="1.4711" color-interpolation-filters="sRGB">
   <feGaussianBlur stdDeviation="4.9074321"/>
  </filter>
 </defs>
 <g transform="translate(-310.11 -132.53)">
  <g transform="matrix(.5 0 0 .5 286.53 13.453)">
   <path d="m312.05 632.28 363.91-200.02-161.89-97.39-255.63 275.56z" color="#000000" fill-opacity=".20889" filter="url(#y)"/>
   <path d="m190.25 396.85h-6.1372v70.866l184.12 106.3v-3.5433" color="#000000" fill="#999" stroke="#c8ab37" stroke-linecap="round" stroke-linejoin="round"/>
   <path d="m187.54 398.26 55.235 31.89-95.126 54.921-55.235-31.89z" color="#000000" fill="#dbdbdb" stroke="#e6e6e6" stroke-linecap="round" stroke-linejoin="round" stroke-width="1px"/>
   <path d="m146.35 486.07 3.0686-1.7716 92.058-53.15 125.81 72.638 1.3013 2.5457-92.01 53.166c-43.574-23.996-85.859-47.354-130.23-73.428z" color="#000000" fill="url(#ag)"/>
   <use transform="translate(22.315 15.292)" width="744.09448" height="1052.3622" xlink:href="#a"/>
   <g id="a" transform="matrix(.16182 -.09343 .18686 .10788 -55.301 266.97)">
    <path transform="matrix(3.0898 2.6758 -5.3516 4.6346 1368.1 -2141.3)" d="m405.05 577.56 9.2058 5.315 214.8-124.02-9.2058-5.315z" color="#000000" fill="#e9ddaf"/>
    <path transform="matrix(3.0898 2.6758 -5.3516 4.6346 1368.1 -2141.3)" d="m414.26 593.5 214.8-124.02v-10.63l-214.8 124.02z" color="#000000" fill="#ddcc86"/>
    <path transform="matrix(5.405 -.093821 -3.9485 7.0533 -294.06 -2614.3)" d="m418.38 612.78c0 5.3815-3.5237 9.0746-17.929 9.0746s-20.125-4.7547-20.125-10.136c0-5.3815 5.7196-9.352 20.125-9.352s17.929 5.0321 17.929 10.414z" fill="url(#an)"/>
   </g>
   <use transform="translate(41.421 28.503)" width="744.09448" height="1052.3622" xlink:href="#a"/>
   <use transform="translate(82.146 60.818)" width="744.09448" height="1052.3622" xlink:href="#a"/>
   <path transform="matrix(.99951 .031255 -.031255 .99951 34.608 -8.5616)" d="m300.72 478.35 21.037 1.5158-142.34 35.258-6.9527-6.1954" color="#000000" fill="url(#ah)" filter="url(#v)"/>
   <path transform="matrix(.93812 -.3463 .3463 .93812 -164.41 57.374)" d="m118.5 477.63c6.2204 7.8153-2.626 26.117-6.602 26.117s-12.866-15.056-12.866-25.044c0-9.9886-0.27436-14.348 7.3071-14.076 3.9735 0.14261 5.1524 4.1974 12.161 13.003z" fill="url(#ai)" filter="url(#x)"/>
   <path d="m368.23 574.02v-70.866l-184.12-106.3" color="#000000" fill="none" stroke="#e0cb77" stroke-linecap="round" stroke-linejoin="round"/>
   <path d="m92.418 453.18c-1.5505 22.314-0.89 43.775 0 63.78l184.12 106.3c-3.7429-25.971-2.1915-45.817 0-63.78-63.323-34.783-126.44-69.635-184.12-106.3z" color="#000000" fill="#f7f7f7" stroke="#f9f9f9" stroke-linecap="round" stroke-linejoin="round"/>
   <ellipse transform="matrix(1 0 .42906 .90328 -3.8149 -3.3873)" cx="-112.2" cy="545.1" rx="9.2179" ry="25" fill="url(#af)" filter="url(#z)"/>
   <g transform="matrix(.18654 .010988 .096708 .19288 28.661 144.31)">
    <path transform="matrix(3.0898 2.6758 -5.3516 4.6346 1368.1 -2141.3)" d="m405.05 584.65 9.2058-1.7716 214.8-124.02-9.2058 1.7716z" color="#000000" fill="#e6d8a5"/>
    <path transform="matrix(3.0898 2.6758 -5.3516 4.6346 1368.1 -2141.3)" d="m414.26 593.5 217.87-125.79-3.0686-8.8583-214.8 124.02z" color="#000000" fill="#dbc97d"/>
    <path d="m-453.41 1691.1c-21.249 37.958-54.877 64.336-132.74 65.688-77.86 1.3516-104.84-28.76-83.593-66.718 21.249-37.958 82.683-69.387 160.54-70.738 77.86-1.3515 77.036 33.811 55.787 71.769z" fill="url(#am)"/>
   </g>
   <path d="m208.74 441.91 136.05 81.856 45.295-25.913-182.98-107.68-21.862 8.1934z" color="#000000" fill-opacity=".31111" filter="url(#w)"/>
   <path d="m368.23 503.15-184.12-106.3 239.35-138.19 184.12 106.3z" color="#000000" fill="#fea" stroke="#fea" stroke-linecap="round" stroke-linejoin="round"/>
   <path d="m276.53 559.48 92.058-53.15v63.78l-92.058 53.15c-3.8032-22.182-2.3391-43.383 0-63.78z" color="#000000" fill="#dcdcdc" stroke="#e0e0e0" stroke-linecap="round" stroke-linejoin="round"/>
   <path d="m368.23 574.02v-70.866l239.35-138.19v70.866z" color="#000000" fill="#decd87" stroke="#decd87" stroke-linecap="round" stroke-linejoin="round"/>
   <path d="m374.22 506.62v57.094l227.23-131.44v-56.693z" color="#000000" fill="#6f2c00" filter="url(#aa)"/>
   <path d="m408.41 511.98c4.702-1.4021 9.4652-2.5651 14.165-3.9884 6.416-2.0546 12.862-4.0225 19.132-6.5014 2.8026-1.1079 5.5154-2.4376 8.3311-3.5118 1.5473-0.59034-5.9729 2.8568-4.5219 2.0585 3.3449-1.8403 6.807-3.4589 10.211-5.1884 23.299-12.101 44.651-27.435 65.56-43.204 2.7523-2.0718 5.5046-4.1436 8.2568-6.2153l14.389-4.4341c-2.9929 2.1438-5.9858 4.2875-8.9787 6.4313-14.397 10.475-28.852 20.83-43.798 30.514-3.6742 2.3807-7.337 4.7825-11.09 7.0378-3.342 2.0086-6.7914 3.8331-10.187 5.7497-3.2392 1.6992-6.4286 3.497-9.7176 5.0977-8.6259 4.1982-22.052 10.667-32.231 14.799-5.1249 2.0804-9.8689 3.7192-15.062 5.545-1.9664 0.6913-3.936 1.3737-5.9039 2.0605-5.4237 1.7942-10.923 3.3635-16.263 5.4005l17.708-11.651z" fill="#1a1a1a" filter="url(#ab)"/>
   <path d="m452.41 482.13c15.164-7.8628 30.841-14.812 46.309-22.013 16.049-6.7596 32.722-11.849 49.064-17.827 2.9524-1.1297 5.9346-2.1847 8.8574-3.3891 2.9072-1.1979 11.474-5.1496 8.6268-3.8154-20.043 9.3922-17.763 8.3473-8.3465 3.1973l24.873-7.2979c-17.578 9.4959-35.769 17.958-54.515 24.877-16.931 6.1311-34.158 11.561-50.547 19.084 37.023-17.235 12.862-6.144 4.4406-1.3882l-28.762 8.5723z" fill="#1a1a1a" filter="url(#ac)"/>
   <g transform="matrix(.16193 -.093491 .18698 .10795 -24.937 243.84)">
    <rect x="-129.09" y="1306.1" width="1400" height="920" fill="#ffd42a"/>
    <rect x="-89.087" y="1346.1" width="1320" height="840" fill="#666" stroke="#000" stroke-linecap="round" stroke-linejoin="round" stroke-width="5"/>
    <rect x="-69.087" y="1986.1" width="1280" height="180" fill="#c83737" stroke="#000" stroke-linecap="round" stroke-linejoin="round" stroke-width="5"/>
    <rect x="-69.087" y="1366.1" width="1280" height="180" fill="#c83737" stroke="#000" stroke-linecap="round" stroke-linejoin="round" stroke-width="5"/>
    <rect x="-69.087" y="1546.1" width="1280" height="440" fill="#ffd42a"/>
    <circle id="ak" cx="10.913" cy="1766.1" r="30" fill="#c83737" stroke="#000" stroke-linecap="round" stroke-linejoin="round" stroke-width="5"/>
    <use transform="translate(1120 -5.9219e-5)" width="100%" height="100%" xlink:href="#ak"/>
    <path id="ao" d="m-69.087 1496.1c426.67-133.31 870-130 1280 0l-65 150c-340-115-811.62-116.68-1150 0z" fill="#4d4d4d" stroke="#000" stroke-linecap="round" stroke-linejoin="round" stroke-width="5"/>
    <use transform="matrix(1 0 0 -1 0 3532.3)" width="100%" height="100%" fill="#333333" stroke="#000000" xlink:href="#ao"/>
    <g id="ad">
     <path d="m-69.087 1496.1 205-115 30 55z" fill="#ffd42a" fill-rule="evenodd" stroke="#000" stroke-width="5"/>
     <path d="m133.5 1397.5-143.98 78.895" fill="#ffd42a" fill-rule="evenodd" stroke="#000" stroke-width="3"/>
     <path d="m139.22 1407.3-108.42 58.048" fill="#ffd42a" fill-rule="evenodd" stroke="#000" stroke-width="3"/>
     <path d="m143.91 1415.3-72.999 39.286" fill="#ffd42a" fill-rule="evenodd" stroke="#000" stroke-width="3"/>
     <path d="m148.63 1423.4-40.421 21.223" fill="#ffd42a" fill-rule="evenodd" stroke="#000" stroke-width="3"/>
    </g>
    <use transform="matrix(-1 0 0 1 1141.8 0)" width="100%" height="100%" fill="#ffd42a" xlink:href="#ad"/>
    <g fill="#333">
     <g id="ae">
      <path id="al" d="m-69.087 1746.1 60-70-60-150z" fill="#4d4d4d" fill-rule="evenodd" stroke="#000" stroke-width="5"/>
      <use transform="matrix(1 0 0 -1 0 3532.3)" width="100%" height="100%" fill="#333333" xlink:href="#al"/>
     </g>
     <use transform="matrix(-1 0 0 1 1141.8 -1e-5)" width="100%" height="100%" fill="#333333" xlink:href="#ae"/>
    </g>
    <g transform="translate(0,-1e-5)">
     <path id="aj" d="m-69.087 2036.1 80-185-80-85 80-85-80-185v40l60 140-60 65v50l60 65-60 140z" fill="#c83737" fill-rule="evenodd" stroke="#000" stroke-width="5"/>
     <use transform="matrix(-1 0 0 1 1141.8 -1e-5)" width="100%" height="100%" stroke="#000000" stroke-width="5" xlink:href="#aj"/>
    </g>
    <g fill="#ffd42a" stroke="#000" stroke-width="3">
     <path d="m19.171 1507.9 67.029-19.317 5.4102 18.773-42.192 12.159 5.1685 17.935 39.676-11.434 5.4102 18.773-39.676 11.434 11.769 40.837-24.838 7.1579-27.758-96.318z"/>
     <path d="m109.51 1482.8 25.098-6.1817 23.972 97.329-25.098 6.1816-23.972-97.329z"/>
     <path d="m147.82 1472.8 25.476-5.1051 40.606 67.321 11.466-77.755 25.476-5.1051-16.709 105.58-30.216 6.055-56.099-90.989z"/>
     <path d="m265.54 1450.2 69.068-9.7814 2.7396 19.344-43.475 6.1569 2.6172 18.48 40.882-5.7898 2.7395 19.344-40.882 5.7898 3.2197 22.735 44.937-6.3641 2.7395 19.344-70.53 9.9885-14.055-99.248z"/>
     <path d="m475.96 1432.1 1.2626 21.178q-8.4632-3.1946-16.416-4.6037t-14.923-0.9935q-9.2487 0.5514-13.52 3.3618-4.2715 2.8105-3.9518 8.1721 0.23973 4.0211 3.3244 6.124 3.1477 2.0318 11.085 3.1728l11.123 1.5564q16.888 2.3561 24.332 8.7726 7.4446 6.4164 8.1958 19.016 0.98691 16.554-8.3815 25.251-9.3054 8.6257-29.478 9.8284-9.5168 0.5674-19.208-0.6708-9.6917-1.2381-19.487-4.2188l-1.2986-21.781q9.8875 4.5221 18.957 6.6045 9.1325 2.0113 17.443 1.5159 8.4445-0.5035 12.767-3.586 4.3225-3.0826 4.0108-8.3101-0.27969-4.6914-3.5144-7.0543-3.1677-2.367-12.402-3.8342l-10.118-1.6163q-15.204-2.3219-22.594-8.9434-7.3226-6.6255-8.0338-18.555-0.89102-14.945 8.2804-23.563 9.1714-8.6177 27.267-9.6965 8.2434-0.4914 17.032 0.2625 8.7845 0.6869 18.248 2.6113z"/>
     <path d="m492.57 1428 28.265-0.1089 22.965 35.63 22.689-35.806 28.332-0.1091-37.978 58.155 0.16273 42.23-25.848 0.1-0.16272-42.23-38.425-57.86z"/>
     <path d="m608.48 1427.9 32.838 1.9808 19.556 54.921 26.15-52.164 32.771 1.9766-6.0351 100.06-24.394-1.4714 4.4142-73.182-26.308 52.558-16.352-0.9863-19.8-55.339-4.4141 73.182-24.461-1.4755 6.0351-100.06z"/>
     <path d="m782.26 1481q6.0643 0.7427 9.5229-1.5394 3.4586-2.282 4.0952-7.48 0.62844-5.1313-2.1772-8.1806-2.7975-3.1158-8.8618-3.8585l-14.194-1.7384-2.5791 21.058 14.194 1.7385zm-4.4632 43.622q7.7303 0.9467 11.995-1.8453 4.3317-2.7839 5.1397-9.3813 0.79168-6.4642-2.6817-10.136-3.4652-3.7388-11.262-4.6937l-15.061-1.8445-3.1912 26.056 15.061 1.8446zm28.24-32.864q7.9696 3.4111 11.71 10.43 3.7399 7.0191 2.5891 16.416-1.7629 14.394-12.358 20.267-10.595 5.8723-30.454 3.4402l-42.583-5.2153 12.185-99.495 38.518 4.7174q20.725 2.5382 29.221 9.9369 8.5625 7.4069 6.8731 21.202-0.88961 7.2638-4.9167 11.979-4.019 4.6485-10.785 6.3225z"/>
     <path d="m894.22 1475.6q-11.639-2.0403-19.561 5.4321-7.9217 7.4724-10.658 23.079-2.7243 15.541 2.1833 25.262t16.546 11.762q11.705 2.0519 19.627-5.4205 7.9217-7.4725 10.646-23.013 2.7359-15.607-2.1717-25.328-4.9076-9.7215-16.613-11.773zm3.2344-18.45q23.807 4.1734 34.909 20.161 11.102 15.988 6.8943 39.993-4.1966 23.939-20.075 35.197t-39.686 7.0845q-23.741-4.1618-34.909-20.161-11.102-15.988-6.9059-39.927 4.2082-24.005 20.087-35.263 15.945-11.246 39.686-7.0845z"/>
     <path d="m967.15 1472.2 25.242 5.5648-17.374 78.808 44.321 9.771-4.2061 19.079-69.564-15.336 21.58-97.888z"/>
     <path d="m1118.8 1511.8-5.3044 20.542q-7.0725-5.64-14.208-9.4242-7.1358-3.7841-13.896-5.5299-8.9709-2.3164-13.899-0.9541-4.9283 1.3624-6.2712 6.5629-1.0072 3.9004 1.2824 6.8492 2.3714 2.9006 9.5742 6.4247l10.107 4.8981q15.347 7.4301 20.461 15.823 5.1135 8.3931 1.9577 20.614-4.1461 16.057-15.733 21.455-11.505 5.35-31.072 0.2974-9.2309-2.3836-18.074-6.5392-8.8427-4.1555-17.249-10.001l5.4555-21.127q8.0202 7.3409 16.011 12.109 8.073 4.7196 16.134 6.8011 8.1908 2.115 13.251 0.5094 5.0604-1.6056 6.3697-6.6761 1.175-4.5504-1.1774-7.7928-2.2874-3.2256-10.625-7.4587l-9.132-4.6464q-13.756-6.8804-18.754-15.452-4.9331-8.5546-1.9452-20.126 3.7433-14.496 15.118-19.88 11.375-5.3836 28.927-0.8514 7.9958 2.0647 16.128 5.482 8.1486 3.3523 16.563 8.0908z"/>
    </g>
    <g fill="#ffd42a" stroke="#000" stroke-width="3">
     <path d="m86.484 1962.4q-11.442-2.9517-19.928 3.8728-8.4862 6.8245-12.444 22.167-3.9412 15.277 0.1845 25.356 4.1257 10.078 15.568 13.03 11.507 2.9685 19.993-3.856 8.4862-6.8245 12.427-22.102 3.958-15.342-0.16773-25.421-4.1257-10.078-15.633-13.047zm4.6792-18.138q23.404 6.0376 33.211 22.851 9.8072 16.813 3.7193 40.412-6.0712 23.534-22.788 33.504-16.717 9.9708-40.121 3.9332-23.339-6.0209-33.211-22.851-9.8072-16.813-3.736-40.347 6.0879-23.599 22.805-33.57 16.782-9.954 40.121-3.9331z"/>
     <path d="m154.63 1961.6 68.362 13.882-3.888 19.147-43.03-8.738-3.7143 18.291 40.464 8.217-3.888 19.146-40.464-8.2169-8.4574 41.649-25.331-5.1439 19.948-98.233z"/>
     <path d="m317.55 2034.9q8.0596 1.019 11.902-1.5405 3.9092-2.551 4.7766-9.4117 0.85898-6.7941-2.3007-10.171-3.0931-3.3686-11.153-4.3876l-10.791-1.3643-3.2254 25.511 10.791 1.3643zm-13.031 16.354-4.758 37.634-25.644-3.2423 12.573-99.446 39.166 4.9517q19.649 2.4843 27.941 10.232 8.3582 7.7564 6.5561 22.011-1.2464 9.8581-6.8422 15.58-5.5292 5.7299-15.5 7.5146 5.1105 1.8643 8.7012 6.6493 3.6658 4.7269 6.8424 13.858l10.351 30.002-27.309-3.4528-8.9984-26.244q-2.7203-7.9233-6.1717-11.134-3.3848-3.2026-9.646-3.9942l-7.2603-0.9179z"/>
     <path d="m386.7 1998.2 69.561 5.2219-1.4625 19.482-43.786-3.2869-1.3972 18.612 41.174 3.0909-1.4625 19.482-41.174-3.0909-1.7188 22.897 45.258 3.3975-1.4625 19.482-71.034-5.3324 7.5036-99.957z"/>
     <path d="m475.87 2004.3 25.838 0.7462-2.3298 80.667 45.367 1.3102-0.56402 19.529-71.204-2.0564 2.8938-100.2z"/>
     <path d="m621.01 2087.2-40.412 0.6918-6.0647 18.368-25.979 0.4447 35.407-100.86 30.812-0.5275 38.838 99.588-25.979 0.4447-6.6227-18.151zm-34.286-18.013 27.456-0.47-14.377-39.64-13.079 40.11z"/>
     <path d="m637.77 2005 92.195-5.8944 1.2466 19.498-33.166 2.1204 5.149 80.536-25.796 1.6493-5.149-80.536-33.233 2.1247-1.2466-19.498z"/>
     <path d="m739.66 1997.7 25.722-2.5529 9.9001 99.748-25.722 2.5529-9.9001-99.748z"/>
     <path d="m775.18 1994.8 25.742-3.5246 36.377 69.696 16.238-76.9 25.742-3.5246-23.187 104.35-30.532 4.1803-50.382-94.275z"/>
     <path d="m888.66 1978.3 25.466-4.4311 17.184 98.754-25.466 4.4312-17.184-98.754z"/>
     <path d="m924.32 1972.5 90.459-18.757 3.9668 19.13-32.541 6.7476 16.385 79.02-25.31 5.2482-16.385-79.02-32.607 6.7612-3.9668-19.13z"/>
     <path d="m1010.1 1954.9 27.416-6.8774 30.832 29.09 13.45-40.198 27.481-6.8937-22.94 65.56 10.275 40.961-25.072 6.2893-10.275-40.961-51.168-46.97z"/>
    </g>
    <path d="m10.913 1616.1c390.65-129.8 754.45-104.61 1120 0" fill="none" stroke="#4d4d4d" stroke-width="1px"/>
    <path d="m-29.087 2016.1c404.91 125.29 804.5 114.82 1200 0" fill="none" stroke="#4d4d4d" stroke-width="1px"/>
    <g transform="translate(30.828 -36.96)" fill="#c83737" stroke="#000">
     <path d="m113.09 1698.1h126.83v35.522h-79.834v33.936h75.073v35.522h-75.073v41.748h82.52v35.522h-129.52v-182.25z" stroke-width="5"/>
     <path d="m287.53 1759.9h156.49v28.686h-156.49v-28.686zm0 55.542h156.49v28.931h-156.49v-28.931z" stroke-width="5"/>
     <path d="m618.21 1766.4q8.3008-12.695 19.653-19.287 11.475-6.7139 25.146-6.7139 23.56 0 35.889 14.526t12.329 42.236v83.252h-43.945v-71.289q0.12207-1.5869 0.12207-3.2959 0.12207-1.709 0.12207-4.8828 0-14.526-4.2725-20.996-4.2725-6.5918-13.794-6.5918-12.451 0-19.287 10.254-6.7139 10.254-6.958 29.663v67.139h-43.945v-71.289q0-22.705-3.9062-29.175-3.9062-6.5918-13.916-6.5918-12.573 0-19.409 10.376-6.8359 10.254-6.8359 29.419v67.261h-43.945v-136.72h43.945v20.02q8.0566-11.597 18.433-17.456 10.498-5.8594 23.071-5.8594 14.16 0 25.024 6.836 10.864 6.8359 16.479 19.165z" stroke-width="5"/>
     <path d="m862.72 1747.9v35.644q-8.9111-6.1035-17.944-9.0332-8.9111-2.9297-18.555-2.9297-18.311 0-28.564 10.742-10.132 10.62-10.132 29.785t10.132 29.907q10.254 10.62 28.564 10.62 10.254 0 19.409-3.0517 9.2773-3.0518 17.09-9.0332v35.767q-10.254 3.7841-20.874 5.6152-10.498 1.9531-21.118 1.9531-36.987 0-57.861-18.921-20.874-19.043-20.874-52.856t20.874-52.734q20.874-19.043 57.861-19.043 10.742 0 21.118 1.9532 10.498 1.831 20.874 5.6152z" stroke-width="5"/>
     <path d="m915.37 1739.9h34.454v14.841h-56.898v-14.841l28.58-25.224q3.8282-3.461 5.6636-6.7648t1.8354-6.8698q0-5.5062-3.7233-8.8624-3.6708-3.3562-9.8064-3.3562-4.7197 0-10.331 2.0451-5.6112 1.9927-12.009 5.9783v-17.201q6.8173-2.255 13.477-3.4087 6.66-1.2061 13.058-1.2061 14.054 0 21.815 6.188 7.8137 6.188 7.8137 17.253 0 6.3978-3.3038 11.956-3.3038 5.5063-13.897 14.788l-16.729 14.683z" baseline-shift="super" stroke-width="2.9833"/>
    </g>
   </g>
  </g>
 </g>
</svg>
