<?xml version="1.0" encoding="UTF-8" standalone="no"?>
<svg
   xmlns:dc="http://purl.org/dc/elements/1.1/"
   xmlns:cc="http://creativecommons.org/ns#"
   xmlns:rdf="http://www.w3.org/1999/02/22-rdf-syntax-ns#"
   xmlns:svg="http://www.w3.org/2000/svg"
   xmlns="http://www.w3.org/2000/svg"
   xmlns:xlink="http://www.w3.org/1999/xlink"
   xmlns:sodipodi="http://sodipodi.sourceforge.net/DTD/sodipodi-0.dtd"
   xmlns:inkscape="http://www.inkscape.org/namespaces/inkscape"
   viewBox="0 0 900 900"
   version="1.1"
   id="svg92"
   sodipodi:docname="axe.svg"
   width="900"
   height="900"
   inkscape:version="0.92.4 5da689c313, 2019-01-14">
  <metadata
     id="metadata96">
    <rdf:RDF>
      <cc:Work
         rdf:about="">
        <dc:format>image/svg+xml</dc:format>
        <dc:type
           rdf:resource="http://purl.org/dc/dcmitype/StillImage" />
        <dc:title></dc:title>
      </cc:Work>
    </rdf:RDF>
  </metadata>
  <sodipodi:namedview
     pagecolor="#ffffff"
     bordercolor="#666666"
     borderopacity="1"
     objecttolerance="10"
     gridtolerance="10"
     guidetolerance="10"
     inkscape:pageopacity="0"
     inkscape:pageshadow="2"
     inkscape:window-width="1920"
     inkscape:window-height="1032"
     id="namedview94"
     showgrid="false"
     inkscape:zoom="0.43683486"
     inkscape:cx="-19.295296"
     inkscape:cy="265.68407"
     inkscape:window-x="0"
     inkscape:window-y="0"
     inkscape:window-maximized="1"
     inkscape:current-layer="svg92" />
  <defs
     id="defs48">
    <filter
       id="n">
      <feGaussianBlur
         stdDeviation="3.0096"
         id="feGaussianBlur2" />
    </filter>
    <filter
       id="m"
       x="-0.04084"
       y="-0.11302"
       width="1.0817"
       height="1.226">
      <feGaussianBlur
         stdDeviation="19.6777"
         id="feGaussianBlur5" />
    </filter>
    <linearGradient
       id="b">
      <stop
         stop-color="#fff"
         offset="0"
         id="stop8" />
      <stop
         stop-color="#fff"
         stop-opacity="0"
         offset="1"
         id="stop10" />
    </linearGradient>
    <linearGradient
       id="a">
      <stop
         offset="0"
         id="stop13" />
      <stop
         stop-opacity="0"
         offset="1"
         id="stop15" />
    </linearGradient>
    <linearGradient
       id="l"
       x2="0"
       y1="1383.8"
       y2="1298.1"
       gradientUnits="userSpaceOnUse">
      <stop
         stop-color="#786721"
         offset="0"
         id="stop18" />
      <stop
         stop-color="#786721"
         stop-opacity="0"
         offset="1"
         id="stop20" />
    </linearGradient>
    <linearGradient
       id="k"
       x1="491.42999"
       x2="490"
       y1="1233.8"
       y2="1319.5"
       gradientUnits="userSpaceOnUse">
      <stop
         stop-color="#f4eed7"
         offset="0"
         id="stop23" />
      <stop
         stop-color="#f4eed7"
         stop-opacity="0"
         offset="1"
         id="stop25" />
    </linearGradient>
    <linearGradient
       id="j"
       x1="-117.14"
       x2="10.714"
       y1="1321.6"
       y2="1327.4"
       gradientUnits="userSpaceOnUse">
      <stop
         stop-color="#540"
         offset="0"
         id="stop28" />
      <stop
         stop-color="#540"
         stop-opacity="0"
         offset="1"
         id="stop30" />
    </linearGradient>
    <linearGradient
       id="i"
       x1="95.375"
       x2="146.22"
       y1="772.37"
       y2="771.06"
       gradientUnits="userSpaceOnUse"
       xlink:href="#a" />
    <linearGradient
       id="h"
       x2="0"
       y1="655.83002"
       y2="744.32001"
       gradientUnits="userSpaceOnUse"
       xlink:href="#b" />
    <linearGradient
       id="g"
       x1="232.25"
       x2="212.05"
       y1="1044.2"
       y2="905.34003"
       gradientUnits="userSpaceOnUse"
       xlink:href="#b" />
    <linearGradient
       id="f"
       x1="174.89999"
       x2="176.85001"
       y1="789.31"
       y2="743.03998"
       gradientUnits="userSpaceOnUse"
       xlink:href="#a" />
    <linearGradient
       id="e"
       x1="161.86"
       x2="168.38"
       y1="776.92999"
       y2="872.09003"
       gradientUnits="userSpaceOnUse"
       xlink:href="#a" />
    <radialGradient
       id="d"
       cx="-86.209999"
       cy="1315"
       r="15.714"
       gradientTransform="matrix(0.99911,-0.05631,0.1344,4.2515,-176.82,-4283.4)"
       gradientUnits="userSpaceOnUse">
      <stop
         stop-color="#a0892c"
         offset="0"
         id="stop38" />
      <stop
         stop-color="#a0892c"
         stop-opacity="0"
         offset="1"
         id="stop40" />
    </radialGradient>
    <radialGradient
       id="c"
       cx="-95.713997"
       cy="1316.6"
       r="15.714"
       gradientTransform="matrix(1,0,0,2.6364,0,-2154.5)"
       gradientUnits="userSpaceOnUse">
      <stop
         stop-color="#333"
         offset="0"
         id="stop43" />
      <stop
         stop-color="#333"
         stop-opacity="0"
         offset="1"
         id="stop45" />
    </radialGradient>
  </defs>
  <g
     transform="rotate(-33.650415,-72.101087,633.15976)"
     id="g90">
    <path
       transform="matrix(0.64526,0,0,0.61694,163.16,-87.992)"
       d="m -5.339,1304.2397 c -23.15232,0.098 -46.75018,2.4145 -70.46875,5.3438 -0.79161,0.098 -1.58312,0.182 -2.375,0.2812 -4.34089,0.9516 -8.68822,2.2494 -13.03125,4.25 h -0.03125 c -11.43377,2.5741 -12.04479,4.1562 -24.09375,21.4688 0.0242,0.5605 0.0384,1.0351 0.0625,1.5937 -8.03149,1.845 -14.34375,19.5974 -14.34375,41.25 0,22.8804 7.03999,41.4375 15.71875,41.4375 0.7483,0 1.49835,-0.1396 2.21875,-0.4062 0.14999,3.5166 0.3261,7.4128 0.46875,10.8437 0.19075,4.5983 0.38612,9.2957 0.5625,13.75 0.0391,0.9873 0.0867,2.0509 0.125,3.0313 0.20221,5.1746 0.38324,10.3239 0.5625,15.3124 0.006,0.1551 0.0257,0.3139 0.0312,0.4688 0.63574,17.7485 1.10701,34.3495 1.375,50.125 0.0125,0.7339 0.0197,1.4572 0.0312,2.1875 0.0717,4.5419 0.12218,9.0575 0.15625,13.4687 0.0344,4.4542 0.0695,8.8832 0.0625,13.2188 -0.001,0.638 0.002,1.3019 0,1.9375 -0.001,0.3663 0.001,0.7283 0,1.0937 -5.7e-4,0.1442 6.3e-4,0.2935 0,0.4376 -0.0192,4.4407 -0.0891,8.821 -0.15625,13.1562 -0.0318,2.0455 -0.0508,4.1004 -0.0937,6.125 -0.008,0.363 -0.0232,0.7314 -0.0312,1.0938 -0.002,0.093 0.002,0.1878 0,0.2812 -0.0201,0.8906 -0.0402,1.7694 -0.0625,2.6562 -0.0353,1.4032 -0.0841,2.8245 -0.125,4.2188 -9.1e-4,0.031 9.2e-4,0.063 0,0.094 -0.009,0.2898 -0.0225,0.5855 -0.0312,0.875 -0.002,0.062 0.002,0.1254 0,0.1874 -0.0603,1.9727 -0.11538,3.9184 -0.1875,5.875 -0.0207,0.5603 -0.0409,1.1286 -0.0625,1.6876 -0.004,0.1144 -0.0268,0.2293 -0.0312,0.3437 -0.0648,1.6577 -0.14513,3.3211 -0.21875,4.9687 -0.0349,0.7805 -0.0568,1.5654 -0.0937,2.3438 -0.043,0.9073 -0.0792,1.8142 -0.125,2.7188 -0.009,0.1762 -0.0222,0.3551 -0.0312,0.5312 -0.0229,0.4469 -0.0389,0.8975 -0.0625,1.3438 -0.0105,0.1984 -0.0206,0.3954 -0.0312,0.5937 -0.005,0.084 -0.0267,0.1663 -0.0312,0.25 -0.10876,2.0203 -0.22068,4.0534 -0.34375,6.0625 -0.0742,1.2102 -0.13922,2.4183 -0.21875,3.625 -0.0707,1.0737 -0.14381,2.1475 -0.21875,3.2188 -0.0299,0.4274 -0.0631,0.8541 -0.0937,1.2812 -0.0417,0.5819 -0.082,1.1688 -0.125,1.75 -0.42919,5.8075 -0.93801,11.5726 -1.5,17.3438 -0.20415,2.0952 -0.40248,4.1864 -0.625,6.2812 -0.0111,0.1041 -0.0201,0.2084 -0.0312,0.3125 -0.24737,2.3209 -0.51074,4.6455 -0.78125,6.9687 -0.47957,4.1168 -1.00768,8.237 -1.5625,12.375 -0.0544,0.4062 -0.10106,0.8123 -0.15625,1.2188 -0.0127,0.094 -0.0185,0.1873 -0.0312,0.2812 -0.91614,6.7286 -1.93484,13.4951 -3.0625,20.3438 -0.063,0.3827 -0.1238,0.773 -0.1875,1.1562 -0.3214,1.9335 -0.66098,3.8654 -1,5.8126 -0.002,0.01 0.002,0.021 0,0.031 0.0917,0.085 0.18928,0.165 0.28125,0.25 -0.004,0.024 -0.027,0.039 -0.0312,0.062 0.64397,0.6153 1.2797,1.2131 1.9375,1.8125 5.2714,4.8069 10.9657,9.0968 17.0625,12.9062 9.88709,6.1777 20.77189,11.0766 32.4375,14.8126 h 0.03125 l 1.625,0.5 c 3.07096,0.9496 6.1735,1.8321 9.34375,2.625 5.59165,1.3983 11.32432,2.5408 17.1875,3.4687 9.77192,1.5466 19.90052,2.4596 30.25,2.7813 2.0699,0.064 4.13104,0.1072 6.21875,0.125 8.35079,0.071 16.8413,-0.2341 25.40625,-0.875 2.14125,-0.1603 4.28728,-0.3286 6.4375,-0.5313 10.75103,-1.0134 21.59477,-2.5489 32.4375,-4.5625 4.33711,-0.8055 8.67295,-1.7022 13,-2.6562 8.65405,-1.9081 17.2835,-4.0995 25.8125,-6.5626 2.13226,-0.6157 4.25497,-1.2578 6.375,-1.9062 10.59071,-3.2392 21.03425,-6.8822 31.1875,-10.875 16.25887,-6.3952 31.817,-13.7001 46.21875,-21.6875 5.40064,-2.9953 10.66672,-6.0713 15.71875,-9.25 3.36803,-2.1191 6.64833,-4.2763 9.84375,-6.4687 3.19542,-2.1924 6.30383,-4.4283 9.3125,-6.6876 7.01397,-5.2669 13.47261,-10.7104 19.34375,-16.2812 l 1.125,-1 h 0.0312 c 0.005,0 -0.005,-0.027 0,-0.031 l -0.0625,-0.031 c 0.0473,-0.046 0.10903,-0.079 0.15625,-0.125 h 0.0312 c 0.005,0 -0.005,-0.026 0,-0.031 -1.8773,-0.6826 -3.76265,-1.335 -5.625,-1.9687 -1.28695,-0.4384 -2.56339,-0.8621 -3.84375,-1.2813 l -1.75,-0.5624 c -1.48243,-0.4774 -2.96355,-0.9489 -4.4375,-1.4063 l -0.125,-0.031 -1,-0.3124 c -1.40561,-0.4328 -2.7893,-0.8617 -4.1875,-1.2813 h -0.0312 c -8.81311,-2.6445 -17.47613,-5.0839 -26.03125,-7.7813 -0.76199,-0.2401 -1.52183,-0.4747 -2.28125,-0.7187 -0.5115,-0.1648 -1.02054,-0.3328 -1.53125,-0.5 -1.02465,-0.334 -2.04376,-0.6883 -3.0625,-1.0313 l -2.375,-0.8124 c -1.15901,-0.4011 -2.31957,-0.803 -3.46875,-1.2188 -7.09533,-2.5962 -14.11726,-5.5664 -21.09375,-9.1875 -0.86448,-0.4487 -1.73077,-0.9055 -2.59375,-1.375 -0.86298,-0.4695 -1.70095,-0.9461 -2.5625,-1.4375 h -0.0312 c -4.20546,-2.4862 -8.25631,-5.2274 -12.0625,-8.3125 -0.76804,-0.6225 -1.50043,-1.2561 -2.25,-1.9063 -6.75355,-5.8555 -12.73492,-12.8493 -17.6875,-21.4062 -0.54537,-0.942 -1.10511,-1.8948 -1.625,-2.875 -0.004,-0.01 0.004,-0.023 0,-0.031 -0.52397,-0.9886 -1.03393,-1.9715 -1.53125,-3 -1.49623,-3.0936 -2.85221,-6.3683 -4.09375,-9.8438 -0.40961,-1.146 -0.80705,-2.3102 -1.1875,-3.5 -0.003,-0.01 0.003,-0.022 0,-0.031 -0.76652,-2.3994 -1.48147,-4.885 -2.125,-7.4688 -0.32185,-1.2918 -0.61627,-2.5979 -0.90625,-3.9375 -0.57774,-2.6698 -1.11573,-5.4462 -1.5625,-8.3125 -0.002,-0.01 0.002,-0.021 0,-0.031 -0.44789,-2.8773 -0.81499,-5.8535 -1.125,-8.9376 -0.62112,-6.1769 -0.96796,-12.752 -1,-19.8124 -0.0164,-3.5245 0.0482,-7.1482 0.1875,-10.9063 l -55.71875,2.8437 c -2.01896,0.7414 -3.98279,1.3593 -5.90625,1.8438 l -0.25,0.062 c -1.28154,0.3163 -2.54459,0.5727 -3.78125,0.7813 l -0.125,0.031 -0.25,0.031 c -1.89989,0.3048 -3.74373,0.4658 -5.53125,0.5313 -0.77001,0.028 -1.53294,0.045 -2.28125,0.031 H 31.849 l -0.6875,-0.031 -0.4375,-0.031 c -0.56872,-0.032 -1.13233,-0.069 -1.6875,-0.125 -0.69974,-0.071 -1.3847,-0.1429 -2.0625,-0.25 -0.56458,-0.089 -1.1072,-0.1993 -1.65625,-0.3124 -0.46413,-0.096 -0.92215,-0.1998 -1.375,-0.3126 -0.94632,-0.235 -1.88529,-0.507 -2.78125,-0.8124 l -0.125,-0.031 c -0.56463,-0.1949 -1.11225,-0.4036 -1.65625,-0.625 -0.35996,-0.1468 -0.71171,-0.3108 -1.0625,-0.4687 -0.22567,-0.1014 -0.43441,-0.2067 -0.65625,-0.3126 -0.61747,-0.2949 -1.22513,-0.6087 -1.8125,-0.9374 -0.44249,-0.2475 -0.85617,-0.4844 -1.28125,-0.75 l -0.4375,-0.2813 c -0.40231,-0.2607 -0.80156,-0.536 -1.1875,-0.8125 -0.58239,-0.4171 -1.14302,-0.8303 -1.6875,-1.2812 -0.35974,-0.2983 -0.71965,-0.6254 -1.0625,-0.9376 -0.32134,-0.2924 -0.63117,-0.5709 -0.9375,-0.875 l -0.1875,-0.1874 c -0.11927,-0.1206 -0.22683,-0.2528 -0.34375,-0.375 -0.22795,-0.2383 -0.46855,-0.4743 -0.6875,-0.7188 -0.14705,-0.1643 -0.29454,-0.333 -0.4375,-0.5 -0.32012,-0.3739 -0.60689,-0.7692 -0.90625,-1.1562 -0.01777,-0.023 -0.04481,-0.04 -0.0625,-0.063 -0.33188,-0.4317 -0.66302,-0.8657 -0.96875,-1.3124 -0.12945,-0.189 -0.25028,-0.371 -0.375,-0.5626 -0.09965,-0.1531 -0.18465,-0.3139 -0.28125,-0.4687 -0.12548,-0.2009 -0.25468,-0.3903 -0.375,-0.5937 -0.24287,-0.4104 -0.46587,-0.83 -0.6875,-1.25 -0.43311,-0.8217 -0.83719,-1.6774 -1.1875,-2.5313 -0.03394,-0.083 -0.0606,-0.1669 -0.09375,-0.25 -0.07143,-0.1788 -0.151,-0.3512 -0.21875,-0.5313 -0.11256,-0.2996 -0.2102,-0.6034 -0.3125,-0.9062 -0.06798,-0.2008 -0.15532,-0.3916 -0.21875,-0.5938 -0.14344,-0.4576 -0.25509,-0.9427 -0.375,-1.4062 -0.10137,-0.3928 -0.19697,-0.7911 -0.28125,-1.1875 -0.01782,-0.084 -0.04545,-0.1658 -0.0625,-0.25 -0.02703,-0.1331 -0.03741,-0.2728 -0.0625,-0.4063 -0.0851,-0.4542 -0.18756,-0.9172 -0.25,-1.375 -0.2357,-1.7161 -0.31062,-3.4498 -0.21875,-5.1874 0.01625,-0.3023 0.06733,-0.6042 0.09375,-0.9063 0.0227,-0.2615 0.03213,-0.52 0.0625,-0.7813 0.05473,-0.4689 0.13905,-0.9388 0.21875,-1.4062 0.20241,-1.1889 0.47659,-2.3932 0.84375,-3.5625 0.10924,-0.3462 0.25103,-0.6875 0.375,-1.0313 0.03673,-0.1022 0.05571,-0.2104 0.09375,-0.3124 l 0.03125,-0.094 c 0.14337,-0.3802 0.30703,-0.7485 0.46875,-1.125 0.29338,-0.6801 0.61466,-1.3658 0.96875,-2.0312 l 0.125,-0.2188 c 0.11963,-0.22 0.24861,-0.4381 0.375,-0.6562 0.13743,-0.2377 0.26076,-0.4835 0.40625,-0.7188 0.27656,-0.4464 0.56917,-0.8752 0.875,-1.3125 0.09412,-0.1348 0.18433,-0.2724 0.28125,-0.4063 0.27388,-0.3778 0.57866,-0.7549 0.875,-1.125 0.04674,-0.058 0.0777,-0.1293 0.125,-0.1874 0.23975,-0.2949 0.49575,-0.5857 0.75,-0.875 0.18484,-0.2103 0.36995,-0.4178 0.5625,-0.625 0.7017,-0.7558 1.44457,-1.4758 2.25,-2.1876 0.31384,-0.2774 0.63894,-0.5423 0.96875,-0.8124 0.07408,-0.061 0.14386,-0.1273 0.21875,-0.1876 0.36664,-0.2951 0.73887,-0.5891 1.125,-0.875 0.45727,-0.3384 0.92141,-0.6753 1.40625,-1 l 0.09375,-0.062 c 0.29876,-0.1988 0.62826,-0.3693 0.9375,-0.5626 0.29324,-0.1832 0.57228,-0.3843 0.875,-0.5624 2.39322,-1.409 5.09382,-2.6705 8.09375,-3.7188 0.68016,-0.2373 1.38159,-0.44 2.09375,-0.6562 2.60819,-0.7929 5.45339,-1.4543 8.5,-1.9376 0.36082,-0.057 0.72667,-0.1039 1.09375,-0.1562 0.40385,-0.058 0.80729,-0.1042 1.21875,-0.1562 0.59102,-0.074 1.17444,-0.1565 1.78125,-0.2188 1.91121,-0.197 3.89892,-0.3358 5.96875,-0.4062 1.01889,-0.035 2.03588,-0.06 3.09375,-0.063 h 0.59375 c 1.08101,0 2.19091,0.024 3.3125,0.063 1.96613,-4.5281 3.6826,-8.9691 5.1875,-13.3438 l 956.25005,-22.375 c 11.3667,-22.8571 24.2263,-45.7054 -1.4375,-68.5625 l -946.43755,-5.5 c -0.04271,-0.7279 -0.08267,-1.4595 -0.125,-2.1875 -0.06936,-1.1966 -0.12048,-2.3964 -0.1875,-3.5938 -0.1359,-2.4249 -0.29072,-4.8495 -0.40625,-7.2812 -5e-4,-0.01 5e-4,-0.021 0,-0.031 -9.89442,-2.7672 -19.95155,-4.7439 -30.125,-6.0938 h -0.03125 c -5.81938,-0.7714 -11.66513,-1.3357 -17.5625,-1.7188 -1.47484,-0.096 -2.95823,-0.1761 -4.4375,-0.25 -5.91535,-0.2945 -11.86249,-0.4316 -17.84375,-0.4062 z"
       id="path50"
       inkscape:connector-curvature="0"
       style="filter:url(#m)" />
    <g
       transform="matrix(0.64526,0,0,0.64526,173.59,-101.57)"
       id="g58">
      <path
         d="m 54.286,1358.1 977.14,-22.857 c 11.367,-22.857 24.235,-45.714 -1.4286,-68.571 l -981.43,-5.7143 z"
         id="path52"
         inkscape:connector-curvature="0"
         style="fill:#e9ddaf" />
      <path
         d="m 54.286,1358.1 977.14,-22.857 c 11.367,-22.857 24.235,-45.714 -1.4286,-68.571 l -981.43,-5.7143 z"
         id="path54"
         inkscape:connector-curvature="0"
         style="fill:url(#l)" />
      <path
         d="m 54.286,1358.1 977.14,-22.857 c 11.367,-22.857 24.235,-45.714 -1.4286,-68.571 l -981.43,-5.7143 z"
         id="path56"
         inkscape:connector-curvature="0"
         style="fill:url(#k)" />
    </g>
    <path
       d="m 227.06,703.76 c 1.1927,25.106 4.6517,49.456 -8.2962,79.275 -50.249,-1.7134 -37.088,51.074 -0.92179,37.794 l 35.95,-1.8436 c -2.8768,77.598 46.68,76.546 85.727,91.258 -54.287,49.428 -177.03,82.774 -231.37,32.263 11.077,-63.618 7.4582,-115.2 2.7654,-224 7.9889,-11.479 15.978,-14.841 23.967,-16.592 31.642,-3.9603 62.964,-6.327 92.18,1.8436 z"
       id="path60"
       inkscape:connector-curvature="0"
       style="fill:#4d4d4d" />
    <path
       d="m 227.05,703.75 c 0.14909,3.1382 0.34059,6.2695 0.52427,9.3966 -0.18344,-3.1267 -0.37518,-6.2584 -0.52427,-9.3966 z m 1.0284,18.793 c 0.18156,3.9252 0.30927,7.8684 0.30246,11.857 0.007,-3.9873 -0.1214,-7.9321 -0.30246,-11.857 z m 0.22181,16.656 c -0.0488,1.6107 -0.11774,3.2306 -0.22181,4.8596 0.10434,-1.6287 0.1727,-3.2493 0.22181,-4.8596 z m -12.058,43.797 c -0.67412,0 -1.3467,0.0181 -1.9963,0.04 0.65744,-0.0226 1.3137,-0.0387 1.9963,-0.04 z m -102.31,5.5048 c 2.5532,64.476 2.6033,105.81 -5.7872,153.99 54.339,50.511 177.1,17.165 231.39,-32.263 -39.047,-14.712 -88.615,-13.645 -85.739,-91.244 l -35.953,1.835 c -27.792,10.205 -41.991,-18.588 -24.278,-31.698 -26.553,1.8798 -53.136,2.5856 -79.629,-0.62513 z"
       id="path62"
       inkscape:connector-curvature="0"
       style="fill:url(#e)" />
    <path
       d="m 181.88,698.29 c -15.438,0.0654 -39.004,4.2566 -54.825,6.2368 -7.9889,1.7512 -8.1648,2.5091 -16.154,13.988 1.1381,26.385 2.2072,49.348 3.0246,69.99 26.493,3.2106 53.076,2.5049 79.629,0.62513 5.3373,-3.9505 13.57,-6.4863 25.205,-6.0896 12.948,-29.819 9.4802,-54.181 8.2875,-79.286 -14.608,-4.0853 -29.73,-5.5299 -45.168,-5.4645 z"
       id="path64"
       inkscape:connector-curvature="0"
       style="fill:url(#f)" />
    <path
       transform="matrix(0.62696,0,0,0.62391,173.33,-68.971)"
       d="m 166.59,1534.1 c -77.955,31.52 -161.26,48.243 -259.97,22.375 -1.7926,20.389 -4.3998,40.589 -8.0625,61.625 84.213,78.281 274.46,26.602 358.59,-50 -30.163,-11.365 -64.382,-16.66 -90.562,-34 z"
       id="path66"
       inkscape:connector-curvature="0"
       style="fill:#1a1a1a;filter:url(#n)" />
    <path
       d="m 284.1,890.17 c -50.301,19.629 -107.07,32.732 -170.76,16.623 -1.1567,12.697 -2.676,22.832 -5.0394,35.933 53.187,50.824 180.1,16.904 231.3,-32.604 -19.463,-7.0774 -37.714,-9.805 -55.503,-19.951 z"
       id="path68"
       inkscape:connector-curvature="0"
       style="fill:#cccccc" />
    <path
       d="m 284.1,890.17 c -50.301,19.629 -107.07,32.732 -170.76,16.623 -1.1567,12.697 -2.676,22.832 -5.0394,35.933 53.187,50.824 180.1,16.904 231.3,-32.604 -19.463,-7.0774 -37.714,-9.805 -55.503,-19.951 z"
       id="path70"
       inkscape:connector-curvature="0"
       style="fill:#cccccc" />
    <path
       d="m 326.07,905.7 c -65.311,44.043 -152.8,56.132 -216.32,28.734 -0.44476,2.6632 -0.92993,5.3946 -1.4518,8.2875 53.187,50.824 180.1,16.903 231.3,-32.606 -4.5752,-1.6637 -9.0792,-3.0801 -13.53,-4.416 z"
       id="path72"
       inkscape:connector-curvature="0"
       style="fill:url(#g)" />
    <path
       d="m 181.88,698.29 c -15.438,0.0654 -39.006,4.2506 -54.827,6.2307 -7.9889,1.7512 -8.1627,2.5152 -16.152,13.994 0.10812,2.5066 0.19575,4.6117 0.30247,7.0575 43.028,13.255 82.439,15.887 117.15,6.4122 -0.10233,-9.5253 -0.86373,-18.822 -1.3107,-28.23 -14.608,-4.0853 -29.73,-5.5299 -45.168,-5.4645 z"
       id="path74"
       inkscape:connector-curvature="0"
       style="fill:url(#h)" />
    <path
       d="m 136.41,701.74 -1.5325,0.18151 c -7.9889,1.7512 -15.986,5.1163 -23.975,16.595 3.9067,90.572 7.0743,141.49 1.6333,192.71 3.769,-18.114 7.2316,-37.997 5.7468,-87.634 l 18.43,-120.74 -0.30246,-1.109 z"
       id="path76"
       inkscape:connector-curvature="0"
       style="fill:#1a1a1a" />
    <path
       d="m 136.41,701.74 -1.5325,0.18151 c -7.9889,1.7512 -15.986,5.1163 -23.975,16.595 3.9067,90.572 7.0743,141.49 1.6333,192.71 3.769,-18.114 7.2316,-37.997 5.7468,-87.634 l 18.43,-120.74 -0.30246,-1.109 z"
       id="path78"
       inkscape:connector-curvature="0"
       style="fill:url(#i)" />
    <path
       transform="matrix(0.87289,0,0,0.65372,199.07,-115.02)"
       d="m -80,1316.6 a 15.714,41.429 0 1 1 -0.39554,-9.2365"
       id="path80"
       inkscape:connector-curvature="0"
       style="fill:#c8ab37" />
    <path
       transform="matrix(0.87289,0,0,0.65372,199.07,-115.02)"
       d="m -80,1316.6 a 15.714,41.429 0 1 1 -0.39554,-9.2365"
       id="path82"
       inkscape:connector-curvature="0"
       style="fill:url(#d)" />
    <path
       transform="matrix(0.64526,0,0,0.64526,173.59,-103.41)"
       d="m -80,1316.6 a 15.714,41.429 0 1 1 -0.39554,-9.2365"
       id="path84"
       inkscape:connector-curvature="0"
       style="fill:#e9ddaf" />
    <path
       transform="matrix(0.64526,0,0,0.64526,173.59,-103.41)"
       d="m -80,1316.6 a 15.714,41.429 0 1 1 -0.39554,-9.2365"
       id="path86"
       inkscape:connector-curvature="0"
       style="opacity:0.39770005;fill:url(#c)" />
    <path
       transform="matrix(0.64526,0,0,0.64526,173.59,-103.41)"
       d="m -80,1316.6 a 15.714,41.429 0 1 1 -0.39554,-9.2365"
       id="path88"
       inkscape:connector-curvature="0"
       style="opacity:0.39770005;fill:url(#j)" />
  </g>
</svg>
