<?xml version="1.0" encoding="UTF-8"?>
<svg viewBox="0 0 234.39435 368.405" xmlns="http://www.w3.org/2000/svg" xmlns:xlink="http://www.w3.org/1999/xlink">
 <defs>
  <linearGradient id="c">
   <stop stop-color="#216778" stop-opacity="0" offset="0"/>
   <stop stop-color="#216778" offset=".5"/>
   <stop stop-color="#216778" stop-opacity="0" offset="1"/>
  </linearGradient>
  <linearGradient id="a">
   <stop stop-color="#9bcbc1" offset="0"/>
   <stop stop-color="#87decd" stop-opacity="0" offset="1"/>
  </linearGradient>
  <linearGradient id="d">
   <stop stop-color="#045" offset="0"/>
   <stop stop-color="#045" stop-opacity="0" offset="1"/>
  </linearGradient>
  <linearGradient id="b">
   <stop stop-color="#64a5a8" stop-opacity="0" offset="0"/>
   <stop stop-color="#64a5a8" stop-opacity=".5882" offset=".3681"/>
   <stop stop-color="#64a5a8" stop-opacity=".5882" offset=".6825"/>
   <stop stop-color="#64a5a8" stop-opacity="0" offset="1"/>
  </linearGradient>
  <linearGradient id="e">
   <stop stop-color="#bcdcd5" offset="0"/>
   <stop stop-color="#afe9dd" stop-opacity="0" offset="1"/>
  </linearGradient>
  <linearGradient id="t" x1="317.34" x2="314.18" y1="135.05" y2="145.11" gradientUnits="userSpaceOnUse">
   <stop stop-color="#bcdcd5" offset="0"/>
   <stop stop-color="#5fd3bc" stop-opacity="0" offset="1"/>
  </linearGradient>
  <linearGradient id="h" x1="227.61" x2="226.05" y1="224.35" y2="244.42" gradientUnits="userSpaceOnUse">
   <stop stop-color="#216778" stop-opacity=".9922" offset="0"/>
   <stop stop-color="#164450" stop-opacity=".9922" offset="1"/>
  </linearGradient>
  <linearGradient id="s" x1="362.04" x2="360.2" y1="219.03" y2="257.7" gradientUnits="userSpaceOnUse" xlink:href="#e"/>
  <linearGradient id="r" x1="312.58" x2="258.11" y1="176.6" y2="176.7" gradientUnits="userSpaceOnUse" xlink:href="#b"/>
  <linearGradient id="q" x1="251.39" x2="262.3" y1="494.24" y2="464.62" gradientUnits="userSpaceOnUse" xlink:href="#d"/>
  <linearGradient id="p" x1="302.1" x2="292.06" y1="484.87" y2="461.87" gradientUnits="userSpaceOnUse" xlink:href="#d"/>
  <linearGradient id="o" x1="292.7" x2="227.22" y1="369.14" y2="370.7" gradientUnits="userSpaceOnUse" xlink:href="#b"/>
  <linearGradient id="n" x1="301.36" x2="289.79" y1="172.67" y2="172.95" gradientUnits="userSpaceOnUse" xlink:href="#c"/>
  <linearGradient id="m" x1="270.22" x2="258.64" y1="171.08" y2="171.36" gradientUnits="userSpaceOnUse" xlink:href="#c"/>
  <linearGradient id="l" x1="221.48" x2="230.65" y1="226.69" y2="204.48" gradientUnits="userSpaceOnUse" xlink:href="#b"/>
  <linearGradient id="k" x1="328.25" x2="319.71" y1="162.76" y2="162.66" gradientUnits="userSpaceOnUse" xlink:href="#a"/>
  <linearGradient id="j" x1="286.18" x2="298.84" y1="162.83" y2="162.92" gradientUnits="userSpaceOnUse" xlink:href="#a"/>
  <linearGradient id="i" x1="277.36" x2="262.46" y1="162.89" y2="162.44" gradientUnits="userSpaceOnUse" xlink:href="#a"/>
  <radialGradient id="g" cx="229.57" cy="203.38" r="117.2" gradientTransform="matrix(.06502 .63296 -.95402 .098 421.62 73.023)" gradientUnits="userSpaceOnUse" xlink:href="#a"/>
  <radialGradient id="f" cx="270.49" cy="122.99" r="41.891" gradientTransform="matrix(1.5088 -.05253 .01019 .29265 -137.64 113.41)" gradientUnits="userSpaceOnUse" xlink:href="#e"/>
 </defs>
 <g transform="translate(-171.35 -131.06)" opacity=".9922">
  <path d="m261.81 195.82v19.843l-45.748 9.3702c-12.126 1.1024-46.3 17.087-44.646 36.929s13.78 170.32 15.984 176.93 15.984 25.355 25.906 33.071 31.694 22.28 35.638 24.252c4.9607 2.4803 19.205 2.7559 23.063 1.6536s87.363-42.992 97.835-51.26 22.874-21.221 23.701-31.142c0.36619-4.3942 11.575-161.77 12.126-167.28 1.1024-11.024-14.331-25.906-44.646-33.071-17.693-4.182-36.929-7.1654-36.929-7.1654l0.55119-13.228z" fill="#216778"/>
  <path d="m280.56 202.44-18.75 8.9375v4.2812l-45.75 9.375c-12.126 1.1024-46.31 17.095-44.656 36.938 0.29963 3.5956 1.2277 14.897 2.0938 25.438l6.8132 12.391c4.2823 7.7879 72.905 16.685 83.157 13.983l140.06-36.905c1.161-15.975 2.0164-27.289 2.1562-28.688 1.1024-11.024-14.341-25.897-44.656-33.062-17.693-4.182-36.938-7.1875-36.938-7.1875l0.15625-4.0312z" fill="url(#g)" opacity=".5"/>
  <path d="m322.16 217.88 4.9688 3.0312-41.344 62.562 119.41-28.906c0.2172-2.879 0.4489-5.864 0.5-6.375 1.1024-11.024-14.341-25.897-44.656-33.062-17.693-4.182-36.938-7.1875-36.938-7.1875-4.9948-2.7184-2.1513 7.1825-1.9375 9.9375z" fill="url(#s)"/>
  <path d="m250.51 138.77v3.495c-0.82678 0.1378-1.5158 1.4656-1.5158 3.946v59.39s16.673 11.713 47.54 8.9568 39.134-8.819 39.134-8.819l1.2667-58.956c0.0397-1.8498 0.21079-3.879-2.1152-4.8436l-0.25381-2.067c-0.42465-3.4583-3.3071-6.3386-8.2678-6.8898s-21.293-1.9501-31.969-1.9291c-12.888 0.0253-35.827 1.378-38.583 2.4803s-5.2492 2.4258-5.2363 5.2363z" fill="#216778"/>
  <path d="m294.34 131.06c-12.888 0.0253-35.838 1.3664-38.594 2.4688-2.3367 0.93467-4.471 2.0383-5.0625 4.0625 4.2809 3.5952 33.105 4.2217 42.267 4.2217 8.5943 0 31.381-2.1555 41.514-3.7217-0.5678-4.4924-3.7255-4.6014-8.1562-5.0938-4.9607-0.55118-21.293-1.9585-31.969-1.9375z" fill="url(#f)"/>
  <path d="m326.44 134.64-33.209 5.2363s22.003 0.10174 34.173-1.1024c4.7581-0.47073 5.2363-2.2047 5.2363-2.2047s-0.27559-2.7559-6.2008-1.9291z" fill="url(#t)"/>
  <path d="m333.86 203.01 1.1024 0.28253c-0.58462 1.559-4.383 2.9716-10.386 3.3515 5.507-1.0227 7.1614-1.4264 9.2837-3.634z" fill="#79b9ac"/>
  <path d="m262.78 140.17 0.30881 66.825c-3.3212-0.87519-6.5266-1.789-9.0774-2.921l-1.5625 0.375c2.5018 1.6294 6.4712 2.9635 8.4837 3.3272l0.15625 3.1562c1.1493 0.38644 3.4742 2.4155 4.7899 2.7786l36.71 0.22144c2.0341-0.23172 3.9415-0.46225 5.75-0.71875l0.15625-3.0938-2.5625-0.96875 1.0901-69.092c-15.137 0.30419-29.593 0.67109-44.243 0.11042z" fill="url(#r)" opacity=".5"/>
  <path d="m324.47 209.94c-20.549 5.2368-53.247 4.0599-62.938 1.1562 0 0 0.84646 4.9798 1.3438 6.25 0.18986 0.48498 6.7423 1.2939 14.531 1.9375l-55.25 8.7812s18.721 15.183 30.218 19.471c2.9442 1.0978 13.762-3.6553 17.704-7.9726 7.3657-8.0671 34.433-16.847 39.165-17.63 3.013-0.49876 21.252 0.58659 20.881-0.89888-0.38975-1.559-5.8438-3.6875-5.8438-3.6875zm-20.281 9.1562 4.0625 2.0938-14.469-1.0312c5.5272 0.0737 9.7461-0.18226 10.406-1.0625z" fill="#164450"/>
  <path d="m221.77 215.19s22.839 1.4448 36.734-1.4616c1.2271-0.25667 3.0205-2.241 3.0205-2.241s1.1692 4.677 21.241 4.4821 37.123-3.0205 41.313-4.4821l0.36341-1.4054 4.2161-1.5177 1.4616 1.559 0.77949 2.5334-6.0411 3.8975-20.267 3.7026-27.087 10.913-24.359 9.5488-14.031-0.38974z" fill="#377d89" fill-opacity=".9922"/>
  <path d="m326.53 209.34-2.0938 0.75-0.375 1.375c-4.1898 1.4616-21.241 4.3051-41.312 4.5s-21.219-4.5-21.219-4.5-1.8041 1.9933-3.0312 2.25c-1.8542 0.38782-3.8716 0.69086-5.9688 0.9375l-15.575 5.0123 0.79424 15.206 37.656-2.9062c3.3412-1.2871 6.6499-2.6567 9.9688-4l18.031-7.5312 18.531-3.875 5.5938-1.7188 1.7812-1.1562c-0.35136-0.88482-1.2797-2.9884-2.7812-4.3438z" fill="#164450" fill-opacity=".9922"/>
  <path d="m393.53 415.59c-17.926 9.5538-104.84 54.296-109.54 56.734-16.48 8.563-25.8 10.396-44.686-0.18213-3.8686-2.167-42.69-27.957-52.373-35.708 0.18047 1.2105 0.34614 2.1009 0.46875 2.4688 2.2047 6.6142 15.985 25.346 25.906 33.062s33.351 23.369 37.295 25.341c3.8583 1.9292 15.628 2.7618 19.487 1.6595s89.277-44.076 99.75-52.344c10.429-8.2337 22.769-21.126 23.688-31.031z" fill="url(#q)"/>
  <path d="m393.53 415.59c-17.926 9.5538-104.84 54.296-109.54 56.734-16.48 8.563-25.8 10.396-44.686-0.18213-3.8686-2.167-42.69-27.957-52.373-35.708 0.18047 1.2105 0.34614 2.1009 0.46875 2.4688 2.2047 6.6142 15.985 25.346 25.906 33.062s33.351 23.369 37.295 25.341c3.8583 1.9292 15.628 2.7618 19.487 1.6595s89.277-44.076 99.75-52.344c10.429-8.2337 22.769-21.126 23.688-31.031z" fill="url(#p)"/>
  <path d="m230.06 258.77 5.7402 210.53c12.465 11.996 40.683 12.217 53.395 0.38975l-6.4251-213.81c-14.148-10.564-37.134-12.138-52.71 2.8897z" fill="url(#o)" opacity=".3"/>
  <path d="m295.82 148.33c-2.2334 0.19499-4.5859 2.986-4.6117 4.933l0.1378 56.328 1.7579 0.82678-0.0689-58.276c0.13182-1.8478 1.168-3.3227 2.6875-3.6407 1.6988 0.21643 2.6405 2.3606 2.6562 3.7657l0.1378 57.48h1.689l-0.1378-56.36c-0.14634-2.1832-2.1218-5.0056-4.2478-5.058z" fill="url(#n)"/>
  <path d="m293.03 209.87v-57.724c0.13182-1.8478 1.168-3.3227 2.6875-3.6407 1.6988 0.21643 2.6405 2.3606 2.6562 3.7657v57.756c-2.0152 1.2348-3.8471 1.4613-5.3438-0.15625z" fill="url(#j)"/>
  <path d="m319.92 207.85-0.58463-56.289c0.13182-1.8478 1.0705-5.0766 2.5901-5.3946 1.6988 0.21643 2.4456 2.5554 2.4614 3.9606l0.0974 56.71c-1.0771 1.6619-3.5154 1.6275-4.5642 1.013z" fill="url(#k)"/>
  <path d="m264.67 146.74c-2.2334 0.19499-4.5859 2.986-4.6117 4.933v55.364h1.8268v-56.484c0.13182-1.8478 1.168-3.3227 2.6875-3.6407 1.6988 0.21643 2.6405 2.3606 2.6562 3.7657v57.003l2.1762-0.29231-0.48718-55.59c-0.14634-2.1832-2.1218-5.0056-4.2478-5.058z" fill="url(#m)"/>
  <path d="m261.89 207.04v-56.484c0.13182-1.8478 1.168-3.3227 2.6875-3.6407 1.6988 0.21643 2.6405 2.3606 2.6562 3.7657l-0.0974 57.003c-2.8381 0.60032-4.9093 0.0844-5.2463-0.64343z" fill="url(#i)"/>
  <path d="m260.94 207.8-11.527-6.1922s-26.771-9.102-34.761-3.2558-7.9197 22.354-1.6536 26.188l27.672 17.733-4.0923-10.913 5.6513-17.539z" fill="url(#h)"/>
  <path d="m220.81 196.47c-2.5184 0.20365-4.6582 0.77884-6.1562 1.875-6.5339 4.7809-7.6959 16.69-4.4688 22.969l28.594 15.969-2.2188-5.9062 5.6562-17.562 9.2812-2.9688-30.562-14.375h-0.125z" fill="url(#l)"/>
  <path d="m283.32 209.98c-7.5788 0.96458-33.627-6.9568-42.843 4.0353-6.1552 7.3417-7.4017 28.177 2.3385 28.646 20.25 0.9751 40.759-15.183 61.775-20.851 8.1454-2.1969 24.164-2.3385 24.359-6.236 0 0 3.118-2.1436 1.3641-5.6513 0.77949 6.236-16.969 5.7984-25.139 8.1847-20.201 5.9002-40.368 21.316-61.19 20.851-7.4686-0.1665-5.2067-16.871-0.19487-22.41 7.7538-8.5706 32.352-1.4713 40.646-3.2892z" fill="#216778"/>
 </g>
</svg>
