<?xml version="1.0" encoding="UTF-8" standalone="no"?>
<svg
   xmlns:dc="http://purl.org/dc/elements/1.1/"
   xmlns:cc="http://creativecommons.org/ns#"
   xmlns:rdf="http://www.w3.org/1999/02/22-rdf-syntax-ns#"
   xmlns:svg="http://www.w3.org/2000/svg"
   xmlns="http://www.w3.org/2000/svg"
   xmlns:sodipodi="http://sodipodi.sourceforge.net/DTD/sodipodi-0.dtd"
   xmlns:inkscape="http://www.inkscape.org/namespaces/inkscape"
   viewBox="0 0 960 800"
   version="1.1"
   id="svg199"
   sodipodi:docname="chips.svg"
   width="960"
   height="800"
   inkscape:version="0.92.4 5da689c313, 2019-01-14">
  <metadata
     id="metadata203">
    <rdf:RDF>
      <cc:Work
         rdf:about="">
        <dc:format>image/svg+xml</dc:format>
        <dc:type
           rdf:resource="http://purl.org/dc/dcmitype/StillImage" />
        <dc:title></dc:title>
      </cc:Work>
    </rdf:RDF>
  </metadata>
  <sodipodi:namedview
     pagecolor="#ffffff"
     bordercolor="#666666"
     borderopacity="1"
     objecttolerance="10"
     gridtolerance="10"
     guidetolerance="10"
     inkscape:pageopacity="0"
     inkscape:pageshadow="2"
     inkscape:window-width="1920"
     inkscape:window-height="1032"
     id="namedview201"
     showgrid="false"
     inkscape:zoom="0.81906535"
     inkscape:cx="322.00582"
     inkscape:cy="318.43946"
     inkscape:window-x="0"
     inkscape:window-y="0"
     inkscape:window-maximized="1"
     inkscape:current-layer="svg199" />
  <defs
     id="defs85">
    <filter
       id="x">
      <feGaussianBlur
         stdDeviation="1.1202"
         id="feGaussianBlur2" />
    </filter>
    <filter
       id="v">
      <feGaussianBlur
         stdDeviation="1.8683"
         id="feGaussianBlur5" />
    </filter>
    <filter
       id="j">
      <feGaussianBlur
         stdDeviation="1.2111"
         id="feGaussianBlur8" />
    </filter>
    <filter
       id="y"
       x="-0.13717"
       y="-0.13424"
       width="1.2743"
       height="1.2685">
      <feGaussianBlur
         stdDeviation="4.0233"
         id="feGaussianBlur11" />
    </filter>
    <filter
       id="t"
       x="-1.1659"
       y="-0.35115999"
       width="3.3318"
       height="1.7023">
      <feGaussianBlur
         stdDeviation="7.4695"
         id="feGaussianBlur14" />
    </filter>
    <filter
       id="s"
       x="-1.1452"
       y="-0.28619999"
       width="3.2904"
       height="1.5724">
      <feGaussianBlur
         stdDeviation="7.4695"
         id="feGaussianBlur17" />
    </filter>
    <filter
       id="w"
       x="-1.9918"
       y="-0.071529999"
       width="4.9835"
       height="1.143">
      <feGaussianBlur
         stdDeviation="6.1715"
         id="feGaussianBlur20" />
    </filter>
    <filter
       id="u"
       x="-0.03449"
       y="-0.17462"
       width="1.069"
       height="1.3492">
      <feGaussianBlur
         stdDeviation="3.0119"
         id="feGaussianBlur23" />
    </filter>
    <filter
       id="r"
       x="-0.049529999"
       y="-0.16501001"
       width="1.0991"
       height="1.33">
      <feGaussianBlur
         stdDeviation="2.9104"
         id="feGaussianBlur26" />
    </filter>
    <filter
       id="q"
       x="-0.11467"
       y="-0.13452999"
       width="1.2293"
       height="1.2691">
      <feGaussianBlur
         stdDeviation="4.505"
         id="feGaussianBlur29" />
    </filter>
    <filter
       id="p"
       x="-0.21077"
       y="-0.16598"
       width="1.4215"
       height="1.332">
      <feGaussianBlur
         stdDeviation="2.2379"
         id="feGaussianBlur32" />
    </filter>
    <filter
       id="o"
       x="-0.090180002"
       y="-0.17511"
       width="1.1804"
       height="1.3502001">
      <feGaussianBlur
         stdDeviation="7.9292"
         id="feGaussianBlur35" />
    </filter>
    <filter
       id="n"
       x="-0.10919"
       y="-0.74519998"
       width="1.2184"
       height="2.4904001">
      <feGaussianBlur
         stdDeviation="3.5794"
         id="feGaussianBlur38" />
    </filter>
    <filter
       id="m"
       x="-0.077799998"
       y="-0.18494"
       width="1.1556"
       height="1.3699">
      <feGaussianBlur
         stdDeviation="2.6027"
         id="feGaussianBlur41" />
    </filter>
    <filter
       id="l"
       x="-0.08337"
       y="-0.14091"
       width="1.1668"
       height="1.2818">
      <feGaussianBlur
         stdDeviation="1.4233"
         id="feGaussianBlur44" />
    </filter>
    <filter
       id="k"
       x="-0.10659"
       y="-0.12319"
       width="1.2132"
       height="1.2464">
      <feGaussianBlur
         stdDeviation="1.9685"
         id="feGaussianBlur47" />
    </filter>
    <filter
       id="i"
       x="-0.084020004"
       y="-0.38747999"
       width="1.168"
       height="1.775">
      <feGaussianBlur
         stdDeviation="7.019"
         id="feGaussianBlur50" />
    </filter>
    <filter
       id="h"
       x="-0.57501"
       y="-2.9403"
       width="2.1500001"
       height="6.8806">
      <feGaussianBlur
         stdDeviation="25.7684"
         id="feGaussianBlur53" />
    </filter>
    <filter
       id="g"
       x="-0.53495002"
       y="-0.2225"
       width="2.0699"
       height="1.4450001">
      <feGaussianBlur
         stdDeviation="4.2375"
         id="feGaussianBlur56" />
    </filter>
    <filter
       id="f"
       x="-0.03506"
       y="-0.67515999"
       width="1.0700999"
       height="2.3503001">
      <feGaussianBlur
         stdDeviation="2.0305"
         id="feGaussianBlur59" />
    </filter>
    <filter
       id="e"
       x="-0.035399999"
       y="-0.5697"
       width="1.0707999"
       height="2.1394">
      <feGaussianBlur
         stdDeviation="2.1123"
         id="feGaussianBlur62" />
    </filter>
    <filter
       id="d"
       x="-0.020199999"
       y="-0.33283001"
       width="1.0404"
       height="1.6657">
      <feGaussianBlur
         stdDeviation="1.2479"
         id="feGaussianBlur65" />
    </filter>
    <filter
       id="c"
       x="-0.12521"
       y="-1.3095"
       width="1.2503999"
       height="3.619">
      <feGaussianBlur
         stdDeviation="3.7604"
         id="feGaussianBlur68" />
    </filter>
    <filter
       id="a"
       x="0"
       y="0"
       width="1"
       height="1">
      <feColorMatrix
         in="SourceGraphic"
         result="result0"
         values="1 0 0 0 0 0 1 0 0 0 0 0 1 0 0 0 0 0 0.85 0"
         id="feColorMatrix71" />
      <feGaussianBlur
         in="SourceAlpha"
         stdDeviation="7"
         id="feGaussianBlur73" />
      <feSpecularLighting
         result="result1"
         specularConstant="0.89999998"
         specularExponent="25"
         surfaceScale="5"
         id="feSpecularLighting77">
        <feDistantLight
           azimuth="225"
           elevation="60"
           id="feDistantLight75" />
      </feSpecularLighting>
      <feComposite
         in2="result0"
         operator="atop"
         id="feComposite79" />
    </filter>
    <filter
       id="b"
       x="-0.045880001"
       y="-0.65034002"
       width="1.0918"
       height="2.3006999">
      <feGaussianBlur
         stdDeviation="2.1505"
         id="feGaussianBlur82" />
    </filter>
  </defs>
  <path
     d="m 538.97631,96.09999 c 2.67272,-30.86672 17.12538,-28.94798 13.18946,-55.999197 l -14.11236,-26.372 c 0,0 -152.7032,90.390307 -156.87744,92.800307 -4.17424,2.41 -38.25326,32.1074 -38.25326,32.1074 -67.46339,22.28999 -128.28769,64.19921 -192.02477,97.50336 l 35.7068,40.62999 19.47179,7.68812 c 19.44098,43.23257 61.56588,95.85984 84.45738,131.56808 l 30.87073,47.93467 c 37.62752,64.27668 17.1825,52.93696 129.0608,213.89626 l -8.01409,53.62319 22.18,38.41689 177.59191,-114.7818 27.43089,-18.0643 42.62785,-16.8164 134.81697,-78.95016 -17.00535,-31.38282 -26.38177,-14.83457 -43.09338,-34.13793 C 739.58569,424.27934 715.31916,387.82459 690.28689,351.41242 673.42897,330.55964 661.34597,308.07127 651.10768,283.59063 616.06327,224.97134 562.686,115.0746 538.98078,96.09434 Z"
     id="path87"
     inkscape:connector-curvature="0"
     style="fill:#fddb41;stroke:#000000;stroke-width:1.07290006" />
  <path
     transform="matrix(1.54854,-0.89405,0.89405,1.54854,-446.5892,424.07045)"
     d="m 390.12,406.79 c 2.1152,-0.20567 4.2034,-0.59974 6.2992,-0.94135 2.6162,-0.38006 5.231,-0.77052 7.8327,-1.2396 1.6222,-0.36138 3.2113,-0.87196 4.7602,-1.4721 1.149,-0.43421 2.3276,-0.78631 3.478,-1.2152 1.4289,-0.488 2.834,-1.0395 4.2488,-1.5659 1.509,-0.64506 3.0179,-1.283 4.6068,-1.7022 1.2256,-0.29579 2.4866,-0.34675 3.7412,-0.37246 1.8628,-0.0557 3.7155,0.0203 5.5713,0.17296 2.0889,0.18232 4.1802,0.25676 6.258,0.54328 1.6518,0.25913 3.2827,0.61821 4.9436,0.82686 1.7748,0.31357 3.5392,0.68734 5.2974,1.0831 2.4505,0.53513 4.9186,0.96602 7.3987,1.3395 2.8438,0.44833 5.684,0.92583 8.5345,1.3298 2.2886,0.37238 4.5615,0.83412 6.8566,1.1644 2.7417,0.33779 5.5076,0.37252 8.266,0.40819 3.2844,0.0268 6.5689,0.0185 9.8533,0.0157 2.8121,-0.004 5.6242,-0.006 8.4363,-0.007 l 7.7239,-6.1e-4 8.3859,1.5e-4 c 2.6458,0.0477 5.2948,-0.0918 7.9202,-0.42096 2.5092,-0.31643 5.0145,-0.6701 7.5111,-1.0742 2.2967,-0.39784 4.5637,-0.90004 6.8842,-1.1506 1.038,-0.098 2.0796,-0.14106 3.121,-0.18264 l -0.33121,0.45061 c -1.0371,0.0428 -2.0745,0.0867 -3.1079,0.18956 -2.3153,0.26016 -4.5792,0.76836 -6.8742,1.1544 -2.4998,0.39722 -5.0057,0.75973 -7.5178,1.07 -2.6339,0.3133 -5.2875,0.45768 -7.9402,0.40501 l -8.3861,5e-5 -7.7238,5.9e-4 -8.4339,0.004 c -3.2855,0.003 -6.571,0.01 -9.8564,-0.0165 -2.7668,-0.036 -5.5413,-0.0745 -8.2904,-0.4219 -2.2938,-0.33573 -4.5668,-0.7945 -6.8552,-1.1653 -2.8498,-0.41005 -5.6903,-0.88565 -8.5345,-1.3325 -2.485,-0.37635 -4.9584,-0.80759 -7.414,-1.3444 -1.7545,-0.3885 -3.512,-0.77038 -5.2844,-1.0681 -1.6595,-0.21667 -3.2908,-0.57794 -4.9438,-0.82939 -2.074,-0.28146 -4.1627,-0.35159 -6.2465,-0.53887 -1.8516,-0.14755 -3.7011,-0.21065 -5.5589,-0.153 -1.2412,0.0306 -2.4884,0.0912 -3.6974,0.39965 -1.5789,0.43498 -3.0789,1.0815 -4.5884,1.7107 -1.4144,0.53132 -2.824,1.0743 -4.2522,1.5684 -1.1557,0.41254 -2.3252,0.78612 -3.475,1.2157 -1.5638,0.58268 -3.1538,1.109 -4.7906,1.4462 -2.6027,0.4646 -5.2186,0.84895 -7.8339,1.2357 -2.0977,0.34697 -4.1906,0.72428 -6.3057,0.95204 l 0.31353,-0.47182 z"
     id="path89"
     inkscape:connector-curvature="0"
     style="fill:none;stroke:#dabf44;stroke-width:3.5;filter:url(#d)" />
  <path
     transform="matrix(1.54854,-0.89405,0.89405,1.54854,-446.5892,424.07045)"
     d="m 514.11,418.45 c 27.492,-8.2082 85.141,8.481 71.392,-33.775 l 8.8988,14.359 -0.80898,19.011 -79.482,0.40448 z"
     id="path91"
     inkscape:connector-curvature="0"
     style="fill:#d3b944;filter:url(#m)" />
  <path
     d="m 450.7898,676.75646 336.40392,-194.1513 -26.7995,-20.8461 -31.37524,-51.27491 -330.11014,190.73246 51.88024,75.53922 z"
     id="path93"
     inkscape:connector-curvature="0"
     style="fill:#ffffff;stroke:#000000;stroke-width:1.07290006" />
  <path
     transform="matrix(1.54854,-0.89405,0.89405,1.54854,-446.5892,424.07045)"
     d="m 359.95,325.5 107.55,-1.2135 v 20.629 l -105.66,0.40449 -1.8906,-19.82 z"
     id="path95"
     inkscape:connector-curvature="0"
     style="filter:url(#h)" />
  <path
     d="m 407.22809,612.62538 159.26837,-94.4591 18.4435,31.94508 -157.16839,91.57636 -20.53866,-29.06459 z"
     id="path97"
     inkscape:connector-curvature="0"
     style="fill:#ca2021;stroke:#000000;stroke-width:0.17881" />
  <path
     transform="matrix(1.54854,-0.89405,0.89405,1.54854,-446.5892,424.07045)"
     d="m 373.25,370.2 171.9,-11.441 c 17.851,-2.5216 24.037,-17.528 28.316,-32.034 l 0.28602,40.614 -200.5,2.8602 z"
     id="path99"
     inkscape:connector-curvature="0"
     style="filter:url(#i)" />
  <path
     transform="matrix(1.54854,-0.89405,0.89405,1.54854,-446.5892,424.07045)"
     d="m 360.2,323.4 c 44.593,-20.443 68.282,-15.954 112.59,-15.138 44.022,0.057 70.718,-11.628 95.927,-47.853 l 1.3595,-24.577 0.34822,-21.106 c -13.585,19.639 -19.489,34.902 -37.382,48.927 -19.44,15.316 -26.158,22.62 -54.262,21.049 -41.651,-2.7629 -85.084,-14.929 -119.39,21.088 l 0.80899,17.61 z"
     id="path101"
     inkscape:connector-curvature="0"
     style="fill:#ffffff;filter:url(#o)" />
  <path
     transform="matrix(1.54854,-0.89405,0.89405,1.54854,-446.5892,424.07045)"
     d="m 363.23,371.73 c 44.679,-7.3113 116.11,-6.7362 163.01,-11.484 34.579,-3.5007 38.888,-9.9062 46.587,-29.912 0,0 -3.7098,26.431 -5.3278,28.049 -1.618,1.618 -31.955,8.8988 -31.955,8.8988 l -125.39,2.8314 -46.921,1.618 z"
     id="path103"
     inkscape:connector-curvature="0"
     style="fill:#ffffff;filter:url(#u)" />
  <path
     d="m 449.16932,672.44971 273.36992,-179.0894 c 25.38827,-19.86423 17.61444,-49.31289 11.27227,-75.60186 l 26.90024,43.52399 24.06366,19.17747 -335.60722,191.99125 z"
     id="path105"
     inkscape:connector-curvature="0"
     style="fill:#cf1f20" />
  <path
     transform="matrix(1.54854,-0.89405,0.89405,1.54854,-446.5892,424.07045)"
     d="m 362.22,338.57 78.673,-0.20224 v 11.528 l -78.066,-0.40449 -0.60673,-10.921 z"
     id="path107"
     inkscape:connector-curvature="0"
     style="fill:#af2425;filter:url(#n)" />
  <path
     transform="matrix(1.54854,-0.89405,0.89405,1.54854,-446.5892,424.07045)"
     d="m 439.16,370.17 c 27.891,-3.0029 132.03,1.9898 133.59,-22.561 l 0.14301,-18.734 0.85805,27.172 6.4354,15.159 -141.02,-1.0358 z"
     id="path109"
     inkscape:connector-curvature="0"
     style="fill:#ae2425;filter:url(#r)" />
  <path
     transform="matrix(1.54854,-0.89405,0.89405,1.54854,-446.5892,424.07045)"
     d="m 370.68,158.26 5.7203,65.212 1.1441,60.636"
     id="path111"
     inkscape:connector-curvature="0"
     style="fill:none;stroke:#ffffff;stroke-width:4.5;filter:url(#w)" />
  <path
     transform="matrix(2.576339,-1.48745,1.48745,2.576339,-932.78651,586.272)"
     d="m 449.03,106.58 c -3.4432,0 -6.7815,0.4612 -9.9688,1.2812 l -1.6875,5 c -0.70615,0.24587 -1.4089,0.52376 -2.0938,0.8125 l -4.875,-2.5 c -5.6202,2.969 -10.465,7.265 -14.094,12.438 l 2.1875,4.8125 c -0.93574,1.6069 -1.7303,3.3071 -2.4062,5.0625 l -5.4375,2.0312 c -0.99356,3.4839 -1.5312,7.166 -1.5312,10.969 0,2.1724 0.16589,4.2968 0.5,6.375 l 5.1562,1.9062 c 0.66476,2.6415 1.6519,5.1645 2.875,7.5312 l -2.4375,5.375 c 2.9262,4.66 6.7771,8.6806 11.312,11.781 l 5.1875,-2.5625 c 2.2052,1.2429 4.533,2.2508 7,3 l 1.9062,5.5938 c 2.7097,0.58094 5.523,0.875 8.4062,0.875 2.5976,0 5.1345,-0.21349 7.5938,-0.6875 l 1.8438,-5.5938 c 2.6087,-0.73019 5.1421,-1.7535 7.4688,-3.0312 l 5.2812,2.625 c 4.4467,-2.9785 8.2175,-6.8684 11.156,-11.344 l -2.4062,-5.3125 v -0.0625 c 1.4276,-2.6279 2.5251,-5.491 3.25,-8.4688 l 5.2188,-1.9375 c 0.30273,-1.9813 0.5,-3.9966 0.5,-6.0625 0,-3.688 -0.53226,-7.2662 -1.4688,-10.656 l -5.5,-2.0312 c -0.79595,-2.1284 -1.7334,-4.1519 -2.9062,-6.0625 l 2.1562,-4.8125 c -3.6526,-4.9829 -8.4354,-9.0582 -13.969,-11.906 l -5,2.4688 c -0.798,-0.32473 -1.6116,-0.60831 -2.4375,-0.875 l -1.6875,-4.9688 c -2.9226,-0.68164 -5.9635,-1.0625 -9.0938,-1.0625 z m 0.0625,22.375 c 9.0376,0 16.375,7.3374 16.375,16.375 0,9.0376 -7.3374,16.344 -16.375,16.344 -9.0376,0 -16.375,-7.3062 -16.375,-16.344 0,-9.0378 7.3374,-16.375 16.375,-16.375 z"
     id="path113"
     inkscape:connector-curvature="0"
     style="fill:#ffffff;filter:url(#x)" />
  <path
     d="m 480.55145,268.76517 c 13.607,23.56801 5.53212,53.7039 -18.0359,67.3109 -23.56801,13.607 -53.7039,5.53211 -67.3109,-18.0359 -13.607,-23.56802 -5.53211,-53.70391 18.0359,-67.31091 23.56802,-13.607 53.7039,-5.53211 67.3109,18.03591 z m -94.10551,-65.64154 c -7.87806,4.5484 -14.91452,10.03129 -21.12407,16.11804 l 2.76308,13.68719 c -1.29087,1.49535 -2.52761,3.01285 -3.7132,4.57816 l -14.43737,0.76174 c -8.93679,14.21702 -14.38803,30.3952 -15.85762,47.0238 l 11.35321,8.18613 c -0.0183,4.91273 0.42636,9.81648 1.19865,14.72552 l -9.78211,11.86889 c 2.32887,9.28352 5.99281,18.34426 11.01631,27.04521 2.8697,4.97047 6.03883,9.6482 9.54879,13.96219 l 14.28397,-2.43144 c 5.01026,5.16563 10.62366,9.63733 16.54855,13.43693 l 1.50724,15.49422 c 12.85065,6.79618 26.9695,10.94454 41.44308,12.04752 l 8.47141,-12.73509 c 6.68735,-0.0694 13.37451,-0.81066 20.00887,-2.35562 l 11.74056,10.26265 c 6.96719,-2.25028 13.8464,-5.28934 20.44378,-9.09834 5.94319,-3.4313 11.40735,-7.30389 16.40776,-11.63693 l -3.11885,-15.2404 c 5.0041,-5.11665 9.42292,-10.73902 13.05858,-16.73587 l 15.52581,-0.98451 c 6.23957,-12.68875 9.75692,-26.60252 10.56874,-40.7244 l -12.50485,-9.00964 -0.0585,-0.10127 c -0.20508,-7.89822 -1.50609,-15.87824 -3.78098,-23.64886 l 9.39259,-11.37356 c -1.92461,-4.93311 -4.17822,-9.81368 -6.90722,-14.54044 -4.87165,-8.43795 -10.78114,-15.89149 -17.40227,-22.41143 l -15.27114,2.59562 c -4.63268,-3.81844 -9.51017,-7.2087 -14.71755,-10.03115 l -1.35429,-13.8239 c -14.93956,-6.57628 -31.28172,-9.63152 -47.70414,-8.838 l -8.1824,12.29768 c -2.2547,0.31113 -4.50804,0.71143 -6.75001,1.19223 l -10.41342,-9.13517 c -7.58724,2.30111 -15.03761,5.4361 -22.19877,9.5706 z"
     id="path115"
     inkscape:connector-curvature="0"
     style="fill:#fdee6f" />
  <path
     transform="matrix(2.3997564,-1.3855,1.3855,2.3997564,-841.19348,566.19578)"
     d="m 427.88,177.52 4.6716,-2.4788 c 2.201,1.1101 4.3548,2.598 6.6737,2.7648 l 1.9544,5.5297 c 5.1581,1.1638 10.223,0.92318 15.254,0.19068 l 1.7638,-5.2913 c 3.2547,-1.2656 5.7712,-2.0134 7.1504,-3.0985 l 4.8623,2.7648 c 4.79,-3.4874 8.2853,-7.1272 10.916,-10.869 l -2.4788,-5.1006 c 1.2452,-2.119 2.2335,-4.9231 3.0985,-8.0561 l 5.053,-2.0975 c 0.57943,-4.3667 1.0538,-8.8437 -0.85805,-15.826 l -5.2913,-1.8114 c -0.79477,-1.968 -1.6837,-4.0453 -2.9078,-5.9587 l 2.1928,-4.3379 c -3.5945,-5.2344 -8.318,-8.5821 -13.061,-11.631 8.6852,21.053 12.841,36.295 7.3004,47.411 -13.55,21.219 -37.642,12.267 -57.258,6.5512 3.3274,5.2501 7.1282,9.0181 10.964,11.345 z"
     id="path117"
     inkscape:connector-curvature="0"
     style="fill:#f6a520;filter:url(#y)" />
  <path
     transform="matrix(1.54854,-0.89405,0.89405,1.54854,-446.5892,424.07045)"
     d="m 404.21,153.61 c -7.0029,18.021 -10.804,55.61 1.5737,70.55 23.591,-11.415 33.001,-11.188 43.661,-13.063 13.787,-2.4306 24.305,-1.8102 33.525,-0.0239 11.833,1.9605 24.225,3.782 36.125,1.8566 4.6151,-1.5118 6.8682,-4.4183 9.6489,-9.7774 8.9494,-20.057 -1.8489,-41.803 -9.321,-55.298 -3.0768,6.8776 -9.1658,10.088 -16.859,11.344 -14.149,0.54148 -29.519,1.5289 -43.235,-3.127 -11.491,-4.0184 -20.818,-11.02 -37.099,-10.972 -7.8593,-0.25516 -13.989,0.61021 -18.02,8.5094 z"
     id="path119"
     inkscape:connector-curvature="0"
     style="fill:#ededed;filter:url(#v)" />
  <path
     d="m 323.92086,305.43302 c 4.09248,31.04039 28.63145,86.54513 58.95582,96.73168 25.77743,-36.04018 39.89724,-43.77195 54.18039,-55.49282 18.46921,-15.16839 34.54344,-23.299 49.63268,-28.69967 19.09926,-7.39312 38.91315,-15.45645 54.99315,-28.30907 5.62184,-6.04788 6.62619,-12.01511 6.44279,-21.84277 -2.84298,-35.53419 -36.2892,-56.53114 -58.18695,-68.90274 0.96306,12.19187 -5.47845,21.86105 -15.86424,30.18632 -20.52063,12.85123 -42.4916,27.3664 -66.54276,32.62257 -20.24351,4.2392 -39.67673,2.48188 -63.75098,16.47006 -11.84504,6.36578 -20.22817,12.80978 -19.8588,27.23754 z"
     id="path121"
     inkscape:connector-curvature="0"
     style="fill:#cf1f20" />
  <path
     transform="matrix(1.54854,-0.89405,0.89405,1.54854,-446.5892,424.07045)"
     d="m 407.86,221.19 c 5.6902,-7.838 9.1636,-13.932 7.7526,-24.199 -1.2348,-6.277 -1.5166,-13.249 -4.2044,-19.466 -2.4225,-5.9907 -3.476,-12.447 -4.9783,-18.973 -6.6138,12.66 -7.4863,33.407 -4.5735,49.65 0.83992,4.6838 2.7118,9.0578 6.0036,12.987 z"
     id="path123"
     inkscape:connector-curvature="0"
     style="fill:#992728;filter:url(#s)" />
  <path
     transform="matrix(-1.54854,0.89405,0.89405,1.54854,991.46405,-382.56826)"
     d="m 410.03,177.81 c -1.2348,-6.277 -1.9211,-10.822 -4.6089,-17.039 -2.4225,-5.9907 1.1756,-9.6159 -0.32664,-16.142 -6.6138,12.66 -12.542,23.295 -9.6296,39.538 4.3385,20.593 15.448,10.495 14.565,-6.3576 z"
     id="path125"
     inkscape:connector-curvature="0"
     style="fill:#992728;filter:url(#t)" />
  <text
     x="121.08281"
     y="499.03748"
     font-size="71.524"
     id="text129"
     transform="rotate(-30)"
     style="font-size:71.52400208px;font-family:'Comic Sans MS';fill:#ffffff;stroke:#fff8f8;stroke-width:1.7881">
    <tspan
       x="121.08281"
       y="499.03748"
       id="tspan127"
       style="stroke-width:1.7881">CHIPS</tspan>
  </text>
  <path
     d="m 443.45034,730.18415 53.72088,-32.8887"
     id="path131"
     inkscape:connector-curvature="0"
     style="fill:none;stroke:#000000;stroke-width:0.71524" />
  <path
     transform="matrix(1.54854,-0.89405,0.89405,1.54854,-446.5892,424.07045)"
     d="m 344.81,397.67 -0.0123,24.243 40.972,-2.1286 c 0,0 -31.846,-3.1521 -32.251,-3.9611 -0.405,-0.809 -8.7088,-17.951 -8.7088,-18.153 z"
     id="path133"
     inkscape:connector-curvature="0"
     style="fill:#d9be44;filter:url(#l)" />
  <path
     d="M 445.56044,738.31895 586.24811,652.91714"
     id="path135"
     inkscape:connector-curvature="0"
     style="fill:none;stroke:#000000;stroke-width:0.71524" />
  <path
     d="m 450.39221,745.96782 124.6812,-75.34583"
     id="path137"
     inkscape:connector-curvature="0"
     style="fill:none;stroke:#000000;stroke-width:0.71524" />
  <path
     d="m 455.68228,754.31049 183.20941,-112.272"
     id="path139"
     inkscape:connector-curvature="0"
     style="fill:none;stroke:#000000;stroke-width:0.71524" />
  <path
     d="m 461.18527,765.90196 92.48508,-58.71114"
     id="path141"
     inkscape:connector-curvature="0"
     style="fill:none;stroke:#000000;stroke-width:0.71524" />
  <path
     d="M 840.9433,530.70215 704.45725,608.32138"
     id="path143"
     inkscape:connector-curvature="0"
     style="fill:none;stroke:#000000;stroke-width:0.71524" />
  <path
     d="M 834.72032,514.80364 694.3667,592.88404"
     id="path145"
     inkscape:connector-curvature="0"
     style="fill:none;stroke:#000000;stroke-width:0.71524" />
  <path
     d="M 821.10458,505.54048 699.39114,581.12662"
     id="path147"
     inkscape:connector-curvature="0"
     style="fill:none;stroke:#000000;stroke-width:0.71524" />
  <path
     d="m 815.56255,501.06141 -48.83878,29.96874"
     id="path149"
     inkscape:connector-curvature="0"
     style="fill:none;stroke:#000000;stroke-width:0.71524" />
  <text
     transform="matrix(1.2045547,-0.69545,1.14935,1.9907326,-446.5892,424.07045)"
     x="671.70007"
     y="280.17551"
     font-size="25.466"
     id="text153"
     style="font-size:25.4659996px;font-family:'Bitstream Vera Sans';filter:url(#a)">
    <tspan
       x="671.70007"
       y="280.17551"
       id="tspan151">24g</tspan>
  </text>
  <path
     transform="matrix(1.54854,-0.89405,0.89405,1.54854,-446.5892,424.07045)"
     d="m 386.55,77.148 -35.048,7.3993 4.1388,30.337 -7.5423,-9.6138 -5.8752,-28.739 44.326,0.6169 z"
     id="path155"
     inkscape:connector-curvature="0"
     style="fill:#d9be44;filter:url(#k)" />
  <path
     d="M 156.39808,242.07506 276.80115,171.37928"
     id="path157"
     inkscape:connector-curvature="0"
     style="fill:none;stroke:#000000;stroke-width:0.71524" />
  <path
     transform="matrix(1.54854,-0.89405,0.89405,1.54854,-446.5892,424.07045)"
     d="m 393.58,96.909 c 1.9534,0.29749 3.9296,0.37073 5.9014,0.43433 2.4964,0.09847 4.9852,0.0751 7.4762,-0.10046 3.5978,-0.17475 7.159,-0.71244 10.721,-1.2113 4.228,-0.63194 8.4728,-1.1162 12.7,-1.7564 3.1589,-0.52213 6.3069,-1.1172 9.4772,-1.5664 1.8962,-0.34415 3.7844,-0.72602 5.7029,-0.92368 1.418,-0.15943 2.8206,-0.41062 4.2459,-0.53117 1.6068,-0.26827 3.2181,-0.49777 4.843,-0.61745 2.5913,-0.07188 5.1944,0.17691 7.7562,0.55731 2.9688,0.44088 5.898,1.102 8.8482,1.6456 2.1001,0.53238 4.2506,0.78679 6.3749,1.1948 1.3252,0.34519 2.7121,0.3031 4.0464,0.56224 1.9645,0.41809 3.9621,0.62787 5.9516,0.88619 3.4224,0.43261 6.8685,0.60933 10.314,0.71591 3.0899,0.07451 6.1809,0.07278 9.2715,0.0718 2.7578,0.03448 5.5044,-0.32062 8.222,-0.75724 3.2256,-0.53617 6.4534,-1.0645 9.6735,-1.6331 2.3592,-0.45342 4.7693,-0.7308 7.0797,-1.4079 l -0.29067,0.48026 c -2.3244,0.6373 -4.7252,0.94732 -7.0913,1.386 -3.2225,0.56415 -6.4501,1.1019 -9.678,1.6337 -2.7282,0.42869 -5.4828,0.7838 -8.2503,0.73979 -3.0915,-0.0022 -6.1835,-0.0025 -9.2742,-0.07899 -3.4513,-0.11103 -6.9026,-0.29575 -10.331,-0.72729 -1.9955,-0.25409 -3.9979,-0.4691 -5.9687,-0.88382 -1.3394,-0.23238 -2.7182,-0.23007 -4.0443,-0.5672 -2.1229,-0.40763 -4.2715,-0.66677 -6.3704,-1.1978 -2.946,-0.55021 -5.8734,-1.2053 -8.8398,-1.6431 -2.5522,-0.3693 -5.1457,-0.61631 -7.7259,-0.52001 -1.6236,0.12845 -3.232,0.36757 -4.8408,0.61837 -1.4232,0.12875 -2.8244,0.388 -4.2437,0.53462 -1.9131,0.20609 -3.7969,0.58976 -5.6912,0.92045 -3.1672,0.45481 -6.314,1.0436 -9.4714,1.5608 -4.2278,0.63645 -8.4736,1.1175 -12.701,1.7542 -3.568,0.50283 -7.1359,1.0309 -10.739,1.211 -2.497,0.17246 -4.9928,0.18522 -7.4946,0.08898 -1.9816,-0.06605 -3.967,-0.14371 -5.9299,-0.44417 l 0.37012,-0.42886 z"
     id="path159"
     inkscape:connector-curvature="0"
     style="fill:none;stroke:#dabf44;stroke-width:3.5;filter:url(#f)" />
  <path
     d="M 163.72911,249.65276 300.21515,172.03353 339.80803,159.8044"
     id="path161"
     inkscape:connector-curvature="0"
     style="fill:none;stroke:#000000;stroke-width:0.71524" />
  <path
     d="M 170.3548,257.0488 298.22251,180.86217"
     id="path163"
     inkscape:connector-curvature="0"
     style="fill:none;stroke:#000000;stroke-width:0.71524" />
  <path
     d="m 176.35214,265.39651 c 1.77163,-1.02285 140.45517,-84.04452 140.45517,-84.04452 l 32.60601,-14.10074"
     id="path165"
     inkscape:connector-curvature="0"
     style="fill:none;stroke:#000000;stroke-width:0.71524" />
  <path
     transform="matrix(1.54854,-0.89405,0.89405,1.54854,-446.5892,424.07045)"
     d="m 544.37,77.908 c 11.913,3.406 48.191,-4.1271 34.451,18.37 l -9.8262,19.988 9.0172,-9.0663 c 8.2299,-4.8324 10.501,-9.2924 12.776,-13.753 l 0.97652,-16.989 -47.395,1.4504 z"
     id="path167"
     inkscape:connector-curvature="0"
     style="fill:#e3c743;filter:url(#j)" />
  <path
     d="m 375.19435,157.6813 c 1.70306,-2.1644 16.60641,-17.26485 16.60641,-17.26485 L 551.84304,39.15782"
     id="path169"
     inkscape:connector-curvature="0"
     style="fill:none;stroke:#000000;stroke-width:0.71524" />
  <path
     d="m 409.61158,108.87371 c 2.9132,-1.09139 136.16061,-79.202914 136.16061,-79.202914"
     id="path171"
     inkscape:connector-curvature="0"
     style="fill:none;stroke:#000000;stroke-width:0.71524" />
  <path
     d="M 409.62015,97.64854 C 411.83466,96.36999 542.23871,20.490627 542.23871,20.490627"
     id="path173"
     inkscape:connector-curvature="0"
     style="fill:none;stroke:#000000;stroke-width:0.71524" />
  <path
     d="m 733.29791,416.87487 -331.29802,191.275"
     id="path175"
     inkscape:connector-curvature="0"
     style="fill:none;stroke:#000000;stroke-width:1.07290006" />
  <path
     d="m 783.7696,480.43439 -335.36834,193.625"
     id="path177"
     inkscape:connector-curvature="0"
     style="fill:none;stroke:#000000;stroke-width:1.07290006" />
  <path
     d="M 203.73318,283.30185 C 208.74409,280.4088 539.17009,92.09562 539.17009,92.09562"
     id="path179"
     inkscape:connector-curvature="0"
     style="fill:none;stroke:#000000;stroke-width:0.53643" />
  <path
     d="m 396.70779,596.56367 c 52.6814,-68.22513 92.95604,-83.17541 162.22473,-121.65852 68.21489,-39.27834 100.19641,-79.35472 110.22484,-152.14498 l -17.57837,-35.30822 -16.36427,-29.58904 c -5.30812,39.38806 -2.22762,65.83965 -18.70373,101.29017 -17.83741,38.62671 -22.39061,54.76434 -67.16898,77.71192 -66.71081,33.40549 -143.71361,55.36073 -167.98145,135.9876 l 15.35621,23.70473 z"
     id="path181"
     inkscape:connector-curvature="0"
     style="fill:#cf1f20" />
  <path
     transform="matrix(1.54854,-0.89405,0.89405,1.54854,-446.5892,424.07045)"
     d="m 385.07,287.6 c -4.7977,5.7792 -11.681,10.646 -13.97,17.523 -0.14939,7.1321 -3.9483,12.018 -11.109,14.836 l -0.40448,-16.584 c 9.5873,-9.1337 15.517,-12.017 25.483,-15.775 z"
     id="path183"
     inkscape:connector-curvature="0"
     style="fill:#ae2425;filter:url(#p)" />
  <path
     transform="matrix(1.54854,-0.89405,0.89405,1.54854,-446.5892,424.07045)"
     d="m 569.17,225.76 c -5.2996,22.711 -12.745,36.266 -22.76,45.633 -16.088,15.048 -38.807,19.285 -69.91,33.308 1.7827,2.1549 29.745,-0.57141 30.318,-1.7161 27.469,-6.4714 47.823,-20.058 62.352,-39.47 -0.0438,-8.5184 -0.40795,-17.117 1.618,-25.118 0,0 0.0981,-16.641 -1.618,-12.636 z"
     id="path185"
     inkscape:connector-curvature="0"
     style="fill:#b32324;filter:url(#q)" />
  <text
     transform="matrix(1.54854,-0.89405,0.89405,1.54854,-446.5892,424.07045)"
     x="367.30817"
     y="343.32803"
     font-size="14.739"
     id="text189"
     style="font-size:14.73900032px;font-family:'Bitstream Vera Sans';stroke:#000000;stroke-width:0.36848;filter:url(#a)">
    <tspan
       x="367.30817"
       y="343.32803"
       id="tspan187"
       style="stroke-width:0.36848">vector chips</tspan>
  </text>
  <path
     transform="matrix(1.54854,-0.89405,0.89405,1.54854,-446.5892,424.07045)"
     d="m 417.43,384.27 15.371,4.0449 12.944,-4.0449 40.449,1.618 22.651,1.618 27.505,-6.4718 24.269,-1.618"
     id="path191"
     inkscape:connector-curvature="0"
     style="fill:none;stroke:#dabf44;stroke-width:3.20000005;filter:url(#e)" />
  <path
     transform="matrix(1.54854,-0.89405,0.89405,1.54854,-446.5892,424.07045)"
     d="m 566.69,272.64 0.80899,29.932 3.2359,14.966 -19.011,0.80899"
     id="path193"
     inkscape:connector-curvature="0"
     style="fill:none;stroke:#ffffff;stroke-width:3.5;filter:url(#g)" />
  <path
     transform="matrix(1.54854,-0.89405,0.89405,1.54854,-446.5892,424.07045)"
     d="m 493.67,121.65 46.322,5.1758 25.754,-6.892"
     id="path195"
     inkscape:connector-curvature="0"
     style="fill:none;stroke:#ffffff;stroke-width:4;filter:url(#c)" />
  <path
     transform="matrix(1.54854,-0.89405,0.89405,1.54854,-446.5892,424.07045)"
     d="m 353.62,103.94 c 2.4262,-0.37547 4.8267,-0.88668 7.2645,-1.2038 1.9126,-0.0853 3.7734,-0.51797 5.6588,-0.80887 1.8236,-0.458 3.6691,-0.78451 5.5392,-0.96978 1.6644,-0.13879 3.3356,-0.14539 5.0045,-0.15186 l 4.8528,0.006 c 1.8013,0.24357 3.5913,0.51517 5.364,0.91758 2.0868,0.36962 4.074,1.1602 6.0692,1.8591 1.9905,0.86668 4.0491,1.5047 6.1897,1.855 1.7722,0.53612 3.6183,0.67293 5.4254,1.0203 1.7267,0.40469 3.4817,0.62827 5.2487,0.74649 1.399,0.32293 2.7946,0.61167 4.2243,0.75586 1.559,0.12529 3.1242,0.128 4.6872,0.1348 l 5.7059,-0.002 6.2462,-0.003 5.0515,-7.1e-4 4.8446,10e-6 4.8502,1e-5 6.1017,9.3e-4 c 1.674,0.01 3.3271,0.0866 4.9722,-0.24856 1.421,-0.37128 2.8999,-0.34819 4.3334,-0.62124 1.5117,-0.20712 2.949,-0.64361 4.4109,-1.0545 l -0.41359,0.68441 c -1.4647,0.42488 -2.9248,0.81009 -4.4369,1.0367 -1.439,0.23387 -2.9086,0.26616 -4.3297,0.62491 -1.6607,0.30547 -3.3347,0.20848 -5.0175,0.21213 l -6.1031,9.3e-4 h -4.8502 l -4.8446,-6e-5 -5.0506,-4.8e-4 -6.2449,0.002 c -1.9031,0.002 -3.8063,0.008 -5.7094,0.004 -1.5712,-0.009 -3.1451,-0.0141 -4.7115,-0.15292 -1.4246,-0.15602 -2.8129,-0.46464 -4.2152,-0.75019 -1.7758,-0.12946 -3.5372,-0.37035 -5.2742,-0.77014 -1.8098,-0.32764 -3.6456,-0.50676 -5.4216,-1.0166 -2.151,-0.37343 -4.2172,-1.0327 -6.2256,-1.8909 -1.9895,-0.68812 -3.964,-1.4776 -6.0456,-1.8343 -1.7537,-0.3934 -3.5288,-0.66532 -5.3138,-0.8735 -1.6171,-0.002 -3.2342,-0.007 -4.8513,-0.005 -1.661,0.008 -3.3245,0.0186 -4.98,0.16848 -1.8652,0.19789 -3.7006,0.54916 -5.526,0.97931 -1.8843,0.30089 -3.7513,0.69971 -5.6625,0.80106 -2.4369,0.32548 -4.8372,0.84152 -7.2655,1.2111 l 0.44855,-0.66225 z"
     id="path197"
     inkscape:connector-curvature="0"
     style="fill:none;stroke:#dabf44;stroke-width:4;filter:url(#b)" />
</svg>
