<?xml version="1.0" encoding="UTF-8"?>
<svg version="1.1" viewBox="0 0 222.62 303.61" xmlns="http://www.w3.org/2000/svg" xmlns:xlink="http://www.w3.org/1999/xlink">
 <defs>
  <linearGradient id="s">
   <stop stop-color="#363634" offset="0"/>
   <stop stop-color="#3b3b3b" offset="1"/>
  </linearGradient>
  <linearGradient id="a">
   <stop stop-color="#dddad1" offset="0"/>
   <stop stop-color="#cfcec8" offset=".5"/>
   <stop stop-color="#9c9999" offset="1"/>
  </linearGradient>
  <filter id="w" color-interpolation-filters="sRGB">
   <feGaussianBlur stdDeviation="1.8285715"/>
  </filter>
  <linearGradient id="x" x1="-98.995" x2="132.33" y1="271.01" y2="271.01" gradientUnits="userSpaceOnUse">
   <stop stop-color="#d5d7c0" offset="0"/>
   <stop stop-color="#c7caaf" offset=".5"/>
   <stop stop-color="#dfe1ca" offset="1"/>
  </linearGradient>
  <linearGradient id="y" x1="85.714" x2="93.571" y1="225.22" y2="225.22" gradientTransform="matrix(.61431 0 0 1.4018 32.815 -94.652)" gradientUnits="userSpaceOnUse" xlink:href="#a"/>
  <linearGradient id="z" x1="87.883" x2="87.79" y1="201.94" y2="210.27" gradientTransform="translate(.55163)" gradientUnits="userSpaceOnUse" xlink:href="#a"/>
  <linearGradient id="aa" x1="88.036" x2="88.036" y1="207.09" y2="204.06" gradientTransform="matrix(1.0082 0 0 1 -.87668 0)" gradientUnits="userSpaceOnUse">
   <stop stop-color="#fff" stop-opacity=".75887" offset="0"/>
   <stop stop-color="#fff" stop-opacity="0" offset="1"/>
  </linearGradient>
  <linearGradient id="ab" x1="229.53" x2="245.5" y1="440.13" y2="440.13" gradientTransform="matrix(.80821 .58889 -.58889 .80821 94.385 -60.336)" gradientUnits="userSpaceOnUse" xlink:href="#a"/>
  <linearGradient id="ac" x1="229.53" x2="245.5" y1="440.13" y2="440.13" gradientTransform="matrix(-.80821 .58889 .58889 .80821 81.381 -60.336)" gradientUnits="userSpaceOnUse" xlink:href="#a"/>
  <linearGradient id="ad" x1="289.5" x2="297.47" y1="217.84" y2="217.84" gradientTransform="translate(-535.69 -78.429)" gradientUnits="userSpaceOnUse" xlink:href="#a"/>
  <linearGradient id="ae" x1="154.52" x2="245.48" y1="147.36" y2="147.36" gradientTransform="matrix(-.86808 -.49642 -.49642 .86808 397.98 194.84)" gradientUnits="userSpaceOnUse" xlink:href="#s"/>
  <linearGradient id="af" x1="289.5" x2="297.47" y1="217.84" y2="217.84" gradientTransform="translate(-383.15 8.7995)" gradientUnits="userSpaceOnUse" xlink:href="#a"/>
  <linearGradient id="ag" x1="154.52" x2="245.48" y1="147.36" y2="147.36" gradientTransform="matrix(.86808 -.49642 .49642 .86808 -222.27 194.84)" gradientUnits="userSpaceOnUse" xlink:href="#s"/>
  <linearGradient id="t" x1="117.57" x2="117.79" y1="338.69" y2="332.62" gradientTransform="translate(-.16679 -.35538)" gradientUnits="userSpaceOnUse">
   <stop offset="0"/>
   <stop stop-color="#4e4e4e" offset="1"/>
  </linearGradient>
  <radialGradient id="u" cx="12.627" cy="206.86" r="4.5406" gradientUnits="userSpaceOnUse" xlink:href="#a"/>
  <radialGradient id="v" cx="-63.929" cy="143.43" r="2.8571" gradientUnits="userSpaceOnUse">
   <stop stop-color="#fff" offset="0"/>
   <stop stop-color="#fff" stop-opacity="0" offset="1"/>
  </radialGradient>
  <radialGradient id="ah" cx="320" cy="332.36" r="10.964" gradientUnits="userSpaceOnUse">
   <stop stop-color="#e6e6e6" stop-opacity=".53901" offset="0"/>
   <stop stop-color="#e6e6e6" stop-opacity="0" offset="1"/>
  </radialGradient>
  <radialGradient id="ai" cx="87.883" cy="335.66" r="106.31" gradientTransform="matrix(2.8104 .0067188 -.0067537 2.825 -156.83 -613.15)" gradientUnits="userSpaceOnUse">
   <stop offset="0"/>
   <stop stop-color="#fff" offset="1"/>
  </radialGradient>
 </defs>
 <g transform="translate(23.429 -147.99)">
  <path transform="matrix(.86414 0 0 .86414 73.48 101.47)" d="m132.33 271.01c0 63.879-51.784 115.66-115.66 115.66-63.879 0-115.66-51.784-115.66-115.66 0-63.879 51.784-115.66 115.66-115.66 63.879 0 115.66 51.784 115.66 115.66z" fill="url(#x)"/>
  <g transform="matrix(.93027 0 0 .93027 5.1311 25.273)">
   <g transform="matrix(.99953 .03056 -.03056 .99953 0 0)">
    <path d="m159.09 285.39c-1.288 2e-5 -2.3147 0.43868-3.08 1.316-0.74667 0.85868-1.12 1.82-1.12 2.884 0 1.288 0.42933 2.3147 1.288 3.08 0.87733 0.74668 1.848 1.12 2.912 1.12 0.55999 1e-5 1.0827-0.10266 1.568-0.308l-1.4 2.044h-0.168c-1.624 1e-5 -3.024-0.58799-4.2-1.764-1.1573-1.1947-1.736-2.5853-1.736-4.172 0-1.624 0.56-3.0146 1.68-4.172 1.1387-1.1573 2.5573-1.736 4.256-1.736 1.064 2e-5 2.044 0.26135 2.94 0.784 0.91466 0.50402 1.6333 1.2134 2.156 2.128 0.54132 0.91468 0.81199 1.9134 0.812 2.996-1e-5 1.2134-0.33601 2.324-1.008 3.332l-7.196 10.332h8.372v1.736h-11.676l9.1-13.076c0.46666-0.70932 0.69999-1.484 0.7-2.324-1e-5 -1.176-0.40134-2.1653-1.204-2.968-0.80268-0.82132-1.8013-1.232-2.996-1.232"/>
   </g>
   <g transform="rotate(-.63634)">
    <path d="m114.51 393.54 0.952-7.252h6.776v1.708h-5.264l-0.448 3.416h0.28c1.1013 1e-5 2.1467 0.21468 3.136 0.644 0.98933 0.41068 1.82 0.96134 2.492 1.652 0.67199 0.69068 1.2227 1.54 1.652 2.548 0.44799 1.008 0.67199 2.0347 0.672 3.08-1e-5 1.4187-0.35468 2.744-1.064 3.976-0.69068 1.2133-1.652 2.184-2.884 2.912-1.232 0.70933-2.5667 1.064-4.004 1.064-1.1947 0-2.2773-0.24267-3.248-0.728l0.784-1.512c0.76533 0.336 1.5867 0.504 2.464 0.504 1.8107 0 3.2947-0.62533 4.452-1.876 1.176-1.2507 1.764-2.6973 1.764-4.34-1e-5 -1.736-0.62534-3.2013-1.876-4.396-1.232-1.2133-2.6787-1.82-4.34-1.82-0.76534 1e-5 -1.5307 0.14001-2.296 0.42"/>
   </g>
   <g transform="matrix(.99964 .026698 -.026698 .99964 0 0)">
    <path d="m35.059 364.41c-0.87734-0.82132-1.316-1.8387-1.316-3.052-3e-6 -1.1573 0.41066-2.1466 1.232-2.968 0.82133-0.82132 1.8107-1.232 2.968-1.232 0.78399 2e-5 1.484 0.19602 2.1 0.588 0.61599 0.35468 1.12 0.84935 1.512 1.484 0.39199 0.63468 0.58799 1.344 0.588 2.128-1.2e-5 1.2133-0.44801 2.2307-1.344 3.052 1.3813 0.56001 2.4827 1.4653 3.304 2.716 0.83998 1.2507 1.26 2.632 1.26 4.144-1.5e-5 2.016-0.72801 3.7613-2.184 5.236s-3.2013 2.212-5.236 2.212c-2.016 0-3.7613-0.728-5.236-2.184s-2.212-3.2107-2.212-5.264c0-0.56 0.03733-1.0547 0.112-1.484 0.07467-0.42933 0.26133-0.98933 0.56-1.68 0.31733-0.70933 0.812-1.4 1.484-2.072 0.672-0.67199 1.4747-1.2133 2.408-1.624m2.884-5.516c-0.69067 1e-5 -1.2787 0.25201-1.764 0.756-0.48534 0.50401-0.728 1.0734-0.728 1.708-5e-6 0.69068 0.252 1.288 0.756 1.792 0.52266 0.46668 1.1013 0.70001 1.736 0.7 0.67199 1e-5 1.2507-0.25199 1.736-0.756 0.48532-0.50399 0.72799-1.0826 0.728-1.736-1e-5 -0.67199-0.23334-1.2506-0.7-1.736-0.46668-0.48532-1.0547-0.72799-1.764-0.728m0 6.664c-1.736 1e-5 -3.1267 0.60667-4.172 1.82-1.0267 1.1947-1.54 2.492-1.54 3.892-2e-6 1.7173 0.59733 3.0987 1.792 4.144s2.5013 1.568 3.92 1.568c1.736 0 3.1173-0.59734 4.144-1.792 1.0453-1.1947 1.568-2.5013 1.568-3.92-1.3e-5 -1.6053-0.55068-2.9587-1.652-4.06s-2.4547-1.652-4.06-1.652"/>
   </g>
   <g transform="rotate(.78635)">
    <path d="m58.921 265.52v21.028h-1.736v-18.788l-1.848 0.616v-1.652l3.584-1.204"/>
    <path d="m63.733 265.52v21.028h-1.736v-18.788l-1.848 0.616v-1.652l3.584-1.204"/>
   </g>
   <g transform="rotate(1.187)">
    <path d="m133.44 261.27v21.028h-1.736v-18.788l-1.848 0.616v-1.652l3.584-1.204"/>
   </g>
   <g transform="rotate(1.1166)">
    <path d="m158.3 360.08-4.48 7.728h4.48v-7.728m1.736 14.672h-1.736v-5.236h-7.448l9.184-15.876v14.168h2.464v1.708h-2.464v5.236"/>
   </g>
   <g transform="rotate(-3.065)">
    <path d="m36.672 387.39h-6.384v-1.708h8.764l-6.804 21-1.652-0.532 6.076-18.76"/>
   </g>
   <g transform="matrix(.99996 .0085073 -.0085073 .99996 0 0)">
    <path d="m24.614 290.54v21.028h-1.736v-18.788l-1.848 0.616v-1.652l3.584-1.204"/>
    <path d="m36.819 290.01c1.4933 2e-5 2.912 0.28935 4.256 0.868 1.344 0.56002 2.5106 1.3254 3.5 2.296 0.98931 0.97068 1.7733 2.156 2.352 3.556 0.57864 1.3814 0.86798 2.8093 0.868 4.284-2.3e-5 1.4747-0.28936 2.884-0.868 4.228-0.56002 1.344-1.344 2.52-2.352 3.528-0.98935 0.98933-2.156 1.7733-3.5 2.352-1.344 0.57867-2.7627 0.868-4.256 0.868-1.456 0-2.856-0.28-4.2-0.84-1.3253-0.56-2.5013-1.3533-3.528-2.38-1.008-1.0267-1.8013-2.2027-2.38-3.528-0.57867-1.344-0.868-2.7533-0.868-4.228-1e-6 -1.456 0.28-2.8653 0.84-4.228 0.56-1.3813 1.344-2.5666 2.352-3.556 1.0267-1.008 2.2213-1.792 3.584-2.352 1.3627-0.57865 2.7627-0.86798 4.2-0.868m0 1.736c-2.632 2e-5 -4.8347 0.91469-6.608 2.744-1.7547 1.8294-2.632 4.004-2.632 6.524-2e-6 2.6507 0.91466 4.8627 2.744 6.636 1.8293 1.7547 3.9947 2.632 6.496 2.632 2.632 0 4.6106-0.69067 5.936-2.072 1.3253-1.4 2.212-2.6693 2.66-3.808 0.44798-1.1573 0.67198-2.2867 0.672-3.388-2.1e-5 -2.632-0.92402-4.8346-2.772-6.608-1.8294-1.7733-3.9947-2.66-6.496-2.66"/>
   </g>
   <path d="m154.02 343.73c1.0453 0.59733 2.1373 0.896 3.276 0.896s2.1933-0.28 3.164-0.84c0.98933-0.56 1.7733-1.3347 2.352-2.324 0.57866-1.008 0.86799-2.0813 0.868-3.22-1e-5 -1.1573-0.28934-2.2213-0.868-3.192-0.56001-0.97066-1.3347-1.7453-2.324-2.324-0.98934-0.57865-2.0533-0.86799-3.192-0.868h-1.596l3.892-5.124h-4.368v-1.736h7.756l-4.004 5.32c1.2133 0.26135 2.3053 0.77468 3.276 1.54 0.98932 0.74668 1.764 1.68 2.324 2.8 0.55999 1.12 0.83999 2.3147 0.84 3.584-1e-5 1.4373-0.36401 2.7907-1.092 4.06-0.72801 1.2507-1.7173 2.24-2.968 2.968-1.232 0.728-2.5853 1.092-4.06 1.092s-2.8373-0.37333-4.088-1.12l0.812-1.512"/>
   <path d="m88.166 397.6c0.29866-0.0747 0.63466-0.13998 1.008-0.196 0.37332-0.056 0.72799-0.084 1.064-0.084 1.4187 2e-5 2.744 0.36402 3.976 1.092 1.232 0.72802 2.212 1.708 2.94 2.94 0.72798 1.2134 1.092 2.5387 1.092 3.976-1.7e-5 1.4-0.36402 2.716-1.092 3.948-0.70935 1.2133-1.68 2.1933-2.912 2.94-1.232 0.74667-2.5667 1.12-4.004 1.12-1.4933 0-2.8373-0.35466-4.032-1.064-1.176-0.70933-2.1373-1.6893-2.884-2.94-0.728-1.2507-1.092-2.5853-1.092-4.004-1e-6 -1.7173 0.504-3.2946 1.512-4.732l6.72-8.904 1.4 1.008-3.696 4.9m2.072 1.456c-1.1947 2e-5 -2.268 0.28935-3.22 0.868-0.952 0.56002-1.6987 1.3347-2.24 2.324-0.54134 0.97068-0.812 1.9973-0.812 3.08-3e-6 1.1947 0.28 2.268 0.84 3.22 0.57866 0.93334 1.3533 1.68 2.324 2.24 0.97066 0.54134 2.0067 0.812 3.108 0.812 1.1947 0 2.2587-0.28 3.192-0.84 0.93332-0.55999 1.68-1.3253 2.24-2.296 0.55998-0.97066 0.83998-2.016 0.84-3.136-1.5e-5 -1.2133-0.28935-2.2773-0.868-3.192-0.57868-0.93332-1.3533-1.68-2.324-2.24-0.97068-0.55998-1.9973-0.83998-3.08-0.84"/>
   <path d="m22.182 340.66c-0.63468 0.14934-1.1947 0.22401-1.68 0.224-1.4933 1e-5 -2.8373-0.35466-4.032-1.064-1.1947-0.72799-2.156-1.708-2.884-2.94s-1.092-2.5666-1.092-4.004c0-1.4373 0.35467-2.7626 1.064-3.976 0.728-1.232 1.6987-2.212 2.912-2.94 1.232-0.72798 2.576-1.092 4.032-1.092 1.4187 2e-5 2.744 0.36402 3.976 1.092 1.232 0.72802 2.212 1.708 2.94 2.94 0.72798 1.2134 1.092 2.5387 1.092 3.976-1.6e-5 1.6614-0.50402 3.2387-1.512 4.732l-7.7 9.128-1.372-1.036 4.256-5.04m-1.68-1.512c1.1947 1e-5 2.2587-0.27999 3.192-0.84 0.93332-0.55999 1.68-1.3253 2.24-2.296 0.55999-0.97065 0.83998-2.016 0.84-3.136-1.5e-5 -1.2133-0.28935-2.2773-0.868-3.192-0.57868-0.93331-1.3533-1.68-2.324-2.24-0.97068-0.55998-1.9973-0.83998-3.08-0.84-0.63467 2e-5 -1.204 0.0654-1.708 0.196-0.48534 0.13069-1.092 0.42002-1.82 0.868-0.70934 0.44802-1.344 1.1667-1.904 2.156-0.56 0.97068-0.84 1.988-0.84 3.052-2e-6 1.1947 0.28 2.268 0.84 3.22 0.57866 0.93335 1.3533 1.68 2.324 2.24 0.97066 0.54134 2.0067 0.81201 3.108 0.812"/>
   <path d="m85.236 254.25v21.028h-1.736v-18.788l-1.848 0.616v-1.652l3.584-1.204"/>
   <path d="m92.401 255.68c-1.288 2e-5 -2.3147 0.43869-3.08 1.316-0.74667 0.85869-1.12 1.82-1.12 2.884-2e-6 1.288 0.42933 2.3147 1.288 3.08 0.87733 0.74668 1.848 1.12 2.912 1.12 0.55999 2e-5 1.0827-0.10265 1.568-0.308l-1.4 2.044h-0.168c-1.624 1e-5 -3.024-0.58799-4.2-1.764-1.1573-1.1946-1.736-2.5853-1.736-4.172 0-1.624 0.56-3.0146 1.68-4.172 1.1387-1.1573 2.5573-1.736 4.256-1.736 1.064 3e-5 2.044 0.26136 2.94 0.784 0.91466 0.50402 1.6333 1.2134 2.156 2.128 0.54132 0.91469 0.81199 1.9134 0.812 2.996-1.2e-5 1.2134-0.33601 2.324-1.008 3.332l-7.196 10.332h8.372v1.736h-11.676l9.1-13.076c0.46666-0.70932 0.69999-1.484 0.7-2.324-1e-5 -1.176-0.40134-2.1653-1.204-2.968-0.80268-0.82131-1.8013-1.232-2.996-1.232"/>
  </g>
  <rect x="85.47" y="210.04" width="4.8267" height="22.028" rx=".67355" ry=".93065" fill="url(#y)"/>
  <rect x="76.818" y="201.31" width="22.13" height="9.3439" rx=".67355" ry=".93065" fill="url(#z)"/>
  <rect x="76.898" y="204.15" width="21.964" height="3.3929" rx="0" ry="0" fill="url(#aa)" opacity=".50538"/>
  <path d="m28.625 420.52-10.258 23.218c0.92154 2.0427 2.2338 2.55 3.5961 2.8605l18.763-17.261z" fill="url(#ab)"/>
  <path d="m147.14 420.52 10.258 23.218c-0.92154 2.0427-2.2338 2.55-3.5961 2.8605l-18.763-17.261z" fill="url(#ac)"/>
  <path d="m172.29 335.22s-0.44902 9.1122-0.44902 9.1122-4.7524-0.57527-4.7524-0.57527 0.41523-8.6296 0.41523-8.6296 4.7862 0.0926 4.7862 0.0926m-0.44902 9.1122l-1.4248 9.0086-4.6708-1.0489 1.3431-8.535s4.7524 0.57527 4.7524 0.57527m-1.4248 9.0086s-2.3879 8.7993-2.3879 8.7993l-4.5436-1.5074s2.2607-8.3408 2.2607-8.3408l4.6708 1.0489m-2.3879 8.7993l-3.3213 8.4882-4.3737-1.9461s3.1514-8.0495 3.1514-8.0495l4.5436 1.5074m-3.3213 8.4882s-4.2115 8.0816-4.2115 8.0816l-4.1641-2.3616 4.002-7.6662 4.3737 1.9461m-4.2115 8.0816l-5.144 7.6584-3.7815-2.9356s4.7614-7.0844 4.7614-7.0844l4.1641 2.3616m-5.144 7.6584s-5.8674 6.9672-5.8674 6.9672l-3.4843-3.2828s5.5703-6.62 5.5703-6.62l3.7815 2.9356m-5.8674 6.9672l-6.5716 6.3066s-3.1557-3.5998-3.1557-3.5998l6.243-5.9896 3.4843 3.2828m-6.5716 6.3066l-7.2039 5.5757s-2.7974-3.8848-2.7974-3.8848l6.8456-5.2907s3.1557 3.5998 3.1557 3.5998m-7.2039 5.5757l-7.8783 4.8033s-2.2075-4.2478-2.2075-4.2478l7.2884-4.4402s2.7974 3.8848 2.7974 3.8848m-7.8783 4.8033l-8.2511 3.8706s-1.7823-4.443-1.7823-4.443l7.8259-3.6755s2.2075 4.2478 2.2075 4.2478m-8.2511 3.8706l-8.6216 2.9617-1.335-4.5972 8.1743-2.8074s1.7823 4.443 1.7823 4.443m-8.6216 2.9617l-8.8937 2.0147-0.8695-4.7075 8.4282-1.9044 1.335 4.5972m-8.8937 2.0147l-9.062 1.0448-0.39127-4.7711s8.5837-0.98122 8.5837-0.98122l0.8695 4.7075m-9.062 1.0448l-9.2443 0.0548 0.33467-4.7754 8.5183-0.0505 0.39127 4.7711m-9.2443 0.0548s-9.0737-0.93726-9.0737-0.93726l0.81362-4.7175 8.5948 0.87933-0.33467 4.7754m-9.0737-0.93726l-8.917-1.909 1.2804-4.6128 8.4502 1.8043-0.81362 4.7175m-8.917-1.909l-8.6562-2.8592 1.7295-4.4638 8.207 2.7103-1.2804 4.6128m-8.6562-2.8592l-8.2964-3.7725 2.157-4.2737 7.869 3.5824-1.7295 4.4638m-8.2964-3.7725l-7.9347-4.7095s2.7511-3.9177 2.7511-3.9177l7.3406 4.3535-2.157 4.2737m-7.9347-4.7095l-7.2695-5.4899s3.1128-3.6369 3.1128-3.6369l6.9078 5.2091s-2.7511 3.9177-2.7511 3.9177m-7.2695-5.4899l-6.646-6.2282 3.4452-3.3238 6.3137 5.9151s-3.1128 3.6369-3.1128 3.6369m-6.646-6.2282s-5.9496-6.8971-5.9496-6.8971l3.7464-2.9802s5.6484 6.5534 5.6484 6.5534l-3.4452 3.3238m-5.9496-6.8971s-5.2345-7.5969-5.2345-7.5969l4.1358-2.4108s4.8451 7.0275 4.8451 7.0275l-3.7464 2.9802m-5.2345-7.5969s-4.3071-8.0311-4.3071-8.0311l4.3503-1.9979s4.0926 7.6182 4.0926 7.6182l-4.1358 2.4108m-4.3071-8.0311l-3.4217-8.4482 4.5254-1.5612 3.2466 8.0116-4.3503 1.9979m-3.4217-8.4482l-2.4921-8.7704 4.6581-1.1042s2.3594 8.3134 2.3594 8.3134l-4.5254 1.5612m-2.4921-8.7704l-1.5315-8.9911s4.7453-0.63161 4.7453-0.63161l1.4443 8.5185-4.6581 1.1042m-1.5315-8.9911s-0.55708-9.1063-0.55708-9.1063l4.7848-0.14938s0.51757 8.624 0.51757 8.624-4.7453 0.63161-4.7453 0.63161m-0.55708-9.1063l0.4483-9.2332s4.7524 0.57527 4.7524 0.57527-0.41595 8.5086-0.41595 8.5086l-4.7848 0.14938m0.4483-9.2332l1.4248-9.0086 4.6708 1.0489-1.3431 8.535s-4.7524-0.57527-4.7524-0.57527m1.4248-9.0086s2.3879-8.7993 2.3879-8.7993l4.5436 1.5074s-2.2607 8.3408-2.2607 8.3408l-4.6708-1.0489m2.3879-8.7993l3.3213-8.4882 4.3737 1.9461s-3.1514 8.0495-3.1514 8.0495l-4.5436-1.5074m3.3213-8.4882s4.2115-8.0816 4.2115-8.0816l4.1641 2.3616-4.002 7.6662-4.3737-1.9461m4.2115-8.0816s5.1441-7.6584 5.1441-7.6584l3.7815 2.9356s-4.7614 7.0844-4.7614 7.0844l-4.1641-2.3616m5.1441-7.6584s5.8674-6.9672 5.8674-6.9672l3.4844 3.2828s-5.5703 6.62-5.5703 6.62l-3.7815-2.9356m5.8674-6.9672l6.5716-6.3066s3.1557 3.5998 3.1557 3.5998l-6.243 5.9896-3.4844-3.2828m6.5716-6.3066l7.2039-5.5758s2.7974 3.8848 2.7974 3.8848l-6.8455 5.2907s-3.1557-3.5998-3.1557-3.5998m7.2039-5.5758l7.8783-4.8032s2.2075 4.2478 2.2075 4.2478l-7.2884 4.4402s-2.7974-3.8848-2.7974-3.8848m7.8783-4.8032l8.2511-3.8706s1.7823 4.443 1.7823 4.443l-7.8259 3.6755s-2.2075-4.2478-2.2075-4.2478m8.2511-3.8706l8.6216-2.9617 1.335 4.5972-8.1743 2.8074s-1.7823-4.443-1.7823-4.443m8.6216-2.9617l8.8937-2.0147 0.86953 4.7075-8.4282 1.9044-1.335-4.5972m8.8937-2.0147l9.062-1.0448 0.39127 4.7711s-8.5837 0.98121-8.5837 0.98121l-0.86953-4.7075m9.062-1.0448l9.2443-0.0548s-0.33466 4.7754-0.33466 4.7754l-8.5183 0.0505-0.39127-4.7711m9.2443-0.0548s9.0737 0.93726 9.0737 0.93726l-0.8136 4.7175-8.5948-0.87933s0.33466-4.7754 0.33466-4.7754m9.0737 0.93726l8.917 1.909s-1.2804 4.6127-1.2804 4.6127l-8.4502-1.8043 0.8136-4.7175m8.917 1.909l8.6561 2.8592-1.7295 4.4638-8.207-2.7103s1.2804-4.6127 1.2804-4.6127m8.6561 2.8592l8.2964 3.7725-2.157 4.2737-7.869-3.5824 1.7295-4.4638m8.2964 3.7725l7.9347 4.7095s-2.7511 3.9177-2.7511 3.9177l-7.3406-4.3535 2.157-4.2737m7.9347 4.7095l7.2695 5.4899-3.1128 3.637-6.9078-5.2091s2.7511-3.9177 2.7511-3.9177m7.2695 5.4899l6.646 6.2282-3.4451 3.3239-6.3137-5.9151 3.1128-3.637m6.646 6.2282s5.9497 6.8971 5.9497 6.8971l-3.7464 2.9802s-5.6484-6.5534-5.6484-6.5534l3.4451-3.3239m5.9497 6.8971s5.2345 7.5969 5.2345 7.5969l-4.1358 2.4108s-4.8451-7.0275-4.8451-7.0275l3.7464-2.9802m5.2345 7.5969s4.3071 8.0311 4.3071 8.0311l-4.3503 1.9979s-4.0926-7.6182-4.0926-7.6182l4.1358-2.4108m4.3071 8.0311l3.4217 8.4482-4.5254 1.5612-3.2466-8.0116 4.3503-1.9979m3.4217 8.4482l2.4921 8.7704-4.658 1.1042s-2.3595-8.3134-2.3595-8.3134l4.5254-1.5612m2.4921 8.7704l1.5315 8.9911-4.7453 0.6316-1.4443-8.5185 4.658-1.1042m1.5315 8.9911s0.55708 9.1063 0.55708 9.1063l-4.7848 0.14938s-0.51757-8.624-0.51757-8.624l4.7453-0.6316" fill="none" stroke="#1a1a1a" stroke-linecap="round" stroke-linejoin="round" stroke-width=".87002"/>
  <rect transform="matrix(-.86808 -.49642 -.49642 .86808 0 0)" x="-245.69" y="133.93" width="6.9695" height="10.959" rx="1.0964" ry=".66392" fill="url(#ad)"/>
  <path d="m158.66 210.46c22.773 13.023 33.081 32.8 24.171 48.382l-78.127-44.678c8.9104-15.581 31.184-16.726 53.956-3.7033z" fill="url(#ae)"/>
  <path d="m129.43 227.08c1.8727-3.802 4.6826-7.6933 8.9745-11.661l-7.3482-4.2022c-9.1537 0.6052-11.269 4.969-14.95 8.244z" fill="#d4d3d8" opacity=".5"/>
  <path d="m180.75 256.01c0.91062-22.349-8.2762-35.172-28.336-43.975 2.1842 9.5589-7.1235 23.697-6.3868 24.118z" fill="#d4d3d8" opacity=".5"/>
  <rect transform="matrix(.86808 -.49642 .49642 .86808 0 0)" x="-93.154" y="221.16" width="6.9695" height="10.959" rx="1.0964" ry=".66392" fill="url(#af)"/>
  <path d="m17.058 210.46c-22.773 13.023-33.081 32.8-24.171 48.382l78.128-44.68c-8.911-15.58-31.184-16.72-53.957-3.7z" fill="url(#ag)"/>
  <path d="m46.283 227.08c-1.8727-3.802-4.6826-7.6933-8.9745-11.661l7.3482-4.2022c9.1537 0.6052 11.269 4.969 14.95 8.244z" fill="#d4d3d8" opacity=".5"/>
  <path d="m-5.0313 256.01c-0.91062-22.349 8.2762-35.172 28.336-43.975-2.1841 9.5589 7.1235 23.697 6.3869 24.118z" fill="#d4d3d8" opacity=".5"/>
  <path d="m87.883 229.35c-58.718 0-106.31 47.594-106.31 106.31 0 58.718 47.594 106.31 106.31 106.31 58.718 0 106.31-47.594 106.31-106.31 0-58.718-47.594-106.31-106.31-106.31zm0 11.875c52.163 0 94.469 42.275 94.469 94.438s-42.306 94.469-94.469 94.469-94.438-42.306-94.438-94.469 42.275-94.438 94.438-94.438z" fill="#363634"/>
  <path transform="matrix(1.0311 0 0 1.0311 -25.562 -25.907)" d="m201.43 350.93c0 50.495-40.934 91.429-91.429 91.429s-91.429-40.934-91.429-91.429 40.934-91.429 91.429-91.429 91.429 40.934 91.429 91.429z" fill="none" filter="url(#w)" stroke="#000" stroke-width="2.9096"/>
  <path d="m95.654 333.85 22.036-1.5475 24.933 3.513-25.056 2.4857-21.954-2.4516z" fill="url(#t)"/>
  <path d="m95.654 333.85 22.036-1.5475 24.933 3.513-25.056 2.4857-21.954-2.4516z" fill="url(#t)"/>
  <path d="m94.644 334.1 22.036-1.5475 24.933 3.513-25.056 2.4857-21.954-2.4516z"/>
  <path d="m91.775 341.82 8.7868 29.847 4.2544 37.896-12.058-36.135-4.885-30.728z"/>
  <path d="m90.263 341.96-2.2458 0.60192 5.0452 31.19 11.65 35.496-14.45-67.289z" fill="#333"/>
  <path d="m117.96 332.3-22.062 1.5312-0.03125 1.4688h43.437l-21.344-3z" fill="#333"/>
  <path d="m89.344 153c-10.691-0.083-21.369 0.77331-30.594 2.625-9.2246 1.8517-16.996 4.5973-22 8.9062-9.3591 8.0595-10.931 18.037-9.9375 25.562 0.65198 4.9401 2.0501 8.2608 3.125 10.469l-20.656 12.25c-1.2599 0.75267-1.7214 2.5838-0.96875 3.8438 0.75267 1.2599 2.5838 1.7214 3.8437 0.96875l22.844-13.56s2.2118-0.54739 2.4375-1.4688c0.22358-0.91271-1.4688-2.4062-1.4688-2.4062s-2.7681-4.5569-3.5938-10.812c-0.82561-6.2556 0.11523-13.777 8.0312-20.594 3.6338-3.1292 10.707-5.9038 19.438-7.6562 8.73-1.7524 19.109-2.6117 29.469-2.5312 10.36 0.0804 20.717 1.0891 29.438 2.9688 8.7204 1.8797 15.786 4.7442 19.406 7.9062 7.8736 6.8775 8.8137 14.414 8 20.656-0.81374 6.2424-3.5625 10.781-3.5625 10.781s-1.6542 1.4753-1.4375 2.375c0.21794 0.90495 2.375 1.4688 2.375 1.4688l22.156 13.562c1.2524 0.83813 3.1676 0.41501 3.9504-0.8727 0.78272-1.2877 0.2765-3.1827-1.0441-3.9086l-19.969-12.25c1.0664-2.2028 2.453-5.5225 3.0938-10.438 0.97874-7.5082-0.57868-17.474-9.875-25.594-4.965-4.3368-12.698-7.1715-21.906-9.1562-9.22-1.98-19.91-3.01-30.606-3.09z" color="#000000" fill="#ccc" style="block-progression:tb;text-indent:0;text-transform:none"/>
  <path d="m88.795 153.7c-18.21 0.48702-37.841 0.85914-51.946 12.465-5.6704 4.759-7.1847 10.583-8.2921 15.766 1.4356-4.3205 3.2625-9.2292 7.9321-13.148 4.9931-4.1906 11.855-7.9323 21.06-9.7331 9.2049-1.8008 19.86-2.6336 30.529-2.5529s21.34 1.0786 30.529 3.0088c9.1882 1.9302 16.905 4.6871 21.86 8.9048 9.2765 7.8972 10.831 17.589 9.854 24.891-0.12592 0.94142-0.26103 1.7891-0.43657 2.6137 0.47326-1.5322 0.87518-3.3268 1.1538-5.4098 0.97667-7.302-0.57745-16.994-9.854-24.891-4.9544-4.2177-12.671-6.9746-21.86-8.9048-9.1883-1.9302-19.86-2.9281-30.529-3.0088zm-57.232 27.073c-1.6937 7.4925-0.02206 15.073 2.1815 22.329 1.3838-0.14897 1.9937 0.0529 2.1828-0.99164-4.6117-6.4411-4.5406-15.437-4.3644-21.337zm114.68 14.19c-0.26547 2.9226-2.3917 5.7304-3.9782 7.3241 3.8636 2.2458 2.7691-1.654 3.9782-7.3241zm-116.53 6.98-19.558 11c-1.0717 0.624-2.8093 0.96521-2.4662 2.1197 2.4755 0.3795 1.7343-0.28261 1.9275-0.3951l20.077-10.12c-0.27589-0.55229 0.32012-1.8947 0.01972-2.5986zm118.11 0.38744c-1.1025 1.5146-0.76614 1.8353-1.1226 2.5529 6.302 3.8143 13.724 7.0416 19.926 11.914 0.6214 0.33287 1.6039-0.50555 1.8142 0.15182 0.18923-0.16238 0.36618-0.33422 0.49893-0.54705 0.78105-1.2524-0.27814-1.6949-1.596-2.4008z" color="#000000" fill="#ececec" opacity=".56989" style="block-progression:tb;text-indent:0;text-transform:none"/>
  <path transform="translate(3.0305 -2.2728)" d="m16.668 206.86c0 2.2316-1.809 4.0406-4.0406 4.0406s-4.0406-1.809-4.0406-4.0406 1.809-4.0406 4.0406-4.0406 4.0406 1.809 4.0406 4.0406z" fill="url(#u)"/>
  <path transform="matrix(.6875 0 0 .6875 58.859 104.39)" d="m-61.071 143.43c0 1.578-1.2792 2.8571-2.8571 2.8571-1.578 0-2.8571-1.2792-2.8571-2.8571 0-1.578 1.2792-2.8571 2.8571-2.8571 1.578 0 2.8571 1.2792 2.8571 2.8571z" fill="url(#v)" opacity=".56989"/>
  <path transform="translate(146.72 -3.0305)" d="m16.668 206.86c0 2.2316-1.809 4.0406-4.0406 4.0406s-4.0406-1.809-4.0406-4.0406 1.809-4.0406 4.0406-4.0406 4.0406 1.809 4.0406 4.0406z" fill="url(#u)"/>
  <path transform="matrix(.6875 0 0 .6875 204.15 103.22)" d="m-61.071 143.43c0 1.578-1.2792 2.8571-2.8571 2.8571-1.578 0-2.8571-1.2792-2.8571-2.8571 0-1.578 1.2792-2.8571 2.8571-2.8571 1.578 0 2.8571 1.2792 2.8571 2.8571z" fill="url(#v)" opacity=".56989"/>
  <g transform="translate(-203.01 116.43)">
   <path d="m308.28 188.34c0 9.6005-7.7827 17.383-17.383 17.383-9.6005 0-17.383-7.7827-17.383-17.383 0-9.6005 7.7827-17.383 17.383-17.383 9.6005 0 17.383 7.7827 17.383 17.383z" fill="none" stroke="#000" stroke-width=".15029"/>
  </g>
  <g transform="matrix(.1618 0 0 .1618 73.491 250.78)" stroke="#000">
   <g transform="matrix(.99953 .03056 -.03056 .99953 0 0)">
    <path d="m159.09 285.39c-1.288 2e-5 -2.3147 0.43868-3.08 1.316-0.74667 0.85868-1.12 1.82-1.12 2.884 0 1.288 0.42933 2.3147 1.288 3.08 0.87733 0.74668 1.848 1.12 2.912 1.12 0.55999 1e-5 1.0827-0.10266 1.568-0.308l-1.4 2.044h-0.168c-1.624 1e-5 -3.024-0.58799-4.2-1.764-1.1573-1.1947-1.736-2.5853-1.736-4.172 0-1.624 0.56-3.0146 1.68-4.172 1.1387-1.1573 2.5573-1.736 4.256-1.736 1.064 2e-5 2.044 0.26135 2.94 0.784 0.91466 0.50402 1.6333 1.2134 2.156 2.128 0.54132 0.91468 0.81199 1.9134 0.812 2.996-1e-5 1.2134-0.33601 2.324-1.008 3.332l-7.196 10.332h8.372v1.736h-11.676l9.1-13.076c0.46666-0.70932 0.69999-1.484 0.7-2.324-1e-5 -1.176-0.40134-2.1653-1.204-2.968-0.80268-0.82132-1.8013-1.232-2.996-1.232" stroke="#000"/>
   </g>
   <g transform="rotate(-.63634)">
    <path d="m114.51 393.54 0.952-7.252h6.776v1.708h-5.264l-0.448 3.416h0.28c1.1013 1e-5 2.1467 0.21468 3.136 0.644 0.98933 0.41068 1.82 0.96134 2.492 1.652 0.67199 0.69068 1.2227 1.54 1.652 2.548 0.44799 1.008 0.67199 2.0347 0.672 3.08-1e-5 1.4187-0.35468 2.744-1.064 3.976-0.69068 1.2133-1.652 2.184-2.884 2.912-1.232 0.70933-2.5667 1.064-4.004 1.064-1.1947 0-2.2773-0.24267-3.248-0.728l0.784-1.512c0.76533 0.336 1.5867 0.504 2.464 0.504 1.8107 0 3.2947-0.62533 4.452-1.876 1.176-1.2507 1.764-2.6973 1.764-4.34-1e-5 -1.736-0.62534-3.2013-1.876-4.396-1.232-1.2133-2.6787-1.82-4.34-1.82-0.76534 1e-5 -1.5307 0.14001-2.296 0.42" stroke="#000"/>
   </g>
   <g transform="matrix(.99964 .026698 -.026698 .99964 0 0)">
    <path d="m35.059 364.41c-0.87734-0.82132-1.316-1.8387-1.316-3.052-3e-6 -1.1573 0.41066-2.1466 1.232-2.968 0.82133-0.82132 1.8107-1.232 2.968-1.232 0.78399 2e-5 1.484 0.19602 2.1 0.588 0.61599 0.35468 1.12 0.84935 1.512 1.484 0.39199 0.63468 0.58799 1.344 0.588 2.128-1.2e-5 1.2133-0.44801 2.2307-1.344 3.052 1.3813 0.56001 2.4827 1.4653 3.304 2.716 0.83998 1.2507 1.26 2.632 1.26 4.144-1.5e-5 2.016-0.72801 3.7613-2.184 5.236s-3.2013 2.212-5.236 2.212c-2.016 0-3.7613-0.728-5.236-2.184s-2.212-3.2107-2.212-5.264c0-0.56 0.03733-1.0547 0.112-1.484 0.07467-0.42933 0.26133-0.98933 0.56-1.68 0.31733-0.70933 0.812-1.4 1.484-2.072 0.672-0.67199 1.4747-1.2133 2.408-1.624m2.884-5.516c-0.69067 1e-5 -1.2787 0.25201-1.764 0.756-0.48534 0.50401-0.728 1.0734-0.728 1.708-5e-6 0.69068 0.252 1.288 0.756 1.792 0.52266 0.46668 1.1013 0.70001 1.736 0.7 0.67199 1e-5 1.2507-0.25199 1.736-0.756 0.48532-0.50399 0.72799-1.0826 0.728-1.736-1e-5 -0.67199-0.23334-1.2506-0.7-1.736-0.46668-0.48532-1.0547-0.72799-1.764-0.728m0 6.664c-1.736 1e-5 -3.1267 0.60667-4.172 1.82-1.0267 1.1947-1.54 2.492-1.54 3.892-2e-6 1.7173 0.59733 3.0987 1.792 4.144s2.5013 1.568 3.92 1.568c1.736 0 3.1173-0.59734 4.144-1.792 1.0453-1.1947 1.568-2.5013 1.568-3.92-1.3e-5 -1.6053-0.55068-2.9587-1.652-4.06s-2.4547-1.652-4.06-1.652" stroke="#000"/>
   </g>
   <g transform="rotate(.78635)">
    <path d="m58.921 265.52v21.028h-1.736v-18.788l-1.848 0.616v-1.652l3.584-1.204"/>
    <path d="m63.733 265.52v21.028h-1.736v-18.788l-1.848 0.616v-1.652l3.584-1.204"/>
   </g>
   <g transform="rotate(1.187)">
    <path d="m133.44 261.27v21.028h-1.736v-18.788l-1.848 0.616v-1.652l3.584-1.204" stroke="#000"/>
   </g>
   <g transform="rotate(1.1166)">
    <path d="m158.3 360.08-4.48 7.728h4.48v-7.728m1.736 14.672h-1.736v-5.236h-7.448l9.184-15.876v14.168h2.464v1.708h-2.464v5.236" stroke="#000"/>
   </g>
   <g transform="rotate(-3.065)">
    <path d="m36.672 387.39h-6.384v-1.708h8.764l-6.804 21-1.652-0.532 6.076-18.76" stroke="#000"/>
   </g>
   <g transform="matrix(.99996 .0085073 -.0085073 .99996 0 0)">
    <path d="m24.614 290.54v21.028h-1.736v-18.788l-1.848 0.616v-1.652l3.584-1.204"/>
    <path d="m36.819 290.01c1.4933 2e-5 2.912 0.28935 4.256 0.868 1.344 0.56002 2.5106 1.3254 3.5 2.296 0.98931 0.97068 1.7733 2.156 2.352 3.556 0.57864 1.3814 0.86798 2.8093 0.868 4.284-2.3e-5 1.4747-0.28936 2.884-0.868 4.228-0.56002 1.344-1.344 2.52-2.352 3.528-0.98935 0.98933-2.156 1.7733-3.5 2.352-1.344 0.57867-2.7627 0.868-4.256 0.868-1.456 0-2.856-0.28-4.2-0.84-1.3253-0.56-2.5013-1.3533-3.528-2.38-1.008-1.0267-1.8013-2.2027-2.38-3.528-0.57867-1.344-0.868-2.7533-0.868-4.228-1e-6 -1.456 0.28-2.8653 0.84-4.228 0.56-1.3813 1.344-2.5666 2.352-3.556 1.0267-1.008 2.2213-1.792 3.584-2.352 1.3627-0.57865 2.7627-0.86798 4.2-0.868m0 1.736c-2.632 2e-5 -4.8347 0.91469-6.608 2.744-1.7547 1.8294-2.632 4.004-2.632 6.524-2e-6 2.6507 0.91466 4.8627 2.744 6.636 1.8293 1.7547 3.9947 2.632 6.496 2.632 2.632 0 4.6106-0.69067 5.936-2.072 1.3253-1.4 2.212-2.6693 2.66-3.808 0.44798-1.1573 0.67198-2.2867 0.672-3.388-2.1e-5 -2.632-0.92402-4.8346-2.772-6.608-1.8294-1.7733-3.9947-2.66-6.496-2.66"/>
   </g>
   <path d="m154.02 343.73c1.0453 0.59733 2.1373 0.896 3.276 0.896s2.1933-0.28 3.164-0.84c0.98933-0.56 1.7733-1.3347 2.352-2.324 0.57866-1.008 0.86799-2.0813 0.868-3.22-1e-5 -1.1573-0.28934-2.2213-0.868-3.192-0.56001-0.97066-1.3347-1.7453-2.324-2.324-0.98934-0.57865-2.0533-0.86799-3.192-0.868h-1.596l3.892-5.124h-4.368v-1.736h7.756l-4.004 5.32c1.2133 0.26135 2.3053 0.77468 3.276 1.54 0.98932 0.74668 1.764 1.68 2.324 2.8 0.55999 1.12 0.83999 2.3147 0.84 3.584-1e-5 1.4373-0.36401 2.7907-1.092 4.06-0.72801 1.2507-1.7173 2.24-2.968 2.968-1.232 0.728-2.5853 1.092-4.06 1.092s-2.8373-0.37333-4.088-1.12l0.812-1.512" stroke="#000"/>
   <path d="m88.166 397.6c0.29866-0.0747 0.63466-0.13998 1.008-0.196 0.37332-0.056 0.72799-0.084 1.064-0.084 1.4187 2e-5 2.744 0.36402 3.976 1.092 1.232 0.72802 2.212 1.708 2.94 2.94 0.72798 1.2134 1.092 2.5387 1.092 3.976-1.7e-5 1.4-0.36402 2.716-1.092 3.948-0.70935 1.2133-1.68 2.1933-2.912 2.94-1.232 0.74667-2.5667 1.12-4.004 1.12-1.4933 0-2.8373-0.35466-4.032-1.064-1.176-0.70933-2.1373-1.6893-2.884-2.94-0.728-1.2507-1.092-2.5853-1.092-4.004-1e-6 -1.7173 0.504-3.2946 1.512-4.732l6.72-8.904 1.4 1.008-3.696 4.9m2.072 1.456c-1.1947 2e-5 -2.268 0.28935-3.22 0.868-0.952 0.56002-1.6987 1.3347-2.24 2.324-0.54134 0.97068-0.812 1.9973-0.812 3.08-3e-6 1.1947 0.28 2.268 0.84 3.22 0.57866 0.93334 1.3533 1.68 2.324 2.24 0.97066 0.54134 2.0067 0.812 3.108 0.812 1.1947 0 2.2587-0.28 3.192-0.84 0.93332-0.55999 1.68-1.3253 2.24-2.296 0.55998-0.97066 0.83998-2.016 0.84-3.136-1.5e-5 -1.2133-0.28935-2.2773-0.868-3.192-0.57868-0.93332-1.3533-1.68-2.324-2.24-0.97068-0.55998-1.9973-0.83998-3.08-0.84" stroke="#000"/>
   <path d="m22.182 340.66c-0.63468 0.14934-1.1947 0.22401-1.68 0.224-1.4933 1e-5 -2.8373-0.35466-4.032-1.064-1.1947-0.72799-2.156-1.708-2.884-2.94s-1.092-2.5666-1.092-4.004c0-1.4373 0.35467-2.7626 1.064-3.976 0.728-1.232 1.6987-2.212 2.912-2.94 1.232-0.72798 2.576-1.092 4.032-1.092 1.4187 2e-5 2.744 0.36402 3.976 1.092 1.232 0.72802 2.212 1.708 2.94 2.94 0.72798 1.2134 1.092 2.5387 1.092 3.976-1.6e-5 1.6614-0.50402 3.2387-1.512 4.732l-7.7 9.128-1.372-1.036 4.256-5.04m-1.68-1.512c1.1947 1e-5 2.2587-0.27999 3.192-0.84 0.93332-0.55999 1.68-1.3253 2.24-2.296 0.55999-0.97065 0.83998-2.016 0.84-3.136-1.5e-5 -1.2133-0.28935-2.2773-0.868-3.192-0.57868-0.93331-1.3533-1.68-2.324-2.24-0.97068-0.55998-1.9973-0.83998-3.08-0.84-0.63467 2e-5 -1.204 0.0654-1.708 0.196-0.48534 0.13069-1.092 0.42002-1.82 0.868-0.70934 0.44802-1.344 1.1667-1.904 2.156-0.56 0.97068-0.84 1.988-0.84 3.052-2e-6 1.1947 0.28 2.268 0.84 3.22 0.57866 0.93335 1.3533 1.68 2.324 2.24 0.97066 0.54134 2.0067 0.81201 3.108 0.812" stroke="#000"/>
   <path d="m85.236 254.25v21.028h-1.736v-18.788l-1.848 0.616v-1.652l3.584-1.204"/>
   <path d="m92.401 255.68c-1.288 2e-5 -2.3147 0.43869-3.08 1.316-0.74667 0.85869-1.12 1.82-1.12 2.884-2e-6 1.288 0.42933 2.3147 1.288 3.08 0.87733 0.74668 1.848 1.12 2.912 1.12 0.55999 2e-5 1.0827-0.10265 1.568-0.308l-1.4 2.044h-0.168c-1.624 1e-5 -3.024-0.58799-4.2-1.764-1.1573-1.1946-1.736-2.5853-1.736-4.172 0-1.624 0.56-3.0146 1.68-4.172 1.1387-1.1573 2.5573-1.736 4.256-1.736 1.064 3e-5 2.044 0.26136 2.94 0.784 0.91466 0.50402 1.6333 1.2134 2.156 2.128 0.54132 0.91469 0.81199 1.9134 0.812 2.996-1.2e-5 1.2134-0.33601 2.324-1.008 3.332l-7.196 10.332h8.372v1.736h-11.676l9.1-13.076c0.46666-0.70932 0.69999-1.484 0.7-2.324-1e-5 -1.176-0.40134-2.1653-1.204-2.968-0.80268-0.82131-1.8013-1.232-2.996-1.232"/>
  </g>
  <g transform="matrix(.60057 0 0 .60057 -87.49 158.74)">
   <path d="m295.47 243.23c0 1.9526-1.5829 3.5355-3.5355 3.5355s-3.5355-1.5829-3.5355-3.5355 1.5829-3.5355 3.5355-3.5355 3.5355 1.5829 3.5355 3.5355z" stroke="#000" stroke-linecap="round" stroke-linejoin="round" stroke-width="2"/>
   <path d="m288.15 245.5-6.3134 8.8388 8.5863-7.3236z"/>
   <path transform="matrix(2.8 0 0 2.8 -539.27 -559.79)" d="m297.49 286.79c0 0.34868-0.28267 0.63134-0.63135 0.63134s-0.63134-0.28266-0.63134-0.63134c0-0.34869 0.28266-0.63135 0.63134-0.63135s0.63135 0.28266 0.63135 0.63135z" fill="#999"/>
   <g transform="translate(21.786 -17.857)" fill="none" stroke="#000" stroke-width=".5">
    <path d="m270.18 259.51v3.2143"/>
    <path d="m271.79 261.11h-3.2143"/>
   </g>
  </g>
  <path transform="matrix(.7394 0 0 .7394 -148.72 89.912)" d="m330 332.36c0 5.5228-4.4772 10-10 10s-10-4.4772-10-10 4.4772-10 10-10 10 4.4772 10 10z" stroke="#1a1a1a" stroke-linecap="round" stroke-linejoin="round" stroke-width="1.927"/>
  <path transform="matrix(.42993 0 0 .42993 -50.586 191.16)" d="m330 332.36c0 5.5228-4.4772 10-10 10s-10-4.4772-10-10 4.4772-10 10-10 10 4.4772 10 10z" fill="url(#ah)" stroke="#1a1a1a" stroke-linecap="round" stroke-linejoin="round" stroke-width="1.927"/>
  <path d="m87.883 229.35c-58.718 0-106.31 47.594-106.31 106.31 0 58.718 47.594 106.31 106.31 106.31 58.718 0 106.31-47.594 106.31-106.31 0-58.718-47.594-106.31-106.31-106.31zm0 11.875c52.163 0 94.469 42.275 94.469 94.438s-42.306 94.469-94.469 94.469-94.438-42.306-94.438-94.469 42.275-94.438 94.438-94.438z" fill="url(#ai)" opacity=".35125"/>
 </g>
 <text x="-27.999334" y="57.939106" fill="#000000" font-family="Andes" font-size="40px" font-weight="bold" letter-spacing="0px" word-spacing="0px" style="line-height:125%" xml:space="preserve">
    <tspan x="-27.999334" y="57.939106"/>
  </text>
</svg>
