<?xml version="1.0" encoding="UTF-8"?>
<svg viewBox="0 0 505 205" xmlns="http://www.w3.org/2000/svg">
 <g transform="translate(446.71 -1156.3)">
  <path d="m-268.57 1176.6 32.857 12.857 216.43 99.286c49.13-43.735-179.76-27.857-272.14-45.714l22.857-66.429z" fill="#fff"/>
  <path d="m-264.79 1313.6-12.5-4.3019c-6.875-2.366-32.75-10.861-57.5-18.878s-46.721-15.445-48.825-16.507c-2.655-1.3401-4.4073-3.2131-5.728-6.1222-2.4345-5.3623-2.4111-6.1808 0.24768-8.6579 1.3734-1.2795 1.8411-2.395 1.25-2.9815-1.5094-1.4975-14.8-6.9334-29.944-12.248-20.273-7.114-24.056-9.6522-24.875-16.692-0.283-2.4305 0.48311-3.7651 4.2652-7.4298 2.5356-2.4569 6.0912-5.2117 7.9014-6.1217 2.6853-1.3499 113.75-39.567 139.91-48.146 10.282-3.3709 33.295-6.5788 33.295-4.6412 0 0.5145 2.2017 0.7213 4.9091 0.4611 8.8024-0.8458 10.865-0.3179 137.59 35.215 20.9 5.8601 46.1 12.907 56 15.66s20.925 5.8525 24.5 6.8882c3.575 1.0358 19.916 5.5268 36.312 9.9801 37.958 10.309 39.279 10.816 46.77 17.944 5.8919 5.6065 6.046 5.8843 5.3685 9.6752-0.38366 2.1466-1.6473 4.9441-2.8082 6.2166-2.268 2.4863-2.7316 2.7184-51.642 25.855-17.875 8.4556-33.175 16.218-34 17.249-1.8797 2.3504-5.3684 4.0757-26.345 13.029-32.589 13.91-67.166 29.204-68.107 30.125l-136.05-35.572zm246.71-38.882c1.3882-2.1714-12.562-7.2358-30.712-11.149-4.4-0.9487-8.9-2.0766-10-2.5064-4.1964-1.6396-5.4534-1.8472-5.9843-0.9882-0.30158 0.488-0.06914 1.1834 0.51654 1.5453 0.74905 0.463 0.73949 1.0502-0.03225 1.9801-1.2881 1.5521 0.33035 3.0319 2.1118 1.9309 0.6115-0.3779 1.399-0.2469 1.75 0.291s7.3646 3.2128 15.586 5.944c12.661 4.2063 15.797 4.8971 20.5 4.5161 3.0538-0.2474 5.8728-0.951 6.2645-1.5636zm-234.21-36.652c1.2671-0.847 1.0644-1.3881-1.3058-3.4847-3.5123-3.107-7.9209-3.2284-10.655-0.2934-3.5758 3.8381-2.5806 4.8165 4.8777 4.7961 3.0708-0.0084 6.2583-0.4665 7.0833-1.018zm-0.5-14.05c0-0.9458-1.1356-1.4167-3.4167-1.4167-4.1949 0-5.2979 2.194-1.3926 2.7701 3.8529 0.5683 4.8093 0.2992 4.8093-1.3534zm-1.4343-15.952c1.1092-0.5936 1.9343-2.0865 1.9343-3.5 0-1.3556-0.1125-2.4674-0.25-2.4706s-2.9017-0.44-6.1427-0.9708-6.2735-0.7297-6.7389-0.4421c-0.94046 0.5813 1.6519 5.2241 4.0028 7.1687 1.838 1.5205 4.6008 1.603 7.1946 0.2148zm1.7343-12.165c1.4343-1.4343 1.5899-5.441 0.24367-6.273-0.52598-0.3251-0.71618-1.2168-0.42268-1.9817 0.63849-1.6639-2.9807-5.5453-5.1706-5.5453-0.85231 0-2.8773 0.6866-4.5 1.5257-2.4718 1.2782-2.9479 2.1298-2.935 5.25 0.00842 2.0484 0.35863 4.2644 0.77823 4.9245 1.8124 2.8511 9.8495 4.2568 12.006 2.0998zm-8.55-4.4623c-0.6875-0.2774-1.25-1.3669-1.25-2.421 0-1.355 0.70135-1.9167 2.393-1.9167 2.705 0 4.019 2.188 2.3288 3.8782-1.1999 1.1999-1.5291 1.2435-3.4719 0.4595z" fill="#aeb7c7"/>
  <path d="m-257.4 1315.2-36.334-11.998c-19.984-6.5989-46.963-15.44-59.953-19.646-18.966-6.1417-24.155-8.2081-26.342-10.49-3.5993-3.7568-4.0003-9.1008-0.78955-10.521 4.8653-2.1514 1.9056-5.1425-9.25-9.348-4.4-1.6587-14.525-5.3068-22.5-8.1068-14.312-5.0248-18.334-7.0633-20.4-10.339-0.75644-1.1992-0.71949-2.0076 0.1306-2.8577 0.91395-0.914 2.9701-0.4825 8.9775 1.884 7.8453 3.0904 123.83 41.233 230.1 75.669 62.695 20.316 67.311 21.411 82.708 19.608 16.631-1.9469 27.894-6.0214 65.986-23.871 56.533-26.492 92.784-43.16 93.862-43.16 0.6808 0 1.7449-0.5071 2.3646-1.1268 1.441-1.4409 6.2732-0.2779 6.2732 1.5098 0 1.9508-6.0908 5.8344-17.5 11.158-5.5 2.5665-19.675 9.1588-31.5 14.65-23.158 10.753-35.307 17.035-38.527 19.922-1.1148 0.9994-8.5398 4.59-16.5 7.9791-29.71 12.649-71.738 31.29-79.465 35.246-10.39 5.3188-14.053 5.3046-30.008-0.1161-6.6-2.2423-13.688-4.3845-15.75-4.7604l-85.581-31.285zm153.41 21.358c5.8549-2.4463 3.3761-3.9353-4.9637-2.9817-8.4902 0.9708-13.437 0.952-19.992-0.076-6.79-1.0649-5.838 1.3892 1.4611 3.7666 6.3129 2.0562 17.699 1.7127 23.494-0.7089zm47.426-42.149c-4.675-1.3627-15.7-4.683-24.5-7.3784s-24.775-7.4222-35.5-10.504c-21.558-6.1949-38-11.432-38-12.104 0-0.9159 33.049 7.7877 73 19.225 16.225 4.6448 31.862 9.1173 34.75 9.9389s5.25 1.9312 5.25 2.4658c0 1.6284-6.0499 0.9655-15-1.6434zm17-6.6258c-9.7174-2.4369-84.333-23.528-96.5-27.277-7.7-2.3726-22.524-6.8655-32.943-9.9844-19.658-5.8846-29.964-9.4233-29.32-10.068 0.5848-0.5847 14.457 2.9192 35.713 9.0208 10.697 3.0706 19.837 5.4538 20.31 5.296 0.8341-0.2781-47.676-14.813-81.26-24.348-9.075-2.5765-18.33-5.5202-20.566-6.5417s-4.7511-1.8573-5.5887-1.8573c-2.422 0-17.448 4.8984-28.346 9.2407-10.135 4.0383-46.34 17.828-58.807 22.398-6.9987 2.5657-11.466 2.5453-13.63-0.0621-1.2184-1.468-1.2552-1.4523 30.436-13.051 11-4.0258 27.875-10.348 37.5-14.05l17.5-6.7302 15-0.3191 15-0.3192 16.5 4.8886c36.841 10.915 128.28 38.123 139.5 41.508 59.76 18.031 57.808 17.322 57.312 20.804-0.286 2.0101-0.8936 2.198-7.312 2.2605-3.85 0.0375-8.575-0.3268-10.5-0.8095zm32-20.291c-4.125-1.3823-16.05-4.9996-26.5-8.0386-26.719-7.7702-40.844-12.092-49.298-15.084-4.0138-1.4205-7.5301-2.3505-7.8139-2.0667s2.3251 1.4789 5.7978 2.6556 7.4388 2.8016 8.8138 3.6109l2.5 1.4715-3-0.6701c-1.65-0.3685-19.65-6.2441-40-13.057s-42.85-14.125-50-16.249c-27.019-8.0268-60.186-17.042-65-17.668-6.761-0.879-8.5-1.9274-8.5-5.1247 0-3.9579-2.9953-11.17-6.6279-15.958-2.7749-3.6576-3.3607-4.0088-4.466-2.6769-0.69973 0.8431-2.9601 2.394-5.023 3.4464-4.8373 2.4678-6.883 5.4708-6.883 10.104 0 4.7016-0.87249 5.2056-5.5957 3.2321-3.1779-1.3278-4.4782-1.3922-7.8562-0.389-6.2472 1.8552-57.21 21.621-84.795 32.886-26.628 10.875-29.205 11.446-36.57 8.1039-5.1382-2.3318-17.183-13.581-17.183-16.048 0-2.0705-1.3631-1.4911 23.5-9.9888 18.846-6.4411 75.489-25.996 107.44-37.09l14.436-5.013 20.064 0.3847 20.064 0.3848 24 7.235c34.675 10.453 144.42 41.229 215 60.294 26.027 7.0302 30.5 8.6843 30.5 11.279 0 2.8319-13.369 13.779-21.808 17.856-10.552 5.0984-15.26 5.5053-25.192 2.1772zm-153.5-4.4677c-1.2606-0.5417-1.4454-0.8594-0.5-0.8594 0.825 0 2.4 0.3867 3.5 0.8594 1.2607 0.5417 1.4455 0.8594 0.5 0.8594-0.825 0-2.4-0.3867-3.5-0.8594zm-108.32-22.667c0.48655-2.5088 2.8233-2.8533 2.8233-0.4162 0 1.2283-0.64569 2.0833-1.5733 2.0833s-1.4414-0.6804-1.25-1.6671zm30.054 0.1158c-3.1056-2.1752-4.7877-5.4487-2.7999-5.4487 1.3953 0 7.5696 5.2744 7.5696 6.4663 0 1.057-2.5997 0.5024-4.7697-1.0176z" fill="#747a86"/>
  <path d="m-257.74 1318.2c-0.73442-0.6006-26.31-9.2825-56.835-19.293s-57.435-18.901-59.799-19.756c-8.0073-2.8957-10.83-10.164-5.4645-14.072 5.0735-3.6957 2.6011-5.0029-33.684-17.809-14.252-5.0298-20.696-9.0718-18.314-11.487 0.99279-1.0064 2.2832-0.8243 6.5 0.9169 6.2331 2.5737 45.899 15.723 128.76 42.685 33.275 10.827 83 27.025 110.5 35.995s51.238 16.591 52.75 16.936c3.4774 0.793 3.593 2.589 0.16667 2.589-3.6377 0-2.6338 2.0911 2.1378 4.453 5.6176 2.7806 19.499 3.3542 26.323 1.0876 2.8043-0.9315 5.3866-2.1594 5.7385-2.7289 0.9143-1.4793-1.5789-2.7786-5.3664-2.7964-3.4637-0.0163-4.4122-1.5347-1.5-2.4013 0.9625-0.2864 4.8168-1.2171 8.5651-2.0681 8.7415-1.9847 22.829-7.7196 44.185-17.988 9.35-4.4955 20.6-9.6866 25-11.536s16.695-7.5608 27.323-12.692 19.466-9.3302 19.641-9.3302 6.4744-2.925 13.998-6.5 14.458-6.5 15.409-6.5c1.8318 0 4.1291 1.8167 4.1291 3.2652 0 0.4759-4.8375 3.1098-10.75 5.8532s-13 6.0375-15.75 7.3204c-23.035 10.746-34.844 15.622-35.452 14.638-0.76329-1.235-6.7432-0.379-7.6546 1.0958-0.3109 0.503-0.05006 1.5354 0.57965 2.2942 0.91886 1.1071 0.19542 1.9119-3.6639 4.0757-2.6449 1.483-6.7196 3.9819-9.0549 5.5533-4.1998 2.8259-16.664 8.4415-29.254 13.18-3.575 1.3455-9.65 4.0248-13.5 5.954s-8.125 3.8513-9.5 4.2715-5.875 2.3211-10 4.2243-12.9 5.8802-19.5 8.8376-14.651 6.7404-17.891 8.4067c-3.3629 1.7296-7.4439 3.0297-9.5098 3.0297-1.9904 0-11.036-2.4344-20.1-5.4098l-99.163-34.296zm185.66-26.811c-3.85-1.3288-5.4681-2.1551-3.5957-1.8362 4.1988 0.7151 14.16 4.1984 12.096 4.2296-0.825 0.0125-4.65-1.0645-8.5-2.3934zm36.5-3.0102c-55.261-16.687-131.24-39.415-147-43.975-56.116-16.234-64-18.786-64-20.72 0-0.6034 3.0257-0.8287 7.75-0.5772 5.9722 0.3179 13.714 2.2014 33.75 8.211 14.3 4.2892 54.575 16.325 89.5 26.746 96.175 28.697 94.582 28.163 93.391 31.267-0.933 2.4313-2.5729 2.3148-13.391-0.9518zm-73.657-17.91c-23.993-6.8627-35.675-10.563-35.115-11.123 0.94632-0.9463 57.811 15.412 59.689 17.171 1.1693 1.0951-4.3656-0.267-24.574-6.0473zm115.66-1.3125c-7.6e-4 -1.3703-2.9841-2.6955-13.75-6.1076-24.428-7.7421-40.732-11.193-41.533-8.7908-0.56223 1.6867-13.421-1.6712-36.716-9.5881-24.522-8.3336-55.099-17.683-67.508-20.642-46.557-11.101-81.938-20.417-83.983-22.114-0.8575-0.7117-1.5094-2.8812-1.5094-5.0233 0-2.2768-0.54473-3.9796-1.375-4.2982-0.87015-0.3339-1.6431-3.0351-2.1051-7.357-0.40158-3.7561-1.391-8.1086-2.1987-9.6722-1.7684-3.4233-1.554-3.6977 3.3463-4.2833 4.532-0.5416 11.377 1.1209 40.833 9.9172 25.83 7.7137 131.66 37.398 182.5 51.188 50.39 13.669 53.291 14.533 55.317 16.471 1.7443 1.6698 1.5262 2.0082-5.4722 8.4877-7.6609 7.0928-12.1 9.8242-19.726 12.139-5.8855 1.7863-6.1183 1.7739-6.1195-0.3266zm46.065-2.6729c-0.6799-0.8192-0.97199-1.917-0.64909-2.4394 0.92575-1.4979 4.7176-0.0631 4.3835 1.6587-0.41882 2.1583-2.2699 2.5453-3.7344 0.7807zm-401.06-9.5924c-2.1126-1.3869-0.83573-2.0849 13-7.107 6.325-2.2958 22.3-8.2104 35.5-13.144s26.925-10.032 30.5-11.331c6.5208-2.369 14.417-3.1567 15.417-1.5381 0.29419 0.476-4.0668 2.4475-9.691 4.3811s-23.276 8.56-39.226 14.725c-42.159 16.296-42.065 16.267-45.5 14.013zm-44.5-16.984c-1.65-0.3662-4.5619-1.479-6.4709-2.473-4.7221-2.4586-15.029-12.431-15.029-14.541 0-1.3547 8.0323-4.4539 38.75-14.951 21.312-7.2831 45.05-15.234 52.75-17.669s16.25-5.3593 19-6.4991c12.912-5.3517 33.345-11.859 37.25-11.863 2.3375-0.0024 4.2496 0.1082 4.2492 0.2457s-0.77358 3.625-1.7181 7.75-1.727 9.6874-1.7389 12.361l-0.02165 4.8609-4.805-0.5691c-2.6428-0.313-5.7974-0.1507-7.0103 0.3607s-15.074 5.8598-30.803 11.885-38.679 15.108-51 20.183c-26.066 10.737-29.363 11.814-33.403 10.918z" fill="#5b5b5a"/>
  <path d="m-368.23 1279.5c-17.269-5.4775-19.617-6.6974-20.767-10.788-0.78541-2.7948-0.58382-3.5159 1.4747-5.275 1.3114-1.1206 2.3844-2.7681 2.3844-3.6611 0-2.7641-5.2321-6.2007-13.032-8.5599-51.993-18.606-8.8921-6.6277 15.532 1.3827 27.488 8.8937 143.18 46.896 153.5 50.42 11.749 4.0135 26.557 10.132 27.805 11.488 0.38209 0.4152-0.86624 0.4569-2.774 0.0926-11.398-2.1766 14.899 7.2266 52.469 18.761 4.4 1.3509 10.475 3.3769 13.5 4.5023s7.1507 2.0608 9.1682 2.0788c7.3958 0.0658 7.3445 1.0903-0.26143 5.2173-3.9736 2.1562-8.3389 4.7967-9.7006 5.8678-4.4145 3.4725-11.251 2.6278-29.769-3.678l-199.53-67.849zm158.59 33.474c-0.33992-0.55-1.293-1-2.118-1s-1.2219 0.45-0.88197 1 1.293 1 2.118 1 1.2219-0.45 0.88197-1zm-113.65-109.94c3.2259-2.0728 9.1527-3.8736 9.1527-2.7809 0 0.2921-1.9125 1.2007-4.25 2.0192l-6.25 2.2004c-1.1 0.3917-0.49373-0.2557 1.3473-1.4387z" fill="#1b1b1c"/>
 </g>
</svg>
