<?xml version="1.0" encoding="UTF-8" standalone="no"?>
<svg
   xmlns:dc="http://purl.org/dc/elements/1.1/"
   xmlns:cc="http://creativecommons.org/ns#"
   xmlns:rdf="http://www.w3.org/1999/02/22-rdf-syntax-ns#"
   xmlns:svg="http://www.w3.org/2000/svg"
   xmlns="http://www.w3.org/2000/svg"
   xmlns:xlink="http://www.w3.org/1999/xlink"
   xmlns:sodipodi="http://sodipodi.sourceforge.net/DTD/sodipodi-0.dtd"
   xmlns:inkscape="http://www.inkscape.org/namespaces/inkscape"
   viewBox="0 0 410 170"
   version="1.1"
   id="svg376"
   sodipodi:docname="cartridge-154621.svg"
   inkscape:version="0.92.4 5da689c313, 2019-01-14">
  <metadata
     id="metadata380">
    <rdf:RDF>
      <cc:Work
         rdf:about="">
        <dc:format>image/svg+xml</dc:format>
        <dc:type
           rdf:resource="http://purl.org/dc/dcmitype/StillImage" />
      </cc:Work>
    </rdf:RDF>
  </metadata>
  <sodipodi:namedview
     pagecolor="#ffffff"
     bordercolor="#666666"
     borderopacity="1"
     objecttolerance="10"
     gridtolerance="10"
     guidetolerance="10"
     inkscape:pageopacity="0"
     inkscape:pageshadow="2"
     inkscape:window-width="1920"
     inkscape:window-height="1032"
     id="namedview378"
     showgrid="false"
     inkscape:zoom="2.7121951"
     inkscape:cx="192.0632"
     inkscape:cy="128.222"
     inkscape:window-x="0"
     inkscape:window-y="0"
     inkscape:window-maximized="1"
     inkscape:current-layer="svg376" />
  <defs
     id="defs214">
    <linearGradient
       id="d">
      <stop
         offset="0"
         id="stop2" />
      <stop
         stop-opacity="0"
         offset="1"
         id="stop4" />
    </linearGradient>
    <linearGradient
       id="j">
      <stop
         stop-color="#f1e6d2"
         offset="0"
         id="stop7" />
      <stop
         stop-color="#c8ab37"
         offset=".5"
         id="stop9" />
      <stop
         stop-color="#d1ad83"
         offset="1"
         id="stop11" />
    </linearGradient>
    <linearGradient
       id="c">
      <stop
         stop-color="#221e1f"
         offset="0"
         id="stop14" />
      <stop
         stop-color="#45403d"
         offset=".48894"
         id="stop16" />
      <stop
         stop-color="#666"
         offset=".61394"
         id="stop18" />
      <stop
         stop-color="#28272a"
         offset=".80329"
         id="stop20" />
      <stop
         stop-color="#45403d"
         offset="1"
         id="stop22" />
    </linearGradient>
    <linearGradient
       id="aq"
       x1="325.51"
       x2="184.53"
       y1="238.29"
       y2="208.36"
       gradientUnits="userSpaceOnUse"
       gradientTransform="matrix(0.97227195,-0.16018668,0.16018668,0.97227195,-29.79426,-108.88533)">
      <stop
         stop-color="#e3e2db"
         stop-opacity="0"
         offset="0"
         id="stop25" />
      <stop
         stop-color="#e3e2db"
         stop-opacity="0"
         offset=".25"
         id="stop27" />
      <stop
         stop-color="#e3e2db"
         stop-opacity=".49804"
         offset=".58823"
         id="stop29" />
      <stop
         stop-color="#e3e2db"
         stop-opacity="0"
         offset=".75"
         id="stop31" />
      <stop
         stop-color="#e3e2db"
         stop-opacity="0"
         offset="1"
         id="stop33" />
    </linearGradient>
    <linearGradient
       id="ap"
       x1="200.24"
       x2="227.15"
       y1="227.28"
       y2="236.52"
       gradientUnits="userSpaceOnUse"
       gradientTransform="matrix(0.97227195,-0.16018668,0.16018668,0.97227195,-29.634073,-107.91306)">
      <stop
         stop-color="#cacaca"
         offset="0"
         id="stop36" />
      <stop
         stop-color="#a09695"
         offset=".5"
         id="stop38" />
      <stop
         stop-color="#cacaca"
         offset="1"
         id="stop40" />
    </linearGradient>
    <linearGradient
       id="ao"
       x1="226.4"
       x2="409.97"
       y1="236.84"
       y2="259.16"
       gradientUnits="userSpaceOnUse"
       gradientTransform="matrix(0.97227195,-0.16018668,0.16018668,0.97227195,-29.79426,-108.88533)">
      <stop
         stop-color="#f1e6d2"
         offset="0"
         id="stop43" />
      <stop
         stop-color="#a80"
         offset=".5"
         id="stop45" />
      <stop
         stop-color="#d1ad83"
         offset="1"
         id="stop47" />
    </linearGradient>
    <linearGradient
       id="an"
       x1="219.33"
       x2="306.17"
       y1="235.99"
       y2="255.32"
       gradientUnits="userSpaceOnUse"
       gradientTransform="matrix(0.97227195,-0.16018668,0.16018668,0.97227195,-29.79426,-108.88533)">
      <stop
         stop-color="#f2d3a3"
         offset="0"
         id="stop50" />
      <stop
         stop-color="#f2d3a3"
         stop-opacity="0"
         offset="1"
         id="stop52" />
    </linearGradient>
    <linearGradient
       id="am"
       x1="323.46"
       x2="219.27"
       y1="249.68"
       y2="233.08"
       gradientUnits="userSpaceOnUse"
       gradientTransform="matrix(0.97227195,-0.16018668,0.16018668,0.97227195,-29.79426,-108.88533)">
      <stop
         stop-color="#eec995"
         offset="0"
         id="stop55" />
      <stop
         stop-color="#fff6d5"
         offset="1"
         id="stop57" />
    </linearGradient>
    <linearGradient
       id="al"
       x1="311.35"
       x2="391.91"
       y1="227.86"
       y2="317.13"
       gradientUnits="userSpaceOnUse"
       gradientTransform="matrix(0.97227195,-0.16018668,0.16018668,0.97227195,-29.79426,-108.88533)">
      <stop
         stop-color="#a7470f"
         offset="0"
         id="stop60" />
      <stop
         stop-color="#61311a"
         offset="1"
         id="stop62" />
    </linearGradient>
    <linearGradient
       id="ak"
       x1="302.98"
       x2="394.81"
       y1="220.03"
       y2="328.57"
       gradientUnits="userSpaceOnUse"
       gradientTransform="matrix(0.97227195,-0.16018668,0.16018668,0.97227195,-29.79426,-108.88533)">
      <stop
         stop-color="#2b2200"
         stop-opacity="0"
         offset="0"
         id="stop65" />
      <stop
         stop-color="#2b2200"
         offset=".5"
         id="stop67" />
      <stop
         stop-color="#2b2200"
         stop-opacity="0"
         offset="1"
         id="stop69" />
    </linearGradient>
    <linearGradient
       id="aj"
       x1="317.48"
       x2="357.26"
       y1="288.91"
       y2="276.47"
       gradientUnits="userSpaceOnUse"
       gradientTransform="matrix(0.97227195,-0.16018668,0.16018668,0.97227195,-29.79426,-108.88533)">
      <stop
         stop-color="#520"
         offset="0"
         id="stop72" />
      <stop
         stop-color="#520"
         stop-opacity="0"
         offset="1"
         id="stop74" />
    </linearGradient>
    <linearGradient
       id="ag"
       x1="1.278"
       x2="157.31"
       gradientUnits="userSpaceOnUse"
       gradientTransform="matrix(0.97227195,-0.16018668,0.16018668,0.97227195,-29.79426,-108.88533)">
      <stop
         stop-color="#211d1e"
         offset="0"
         id="stop77" />
      <stop
         stop-color="#2b262a"
         offset=".5"
         id="stop79" />
      <stop
         stop-color="#211d1e"
         offset="1"
         id="stop81" />
    </linearGradient>
    <linearGradient
       id="af"
       x1="159.46"
       x2="211.59"
       y1="210.5"
       y2="216.5"
       gradientUnits="userSpaceOnUse"
       gradientTransform="matrix(0.97227195,-0.16018668,0.16018668,0.97227195,-29.79426,-108.88533)">
      <stop
         stop-color="#3d3334"
         offset="0"
         id="stop84" />
      <stop
         stop-color="#887d79"
         offset=".5"
         id="stop86" />
      <stop
         stop-color="#3d3334"
         offset="1"
         id="stop88" />
    </linearGradient>
    <linearGradient
       id="ac"
       x1="1.2682"
       x2="306.47"
       gradientUnits="userSpaceOnUse"
       gradientTransform="matrix(0.97227195,-0.16018668,0.16018668,0.97227195,-29.79426,-108.88533)">
      <stop
         stop-color="#6c6061"
         offset="0"
         id="stop91" />
      <stop
         stop-color="#605655"
         offset=".25"
         id="stop93" />
      <stop
         stop-color="#938988"
         offset=".5"
         id="stop95" />
      <stop
         stop-color="#999596"
         offset="1"
         id="stop97" />
    </linearGradient>
    <linearGradient
       id="aa"
       x1="274.2"
       x2="275.16"
       y1="283.54"
       y2="260.76"
       gradientUnits="userSpaceOnUse"
       gradientTransform="matrix(0.97227195,-0.16018668,0.16018668,0.97227195,-29.79426,-108.88533)">
      <stop
         stop-color="#f6ffd5"
         offset="0"
         id="stop100" />
      <stop
         stop-color="#f6ffd5"
         stop-opacity="0"
         offset="1"
         id="stop102" />
    </linearGradient>
    <linearGradient
       id="z"
       x1="249.42"
       x2="249.18"
       y1="181.01"
       y2="219.5"
       gradientUnits="userSpaceOnUse"
       gradientTransform="matrix(0.97227195,-0.16018668,0.16018668,0.97227195,-29.79426,-108.88533)">
      <stop
         stop-color="#604d46"
         offset="0"
         id="stop105" />
      <stop
         stop-color="#674d4c"
         offset=".06814"
         id="stop107" />
      <stop
         stop-color="#e3dedb"
         offset=".5"
         id="stop109" />
      <stop
         stop-color="#604d46"
         offset="1"
         id="stop111" />
    </linearGradient>
    <linearGradient
       id="y"
       x1="169.63"
       x2="288.59"
       gradientUnits="userSpaceOnUse"
       gradientTransform="matrix(0.97227195,-0.16018668,0.16018668,0.97227195,-29.79426,-108.88533)">
      <stop
         stop-color="#1a1a1a"
         stop-opacity=".49246"
         offset="0"
         id="stop114" />
      <stop
         stop-color="#1a1a1a"
         stop-opacity="0"
         offset=".5"
         id="stop116" />
      <stop
         stop-color="#1a1a1a"
         stop-opacity=".59296"
         offset="1"
         id="stop118" />
    </linearGradient>
    <linearGradient
       id="x"
       x1="309.53"
       x2="337.68"
       y1="275.7"
       y2="254.15"
       gradientUnits="userSpaceOnUse"
       gradientTransform="matrix(0.97227195,-0.16018668,0.16018668,0.97227195,-29.79426,-108.88533)">
      <stop
         stop-color="#d7cd7f"
         offset="0"
         id="stop121" />
      <stop
         stop-color="#d7cd7f"
         stop-opacity="0"
         offset="1"
         id="stop123" />
    </linearGradient>
    <linearGradient
       id="v"
       x1="281.9"
       x2="339.77"
       gradientUnits="userSpaceOnUse"
       gradientTransform="matrix(0.97227195,-0.16018668,0.16018668,0.97227195,-29.79426,-108.88533)">
      <stop
         stop-color="#391a10"
         offset="0"
         id="stop126" />
      <stop
         stop-color="#391a10"
         stop-opacity="0"
         offset="1"
         id="stop128" />
    </linearGradient>
    <linearGradient
       id="g"
       x1="741.76"
       x2="741.3"
       y1="134.43"
       y2="117.01"
       gradientUnits="userSpaceOnUse">
      <stop
         stop-color="#333"
         offset="0"
         id="stop131" />
      <stop
         stop-color="#333"
         stop-opacity="0"
         offset="1"
         id="stop133" />
    </linearGradient>
    <linearGradient
       id="f"
       x1="724.29"
       x2="791.11"
       gradientUnits="userSpaceOnUse"
       spreadMethod="reflect">
      <stop
         stop-color="#f1e6d2"
         offset="0"
         id="stop136" />
      <stop
         stop-color="#c8ab37"
         offset=".43134"
         id="stop138" />
      <stop
         stop-color="#d1ad83"
         offset="1"
         id="stop140" />
    </linearGradient>
    <linearGradient
       id="u"
       x1="230.94"
       x2="188.03"
       y1="195.12"
       y2="203.01"
       gradientUnits="userSpaceOnUse"
       gradientTransform="matrix(0.97227195,-0.16018668,0.16018668,0.97227195,-29.79426,-108.88533)">
      <stop
         stop-color="#837373"
         offset="0"
         id="stop143" />
      <stop
         stop-color="#837373"
         stop-opacity="0"
         offset="1"
         id="stop145" />
    </linearGradient>
    <linearGradient
       id="ar"
       x1="203.77"
       x2="165.25"
       y1="170.98"
       y2="309.54"
       gradientUnits="userSpaceOnUse"
       xlink:href="#d"
       gradientTransform="matrix(0.97227195,-0.16018668,0.16018668,0.97227195,-29.79426,-108.88533)" />
    <linearGradient
       id="ai"
       x1="73.56"
       x2="73.136"
       y1="196.3"
       y2="212.78"
       gradientUnits="userSpaceOnUse"
       xlink:href="#c"
       gradientTransform="matrix(0.97227195,-0.16018668,0.16018668,0.97227195,-29.79426,-108.88533)" />
    <linearGradient
       id="ah"
       x1="173.7"
       x2="173.62"
       y1="212.59"
       y2="225.93"
       gradientUnits="userSpaceOnUse"
       xlink:href="#c"
       gradientTransform="matrix(0.97227195,-0.16018668,0.16018668,0.97227195,-29.79426,-108.88533)" />
    <linearGradient
       id="ae"
       x2="0"
       y1="179.26"
       y2="197.73"
       gradientUnits="userSpaceOnUse"
       xlink:href="#c"
       gradientTransform="matrix(0.97227195,-0.16018668,0.16018668,0.97227195,-29.79426,-108.88533)" />
    <linearGradient
       id="ad"
       x2="0"
       y1="195.26"
       y2="213.73"
       gradientUnits="userSpaceOnUse"
       xlink:href="#c"
       gradientTransform="matrix(0.97227195,-0.16018668,0.16018668,0.97227195,-29.79426,-108.88533)" />
    <linearGradient
       id="ab"
       x1="274.03"
       x2="269.42"
       y1="291.71"
       y2="236.74"
       gradientUnits="userSpaceOnUse"
       xlink:href="#j"
       gradientTransform="matrix(0.97227195,-0.16018668,0.16018668,0.97227195,-29.79426,-108.88533)" />
    <linearGradient
       id="w"
       x1="270.42"
       x2="270.8"
       y1="184.61"
       y2="223.3"
       gradientUnits="userSpaceOnUse"
       xlink:href="#c"
       gradientTransform="matrix(0.97078498,-0.16896961,0.21239717,0.96221197,-29.794259,-108.88533)" />
    <linearGradient
       id="i"
       x1="756.54"
       x2="643.4"
       y1="-.57035"
       y2="19.025"
       gradientUnits="userSpaceOnUse"
       xlink:href="#d" />
    <linearGradient
       id="h"
       x1="731.29"
       x2="801.52"
       gradientUnits="userSpaceOnUse"
       xlink:href="#j"
       spreadMethod="reflect" />
    <radialGradient
       id="s"
       cx="303.25"
       cy="232.75"
       r="14.562"
       gradientTransform="matrix(1.3061502,-0.21519479,0.18338171,1.113057,-136.34467,-130.54313)"
       gradientUnits="userSpaceOnUse">
      <stop
         stop-color="#fff"
         offset="0"
         id="stop157" />
      <stop
         stop-color="#fff"
         stop-opacity="0"
         offset="1"
         id="stop159" />
    </radialGradient>
    <radialGradient
       id="r"
       cx="148.53"
       cy="207.15"
       r="19.25"
       gradientTransform="matrix(1.663533,1.5848369,-1.1889239,1.2479731,147.04497,-424.89657)"
       gradientUnits="userSpaceOnUse">
      <stop
         stop-color="#797071"
         offset="0"
         id="stop162" />
      <stop
         stop-color="#bababa"
         offset="1"
         id="stop164" />
    </radialGradient>
    <radialGradient
       id="q"
       cx="291.39"
       cy="195.56"
       r="18.86"
       gradientUnits="userSpaceOnUse"
       gradientTransform="matrix(0.97227195,-0.16018668,0.16018668,0.97227195,-29.79426,-108.88533)">
      <stop
         stop-color="#acadb1"
         offset="0"
         id="stop167" />
      <stop
         stop-color="#acadb1"
         stop-opacity="0"
         offset="1"
         id="stop169" />
    </radialGradient>
    <radialGradient
       id="p"
       cx="286.47"
       cy="224.61"
       r="42"
       gradientTransform="matrix(0.57873519,-0.09534941,0.07354642,0.44639924,101.85232,-12.67255)"
       gradientUnits="userSpaceOnUse">
      <stop
         stop-color="#797374"
         offset="0"
         id="stop172" />
      <stop
         stop-color="#797374"
         stop-opacity="0"
         offset="1"
         id="stop174" />
    </radialGradient>
    <radialGradient
       id="o"
       cx="196.33"
       cy="210.1"
       r="32.859"
       gradientTransform="matrix(0.97227195,-0.16018668,0.25014752,1.5182999,-48.885309,-224.7607)"
       gradientUnits="userSpaceOnUse">
      <stop
         stop-color="#a59fa0"
         offset="0"
         id="stop177" />
      <stop
         stop-color="#a59fa0"
         stop-opacity="0"
         offset="1"
         id="stop179" />
    </radialGradient>
    <radialGradient
       id="n"
       cx="281.77"
       cy="200.74"
       r="11.243"
       gradientTransform="matrix(0.79932421,-0.13169268,0.19204781,1.1656568,12.794166,-154.21072)"
       gradientUnits="userSpaceOnUse">
      <stop
         stop-color="#b4b7c0"
         offset="0"
         id="stop182" />
      <stop
         stop-color="#615d5e"
         offset="1"
         id="stop184" />
    </radialGradient>
    <radialGradient
       id="l"
       cx="111.98"
       cy="210.88"
       r="111.2"
       gradientTransform="matrix(0.97227195,-0.16018668,0.02979953,0.18087175,-2.2982154,58.00515)"
       gradientUnits="userSpaceOnUse">
      <stop
         stop-color="#e3dedb"
         offset="0"
         id="stop187" />
      <stop
         stop-color="#e3dedb"
         stop-opacity=".56281"
         offset="1"
         id="stop189" />
    </radialGradient>
    <radialGradient
       id="k"
       cx="283.69"
       cy="250.09"
       r="9.934"
       gradientTransform="matrix(1.4282095,0.16681718,-0.08674054,0.74267615,-96.619399,-143.63332)"
       gradientUnits="userSpaceOnUse">
      <stop
         stop-color="#4d4d4d"
         offset="0"
         id="stop192" />
      <stop
         stop-color="#4d4d4d"
         stop-opacity="0"
         offset="1"
         id="stop194" />
    </radialGradient>
    <radialGradient
       id="b"
       cx="117.03"
       cy="452.22"
       r="38.647"
       gradientUnits="userSpaceOnUse">
      <stop
         stop-color="#999"
         offset="0"
         id="stop197" />
      <stop
         stop-color="#4d4d4d"
         offset="1"
         id="stop199" />
    </radialGradient>
    <radialGradient
       id="a"
       cx="117.03"
       cy="451.12"
       r="38.656"
       gradientTransform="matrix(1 0 0 .23282 0 346.09)"
       gradientUnits="userSpaceOnUse">
      <stop
         stop-color="#666"
         offset="0"
         id="stop202" />
      <stop
         stop-color="#999"
         offset="1"
         id="stop204" />
    </radialGradient>
    <radialGradient
       id="e"
       cx="742.09"
       cy="-41.415"
       r="31.594"
       gradientTransform="matrix(.68348 -4.5287e-8 1.0919e-7 1.6479 234.89 29.34)"
       gradientUnits="userSpaceOnUse">
      <stop
         stop-color="#808080"
         offset="0"
         id="stop207" />
      <stop
         stop-color="#666"
         offset="1"
         id="stop209" />
    </radialGradient>
    <radialGradient
       id="t"
       cx="173.33"
       cy="299.77"
       r="33.969"
       gradientUnits="userSpaceOnUse"
       xlink:href="#d"
       gradientTransform="translate(5.3842,-168.66)" />
    <radialGradient
       id="m"
       cx="303.29"
       cy="198.3"
       r="11.243"
       gradientTransform="matrix(1.9235428,-0.31691333,0.5054851,3.0681014,-385.32284,-477.20891)"
       gradientUnits="userSpaceOnUse"
       xlink:href="#d" />
    <radialGradient
       inkscape:collect="always"
       xlink:href="#b"
       id="radialGradient1187"
       gradientUnits="userSpaceOnUse"
       cx="117.03"
       cy="452.22"
       r="38.647" />
    <radialGradient
       inkscape:collect="always"
       xlink:href="#a"
       id="radialGradient1189"
       gradientUnits="userSpaceOnUse"
       gradientTransform="matrix(1,0,0,0.23282,0,346.09)"
       cx="117.03"
       cy="451.12"
       r="38.656" />
    <radialGradient
       inkscape:collect="always"
       xlink:href="#b"
       id="radialGradient1191"
       gradientUnits="userSpaceOnUse"
       cx="117.03"
       cy="452.22"
       r="38.647" />
    <radialGradient
       inkscape:collect="always"
       xlink:href="#a"
       id="radialGradient1193"
       gradientUnits="userSpaceOnUse"
       gradientTransform="matrix(1,0,0,0.23282,0,346.09)"
       cx="117.03"
       cy="451.12"
       r="38.656" />
    <radialGradient
       inkscape:collect="always"
       xlink:href="#b"
       id="radialGradient1195"
       gradientUnits="userSpaceOnUse"
       cx="117.03"
       cy="452.22"
       r="38.647" />
    <radialGradient
       inkscape:collect="always"
       xlink:href="#a"
       id="radialGradient1197"
       gradientUnits="userSpaceOnUse"
       gradientTransform="matrix(1,0,0,0.23282,0,346.09)"
       cx="117.03"
       cy="451.12"
       r="38.656" />
    <radialGradient
       inkscape:collect="always"
       xlink:href="#b"
       id="radialGradient1199"
       gradientUnits="userSpaceOnUse"
       cx="117.03"
       cy="452.22"
       r="38.647" />
    <radialGradient
       inkscape:collect="always"
       xlink:href="#a"
       id="radialGradient1201"
       gradientUnits="userSpaceOnUse"
       gradientTransform="matrix(1,0,0,0.23282,0,346.09)"
       cx="117.03"
       cy="451.12"
       r="38.656" />
    <radialGradient
       inkscape:collect="always"
       xlink:href="#b"
       id="radialGradient1203"
       gradientUnits="userSpaceOnUse"
       cx="117.03"
       cy="452.22"
       r="38.647" />
    <radialGradient
       inkscape:collect="always"
       xlink:href="#a"
       id="radialGradient1205"
       gradientUnits="userSpaceOnUse"
       gradientTransform="matrix(1,0,0,0.23282,0,346.09)"
       cx="117.03"
       cy="451.12"
       r="38.656" />
  </defs>
  <path
     style="fill:url(#ar);stroke-width:0.9853794"
     inkscape:connector-curvature="0"
     id="path218"
     d="m 341.90605,158.59526 -3.03162,-0.72668 -0.77594,-9.6313 c -1.18609,-14.72263 -3.66753,-27.39429 -6.52783,-33.33446 -5.12863,-10.65065 -15.83758,-17.110289 -25.73896,-15.525926 -5.7825,0.925336 -7.61278,2.801766 -9.73616,9.982076 -1.61639,5.46535 -4.97746,9.27394 -9.53656,10.80573 -3.76987,1.26676 -19.71992,1.0528 -23.95196,-0.32129 -5.25221,-1.70541 -7.67791,-5.55229 -9.16092,-14.52822 -1.24391,-7.525716 -1.49203,-8.074348 -4.70178,-10.376436 -3.395,-2.43455 -7.30324,-3.024795 -17.93069,-2.70765 -2.7329,0.08153 -6.18783,-0.430984 -7.67762,-1.138859 -1.48978,-0.707874 -6.07515,-1.262459 -10.18966,-1.232306 -6.73876,0.04927 -7.87981,-0.260376 -11.50057,-3.121411 l -4.01969,-3.176097 -18.36032,2.297958 -19.46818,1.635185 -1.98885,2.323302 c -1.09393,1.277859 -2.78525,2.454511 -3.75859,2.614874 -2.60949,0.429925 -6.55155,-2.259831 -8.17104,-5.575217 -2.85054,-5.835722 -11.19425,-6.905482 -78.040691,2.75112 C 38.151593,93.869157 17.096422,94.64291 16.759032,94.504455 16.421642,94.366001 15.373796,92.595141 14.429371,90.569459 12.909635,87.30994 12.4341,86.932297 10.293643,87.284948 7.3865493,87.763906 5.9076053,86.103517 4.3079323,80.565037 c -0.7546744,-2.6129 -0.877323,-5.089952 -0.3602389,-7.273936 0.7225083,-3.051512 1.1038382,-3.395561 4.8531453,-4.37859 2.2380033,-0.58676 5.2102533,-1.786773 6.6051183,-2.666714 2.011471,-1.268895 2.978041,-1.453987 4.672235,-0.894746 1.65195,0.545298 20.155645,-4.2878 90.737568,-16.511579 71.60046,-12.400157 92.08681,-15.674732 95.05908,-15.194406 4.94601,0.799159 52.44479,-6.07977 53.10709,-7.691075 0.6861,-1.667759 11.71335,-2.151618 18.50528,-0.811934 3.22037,0.635167 6.99639,0.824064 8.39115,0.419905 2.55864,-0.741492 2.96292,-1.384508 4.40005,-6.997737 1.04241,-4.071523 4.92842,-7.253161 7.51781,-6.155018 2.43435,1.03231 2.72854,5.888678 0.48947,8.078639 -1.21184,1.185248 -1.43799,2.78101 -0.87681,6.187073 0.44665,2.710986 0.24868,5.646612 -0.48356,7.171376 -0.81979,1.70706 -0.91477,4.47223 -0.28044,8.163542 0.87493,5.091044 1.31799,5.839351 5.03689,8.506254 2.24271,1.608253 4.66532,4.251346 5.38359,5.873578 1.22272,2.761386 1.74176,2.965282 8.13955,3.196495 13.93846,0.503821 22.23633,3.461716 35.5531,12.672651 9.05001,6.259891 17.99903,16.615363 32.47646,37.580895 7.14191,10.34191 15.09514,21.21128 17.67301,24.15306 3.86742,4.41336 4.71096,6.00486 4.82152,9.09698 0.0744,2.09417 -0.51944,4.24942 -1.34695,4.88459 -2.45288,1.88294 -58.89942,11.479 -62.47712,10.62136 z m -62.20596,-46.86882 c -0.24517,-0.60302 0.448,-2.77888 1.54034,-4.83524 2.34547,-4.41514 2.41647,-10.592487 0.14637,-12.759077 -1.01149,-0.965136 -4.5133,-1.56652 -9.82746,-1.687649 -6.90214,-0.157407 -8.64802,0.09099 -10.64584,1.514894 -3.43859,2.450703 -5.27307,6.643242 -4.74279,10.838932 0.76893,6.08441 6.52566,9.07529 17.12842,8.90033 5.80099,-0.096 7.0118,-0.46919 6.40044,-1.97291 z m 9.15143,-2.12167 c 2.63646,-2.5786 3.37138,-9.00135 1.33375,-11.655438 -1.23124,-1.603927 -1.6842,-1.715151 -2.18436,-0.536385 -0.34705,0.817971 -0.45474,2.598943 -0.23925,3.957873 0.21589,1.35887 -0.16859,4.23085 -0.85345,6.38226 -1.35918,4.26971 -0.93848,4.67077 1.94338,1.85221 z" />
  <path
     style="fill:url(#aq);stroke-width:0.9853794"
     inkscape:connector-curvature="0"
     id="path220"
     d="m 278.47044,34.816233 -17.85509,13.802181 -39.42965,7.307647 2.3463,14.998845 -8.9031,1.841331 -2.61949,-15.141586 -4.14748,0.776894 -4.56251,17.010936 c 0.22685,0.291864 0.46566,0.585964 0.73247,0.846778 1.63726,1.60055 3.6955,3.243791 5.98255,3.352339 33.31618,1.580631 98.94838,-2.165162 98.94838,-2.165162 l -8.07299,-33.467365 -7.49868,0.704904 c 0,0 -2.56861,-4.084575 -5.77477,-8.910381 z" />
  <path
     style="fill:#4d4d4b;stroke-width:0.9853794"
     inkscape:connector-curvature="0"
     id="path222"
     d="m 299.1328,9.6611133 c -2.26328,0.5709027 -4.69511,3.1707357 -5.48909,6.2721727 -1.43712,5.613278 -1.84344,6.256649 -4.4021,6.998073 -1.39485,0.404215 -5.18241,0.209461 -8.40279,-0.425677 -6.79212,-1.339673 -17.81317,-0.866902 -18.49912,0.800828 -0.52352,1.272563 -30.19211,5.84023 -45.10913,7.307123 l 6.29847,40.312957 -8.90312,1.841331 -7.22224,-41.75263 c -6.64707,0.416047 -29.98262,4.250699 -93.21147,15.201015 -70.581911,12.223769 -91.82951,15.624072 -93.71153,15.002531 -1.930761,-0.637339 -3.035207,-0.443512 -5.327472,1.00256 -1.589634,1.002809 -4.9677,2.380064 -7.5181726,3.048735 -4.2728662,1.120259 -4.7241092,1.493364 -5.5474752,4.971045 -0.5893054,2.48889 -0.460376,5.320231 0.3996751,8.297959 1.8230385,6.311896 3.5372261,8.217945 6.8503396,7.672094 2.4393341,-0.401893 2.9741231,0.03518 4.7061251,3.749786 1.076332,2.308542 2.255423,4.306947 2.639253,4.464813 0.383829,0.157866 24.836083,-3.192473 54.322906,-7.451976 66.846501,-9.656213 71.444591,-9.788109 75.119821,-2.264899 2.08783,4.274139 7.18256,7.742193 10.54671,7.18793 1.25481,-0.206737 3.43066,-1.740546 4.84081,-3.387879 l 2.56711,-2.982019 18.34523,-2.304681 18.37537,-2.309645 4.01867,3.176565 c 3.62096,2.861003 4.76219,3.179003 11.50093,3.129642 4.11452,-0.0301 8.69846,0.515876 10.18825,1.22375 1.4898,0.707874 4.94459,1.21963 7.67749,1.13808 10.62745,-0.317142 14.53072,0.291996 17.92582,2.72653 3.20962,2.301611 3.45999,2.840584 4.70386,10.366103 1.48288,8.97636 3.91399,12.82513 9.16608,14.53038 4.23203,1.37408 20.15897,1.59992 23.92894,0.33307 4.55878,-1.53182 7.93113,-5.34529 9.54771,-10.81068 2.12358,-7.180328 3.96087,-9.074899 9.74318,-10.0002 9.90234,-1.584523 20.58946,4.89779 25.71867,15.54824 2.86035,5.94026 5.36329,18.58931 6.54954,33.31291 l 0.77684,9.64013 3.02086,0.71948 c 3.578,0.85767 60.0266,-8.72294 62.47869,-10.60577 0.82748,-0.63518 1.42042,-2.80877 1.34553,-4.90291 -0.11017,-3.09214 -0.9654,-4.6522 -4.83292,-9.06555 -2.57811,-2.94204 -10.51112,-13.83841 -17.65351,-24.18024 -14.4784,-20.965369 -23.44589,-31.297126 -32.4966,-37.557603 -13.31576,-9.2109 -21.60619,-12.17821 -35.5445,-12.681057 -6.39778,-0.231215 -6.91669,-0.422752 -8.1394,-3.184137 -0.7183,-1.622227 -3.12769,-4.279182 -5.3703,-5.887355 -3.71899,-2.666888 -4.17663,-3.407898 -5.05157,-8.499041 -0.63433,-3.691312 -0.54137,-6.45295 0.27843,-8.160013 0.73225,-1.524662 0.94603,-4.486766 0.49937,-7.197752 -0.56116,-3.406063 -0.35494,-4.979079 0.8569,-6.164317 2.23912,-2.189968 1.94313,-7.063315 -0.49117,-8.0956339 -0.48552,-0.2058958 -1.00949,-0.2527623 -1.55883,-0.180091 -0.14882,0.019525 -0.30487,0.037047 -0.45575,0.075087 z M 267.76908,89.977874 c 1.54896,-0.220445 3.69732,-0.257783 7.14838,-0.17907 3.98568,0.0909 6.96861,0.461435 8.62945,1.043756 0.96745,0.111945 2.01252,0.243168 2.72772,0.455634 1.91614,0.569183 4.43325,1.341327 5.41703,2.571683 0.0506,0.06335 0.0854,0.154674 0.13113,0.22806 0.0439,-0.0305 0.0957,-0.07118 0.1419,-0.0858 0.36304,-0.114237 0.81765,0.296442 1.58717,1.298918 2.0377,2.654478 1.31375,9.092805 -1.32269,11.671595 -0.96062,0.93952 -1.62202,1.48331 -2.06356,1.68199 l -0.0357,0.16192 c 0,0 -2.69756,0.95669 -4.09281,1.29848 -1.4583,0.3573 -4.4564,0.79663 -4.4564,0.79663 l 0.005,-0.15691 c -1.02504,0.18535 -2.58587,0.27132 -4.91111,0.3098 -10.60288,0.17538 -16.36547,-2.82693 -17.13519,-8.91119 -0.53031,-4.196101 1.29972,-8.379015 4.7383,-10.829217 0.9989,-0.711942 1.94148,-1.134857 3.49053,-1.355289 z" />
  <path
     style="fill:url(#ap);stroke-width:0.9853794"
     inkscape:connector-curvature="0"
     id="path224"
     d="m 202.11721,75.638014 0.97182,5.519786 3.05311,2.43056 c 1.76099,1.391418 2.65195,1.977944 3.90884,2.320831 1.2416,0.338594 3.06638,0.436241 6.40319,0.41188 2.14554,-0.0157 4.39927,0.129494 6.33229,0.361044 1.92028,0.230053 3.49224,0.464443 4.69589,1.036405 0.0247,0.01172 0.37466,0.137766 0.75389,0.219085 l 0.0962,0.01532 -1.01619,-6.167899 c -6.17396,-0.0377 -12.09582,-0.139401 -17.19592,-0.381385 -2.65251,-0.125843 -4.80639,-1.93687 -6.48829,-3.580999 -0.65849,-0.643701 -1.06114,-1.431621 -1.51459,-2.184705 z" />
  <path
     style="fill:url(#ao);stroke-width:0.9853794"
     inkscape:connector-curvature="0"
     id="path226"
     d="m 301.21218,44.830998 4.5473,31.957041 -80.87435,1.808866 1.6919,10.269135 c 1.62339,0.635042 4.79218,1.081961 7.34363,1.005937 10.62745,-0.317143 14.5257,0.261563 17.92079,2.696097 3.20963,2.301612 3.46002,2.840584 4.70387,10.366106 1.48289,8.97635 3.914,12.82512 9.16609,14.53038 4.23203,1.37407 20.15897,1.59991 23.92892,0.33307 4.55879,-1.53183 7.93114,-5.3453 9.54773,-10.81068 2.12359,-7.180331 3.96586,-9.044567 9.74817,-9.969868 9.90234,-1.584523 20.58447,4.867458 25.7137,15.518098 2.86036,5.94027 5.36826,18.61945 6.55451,33.34305 l 0.77184,9.6098 3.02586,0.74981 c 3.57801,0.85767 60.02158,-8.75338 62.47369,-10.63614 0.82747,-0.63518 1.42541,-2.77845 1.35054,-4.87249 -0.11016,-3.09215 -0.94002,-4.68755 -4.80749,-9.10091 -2.5781,-2.94203 -10.53643,-13.80227 -17.67869,-24.14513 -14.47839,-20.965365 -23.451,-31.328235 -32.50156,-37.587738 -13.31575,-9.2109 -21.60619,-12.178211 -35.54449,-12.681059 -6.39779,-0.231213 -6.91669,-0.42275 -8.13941,-3.184135 -0.7183,-1.622227 -3.12767,-4.279183 -5.37029,-5.887355 -1.84647,-1.324105 -2.88777,-2.167789 -3.57287,-3.312331 z m -33.7138,45.407185 c 1.54896,-0.220444 3.70233,-0.227403 7.1534,-0.148734 2.65714,0.06059 4.85298,0.262326 6.5193,0.54874 l -0.005,-0.03033 c 0,0 3.45828,0.198235 5.10664,0.68781 1.91613,0.569182 4.43325,1.341326 5.417,2.571684 0.0882,0.110275 0.1484,0.26131 0.22201,0.400339 0.32924,0.06903 0.74424,0.489055 1.36941,1.303536 2.03771,2.654478 1.31375,9.092802 -1.32269,11.671592 -0.7985,0.78098 -1.39843,1.279 -1.83551,1.55074 l 0.005,0.0303 c -0.0425,0.0262 -0.0774,0.0293 -0.11652,0.0504 -0.18977,0.10252 -0.35729,0.18796 -0.47113,0.17118 l -0.0304,0.005 c -0.7453,0.25586 -2.36209,0.79925 -3.47473,1.07181 -1.23291,0.3021 -3.25278,0.60892 -3.93984,0.71153 -0.91889,0.32345 -2.67545,0.45078 -5.69098,0.5007 -10.60288,0.17538 -16.36548,-2.82692 -17.1352,-8.91118 -0.5303,-4.196103 1.29973,-8.379016 4.73831,-10.829217 0.99891,-0.711943 1.94147,-1.134858 3.49054,-1.35529 z" />
  <path
     style="fill:url(#an);stroke-width:0.9853794"
     inkscape:connector-curvature="0"
     id="path228"
     d="m 226.61898,80.029945 0.4205,2.552215 0.17729,-0.06038 a 1.4732407,1.4732407 0 0 1 1.84525,1.349973 l 0.20002,4.055374 c 1.45408,0.266867 3.1173,0.533907 4.60579,0.489503 5.34554,-0.159476 9.04708,-0.123683 11.94128,0.310764 2.89421,0.434447 5.02546,1.299483 6.89513,2.640139 1.79405,1.286505 2.90386,2.586075 3.67201,4.48201 l 2.42429,0.318377 c 0.90587,-2.253131 2.30476,-4.312458 4.35424,-5.773118 1.1311,-0.806124 2.40729,-1.371638 4.13386,-1.617319 1.73317,-0.246702 3.93446,-0.237421 7.40147,-0.158349 2.50948,0.05723 4.53486,0.266301 6.23579,0.533033 a 1.4732407,1.4732407 0 0 1 0.0303,-0.005 l 0.15691,0.0053 a 1.4732407,1.4732407 0 0 1 0.12154,-0.02002 c 0,0 3.37744,0.135475 5.46093,0.754271 0.96362,0.286233 2.11366,0.63337 3.20745,1.094385 1.09379,0.461014 2.16695,1.003463 2.94769,1.979855 0.13073,0.163484 0.0864,0.186107 0.14116,0.288824 0.57761,0.355294 0.97732,0.798977 1.4503,1.415041 1.70124,2.216173 1.79645,5.436957 1.10316,8.400567 l 3.24358,0.74508 c 0.87687,-2.34921 1.81008,-4.230948 3.24003,-5.52712 1.69627,-1.537584 3.87139,-2.27384 6.66714,-2.721271 l 0.30383,-0.05006 1.88061,-12.262845 -41.88333,-4.178684 -0.15691,-0.0053 -42.2224,0.964371 z" />
  <path
     style="fill:url(#am);stroke-width:0.9853794"
     inkscape:connector-curvature="0"
     id="path230"
     d="m 223.09298,78.813278 84.5878,-1.297179 0.88458,10.318256 -5.83271,-0.758331 c 0,0 -4.72253,-0.73192 -6.88818,-1.677874 -2.08688,-0.911495 -3.39062,-3.711262 -5.69691,-3.770502 -22.09019,-0.568201 -42.06875,0.187662 -64.45841,-0.252603 -1.21572,-0.02388 -2.5965,-2.562013 -2.5965,-2.562013 z" />
  <path
     style="fill:url(#s);stroke-width:0.9853794"
     inkscape:connector-curvature="0"
     id="path232"
     d="m 300.23992,44.991185 2.51849,17.748758 28.50263,-3.541296 c -4.22121,-1.092641 -8.68361,-1.633133 -13.93812,-1.823113 -6.39778,-0.231212 -6.91668,-0.42275 -8.13941,-3.184134 -0.71829,-1.622229 -3.12767,-4.279184 -5.37028,-5.887357 -1.84648,-1.324105 -2.88776,-2.167787 -3.57288,-3.312331 z" />
  <path
     style="fill:url(#al);stroke-width:0.9853794"
     inkscape:connector-curvature="0"
     id="path234"
     d="m 310.3334,58.308188 c -3.21025,0.581034 -6.85707,1.3794 -6.85707,1.3794 l 4.73156,28.150736 c 0,0 5.50479,-0.08206 8.1493,0.592272 4.06018,1.035385 8.05117,2.76795 11.44157,5.23042 3.54633,2.575897 6.49642,6.008211 8.89679,9.675304 2.21664,3.38658 3.71947,7.24558 4.92032,11.11139 1.61314,5.19293 2.45758,10.60337 3.01265,16.01256 0.26738,2.6056 0.0704,5.25397 0.14233,7.87219 0.11031,4.01283 0.45354,12.03407 0.45354,12.03407 l 63.68021,-11.27184 0.0407,-0.13154 c -0.28553,-1.76952 -1.07919,-3.25061 -2.98145,-5.59445 l -3.98254,-3.52577 -22.4385,-31.256358 -0.72468,-2.314848 C 368.70617,82.492399 361.40721,74.679004 354.11254,69.633198 341.37275,60.820746 333.21749,57.728303 320.32943,57.035443 c -2.36376,0.199277 -4.73073,0.46758 -7.07871,0.791755 -0.82087,0.113368 -1.8467,0.286876 -2.91681,0.480559 z" />
  <path
     style="fill:#552200;stroke-width:0.9853794"
     inkscape:connector-curvature="0"
     id="path236"
     d="m 327.58549,57.672864 c 0.3961,0.509152 0.78706,0.978145 1.15678,1.338567 7.07521,6.897834 17.62703,9.423361 24.9583,16.049015 9.23757,8.348753 15.94347,19.141101 23.25811,29.217884 7.64652,10.53341 11.79174,23.93162 21.50485,32.5966 1.05777,0.94353 2.62504,1.88362 4.29289,2.75689 l 4.88167,-0.86669 0.0408,-0.13156 c -0.28554,-1.76952 -1.0792,-3.25061 -2.98145,-5.59443 l -3.98254,-3.52577 -22.43851,-31.256368 -0.72468,-2.314847 C 367.43965,82.162829 360.1407,74.349435 352.84602,69.303629 343.14677,62.594547 336.08139,59.216882 327.5863,57.674429 Z" />
  <path
     style="opacity:0.36187002;fill:url(#ak);stroke-width:0.9853794"
     inkscape:connector-curvature="0"
     id="path238"
     d="m 311.62529,58.754459 c 3.59871,5.613786 7.50624,11.045871 11.35961,16.47889 12.35208,17.09533 25.19085,33.850821 37.84777,50.719171 6.5919,8.78514 10.61267,14.1722 14.70008,19.70447 l 0.39499,-0.065 c -3.98383,-5.42421 -7.91043,-10.7496 -14.3769,-19.44614 -12.47753,-16.78207 -25.09912,-33.433519 -37.21627,-50.480673 -3.92371,-5.622362 -7.92865,-11.263892 -11.55588,-17.101674 l -1.15458,0.190222 z m 3.92944,-0.584977 c 13.6243,17.763548 27.1318,35.630234 40.75401,53.393138 8.52307,11.03912 17.14032,22.00481 25.777,32.95332 l 0.38998,-0.0954 c -8.54665,-10.8415 -17.06796,-21.71115 -25.47882,-32.65891 -13.58919,-17.835251 -27.07004,-35.74028 -40.46457,-53.721447 -0.32551,0.03775 -0.65218,0.08977 -0.97727,0.129853 z m -8.61891,1.482423 c -0.53239,0.108382 -0.90131,0.160379 -1.33187,0.250592 0.008,0.01397 0.0329,0.04231 0.0403,0.05577 0.65251,1.076213 1.25742,2.179742 1.93789,3.238464 4.10869,6.391812 8.72223,12.501314 13.2393,18.602943 5.56686,7.521139 10.84371,14.524617 16.4876,22.031466 10.75824,14.32 21.64864,28.54131 32.43054,42.84242 l 0.45576,-0.0751 C 359.56463,132.4512 348.8726,118.34401 338.32607,104.13194 332.24459,95.930611 328.05828,90.313367 322.16779,82.202009 c -4.3963,-6.053518 -8.85154,-12.1145 -12.83929,-18.451136 -0.66347,-1.054236 -1.26414,-2.143484 -1.90253,-3.213032 l -0.4894,-0.886824 z m 19.00668,-1.508617 c 2.66335,3.571533 5.39811,7.103136 8.1155,10.615933 5.72563,7.401007 11.15664,14.287309 16.95885,21.673201 13.71203,17.465468 27.57789,34.791758 41.25763,52.279538 l 0.45076,-0.10547 c -13.52923,-17.32577 -27.2231,-34.53558 -40.69653,-51.904562 -6.25459,-8.070045 -10.56788,-13.586375 -16.6305,-21.571503 -2.71499,-3.575809 -5.44482,-7.166549 -8.08471,-10.807759 -0.44748,-0.06639 -0.91436,-0.12237 -1.37161,-0.179727 z m 8.46606,1.757157 c 0.55062,0.741338 1.09656,1.484407 1.64614,2.225448 12.71317,16.829116 25.91455,33.291182 38.92789,49.886087 10.30436,13.14045 14.82067,18.96957 23.04993,29.65763 l 0.3646,-0.0601 C 390.34853,131.09244 385.90155,125.31082 375.73675,112.23127 362.90486,95.719317 349.90786,79.308465 337.4314,62.523238 l -1.61081,-2.200112 c -0.46951,-0.156261 -0.93899,-0.281731 -1.41165,-0.422795 z m 8.17977,3.240001 c 9.19077,11.534311 18.38699,23.079712 27.6071,34.587217 11.54656,14.314947 23.22,28.538077 34.93736,42.710037 l 0.42037,-0.10044 c -11.63917,-14.06897 -23.26931,-28.16442 -34.69963,-42.406639 -9.04285,-11.35895 -18.04122,-22.76917 -27.00975,-34.186301 -0.41501,-0.217344 -0.84406,-0.401106 -1.2543,-0.604763 z m -36.66638,10.441281 0.28564,1.544609 c 3.309,4.611125 6.62252,9.229097 9.92681,13.843794 0.14876,0.03061 0.31542,0.0474 0.4504,0.08183 0.11126,0.02841 0.21771,0.07245 0.32886,0.10186 -3.67368,-5.185593 -7.33543,-10.37395 -10.99176,-15.57179 z m 1.66728,9.930648 0.35072,1.939546 c 0.69088,1.007773 1.36608,2.025221 2.0598,3.031127 0.29878,0.0039 0.61606,0.01738 0.97192,0.02712 -1.12812,-1.662662 -2.26311,-3.329284 -3.38248,-4.997784 z m 56.31823,-5.003231 1.06563,1.353586 c 4.81923,6.138331 9.64275,12.279749 14.4848,18.397743 l -0.41257,-1.367606 c -0.15089,-0.205613 -0.28971,-0.380029 -0.43935,-0.582989 -2.77019,-3.53146 -5.51334,-7.081158 -8.27234,-10.621053 -2.25532,-2.709102 -4.38502,-5.092765 -6.42596,-7.180263 z m -19.46525,49.114566 c 0.0331,0.25562 0.0633,0.5088 0.0948,0.76458 4.93074,6.73694 9.86684,13.44223 14.8355,20.15054 l 0.42037,-0.10043 c -5.12651,-6.92757 -10.27524,-13.8493 -15.35134,-20.81454 z m 0.5488,9.77138 c -5.3e-4,0.25053 -0.004,0.49905 -9.8e-4,0.74922 2.8894,4.11252 5.81445,8.29716 8.04294,11.50172 l 0.42537,-0.0701 c -2.34122,-3.38933 -5.31022,-7.65101 -8.46701,-12.18085 z m 0.29075,9.72023 c 0.0168,0.4147 0.0241,0.44422 0.0391,0.80498 0.64828,0.91263 1.30122,1.82428 1.94898,2.7373 l 0.48613,-0.0801 c -0.81898,-1.15914 -1.65467,-2.30333 -2.47406,-3.4622 z" />
  <path
     style="fill:url(#aj);stroke-width:0.9853794"
     inkscape:connector-curvature="0"
     id="path240"
     d="m 307.61313,81.136414 1.04652,6.162902 c 0,0 4.53253,0.07812 7.17703,0.752457 4.06019,1.035384 8.05118,2.76795 11.44159,5.23042 3.54631,2.575898 6.49642,6.00821 8.89678,9.675307 2.21664,3.38657 3.71947,7.24557 4.92032,11.11138 1.61314,5.19293 2.45758,10.60338 3.01265,16.01256 0.26738,2.6056 0.0704,5.25397 0.14233,7.87219 0.11032,4.01283 0.45354,12.03408 0.45354,12.03408 l 6.66937,-1.19239 7.91682,-2.33416 c 0,0 0.008,-5.10712 -0.47185,-7.59948 -1.54661,-8.0389 -4.39113,-15.83039 -7.6818,-23.32647 -2.70156,-6.15408 -5.65484,-12.33759 -9.82874,-17.604945 -3.79911,-4.794623 -8.1225,-9.558196 -13.554,-12.372364 -6.1029,-3.161539 -20.14046,-4.421399 -20.14046,-4.421399 z" />
  <path
     style="fill:#281b13;stroke-width:0.9853794"
     inkscape:connector-curvature="0"
     id="path242"
     d="m 346.27643,150.02572 62.36281,-10.81818 c 0,0 -3.77596,-2.34292 -5.90273,-2.83271 -4.15324,-0.95653 -8.53047,-0.30537 -12.78606,-0.0678 -3.8422,0.21444 -7.66676,0.73221 -11.46571,1.34543 -4.41618,0.7129 -8.86222,1.41305 -13.14347,2.70905 -3.50802,1.0619 -6.92681,2.46117 -10.19276,4.12554 -3.10626,1.58314 -8.87226,5.53879 -8.87226,5.53879 z" />
  <path
     style="fill:url(#ai);stroke-width:0.9853794"
     inkscape:connector-curvature="0"
     id="path244"
     d="m 3.5918271,81.821565 c 1.4722738,3.657416 3.1108019,4.824138 5.7477008,4.389696 2.4393321,-0.401893 2.9741221,0.03518 4.7061251,3.749786 1.076331,2.308542 2.255422,4.306947 2.639251,4.464812 0.383831,0.157867 24.836083,-3.192472 54.322908,-7.451976 48.425148,-6.995203 64.177208,-8.988638 70.581578,-6.697767 L 141.25489,61.387577 3.5902235,81.821529 Z" />
  <path
     style="fill:url(#ah);stroke-width:0.9853794"
     inkscape:connector-curvature="0"
     id="path246"
     d="m 154.92019,64.968646 3.99474,24.246518 2.30914,-0.380444 c 0.0989,-0.106967 0.19644,-0.220203 0.28916,-0.328516 l 2.56711,-2.982018 18.34524,-2.30468 18.37537,-2.309645 1.47093,1.161977 1.5496,-0.255305 -2.71324,-16.468343 z" />
  <path
     style="fill:#666666;stroke-width:0.9853794"
     inkscape:connector-curvature="0"
     id="path248"
     d="m 165.8722,55.674273 -28.6485,5.874637 -6.80641,12.294437 7.54607,3.750064 2.89843,3.954038 c 3.91895,0.707322 5.30095,2.3721 6.55669,4.942893 2.08784,4.274138 7.18255,7.742192 10.54672,7.18793 1.25481,-0.206737 3.43067,-1.740546 4.8408,-3.38788 l 2.51636,-2.91124 c 0.1433,-1.515614 0.2847,-3.113404 0.3268,-4.267005 0.0891,-2.438339 0.0754,-4.882599 -0.11291,-7.315383 -0.27604,-3.566287 -1.49896,-10.613504 -1.49896,-10.613504 l 3.38184,-0.120256 -1.54679,-9.388452 z" />
  <path
     style="fill:url(#r);stroke-width:0.9853794"
     inkscape:connector-curvature="0"
     id="path250"
     d="m 164.57955,53.889915 -28.6485,5.874638 -6.80641,12.294437 7.54608,3.750065 2.89844,3.954036 c 3.91893,0.707324 5.30094,2.3721 6.55668,4.942893 2.08783,4.274139 7.18255,7.742193 10.54672,7.187931 1.25481,-0.206738 3.43066,-1.740546 4.8408,-3.38788 l 2.51636,-2.911241 c 0.14329,-1.515614 0.2847,-3.113403 0.3268,-4.267005 0.0891,-2.438338 0.0754,-4.882598 -0.11291,-7.315383 -0.27605,-3.566285 -1.49897,-10.613503 -1.49897,-10.613503 l 3.38185,-0.120256 -1.54679,-9.388453 z" />
  <path
     style="fill:url(#ag);stroke-width:0.9853794"
     inkscape:connector-curvature="0"
     id="path252"
     d="M 152.78887,49.001629 1.9309711,75.91597 c 0.1281314,0.860629 0.2990359,1.73005 0.5570496,2.623389 0.8699339,3.011951 1.712899,5.017298 2.7119574,6.231753 L 155.31396,61.100161 152.79013,49.00172 Z" />
  <path
     style="fill:url(#af);stroke-width:0.9853794"
     inkscape:connector-curvature="0"
     id="path254"
     d="m 152.32111,60.10394 c 0,0 0.63949,5.048742 2.14373,6.950135 0.85781,1.084233 2.23129,1.779512 3.57583,2.101565 4.82003,1.154667 9.90841,-0.427473 14.84139,-0.907652 4.15422,-0.404384 8.26361,-1.191889 12.41146,-1.660464 1.76317,-0.199214 3.56521,-0.858384 5.30084,-0.488964 1.58349,0.337091 2.99245,1.339926 4.23552,2.377261 2.69689,2.250666 3.92689,5.986647 6.71892,8.118278 1.81155,1.383087 6.22997,2.817436 6.22997,2.817436 l -2.9509,-22.576958 z" />
  <path
     style="fill:url(#ae);stroke-width:0.9853794"
     inkscape:connector-curvature="0"
     id="path256"
     d="m 201.93067,33.105708 19.46002,-3.206136 2.83611,17.214075 -19.46002,3.206136 z" />
  <path
     style="fill:url(#ad);stroke-width:0.9853794"
     inkscape:connector-curvature="0"
     id="path258"
     d="m 204.49365,48.662061 19.46004,-3.206138 2.83609,17.214075 -19.46002,3.206137 z" />
  <path
     style="fill:url(#q);stroke-width:0.9853794"
     inkscape:connector-curvature="0"
     id="path260"
     d="m 299.1328,9.6611133 c -2.26328,0.5709027 -4.69511,3.1707357 -5.48909,6.2721727 -1.43712,5.613278 -1.84344,6.256649 -4.4021,6.998073 -1.39485,0.404215 -5.18241,0.209461 -8.40279,-0.425677 -4.17402,-0.823285 -9.92728,-0.94967 -13.91566,-0.547323 l 6.12836,31.135303 30.36113,-6.468987 c -2.207,-1.796394 -2.68847,-3.049387 -3.40872,-7.240454 -0.63434,-3.691311 -0.54138,-6.45295 0.27842,-8.160011 0.73226,-1.524663 0.94602,-4.486768 0.49937,-7.197753 -0.56116,-3.406063 -0.35494,-4.979079 0.85691,-6.164317 2.2391,-2.189968 1.94312,-7.063316 -0.49119,-8.0956344 -0.48551,-0.2058958 -1.00948,-0.2527623 -1.55882,-0.1800913 -0.14882,0.019526 -0.30486,0.037047 -0.45575,0.075088 z" />
  <path
     style="fill:url(#ac);stroke-width:0.9853794"
     inkscape:connector-curvature="0"
     id="path262"
     d="M 207.47247,31.403726 C 133.67822,44.102525 31.423299,61.864162 3.842925,66.669218 c -0.9393648,0.681181 -1.2963205,1.636271 -1.7532065,3.565664 -0.4787887,2.022183 -0.4761791,4.27993 0.00276,6.646849 L 151.5817,51.722091 c 0,0 1.78331,9.945488 2.55421,12.093436 0.87095,2.426964 4.47038,3.301478 7.04591,3.177143 10.96891,-0.52989 23.93703,-5.291341 32.51805,-3.797101 2.1425,0.373162 3.63597,2.47754 5.04963,4.130209 2.24449,2.624002 2.80942,6.515995 5.27862,8.929707 1.63726,1.60055 3.69551,3.243791 5.98255,3.352339 33.31617,1.580633 97.00383,-1.844787 97.00383,-1.844787 l -6.12844,-33.78774 -7.49867,0.704904 c 0,0 -10.49602,-16.738015 -15.71694,-22.657766 -6.59429,-0.703764 -14.42431,1.796582 -15.01037,3.222029 -0.52355,1.272669 -30.52216,3.891402 -45.42949,5.362578 l 6.29846,40.312957 -8.90312,1.841332 z" />
  <path
     style="opacity:0.55852996;fill:#333333;stroke-width:0.9853794"
     inkscape:connector-curvature="0"
     id="path264"
     d="m 256.82654,84.260776 c -1.6892,0.283298 -2.94146,0.911089 -3.97896,1.342134 -1.43041,0.592042 -2.37669,2.259273 -2.20804,3.890267 l 0.10299,0.981692 c 0.11395,1.068169 1.77577,2.383052 2.47835,2.920225 1.18356,0.908227 1.16036,1.615109 1.61105,2.647673 -0.45726,-1.04826 0.22909,-1.047591 0.63347,-0.05474 0.46855,1.139476 1.31227,2.563177 2.68699,2.605127 1.37471,0.04196 2.37926,-1.325356 2.86763,-2.435728 0.57237,-1.321761 1.43597,-2.471893 2.55871,-3.357832 0.88448,-0.693688 2.48002,-2.59647 2.25391,-3.968329 l -0.0301,-0.1823 c -0.21339,-1.289571 -1.0966,-2.444717 -2.24629,-2.937985 -0.27664,-0.118504 -0.50518,-0.246581 -1.16816,-0.494122 -0.82295,-0.307273 -1.65143,-0.524563 -2.37702,-0.700713 -0.72559,-0.176149 -0.84216,-0.337942 -2.11175,-0.33866 -0.43183,-1.59e-4 -0.6314,0.0091 -1.07303,0.08321 z" />
  <path
     style="fill:url(#ab);stroke-width:0.9853794"
     inkscape:connector-curvature="0"
     id="path266"
     d="m 256.47058,85.221963 c -2.53491,0.42463 -6.05841,2.059234 -6.05841,2.059234 l 0.46206,4.698734 c 0.32419,0.192579 0.65992,0.366058 0.97087,0.589041 3.20967,2.301645 3.46001,2.840633 4.70391,10.366348 1.48288,8.97632 3.914,12.82545 9.16621,14.53085 4.23198,1.37414 20.15927,1.59984 23.92917,0.33308 4.55875,-1.53181 7.93112,-5.34532 9.54749,-10.81063 1.78055,-6.02047 3.37316,-8.306935 7.2466,-9.432893 -0.1388,-0.146813 -5.27312,-5.51641 -8.70181,-5.6506 -1.66145,-0.06503 -3.93962,1.356995 -5.51256,2.531049 0.27592,0.196786 0.61873,0.559825 1.06098,1.135943 2.03768,2.654533 1.31374,9.092751 -1.32274,11.671351 -0.7985,0.78098 -1.39844,1.27897 -1.83547,1.55073 l 0.005,0.0303 c -0.0425,0.0262 -0.0773,0.0293 -0.11653,0.0504 -0.18977,0.10252 -0.35728,0.18801 -0.47113,0.17119 l -0.0303,0.005 c -0.74531,0.25586 -2.36205,0.79925 -3.47478,1.07182 -1.23291,0.30209 -3.25283,0.60892 -3.93984,0.71153 -0.91888,0.32344 -2.67549,0.45079 -5.69102,0.5007 -10.6031,0.17539 -16.36578,-2.82684 -17.13473,-8.91126 -0.53029,-4.196048 1.29969,-8.379001 4.73829,-10.829706 0.43491,-0.309965 0.87468,-0.544263 1.34292,-0.751793 l -0.83341,-3.732513 c 0,0 -4.59979,-2.014231 -7.03803,-1.992479 -0.30834,0.0028 -0.65055,0.04376 -1.01267,0.104425 z" />
  <path
     style="fill:url(#p);stroke-width:0.9853794"
     inkscape:connector-curvature="0"
     id="path268"
     d="m 266.18024,25.016929 c -1.86635,0.269442 -3.61925,-2.242711 -3.83916,-1.708147 -0.52356,1.272671 -30.2018,5.835899 -45.10913,7.307125 l 6.29846,40.312956 -1.47873,0.306045 1.44167,8.750448 c 34.52405,0.419717 83.52293,-2.214273 83.52293,-2.214273 l -6.12844,-33.787738 -7.49868,0.704903 c 0,0 -10.49602,-16.738014 -15.71694,-22.657768 -4.12145,-0.439872 -8.38151,2.536648 -11.49205,2.985712 z" />
  <path
     style="fill:url(#o);stroke-width:0.9853794"
     inkscape:connector-curvature="0"
     id="path270"
     d="m 207.47247,31.403726 c -18.37649,3.163645 -38.9193,6.713855 -59.20336,10.222174 l 1.82847,10.340506 1.48876,-0.245277 c 0,0 1.78332,9.945486 2.5542,12.093434 0.87096,2.426965 4.47038,3.301479 7.04591,3.177145 10.96891,-0.529892 23.93704,-5.291342 32.51806,-3.797102 2.1425,0.373163 3.63597,2.47754 5.04963,4.130208 2.24449,2.624003 2.80942,6.515995 5.27861,8.929707 1.63727,1.600551 3.69551,3.243792 5.98255,3.352341 2.99574,0.142136 6.30582,0.234282 9.72424,0.301536 l -1.24576,-7.940056 -3.86405,0.792663 -7.15721,-41.357887 z" />
  <path
     style="fill:#281b13;stroke-width:0.9853794"
     inkscape:connector-curvature="0"
     id="path272"
     d="m 341.90562,154.47086 0.0741,1.01761 3.02586,0.74979 c 3.57801,0.85768 60.02157,-8.75336 62.47368,-10.63613 0.2719,-0.20871 0.52433,-0.57757 0.73095,-1.05668 l -66.30481,9.9254 z" />
  <path
     style="opacity:0.5;fill:url(#aa);stroke-width:0.9853794"
     inkscape:connector-curvature="0"
     id="path274"
     d="m 257.17623,106.1438 c 1.53143,6.73014 3.96304,9.83803 8.54445,11.32522 4.23204,1.37407 20.15897,1.59992 23.92892,0.33307 4.55879,-1.53182 7.93116,-5.3453 9.54773,-10.81068 0.20408,-0.69002 0.39317,-1.28134 0.5958,-1.87698 -0.53066,0.70757 -1.06085,1.39555 -1.49694,1.90061 -1.99003,2.30463 -3.84295,4.87837 -6.46137,6.43237 -1.75302,1.04039 -3.86641,1.3221 -5.86036,1.74573 -3.83553,0.81488 -7.75577,1.83267 -11.66704,1.54771 -4.73803,-0.34529 -10.05027,-0.8675 -13.71709,-3.88802 -1.92713,-1.58765 -3.38926,-6.62039 -3.41472,-6.70888 z" />
  <path
     style="opacity:0.66890001;fill:#241f1c;stroke-width:0.9853794"
     inkscape:connector-curvature="0"
     id="path276"
     d="m 216.57964,31.521108 6.91759,40.56548 56.87687,-11.292677 -8.39565,-37.631563 z" />
  <path
     style="fill:url(#z);stroke-width:0.9853794"
     inkscape:connector-curvature="0"
     id="path278"
     d="m 216.50696,30.534418 6.91338,40.566174 55.82292,-11.119035 -8.35618,-37.638064 z" />
  <path
     style="fill:url(#y);stroke-width:0.9853794"
     inkscape:connector-curvature="0"
     id="path280"
     d="m 216.50696,30.534418 6.91338,40.566174 55.82292,-11.119035 -8.35618,-37.638064 z" />
  <path
     style="fill:url(#n);stroke-width:0.9853794"
     inkscape:connector-curvature="0"
     id="path282"
     d="m 278.57695,56.799242 c 3.11813,-0.686157 6.35734,-1.34058 9.10897,-3.038291 3.73739,-2.23918 6.28381,-6.192887 8.25003,-10.161654 1.17673,-2.702814 -7e-5,-5.680985 -1.07249,-8.214072 -1.47718,-2.724956 -3.71037,-4.936075 -5.75166,-7.23893 -3.56374,-3.829145 -4.93376,-4.11744 -9.67122,-6.215867 -1.65535,-0.07861 -7.06871,-1.167873 -8.65372,-0.748646 1.87539,5.327776 4.75037,14.310155 5.89443,19.853992 0.83495,6.96743 0.79986,9.411446 1.89564,15.763172 z" />
  <path
     style="fill:url(#m);stroke-width:0.9853794"
     inkscape:connector-curvature="0"
     id="path284"
     d="m 278.57695,56.799242 c 3.11813,-0.686157 6.35734,-1.34058 9.10897,-3.038291 3.73739,-2.23918 6.28381,-6.192887 8.25003,-10.161654 1.17673,-2.702814 -7e-5,-5.680985 -1.07249,-8.214072 -1.47718,-2.724956 -3.71037,-4.936075 -5.75166,-7.23893 -3.56374,-3.829145 -4.93376,-4.11744 -9.67122,-6.215867 -1.65535,-0.07861 -7.06871,-1.167873 -8.65372,-0.748646 1.87539,5.327776 4.75037,14.310155 5.89443,19.853992 0.83495,6.96743 0.79986,9.411446 1.89564,15.763172 z" />
  <path
     style="fill:url(#l);stroke-width:0.9853794"
     inkscape:connector-curvature="0"
     id="path286"
     d="m 1.4616167,75.900921 c 0.052593,0.365464 0.074915,0.728626 0.1498265,1.098812 l 0.105471,0.450746 0.4557527,-0.07509 L 151.17575,52.295846 c 0.0716,0.398565 0.41916,2.274406 0.91245,4.780569 0.54318,2.759798 1.1504,5.730145 1.57671,6.918123 0.50203,1.398908 1.77272,2.308756 3.18405,2.845903 1.41133,0.537147 2.99802,0.721534 4.35241,0.656081 5.54638,-0.267946 11.54735,-1.613629 17.22257,-2.681465 5.67524,-1.067836 11.03807,-1.855826 15.19908,-1.130961 1.8722,0.326068 3.30464,2.283159 4.74118,3.962519 1.05733,1.236113 1.74413,2.820187 2.47739,4.429164 0.73326,1.608976 1.52077,3.239673 2.83667,4.52596 1.66438,1.626942 3.81314,3.395883 6.32142,3.514918 4.31852,0.204895 9.16674,0.335862 14.29539,0.391087 l -0.16518,-1.002607 c -5.06025,-0.05652 -9.83747,-0.188106 -14.10761,-0.390867 -2.06581,-0.09802 -4.03344,-1.61562 -5.64366,-3.189666 -1.1534,-1.127508 -1.90705,-2.650638 -2.63465,-4.247162 -0.72762,-1.596526 -1.42138,-3.269233 -2.60865,-4.657207 -1.39076,-1.62588 -2.94524,-3.877516 -5.35805,-4.2978 -4.41855,-0.769617 -9.847,0.05345 -15.54356,1.125301 -5.69654,1.071855 -11.64739,2.394408 -17.06992,2.656313 -1.22113,0.059 -2.71777,-0.118835 -3.96779,-0.594616 -1.25001,-0.47578 -2.21877,-1.229511 -2.58778,-2.257557 -0.34463,-0.96036 -1.01046,-4.016226 -1.55167,-6.766158 -0.54125,-2.749928 -0.98754,-5.236273 -0.98754,-5.236273 l -0.0801,-0.486136 -0.48612,0.08009 L 2.5288697,76.318141 C 2.4946089,76.123225 2.492197,75.928923 2.4641424,75.73585 l -1.0026068,0.165184 z" />
  <path
     style="fill:url(#x);stroke-width:0.9853794"
     inkscape:connector-curvature="0"
     id="path288"
     d="m 305.4906,93.529993 c -1.43581,0.262822 -2.79382,0.77123 -3.76464,1.774898 -2.06595,2.135974 -1.93986,8.683399 -1.93986,8.683399 l 0.53724,-0.33817 c 1.77363,-4.46433 3.85833,-5.869974 8.61334,-6.630916 9.90234,-1.584522 20.58446,4.867456 25.71369,15.518106 1.7086,3.54828 3.30971,9.52523 4.56007,16.8811 l 0.0707,0.0508 c 0,0 0.11653,-9.77425 -1.21859,-14.40468 -1.36231,-4.72503 -3.41778,-9.52541 -6.77942,-13.11402 -3.06539,-3.272603 -7.34134,-5.342406 -11.53412,-6.931673 -3.14109,-1.190503 -6.55671,-1.95119 -9.91377,-1.83082 -1.39549,0.05003 -2.90826,0.07845 -4.34409,0.341212 z" />
  <path
     style="fill:url(#w);stroke-width:0.98488051"
     inkscape:connector-curvature="0"
     id="path290"
     d="m 269.64011,22.336396 2.21814,-0.386083 8.5713,38.830064 -2.21816,0.386083 z" />
  <path
     style="fill:url(#v);stroke-width:0.9853794"
     inkscape:connector-curvature="0"
     id="path292"
     d="m 310.30765,58.212562 c -3.21025,0.581035 -6.85706,1.379401 -6.85706,1.379401 l 4.73156,28.150737 c 0,0 5.50478,-0.08206 8.1493,0.592271 4.06018,1.035384 8.05116,2.76795 11.44158,5.23042 0.29741,0.216035 0.60067,0.437108 0.88973,0.664826 0.041,-2.29479 -0.14602,-4.681051 -1.01619,-6.1679 -1.66527,-2.845263 -5.2494,-4.379016 -8.45978,-5.128679 -2.27002,-0.530113 -5.11276,1.975437 -6.98721,0.58943 -6.04467,-4.469594 -7.04426,-19.405898 -4.69234,-22.040383 4.29018,-4.805443 23.5812,-3.104916 23.5812,-3.104916 -3.33095,-0.759558 -6.83279,-1.225315 -10.78474,-1.437657 -2.36375,0.199275 -4.73073,0.467579 -7.07871,0.791753 -0.82088,0.113369 -1.8467,0.286877 -2.91681,0.48056 z" />
  <path
     style="fill:url(#k);stroke-width:0.9853794"
     inkscape:connector-curvature="0"
     id="path294"
     d="m 274.70247,87.896818 13.84104,1.524828 5.46474,2.361292 0.83947,-2.040961 -6.16729,-2.789117 z" />
  <g
     id="g300"
     transform="matrix(0.50897957,0.00230775,-0.00230775,0.50897957,232.70297,-101.37798)">
    <path
       style="fill:#4d4d4d"
       inkscape:connector-curvature="0"
       id="path296"
       d="m 85.447,411.41 c 0,0 9.2939,-12.348 12.007,-19.475 2.4106,-6.3318 3.5396,-20.015 3.5396,-20.015 l 12.626,-0.7698 c 0,0 -3.8777,23.838 -11.547,32.331 -4.1147,4.5571 -16.626,7.9282 -16.626,7.9282 z" />
    <path
       style="fill:#989394"
       inkscape:connector-curvature="0"
       id="path298"
       d="m 83.447,411.41 c 0,0 9.2939,-12.348 12.007,-19.475 2.4106,-6.3318 3.5396,-20.015 3.5396,-20.015 l 12.626,-0.7698 c 0,0 -3.8777,23.838 -11.547,32.331 -4.1147,4.5571 -16.626,7.9282 -16.626,7.9282 z" />
  </g>
  <g
     id="g306"
     transform="matrix(0.09402602,-0.0394492,0.0394492,0.09402602,126.75516,45.191652)">
    <path
       style="fill:url(#radialGradient1187)"
       inkscape:connector-curvature="0"
       id="path302"
       d="m 155.68,452.22 c 0,21.344 -17.303,38.647 -38.647,38.647 -21.344,0 -38.647,-17.303 -38.647,-38.647 0,-21.344 17.303,-38.647 38.647,-38.647 21.344,0 38.647,17.303 38.647,38.647 z" />
    <path
       style="fill:url(#radialGradient1189)"
       inkscape:connector-curvature="0"
       id="path304"
       d="m 79.031,445.12 c -0.42786,2.3028 -0.65625,4.667 -0.65625,7.0938 0,1.6675 0.13886,3.2944 0.34375,4.9062 h 76.625 c 0.20489,-1.6119 0.34375,-3.2387 0.34375,-4.9062 0,-2.4268 -0.22839,-4.7909 -0.65625,-7.0938 z" />
  </g>
  <g
     id="g312"
     transform="matrix(-0.10171177,-0.00720041,-0.00720041,0.10171177,176.90754,14.638626)">
    <path
       style="fill:url(#radialGradient1191)"
       inkscape:connector-curvature="0"
       id="path308"
       d="m 155.68,452.22 c 0,21.344 -17.303,38.647 -38.647,38.647 -21.344,0 -38.647,-17.303 -38.647,-38.647 0,-21.344 17.303,-38.647 38.647,-38.647 21.344,0 38.647,17.303 38.647,38.647 z" />
    <path
       style="fill:url(#radialGradient1193)"
       inkscape:connector-curvature="0"
       id="path310"
       d="m 79.031,445.12 c -0.42786,2.3028 -0.65625,4.667 -0.65625,7.0938 0,1.6675 0.13886,3.2944 0.34375,4.9062 h 76.625 c 0.20489,-1.6119 0.34375,-3.2387 0.34375,-4.9062 0,-2.4268 -0.22839,-4.7909 -0.65625,-7.0938 z" />
  </g>
  <g
     id="g318"
     transform="matrix(-0.0394492,-0.09402602,0.09402602,-0.0394492,256.90844,89.000921)">
    <path
       style="fill:url(#radialGradient1195)"
       inkscape:connector-curvature="0"
       id="path314"
       d="m 155.68,452.22 c 0,21.344 -17.303,38.647 -38.647,38.647 -21.344,0 -38.647,-17.303 -38.647,-38.647 0,-21.344 17.303,-38.647 38.647,-38.647 21.344,0 38.647,17.303 38.647,38.647 z" />
    <path
       style="fill:url(#radialGradient1197)"
       inkscape:connector-curvature="0"
       id="path316"
       d="m 79.031,445.12 c -0.42786,2.3028 -0.65625,4.667 -0.65625,7.0938 0,1.6675 0.13886,3.2944 0.34375,4.9062 h 76.625 c 0.20489,-1.6119 0.34375,-3.2387 0.34375,-4.9062 0,-2.4268 -0.22839,-4.7909 -0.65625,-7.0938 z" />
  </g>
  <g
     id="g324"
     transform="matrix(0.07650274,0.01203282,-0.01203282,0.07650274,282.1285,37.319393)">
    <path
       style="fill:url(#radialGradient1199)"
       inkscape:connector-curvature="0"
       id="path320"
       d="m 155.68,452.22 c 0,21.344 -17.303,38.647 -38.647,38.647 -21.344,0 -38.647,-17.303 -38.647,-38.647 0,-21.344 17.303,-38.647 38.647,-38.647 21.344,0 38.647,17.303 38.647,38.647 z" />
    <path
       style="fill:url(#radialGradient1201)"
       inkscape:connector-curvature="0"
       id="path322"
       d="m 79.031,445.12 c -0.42786,2.3028 -0.65625,4.667 -0.65625,7.0938 0,1.6675 0.13886,3.2944 0.34375,4.9062 h 76.625 c 0.20489,-1.6119 0.34375,-3.2387 0.34375,-4.9062 0,-2.4268 -0.22839,-4.7909 -0.65625,-7.0938 z" />
  </g>
  <g
     id="g330"
     transform="matrix(0.03779785,-0.06759526,0.06759526,0.03779785,244.11683,61.368203)">
    <path
       style="fill:url(#radialGradient1203)"
       inkscape:connector-curvature="0"
       id="path326"
       d="m 155.68,452.22 c 0,21.344 -17.303,38.647 -38.647,38.647 -21.344,0 -38.647,-17.303 -38.647,-38.647 0,-21.344 17.303,-38.647 38.647,-38.647 21.344,0 38.647,17.303 38.647,38.647 z" />
    <path
       style="fill:url(#radialGradient1205)"
       inkscape:connector-curvature="0"
       id="path328"
       d="m 79.031,445.12 c -0.42786,2.3028 -0.65625,4.667 -0.65625,7.0938 0,1.6675 0.13886,3.2944 0.34375,4.9062 h 76.625 c 0.20489,-1.6119 0.34375,-3.2387 0.34375,-4.9062 0,-2.4268 -0.22839,-4.7909 -0.65625,-7.0938 z" />
  </g>
  <path
     style="opacity:0.55852996;fill:#ffffff;stroke-width:0.9853794"
     inkscape:connector-curvature="0"
     id="path368"
     d="m 297.62493,94.825901 c 0.0304,9.86e-4 -0.77018,0.44244 -1.08949,0.585208 0.89751,1.988631 0.97557,4.187408 0.73236,6.339451 -0.31154,2.75664 -1.18452,5.54863 -3.27429,7.59251 -0.5646,0.55221 -1.0364,0.84091 -1.51591,1.21721 a 2.9148606,2.9148606 0 0 1 -0.0811,0.0758 2.9148606,2.9148606 0 0 1 -0.73025,0.68206 c -0.56312,0.34726 -0.75673,0.372 -0.26345,0.10578 -0.15326,0.0829 -0.48042,0.32665 -1.1449,0.43828 l -0.0607,0.0102 c -0.0216,0.008 -0.0637,0.0377 -0.0861,0.0453 l -0.0608,0.0102 c -0.83867,0.28627 -2.12936,0.72281 -3.32786,1.0164 -1.50453,0.36865 -3.47678,0.67725 -4.17791,0.78191 l -0.005,-0.0303 c -1.62892,0.47062 -3.28882,0.51948 -6.08601,0.56579 -5.58524,0.0923 -10.10234,-0.6256 -13.63848,-2.46544 -0.2309,-0.12014 -0.41101,-0.29406 -0.632,-0.42642 1.11246,1.7631 2.27917,2.63456 4.41831,3.32914 1.13907,0.36985 6.45378,0.94015 11.30744,1.00819 2.42684,0.034 4.82415,-0.0256 6.80917,-0.15439 1.98501,-0.12873 3.67493,-0.39285 4.00527,-0.50384 3.58569,-1.20485 6.2727,-4.11863 7.68094,-8.88028 0.92883,-3.14064 1.82131,-5.51802 3.2943,-7.470987 0.50548,-0.670174 1.17183,-1.186284 1.81044,-1.702649 -1.55255,-1.236581 -3.6307,-2.158943 -3.88385,-2.168855 z" />
  <path
     style="opacity:0.55852996;fill:#ffffff;stroke-width:0.9853794"
     inkscape:connector-curvature="0"
     id="path370"
     d="m 289.14404,111.92091 0.31384,0.0107 c -0.0952,-0.006 -0.13412,-0.0171 -0.2227,-0.0258 -0.0355,-0.004 -0.062,0.0182 -0.0911,0.015 z" />
  <path
     style="fill:url(#u);stroke-width:0.9853794"
     inkscape:connector-curvature="0"
     id="path372"
     d="m 207.47247,31.403726 -3.03335,0.530919 c 0.0145,0.296997 0.0174,0.652334 0.0283,0.931542 0.14324,3.43609 0.26325,6.883169 0.0771,10.317484 -0.14093,2.599372 0.14152,5.380551 -0.90542,7.763981 -1.12316,2.556973 -4.35593,3.775969 -5.47908,6.332941 -0.85069,1.936549 -1.27692,4.856959 -1.51771,7.646352 0.75995,0.750311 1.44635,1.620719 2.11165,2.398418 2.24449,2.624002 2.80942,6.515995 5.27862,8.929707 1.63726,1.600551 3.6955,3.243792 5.98255,3.35234 2.99574,0.142137 6.3058,0.234282 9.72423,0.301537 l -1.24575,-7.940056 -3.86405,0.792663 -7.15722,-41.357887 z" />
</svg>
