<?xml version="1.0" encoding="UTF-8" standalone="no"?>
<svg
   xmlns:dc="http://purl.org/dc/elements/1.1/"
   xmlns:cc="http://creativecommons.org/ns#"
   xmlns:rdf="http://www.w3.org/1999/02/22-rdf-syntax-ns#"
   xmlns:svg="http://www.w3.org/2000/svg"
   xmlns="http://www.w3.org/2000/svg"
   xmlns:xlink="http://www.w3.org/1999/xlink"
   xmlns:sodipodi="http://sodipodi.sourceforge.net/DTD/sodipodi-0.dtd"
   xmlns:inkscape="http://www.inkscape.org/namespaces/inkscape"
   version="1.1"
   viewBox="0 0 744.09 743.99998"
   id="svg400"
   sodipodi:docname="rostilo.svg"
   inkscape:version="0.92.4 5da689c313, 2019-01-14"
   width="744.09003"
   height="744">
  <metadata
     id="metadata404">
    <rdf:RDF>
      <cc:Work
         rdf:about="">
        <dc:format>image/svg+xml</dc:format>
        <dc:type
           rdf:resource="http://purl.org/dc/dcmitype/StillImage" />
        <dc:title></dc:title>
      </cc:Work>
    </rdf:RDF>
  </metadata>
  <sodipodi:namedview
     pagecolor="#ffffff"
     bordercolor="#666666"
     borderopacity="1"
     objecttolerance="10"
     gridtolerance="10"
     guidetolerance="10"
     inkscape:pageopacity="0"
     inkscape:pageshadow="2"
     inkscape:window-width="1920"
     inkscape:window-height="1032"
     id="namedview402"
     showgrid="false"
     inkscape:zoom="0.44849866"
     inkscape:cx="-325.98353"
     inkscape:cy="184.56831"
     inkscape:window-x="0"
     inkscape:window-y="0"
     inkscape:window-maximized="1"
     inkscape:current-layer="svg400" />
  <defs
     id="defs16">
    <linearGradient
       id="c"
       x1="626.58002"
       x2="407.13"
       y1="445.04001"
       y2="446.5"
       gradientTransform="matrix(0.83859,0,0,0.5356,99.698,188.25)"
       gradientUnits="userSpaceOnUse">
      <stop
         stop-color="#0b0c0d"
         offset="0"
         id="stop2" />
      <stop
         stop-color="#666"
         stop-opacity=".97189"
         offset=".5"
         id="stop4" />
      <stop
         stop-color="#f9f7f9"
         stop-opacity="0"
         offset="1"
         id="stop6" />
    </linearGradient>
    <linearGradient
       id="d"
       x1="600.28998"
       x2="427.94"
       y1="470.60001"
       y2="470.97"
       gradientTransform="matrix(0.83859,0,0,0.83859,98.501,64.263)"
       gradientUnits="userSpaceOnUse">
      <stop
         stop-color="#0b1017"
         offset="0"
         id="stop9" />
      <stop
         stop-color="#b1aeb0"
         stop-opacity=".98824"
         offset=".49678"
         id="stop11" />
      <stop
         stop-color="#fdf6fa"
         stop-opacity=".9759"
         offset="1"
         id="stop13" />
    </linearGradient>
    <linearGradient
       inkscape:collect="always"
       xlink:href="#c"
       id="linearGradient1211"
       gradientUnits="userSpaceOnUse"
       gradientTransform="matrix(0.83859,0,0,0.5356,99.698,188.25)"
       x1="626.58002"
       y1="445.04001"
       x2="407.13"
       y2="446.5" />
    <linearGradient
       inkscape:collect="always"
       xlink:href="#d"
       id="linearGradient1213"
       gradientUnits="userSpaceOnUse"
       gradientTransform="matrix(0.83859,0,0,0.83859,98.501,64.263)"
       x1="600.28998"
       y1="470.60001"
       x2="427.94"
       y2="470.97" />
    <linearGradient
       inkscape:collect="always"
       xlink:href="#c"
       id="linearGradient1215"
       gradientUnits="userSpaceOnUse"
       gradientTransform="matrix(0.83859,0,0,0.5356,99.698,188.25)"
       x1="626.58002"
       y1="445.04001"
       x2="407.13"
       y2="446.5" />
    <linearGradient
       inkscape:collect="always"
       xlink:href="#d"
       id="linearGradient1217"
       gradientUnits="userSpaceOnUse"
       gradientTransform="matrix(0.83859,0,0,0.83859,98.501,64.263)"
       x1="600.28998"
       y1="470.60001"
       x2="427.94"
       y2="470.97" />
  </defs>
  <g
     id="g396"
     transform="matrix(-1.9705216,-1.0883886,1.0883886,-1.9705216,833.58067,1978.2671)">
    <rect
       style="color:#000000;fill-opacity:0.82950996;stroke:#ffffff;stroke-width:0.83859003;stroke-linecap:round"
       id="rect26"
       height="174.42999"
       width="9.2244997"
       y="420.73999"
       x="527.85999" />
    <path
       style="color:#000000;fill:#666666;fill-opacity:0.82950996;stroke:#ffffff;stroke-width:0.43895;stroke-linecap:round"
       inkscape:connector-curvature="0"
       id="path28"
       d="m 526.18,499.37 c -58.698,0 -106.28,8.9125 -106.28,19.907 0,10.994 47.584,19.907 106.28,19.907 58.697,0 106.28,-8.9125 106.28,-19.907 0,-10.994 -47.584,-19.907 -106.28,-19.907 z m 0,1.3059 c 54.848,0 99.309,8.3276 99.309,18.601 0,10.2734 -44.461,18.601 -99.309,18.601 -54.848,0 -99.309,-8.3276 -99.309,-18.601 0,-10.2734 44.461,-18.601 99.309,-18.601 z" />
    <rect
       style="color:#000000;fill-opacity:0.82950996;stroke:#ffffff;stroke-width:0.83859003;stroke-linecap:round"
       id="rect30"
       height="174.42999"
       width="9.2244997"
       y="625.66998"
       x="-429.10999"
       transform="matrix(-0.94236,0.33459,0.33459,0.94236,0,0)" />
    <rect
       style="color:#000000;fill-opacity:0.82950996;stroke:#ffffff;stroke-width:0.83859003;stroke-linecap:round"
       id="rect32"
       height="174.42999"
       width="9.2244997"
       y="274.35001"
       x="562.88"
       transform="matrix(0.94236,0.33459,-0.33459,0.94236,0,0)" />
    <path
       style="color:#000000;fill:#fbfefa;fill-opacity:0.98925003;stroke:#ffffff;stroke-width:0.55537999;stroke-linecap:round"
       inkscape:connector-curvature="0"
       id="path34"
       d="m 432.02,423.64 c -0.9743,1.0896 -1.5313,2.1998 -1.5313,3.3438 0,0.36022 0.057,0.73837 0.1563,1.0938 v 7.3125 c -0.3663,0.69127 -0.5313,1.3831 -0.5313,2.0938 0,0.71064 0.165,1.4025 0.5313,2.0938 v 0.84375 h 0.5313 c 7.1042,9.5308 48.268,16.844 98,16.844 51.168,0 93.3,-7.7539 98.562,-17.688 h 0.4063 v -1.0938 c 0.086,-0.33709 0.125,-0.65867 0.125,-1 0,-0.34133 -0.039,-0.69416 -0.125,-1.0312 v -7.375 c 0.3674,-0.6778 0.5625,-1.3969 0.5625,-2.0938 0,-0.72134 -0.2002,-1.4241 -0.5938,-2.125 -2.7361,8.4421 -45.568,15.156 -98,15.156 -54.199,0 -98.125,-7.1585 -98.125,-16 0,-0.12758 0.013,-0.24813 0.031,-0.375 z" />
    <path
       style="color:#000000;fill:#666666;fill-opacity:0.99016;stroke:#ffffff;stroke-linecap:round"
       inkscape:connector-curvature="0"
       id="path36"
       d="m 622.96,324.07 c 0,10.544 -52.078,19.092 -116.32,19.092 -64.242,0 -116.32,-8.5477 -116.32,-19.092 0,-10.544 52.078,-19.092 116.32,-19.092 64.242,0 116.32,8.5477 116.32,19.092 z"
       transform="matrix(0.84367,0,0,0.83852,102.45,153.23)" />
    <path
       style="color:#000000;fill:url(#linearGradient1211);stroke:#ffffff;stroke-width:0.44385001;stroke-linecap:round"
       inkscape:connector-curvature="0"
       id="path38"
       d="m 530.73,407.85 c -54.73,0 -99.111,5.5397 -99.111,12.369 0,0.23007 0.058,0.45926 0.1573,0.68625 v 4.6698 c -0.3663,0.44151 -0.5504,0.88513 -0.5504,1.339 0,0.45387 0.1841,0.8975 0.5504,1.339 v 0.5356 h 0.5241 c 7.1043,6.0873 48.278,10.762 98.01,10.762 51.168,0 93.271,-4.9534 98.534,-11.298 h 0.4193 v -0.68625 c 0.086,-0.21529 0.131,-0.43476 0.131,-0.65276 0,-0.21801 -0.045,-0.43747 -0.131,-0.65277 v -4.72 c 0.3674,-0.43291 0.5765,-0.87721 0.5765,-1.3223 0,-6.8294 -44.38,-12.369 -99.111,-12.369 z" />
    <g
       style="fill-opacity:0.98925003"
       id="g108"
       transform="rotate(180,1042.15,453.83)">
      <path
         style="fill:#552200"
         inkscape:connector-curvature="0"
         id="path40"
         d="m 1527.7,507.54 c -5.7875,-0.20078 -26.73,-11.945 -32.319,-10.428 -5.589,1.517 -1.228,-21.596 1.9288,-26.384 3.1568,-4.788 15.707,0.61207 20.339,-4.4575 4.632,-5.06957 22.313,11.27 27.242,15.591 4.929,4.321 -11.403,25.879 -17.19,25.679 z"
         transform="matrix(1,0,0,0.62556,48.818,186.82)" />
      <path
         style="fill:#2b1100"
         inkscape:connector-curvature="0"
         id="path42"
         d="m 1601.5,541.33 c -3.2863,1.159 -20.169,-8.9777 -23.77,-10.837 -3.6002,-1.8597 6.0154,-3.3785 9.4068,-4.6068 3.3914,-1.2283 15.527,-8.5003 18.027,-7.539 2.5,0.96131 -0.037,7.91 2.1464,10.743 2.1836,2.8325 -2.5241,11.082 -5.8105,12.241 z"
         transform="matrix(-0.9477,-0.012198,-0.019981,0.57856,3138.2,187.11)" />
      <path
         style="fill:#ffff00"
         inkscape:connector-curvature="0"
         id="path44"
         d="m 1527.7,507.54 c -5.7875,-0.20078 -26.73,-11.945 -32.319,-10.428 -5.589,1.517 -1.228,-21.596 1.9288,-26.384 3.1568,-4.788 15.707,0.61207 20.339,-4.4575 4.632,-5.06957 22.313,11.27 27.242,15.591 4.929,4.321 -11.403,25.879 -17.19,25.679 z"
         transform="matrix(-0.9477,0.012198,-0.019981,-0.57856,3030.4,748.69)" />
      <path
         style="fill:#ffff00"
         inkscape:connector-curvature="0"
         id="path46"
         d="m 1589,480.64 c -3.9274,1.1174 -0.091,-13.164 -0.2085,-18.346 -0.118,-5.182 -21.122,-6.6078 -17.403,-7.9545 3.719,-1.3467 18.207,-0.95945 21.11,-2.294 2.9032,-1.3346 13.969,8.2031 16.436,11.901 2.4674,3.6981 -16.007,15.576 -19.935,16.693 z"
         transform="matrix(-0.9477,0.012198,-0.019981,-0.57856,3037,748.16)" />
      <path
         style="fill:#ffff00"
         inkscape:connector-curvature="0"
         id="path48"
         d="m 1561.3,466.66 c -1.1351,2.9679 -2.2371,10.151 -5.7178,9.9476 -3.4807,-0.2034 -10.631,-19.27 -9.8882,-22.56 0.7427,-3.2902 7.0396,2.8996 9.8126,0.52336 2.7729,-2.3762 9.857,4.3222 13.034,4.6962 3.1774,0.374 -6.1059,4.4252 -7.241,7.393 z"
         transform="matrix(-0.9477,0.012198,-0.019981,-0.57856,3026.6,749.23)" />
      <path
         style="fill:#ffff00"
         inkscape:connector-curvature="0"
         id="path50"
         d="m 1548.5,535.74 c -2.9465,-0.3568 -13.67,-1.2755 -16.466,0.0645 -2.796,1.34 -17.445,-6.3823 -17.857,-9.463 -0.4122,-3.0807 9.3769,-19.178 12.988,-19.985 3.6109,-0.80724 19.888,2.8073 20.217,6.925 0.329,4.1177 4.0641,22.815 1.1176,22.459 z"
         transform="matrix(-0.9477,0.012198,-0.019981,-0.57856,3026.6,749.23)" />
      <path
         style="fill:#2b1100"
         inkscape:connector-curvature="0"
         id="path52"
         d="m 1527.7,507.54 c -5.7875,-0.20078 -26.73,-11.945 -32.319,-10.428 -5.589,1.517 -1.228,-21.596 1.9288,-26.384 3.1568,-4.788 15.707,0.61207 20.339,-4.4575 4.632,-5.06957 22.313,11.27 27.242,15.591 4.929,4.321 -11.403,25.879 -17.19,25.679 z"
         transform="matrix(0.9477,0.012198,0.019981,-0.57856,81.44,749.7)" />
      <path
         style="fill:#2b1100"
         inkscape:connector-curvature="0"
         id="path54"
         d="m 1589,480.64 c -3.9274,1.1174 -0.091,-13.164 -0.2085,-18.346 -0.118,-5.182 -21.122,-6.6078 -17.403,-7.9545 3.719,-1.3467 18.207,-0.95945 21.11,-2.294 2.9032,-1.3346 13.969,8.2031 16.436,11.901 2.4674,3.6981 -16.007,15.576 -19.935,16.693 z"
         transform="matrix(0.9477,0.012198,0.019981,-0.57856,81.44,749.7)" />
      <path
         style="fill:#2b1100"
         inkscape:connector-curvature="0"
         id="path56"
         d="m 1585.2,504.95 c -2.7139,0.62715 -20.46,4.0007 -21.355,2.2501 -0.8953,-1.7506 2.4053,-4.9838 3.5823,-7.1829 1.1769,-2.1991 3.4393,-6.5728 5.9271,-6.9038 2.4877,-0.33101 17.409,6.0914 19.345,7.4086 1.9363,1.3172 -4.7854,3.8008 -7.4993,4.428 z"
         transform="matrix(0.9477,0.012198,0.019981,-0.57856,81.44,749.7)" />
      <path
         style="fill:#2b1100"
         inkscape:connector-curvature="0"
         id="path58"
         d="m 1561.3,466.66 c -1.1351,2.9679 -2.2371,10.151 -5.7178,9.9476 -3.4807,-0.2034 -10.631,-19.27 -9.8882,-22.56 0.7427,-3.2902 7.0396,2.8996 9.8126,0.52336 2.7729,-2.3762 9.857,4.3222 13.034,4.6962 3.1774,0.374 -6.1059,4.4252 -7.241,7.393 z"
         transform="matrix(0.9477,0.012198,0.019981,-0.57856,81.44,749.7)" />
      <path
         style="fill:#2b1100"
         inkscape:connector-curvature="0"
         id="path60"
         d="m 1548.5,535.74 c -2.9465,-0.3568 -13.67,-1.2755 -16.466,0.0645 -2.796,1.34 -17.445,-6.3823 -17.857,-9.463 -0.4122,-3.0807 9.3769,-19.178 12.988,-19.985 3.6109,-0.80724 19.888,2.8073 20.217,6.925 0.329,4.1177 4.0641,22.815 1.1176,22.459 z"
         transform="matrix(0.9477,0.012198,0.019981,-0.57856,81.44,749.7)" />
      <path
         style="fill:#ff6600"
         inkscape:connector-curvature="0"
         id="path62"
         d="m 1527.7,507.54 c -5.7875,-0.20078 -26.73,-11.945 -32.319,-10.428 -5.589,1.517 -1.228,-21.596 1.9288,-26.384 3.1568,-4.788 15.707,0.61207 20.339,-4.4575 4.632,-5.06957 22.313,11.27 27.242,15.591 4.929,4.321 -11.403,25.879 -17.19,25.679 z"
         transform="matrix(-0.96072,0.012528,-0.020256,-0.59418,3061.3,756.23)" />
      <path
         style="fill:#ff6600"
         inkscape:connector-curvature="0"
         id="path64"
         d="m 1589,480.64 c -3.9274,1.1174 -0.091,-13.164 -0.2085,-18.346 -0.118,-5.182 -21.122,-6.6078 -17.403,-7.9545 3.719,-1.3467 18.207,-0.95945 21.11,-2.294 2.9032,-1.3346 13.969,8.2031 16.436,11.901 2.4674,3.6981 -16.007,15.576 -19.935,16.693 z"
         transform="matrix(-0.96072,0.012528,-0.020256,-0.59418,3061.3,756.23)" />
      <path
         style="fill:#ffff00"
         inkscape:connector-curvature="0"
         id="path66"
         d="m 1585.2,504.95 c -2.7139,0.62715 -20.46,4.0007 -21.355,2.2501 -0.8953,-1.7506 2.4053,-4.9838 3.5823,-7.1829 1.1769,-2.1991 3.4393,-6.5728 5.9271,-6.9038 2.4877,-0.33101 17.409,6.0914 19.345,7.4086 1.9363,1.3172 -4.7854,3.8008 -7.4993,4.428 z"
         transform="matrix(-0.9477,0.012198,-0.019981,-0.57856,3026.6,749.23)" />
      <path
         style="fill:#ffff00"
         inkscape:connector-curvature="0"
         id="path68"
         d="m 1594.6,542.46 c -1.3078,1.2126 -9.8084,-6.5065 -12.299,-7.3251 -2.4907,-0.81858 -5.4781,-15.748 -5.376,-18.668 0.1022,-2.9196 23.283,6.1101 25.625,5.6555 2.3415,-0.45462 1.2953,8.9591 1.6874,11.787 0.3921,2.8279 -8.3292,7.338 -9.637,8.5505 z"
         transform="matrix(-0.9477,0.012198,-0.019981,-0.57856,3036,749.49)" />
      <path
         style="fill:#ff6600"
         inkscape:connector-curvature="0"
         id="path70"
         d="m 1585.2,504.95 c -2.7139,0.62715 -20.46,4.0007 -21.355,2.2501 -0.8953,-1.7506 2.4053,-4.9838 3.5823,-7.1829 1.1769,-2.1991 3.4393,-6.5728 5.9271,-6.9038 2.4877,-0.33101 17.409,6.0914 19.345,7.4086 1.9363,1.3172 -4.7854,3.8008 -7.4993,4.428 z"
         transform="matrix(-0.96072,0.012528,-0.020256,-0.59418,3061.3,756.23)" />
      <path
         style="fill:#ff6600"
         inkscape:connector-curvature="0"
         id="path72"
         d="m 1594.6,542.46 c -1.3078,1.2126 -9.8084,-6.5065 -12.299,-7.3251 -2.4907,-0.81858 -5.4781,-15.748 -5.376,-18.668 0.1022,-2.9196 23.283,6.1101 25.625,5.6555 2.3415,-0.45462 1.2953,8.9591 1.6874,11.787 0.3921,2.8279 -8.3292,7.338 -9.637,8.5505 z"
         transform="matrix(-0.96072,0.012528,-0.020256,-0.59418,3061.3,756.23)" />
      <path
         style="fill:#ff6600"
         inkscape:connector-curvature="0"
         id="path74"
         d="m 1561.3,466.66 c -1.1351,2.9679 -2.2371,10.151 -5.7178,9.9476 -3.4807,-0.2034 -10.631,-19.27 -9.8882,-22.56 0.7427,-3.2902 7.0396,2.8996 9.8126,0.52336 2.7729,-2.3762 9.857,4.3222 13.034,4.6962 3.1774,0.374 -6.1059,4.4252 -7.241,7.393 z"
         transform="matrix(-0.96072,0.012528,-0.020256,-0.59418,3061.3,756.23)" />
      <path
         style="fill:#ff6600"
         inkscape:connector-curvature="0"
         id="path76"
         d="m 1548.5,535.74 c -2.9465,-0.3568 -13.67,-1.2755 -16.466,0.0645 -2.796,1.34 -17.445,-6.3823 -17.857,-9.463 -0.4122,-3.0807 9.3769,-19.178 12.988,-19.985 3.6109,-0.80724 19.888,2.8073 20.217,6.925 0.329,4.1177 4.0641,22.815 1.1176,22.459 z"
         transform="matrix(-0.96072,0.012528,-0.020256,-0.59418,3061.3,756.23)" />
      <path
         style="fill:#552200"
         inkscape:connector-curvature="0"
         id="path78"
         d="m 1527.7,507.54 c -5.7875,-0.20078 -26.73,-11.945 -32.319,-10.428 -5.589,1.517 -1.228,-21.596 1.9288,-26.384 3.1568,-4.788 15.707,0.61207 20.339,-4.4575 4.632,-5.06957 22.313,11.27 27.242,15.591 4.929,4.321 -11.403,25.879 -17.19,25.679 z"
         transform="matrix(1,0,0,0.62556,0,169.22)" />
      <path
         style="fill:#552200"
         inkscape:connector-curvature="0"
         id="path80"
         d="m 1589,480.64 c -3.9274,1.1174 -0.091,-13.164 -0.2085,-18.346 -0.118,-5.182 -21.122,-6.6078 -17.403,-7.9545 3.719,-1.3467 18.207,-0.95945 21.11,-2.294 2.9032,-1.3346 13.969,8.2031 16.436,11.901 2.4674,3.6981 -16.007,15.576 -19.935,16.693 z"
         transform="matrix(1,0,0,0.62556,-4.0015,174.55)" />
      <path
         style="fill:#552200"
         inkscape:connector-curvature="0"
         id="path82"
         d="m 1585.2,504.95 c -2.7139,0.62715 -20.46,4.0007 -21.355,2.2501 -0.8953,-1.7506 2.4053,-4.9838 3.5823,-7.1829 1.1769,-2.1991 3.4393,-6.5728 5.9271,-6.9038 2.4877,-0.33101 17.409,6.0914 19.345,7.4086 1.9363,1.3172 -4.7854,3.8008 -7.4993,4.428 z"
         transform="matrix(1,0,0,0.62556,0,169.22)" />
      <path
         style="fill:#552200"
         inkscape:connector-curvature="0"
         id="path84"
         d="m 1594.6,542.46 c -1.3078,1.2126 -9.8084,-6.5065 -12.299,-7.3251 -2.4907,-0.81858 -5.4781,-15.748 -5.376,-18.668 0.1022,-2.9196 23.283,6.1101 25.625,5.6555 2.3415,-0.45462 1.2953,8.9591 1.6874,11.787 0.3921,2.8279 -8.3292,7.338 -9.637,8.5505 z"
         transform="matrix(1,0,0,0.62556,0,169.22)" />
      <path
         style="fill:#552200"
         inkscape:connector-curvature="0"
         id="path86"
         d="m 1561.3,466.66 c -1.1351,2.9679 -2.2371,10.151 -5.7178,9.9476 -3.4807,-0.2034 -10.631,-19.27 -9.8882,-22.56 0.7427,-3.2902 7.0396,2.8996 9.8126,0.52336 2.7729,-2.3762 9.857,4.3222 13.034,4.6962 3.1774,0.374 -6.1059,4.4252 -7.241,7.393 z"
         transform="matrix(1,0,0,0.62556,10.937,177.75)" />
      <path
         style="fill:#552200"
         inkscape:connector-curvature="0"
         id="path88"
         d="m 1548.5,535.74 c -2.9465,-0.3568 -13.67,-1.2755 -16.466,0.0645 -2.796,1.34 -17.445,-6.3823 -17.857,-9.463 -0.4122,-3.0807 9.3769,-19.178 12.988,-19.985 3.6109,-0.80724 19.888,2.8073 20.217,6.925 0.329,4.1177 4.0641,22.815 1.1176,22.459 z"
         transform="matrix(1,0,0,0.62556,0,169.22)" />
      <path
         style="fill:#2b1100"
         inkscape:connector-curvature="0"
         id="path90"
         d="m 1601.5,541.33 c -3.2863,1.159 -20.169,-8.9777 -23.77,-10.837 -3.6002,-1.8597 6.0154,-3.3785 9.4068,-4.6068 3.3914,-1.2283 15.527,-8.5003 18.027,-7.539 2.5,0.96131 -0.037,7.91 2.1464,10.743 2.1836,2.8325 -2.5241,11.082 -5.8105,12.241 z"
         transform="matrix(0.9477,0.012198,0.019981,-0.57856,86.775,772.37)" />
      <g
         id="g100"
         transform="translate(35.48,17.606)">
        <path
           style="fill:#ffff00"
           inkscape:connector-curvature="0"
           id="path92"
           d="m 1585.2,504.95 c -2.7139,0.62715 -20.46,4.0007 -21.355,2.2501 -0.8953,-1.7506 2.4053,-4.9838 3.5823,-7.1829 1.1769,-2.1991 3.4393,-6.5728 5.9271,-6.9038 2.4877,-0.33101 17.409,6.0914 19.345,7.4086 1.9363,1.3172 -4.7854,3.8008 -7.4993,4.428 z"
           transform="matrix(-0.9477,0.012198,-0.019981,-0.57856,3026.6,749.23)" />
        <path
           style="fill:#ffff00"
           inkscape:connector-curvature="0"
           id="path94"
           d="m 1594.6,542.46 c -1.3078,1.2126 -9.8084,-6.5065 -12.299,-7.3251 -2.4907,-0.81858 -5.4781,-15.748 -5.376,-18.668 0.1022,-2.9196 23.283,6.1101 25.625,5.6555 2.3415,-0.45462 1.2953,8.9591 1.6874,11.787 0.3921,2.8279 -8.3292,7.338 -9.637,8.5505 z"
           transform="matrix(-0.9477,0.012198,-0.019981,-0.57856,3036,749.49)" />
        <path
           style="fill:#ff6600"
           inkscape:connector-curvature="0"
           id="path96"
           d="m 1585.2,504.95 c -2.7139,0.62715 -20.46,4.0007 -21.355,2.2501 -0.8953,-1.7506 2.4053,-4.9838 3.5823,-7.1829 1.1769,-2.1991 3.4393,-6.5728 5.9271,-6.9038 2.4877,-0.33101 17.409,6.0914 19.345,7.4086 1.9363,1.3172 -4.7854,3.8008 -7.4993,4.428 z"
           transform="matrix(-0.96072,0.012528,-0.020256,-0.59418,3061.3,756.23)" />
        <path
           style="fill:#ff6600"
           inkscape:connector-curvature="0"
           id="path98"
           d="m 1594.6,542.46 c -1.3078,1.2126 -9.8084,-6.5065 -12.299,-7.3251 -2.4907,-0.81858 -5.4781,-15.748 -5.376,-18.668 0.1022,-2.9196 23.283,6.1101 25.625,5.6555 2.3415,-0.45462 1.2953,8.9591 1.6874,11.787 0.3921,2.8279 -8.3292,7.338 -9.637,8.5505 z"
           transform="matrix(-0.96072,0.012528,-0.020256,-0.59418,3061.3,756.23)" />
      </g>
      <path
         style="fill:#552200"
         inkscape:connector-curvature="0"
         id="path102"
         d="m 1561.3,466.66 c -1.1351,2.9679 -2.2371,10.151 -5.7178,9.9476 -3.4807,-0.2034 -10.631,-19.27 -9.8882,-22.56 0.7427,-3.2902 7.0396,2.8996 9.8126,0.52336 2.7729,-2.3762 9.857,4.3222 13.034,4.6962 3.1774,0.374 -6.1059,4.4252 -7.241,7.393 z"
         transform="matrix(-1,0,0,-0.62556,3110.2,771.92)" />
      <path
         style="fill:#552200"
         inkscape:connector-curvature="0"
         id="path104"
         d="m 1561.3,466.66 c -1.1351,2.9679 -2.2371,10.151 -5.7178,9.9476 -3.4807,-0.2034 -10.631,-19.27 -9.8882,-22.56 0.7427,-3.2902 7.0396,2.8996 9.8126,0.52336 2.7729,-2.3762 9.857,4.3222 13.034,4.6962 3.1774,0.374 -6.1059,4.4252 -7.241,7.393 z"
         transform="matrix(-0.73957,0,0,-0.62556,2712,789.26)" />
      <path
         style="fill:#2b1100"
         inkscape:connector-curvature="0"
         id="path106"
         d="m 1601.5,541.33 c -3.2863,1.159 -20.169,-8.9777 -23.77,-10.837 -3.6002,-1.8597 6.0154,-3.3785 9.4068,-4.6068 3.3914,-1.2283 15.527,-8.5003 18.027,-7.539 2.5,0.96131 -0.037,7.91 2.1464,10.743 2.1836,2.8325 -2.5241,11.082 -5.8105,12.241 z"
         transform="matrix(0.9477,0.012198,0.019981,-0.57856,76.963,763.52)" />
    </g>
    <path
       style="color:#000000;fill:url(#linearGradient1213);stroke:#ffffff;stroke-width:0.60341001;stroke-linecap:round"
       inkscape:connector-curvature="0"
       id="path110"
       d="m 529.02,441.23 c -30.366,0 -43.728,2.0068 -72.938,-5.3158 0,0 -9.9245,-2.0436 -14.703,-3.6857 -4.1621,-1.4304 -11.117,-7.1356 -11.117,-7.1356 l -0.5437,15.908 10.535,16.693 c 5.2032,13.221 43.68,23.559 89.676,23.559 45.659,0 82.625,-10.189 86.61,-23.271 l 13.514,-14.494 -0.8818,-15.41 c -28.088,10.313 -68.433,12.895 -100.15,13.152 z" />
    <rect
       style="color:#000000;fill-opacity:0.82950996;stroke:#ffffff;stroke-width:0.83859003;stroke-linecap:round"
       id="rect112"
       height="174.42999"
       width="9.2244997"
       y="420.73999"
       x="527.85999" />
    <path
       style="color:#000000;fill:#666666;fill-opacity:0.82950996;stroke:#ffffff;stroke-width:0.43895;stroke-linecap:round"
       inkscape:connector-curvature="0"
       id="path114"
       d="m 526.18,499.37 c -58.698,0 -106.28,8.9125 -106.28,19.907 0,10.994 47.584,19.907 106.28,19.907 58.697,0 106.28,-8.9125 106.28,-19.907 0,-10.994 -47.584,-19.907 -106.28,-19.907 z m 0,1.3059 c 54.848,0 99.309,8.3276 99.309,18.601 0,10.2734 -44.461,18.601 -99.309,18.601 -54.848,0 -99.309,-8.3276 -99.309,-18.601 0,-10.2734 44.461,-18.601 99.309,-18.601 z" />
    <rect
       style="color:#000000;fill-opacity:0.82950996;stroke:#ffffff;stroke-width:0.83859003;stroke-linecap:round"
       id="rect116"
       height="174.42999"
       width="9.2244997"
       y="625.66998"
       x="-429.10999"
       transform="matrix(-0.94236,0.33459,0.33459,0.94236,0,0)" />
    <rect
       style="color:#000000;fill-opacity:0.82950996;stroke:#ffffff;stroke-width:0.83859003;stroke-linecap:round"
       id="rect118"
       height="174.42999"
       width="9.2244997"
       y="274.35001"
       x="562.88"
       transform="matrix(0.94236,0.33459,-0.33459,0.94236,0,0)" />
    <path
       style="color:#000000;fill:#fbfefa;fill-opacity:0.98925003;stroke:#ffffff;stroke-width:0.55537999;stroke-linecap:round"
       inkscape:connector-curvature="0"
       id="path120"
       d="m 432.02,423.64 c -0.9743,1.0896 -1.5313,2.1998 -1.5313,3.3438 0,0.36022 0.057,0.73837 0.1563,1.0938 v 7.3125 c -0.3663,0.69127 -0.5313,1.3831 -0.5313,2.0938 0,0.71064 0.165,1.4025 0.5313,2.0938 v 0.84375 h 0.5313 c 7.1042,9.5308 48.268,16.844 98,16.844 51.168,0 93.3,-7.7539 98.562,-17.688 h 0.4063 v -1.0938 c 0.086,-0.33709 0.125,-0.65867 0.125,-1 0,-0.34133 -0.039,-0.69416 -0.125,-1.0312 v -7.375 c 0.3674,-0.6778 0.5625,-1.3969 0.5625,-2.0938 0,-0.72134 -0.2002,-1.4241 -0.5938,-2.125 -2.7361,8.4421 -45.568,15.156 -98,15.156 -54.199,0 -98.125,-7.1585 -98.125,-16 0,-0.12758 0.013,-0.24813 0.031,-0.375 z" />
    <path
       style="color:#000000;fill:#666666;fill-opacity:0.99016;stroke:#ffffff;stroke-linecap:round"
       inkscape:connector-curvature="0"
       id="path122"
       d="m 622.96,324.07 c 0,10.544 -52.078,19.092 -116.32,19.092 -64.242,0 -116.32,-8.5477 -116.32,-19.092 0,-10.544 52.078,-19.092 116.32,-19.092 64.242,0 116.32,8.5477 116.32,19.092 z"
       transform="matrix(0.84367,0,0,0.83852,102.45,153.23)" />
    <path
       style="color:#000000;fill:url(#linearGradient1215);stroke:#ffffff;stroke-width:0.44385001;stroke-linecap:round"
       inkscape:connector-curvature="0"
       id="path124"
       d="m 513.73,417.1 c -54.73,0 -82.111,-3.7103 -82.111,3.1191 0,0.23007 0.058,0.45926 0.1573,0.68625 v 4.6698 c -0.3663,0.44151 -0.5504,0.88513 -0.5504,1.339 0,0.45387 0.1841,0.8975 0.5504,1.339 v 0.5356 h 0.5241 c 7.1043,6.0873 48.278,10.762 98.01,10.762 51.168,0 93.271,-4.9534 98.534,-11.298 h 0.4193 v -0.68625 c 0.086,-0.21529 0.131,-0.43476 0.131,-0.65276 0,-0.21801 -0.045,-0.43747 -0.131,-0.65277 v -4.72 c 0.3674,-0.43291 -15.037,-6.9177 -18.18,-7.5337 -40.063,-7.8491 -42.623,3.0923 -97.354,3.0923 z" />
    <g
       style="fill-opacity:0.98925003"
       id="g194"
       transform="rotate(180,1042.15,453.83)">
      <path
         style="fill:#552200"
         inkscape:connector-curvature="0"
         id="path126"
         d="m 1527.7,507.54 c -5.7875,-0.20078 -26.73,-11.945 -32.319,-10.428 -5.589,1.517 -1.228,-21.596 1.9288,-26.384 3.1568,-4.788 15.707,0.61207 20.339,-4.4575 4.632,-5.06957 22.313,11.27 27.242,15.591 4.929,4.321 -11.403,25.879 -17.19,25.679 z"
         transform="matrix(1,0,0,0.62556,48.818,186.82)" />
      <path
         style="fill:#2b1100"
         inkscape:connector-curvature="0"
         id="path128"
         d="m 1601.5,541.33 c -3.2863,1.159 -20.169,-8.9777 -23.77,-10.837 -3.6002,-1.8597 6.0154,-3.3785 9.4068,-4.6068 3.3914,-1.2283 15.527,-8.5003 18.027,-7.539 2.5,0.96131 -0.037,7.91 2.1464,10.743 2.1836,2.8325 -2.5241,11.082 -5.8105,12.241 z"
         transform="matrix(-0.9477,-0.012198,-0.019981,0.57856,3138.2,187.11)" />
      <path
         style="fill:#ffff00"
         inkscape:connector-curvature="0"
         id="path130"
         d="m 1527.7,507.54 c -5.7875,-0.20078 -26.73,-11.945 -32.319,-10.428 -5.589,1.517 -1.228,-21.596 1.9288,-26.384 3.1568,-4.788 15.707,0.61207 20.339,-4.4575 4.632,-5.06957 22.313,11.27 27.242,15.591 4.929,4.321 -11.403,25.879 -17.19,25.679 z"
         transform="matrix(-0.9477,0.012198,-0.019981,-0.57856,3030.4,748.69)" />
      <path
         style="fill:#ffff00"
         inkscape:connector-curvature="0"
         id="path132"
         d="m 1589,480.64 c -3.9274,1.1174 -0.091,-13.164 -0.2085,-18.346 -0.118,-5.182 -21.122,-6.6078 -17.403,-7.9545 3.719,-1.3467 18.207,-0.95945 21.11,-2.294 2.9032,-1.3346 13.969,8.2031 16.436,11.901 2.4674,3.6981 -16.007,15.576 -19.935,16.693 z"
         transform="matrix(-0.9477,0.012198,-0.019981,-0.57856,3037,748.16)" />
      <path
         style="fill:#ffff00"
         inkscape:connector-curvature="0"
         id="path134"
         d="m 1561.3,466.66 c -1.1351,2.9679 -2.2371,10.151 -5.7178,9.9476 -3.4807,-0.2034 -10.631,-19.27 -9.8882,-22.56 0.7427,-3.2902 7.0396,2.8996 9.8126,0.52336 2.7729,-2.3762 9.857,4.3222 13.034,4.6962 3.1774,0.374 -6.1059,4.4252 -7.241,7.393 z"
         transform="matrix(-0.9477,0.012198,-0.019981,-0.57856,3026.6,749.23)" />
      <path
         style="fill:#ffff00"
         inkscape:connector-curvature="0"
         id="path136"
         d="m 1548.5,535.74 c -2.9465,-0.3568 -13.67,-1.2755 -16.466,0.0645 -2.796,1.34 -17.445,-6.3823 -17.857,-9.463 -0.4122,-3.0807 9.3769,-19.178 12.988,-19.985 3.6109,-0.80724 19.888,2.8073 20.217,6.925 0.329,4.1177 4.0641,22.815 1.1176,22.459 z"
         transform="matrix(-0.9477,0.012198,-0.019981,-0.57856,3026.6,749.23)" />
      <path
         style="fill:#2b1100"
         inkscape:connector-curvature="0"
         id="path138"
         d="m 1527.7,507.54 c -5.7875,-0.20078 -26.73,-11.945 -32.319,-10.428 -5.589,1.517 -1.228,-21.596 1.9288,-26.384 3.1568,-4.788 15.707,0.61207 20.339,-4.4575 4.632,-5.06957 22.313,11.27 27.242,15.591 4.929,4.321 -11.403,25.879 -17.19,25.679 z"
         transform="matrix(0.9477,0.012198,0.019981,-0.57856,81.44,749.7)" />
      <path
         style="fill:#2b1100"
         inkscape:connector-curvature="0"
         id="path140"
         d="m 1589,480.64 c -3.9274,1.1174 -0.091,-13.164 -0.2085,-18.346 -0.118,-5.182 -21.122,-6.6078 -17.403,-7.9545 3.719,-1.3467 18.207,-0.95945 21.11,-2.294 2.9032,-1.3346 13.969,8.2031 16.436,11.901 2.4674,3.6981 -16.007,15.576 -19.935,16.693 z"
         transform="matrix(0.9477,0.012198,0.019981,-0.57856,81.44,749.7)" />
      <path
         style="fill:#2b1100"
         inkscape:connector-curvature="0"
         id="path142"
         d="m 1585.2,504.95 c -2.7139,0.62715 -20.46,4.0007 -21.355,2.2501 -0.8953,-1.7506 2.4053,-4.9838 3.5823,-7.1829 1.1769,-2.1991 3.4393,-6.5728 5.9271,-6.9038 2.4877,-0.33101 17.409,6.0914 19.345,7.4086 1.9363,1.3172 -4.7854,3.8008 -7.4993,4.428 z"
         transform="matrix(0.9477,0.012198,0.019981,-0.57856,81.44,749.7)" />
      <path
         style="fill:#2b1100"
         inkscape:connector-curvature="0"
         id="path144"
         d="m 1561.3,466.66 c -1.1351,2.9679 -2.2371,10.151 -5.7178,9.9476 -3.4807,-0.2034 -10.631,-19.27 -9.8882,-22.56 0.7427,-3.2902 7.0396,2.8996 9.8126,0.52336 2.7729,-2.3762 9.857,4.3222 13.034,4.6962 3.1774,0.374 -6.1059,4.4252 -7.241,7.393 z"
         transform="matrix(0.9477,0.012198,0.019981,-0.57856,81.44,749.7)" />
      <path
         style="fill:#2b1100"
         inkscape:connector-curvature="0"
         id="path146"
         d="m 1548.5,535.74 c -2.9465,-0.3568 -13.67,-1.2755 -16.466,0.0645 -2.796,1.34 -17.445,-6.3823 -17.857,-9.463 -0.4122,-3.0807 9.3769,-19.178 12.988,-19.985 3.6109,-0.80724 19.888,2.8073 20.217,6.925 0.329,4.1177 4.0641,22.815 1.1176,22.459 z"
         transform="matrix(0.9477,0.012198,0.019981,-0.57856,81.44,749.7)" />
      <path
         style="fill:#ff6600"
         inkscape:connector-curvature="0"
         id="path148"
         d="m 1527.7,507.54 c -5.7875,-0.20078 -26.73,-11.945 -32.319,-10.428 -5.589,1.517 -1.228,-21.596 1.9288,-26.384 3.1568,-4.788 15.707,0.61207 20.339,-4.4575 4.632,-5.06957 22.313,11.27 27.242,15.591 4.929,4.321 -11.403,25.879 -17.19,25.679 z"
         transform="matrix(-0.96072,0.012528,-0.020256,-0.59418,3061.3,756.23)" />
      <path
         style="fill:#ff6600"
         inkscape:connector-curvature="0"
         id="path150"
         d="m 1589,480.64 c -3.9274,1.1174 -0.091,-13.164 -0.2085,-18.346 -0.118,-5.182 -21.122,-6.6078 -17.403,-7.9545 3.719,-1.3467 18.207,-0.95945 21.11,-2.294 2.9032,-1.3346 13.969,8.2031 16.436,11.901 2.4674,3.6981 -16.007,15.576 -19.935,16.693 z"
         transform="matrix(-0.96072,0.012528,-0.020256,-0.59418,3061.3,756.23)" />
      <path
         style="fill:#ffff00"
         inkscape:connector-curvature="0"
         id="path152"
         d="m 1585.2,504.95 c -2.7139,0.62715 -20.46,4.0007 -21.355,2.2501 -0.8953,-1.7506 2.4053,-4.9838 3.5823,-7.1829 1.1769,-2.1991 3.4393,-6.5728 5.9271,-6.9038 2.4877,-0.33101 17.409,6.0914 19.345,7.4086 1.9363,1.3172 -4.7854,3.8008 -7.4993,4.428 z"
         transform="matrix(-0.9477,0.012198,-0.019981,-0.57856,3026.6,749.23)" />
      <path
         style="fill:#ffff00"
         inkscape:connector-curvature="0"
         id="path154"
         d="m 1594.6,542.46 c -1.3078,1.2126 -9.8084,-6.5065 -12.299,-7.3251 -2.4907,-0.81858 -5.4781,-15.748 -5.376,-18.668 0.1022,-2.9196 23.283,6.1101 25.625,5.6555 2.3415,-0.45462 1.2953,8.9591 1.6874,11.787 0.3921,2.8279 -8.3292,7.338 -9.637,8.5505 z"
         transform="matrix(-0.9477,0.012198,-0.019981,-0.57856,3036,749.49)" />
      <path
         style="fill:#ff6600"
         inkscape:connector-curvature="0"
         id="path156"
         d="m 1585.2,504.95 c -2.7139,0.62715 -20.46,4.0007 -21.355,2.2501 -0.8953,-1.7506 2.4053,-4.9838 3.5823,-7.1829 1.1769,-2.1991 3.4393,-6.5728 5.9271,-6.9038 2.4877,-0.33101 17.409,6.0914 19.345,7.4086 1.9363,1.3172 -4.7854,3.8008 -7.4993,4.428 z"
         transform="matrix(-0.96072,0.012528,-0.020256,-0.59418,3061.3,756.23)" />
      <path
         style="fill:#ff6600"
         inkscape:connector-curvature="0"
         id="path158"
         d="m 1594.6,542.46 c -1.3078,1.2126 -9.8084,-6.5065 -12.299,-7.3251 -2.4907,-0.81858 -5.4781,-15.748 -5.376,-18.668 0.1022,-2.9196 23.283,6.1101 25.625,5.6555 2.3415,-0.45462 1.2953,8.9591 1.6874,11.787 0.3921,2.8279 -8.3292,7.338 -9.637,8.5505 z"
         transform="matrix(-0.96072,0.012528,-0.020256,-0.59418,3061.3,756.23)" />
      <path
         style="fill:#ff6600"
         inkscape:connector-curvature="0"
         id="path160"
         d="m 1561.3,466.66 c -1.1351,2.9679 -2.2371,10.151 -5.7178,9.9476 -3.4807,-0.2034 -10.631,-19.27 -9.8882,-22.56 0.7427,-3.2902 7.0396,2.8996 9.8126,0.52336 2.7729,-2.3762 9.857,4.3222 13.034,4.6962 3.1774,0.374 -6.1059,4.4252 -7.241,7.393 z"
         transform="matrix(-0.96072,0.012528,-0.020256,-0.59418,3061.3,756.23)" />
      <path
         style="fill:#ff6600"
         inkscape:connector-curvature="0"
         id="path162"
         d="m 1548.5,535.74 c -2.9465,-0.3568 -13.67,-1.2755 -16.466,0.0645 -2.796,1.34 -17.445,-6.3823 -17.857,-9.463 -0.4122,-3.0807 9.3769,-19.178 12.988,-19.985 3.6109,-0.80724 19.888,2.8073 20.217,6.925 0.329,4.1177 4.0641,22.815 1.1176,22.459 z"
         transform="matrix(-0.96072,0.012528,-0.020256,-0.59418,3061.3,756.23)" />
      <path
         style="fill:#552200"
         inkscape:connector-curvature="0"
         id="path164"
         d="m 1527.7,507.54 c -5.7875,-0.20078 -26.73,-11.945 -32.319,-10.428 -5.589,1.517 -1.228,-21.596 1.9288,-26.384 3.1568,-4.788 15.707,0.61207 20.339,-4.4575 4.632,-5.06957 22.313,11.27 27.242,15.591 4.929,4.321 -11.403,25.879 -17.19,25.679 z"
         transform="matrix(1,0,0,0.62556,0,169.22)" />
      <path
         style="fill:#552200"
         inkscape:connector-curvature="0"
         id="path166"
         d="m 1589,480.64 c -3.9274,1.1174 -0.091,-13.164 -0.2085,-18.346 -0.118,-5.182 -21.122,-6.6078 -17.403,-7.9545 3.719,-1.3467 18.207,-0.95945 21.11,-2.294 2.9032,-1.3346 13.969,8.2031 16.436,11.901 2.4674,3.6981 -16.007,15.576 -19.935,16.693 z"
         transform="matrix(1,0,0,0.62556,-4.0015,174.55)" />
      <path
         style="fill:#552200"
         inkscape:connector-curvature="0"
         id="path168"
         d="m 1585.2,504.95 c -2.7139,0.62715 -20.46,4.0007 -21.355,2.2501 -0.8953,-1.7506 2.4053,-4.9838 3.5823,-7.1829 1.1769,-2.1991 3.4393,-6.5728 5.9271,-6.9038 2.4877,-0.33101 17.409,6.0914 19.345,7.4086 1.9363,1.3172 -4.7854,3.8008 -7.4993,4.428 z"
         transform="matrix(1,0,0,0.62556,0,169.22)" />
      <path
         style="fill:#552200"
         inkscape:connector-curvature="0"
         id="path170"
         d="m 1594.6,542.46 c -1.3078,1.2126 -9.8084,-6.5065 -12.299,-7.3251 -2.4907,-0.81858 -5.4781,-15.748 -5.376,-18.668 0.1022,-2.9196 23.283,6.1101 25.625,5.6555 2.3415,-0.45462 1.2953,8.9591 1.6874,11.787 0.3921,2.8279 -8.3292,7.338 -9.637,8.5505 z"
         transform="matrix(1,0,0,0.62556,0,169.22)" />
      <path
         style="fill:#552200"
         inkscape:connector-curvature="0"
         id="path172"
         d="m 1561.3,466.66 c -1.1351,2.9679 -2.2371,10.151 -5.7178,9.9476 -3.4807,-0.2034 -10.631,-19.27 -9.8882,-22.56 0.7427,-3.2902 7.0396,2.8996 9.8126,0.52336 2.7729,-2.3762 9.857,4.3222 13.034,4.6962 3.1774,0.374 -6.1059,4.4252 -7.241,7.393 z"
         transform="matrix(1,0,0,0.62556,10.937,177.75)" />
      <path
         style="fill:#552200"
         inkscape:connector-curvature="0"
         id="path174"
         d="m 1548.5,535.74 c -2.9465,-0.3568 -13.67,-1.2755 -16.466,0.0645 -2.796,1.34 -17.445,-6.3823 -17.857,-9.463 -0.4122,-3.0807 9.3769,-19.178 12.988,-19.985 3.6109,-0.80724 19.888,2.8073 20.217,6.925 0.329,4.1177 4.0641,22.815 1.1176,22.459 z"
         transform="matrix(1,0,0,0.62556,0,169.22)" />
      <path
         style="fill:#2b1100"
         inkscape:connector-curvature="0"
         id="path176"
         d="m 1601.5,541.33 c -3.2863,1.159 -20.169,-8.9777 -23.77,-10.837 -3.6002,-1.8597 6.0154,-3.3785 9.4068,-4.6068 3.3914,-1.2283 15.527,-8.5003 18.027,-7.539 2.5,0.96131 -0.037,7.91 2.1464,10.743 2.1836,2.8325 -2.5241,11.082 -5.8105,12.241 z"
         transform="matrix(0.9477,0.012198,0.019981,-0.57856,86.775,772.37)" />
      <g
         id="g186"
         transform="translate(35.48,17.606)">
        <path
           style="fill:#ffff00"
           inkscape:connector-curvature="0"
           id="path178"
           d="m 1585.2,504.95 c -2.7139,0.62715 -20.46,4.0007 -21.355,2.2501 -0.8953,-1.7506 2.4053,-4.9838 3.5823,-7.1829 1.1769,-2.1991 3.4393,-6.5728 5.9271,-6.9038 2.4877,-0.33101 17.409,6.0914 19.345,7.4086 1.9363,1.3172 -4.7854,3.8008 -7.4993,4.428 z"
           transform="matrix(-0.9477,0.012198,-0.019981,-0.57856,3026.6,749.23)" />
        <path
           style="fill:#ffff00"
           inkscape:connector-curvature="0"
           id="path180"
           d="m 1594.6,542.46 c -1.3078,1.2126 -9.8084,-6.5065 -12.299,-7.3251 -2.4907,-0.81858 -5.4781,-15.748 -5.376,-18.668 0.1022,-2.9196 23.283,6.1101 25.625,5.6555 2.3415,-0.45462 1.2953,8.9591 1.6874,11.787 0.3921,2.8279 -8.3292,7.338 -9.637,8.5505 z"
           transform="matrix(-0.9477,0.012198,-0.019981,-0.57856,3036,749.49)" />
        <path
           style="fill:#ff6600"
           inkscape:connector-curvature="0"
           id="path182"
           d="m 1585.2,504.95 c -2.7139,0.62715 -20.46,4.0007 -21.355,2.2501 -0.8953,-1.7506 2.4053,-4.9838 3.5823,-7.1829 1.1769,-2.1991 3.4393,-6.5728 5.9271,-6.9038 2.4877,-0.33101 17.409,6.0914 19.345,7.4086 1.9363,1.3172 -4.7854,3.8008 -7.4993,4.428 z"
           transform="matrix(-0.96072,0.012528,-0.020256,-0.59418,3061.3,756.23)" />
        <path
           style="fill:#ff6600"
           inkscape:connector-curvature="0"
           id="path184"
           d="m 1594.6,542.46 c -1.3078,1.2126 -9.8084,-6.5065 -12.299,-7.3251 -2.4907,-0.81858 -5.4781,-15.748 -5.376,-18.668 0.1022,-2.9196 23.283,6.1101 25.625,5.6555 2.3415,-0.45462 1.2953,8.9591 1.6874,11.787 0.3921,2.8279 -8.3292,7.338 -9.637,8.5505 z"
           transform="matrix(-0.96072,0.012528,-0.020256,-0.59418,3061.3,756.23)" />
      </g>
      <path
         style="fill:#552200"
         inkscape:connector-curvature="0"
         id="path188"
         d="m 1561.3,466.66 c -1.1351,2.9679 -2.2371,10.151 -5.7178,9.9476 -3.4807,-0.2034 -10.631,-19.27 -9.8882,-22.56 0.7427,-3.2902 7.0396,2.8996 9.8126,0.52336 2.7729,-2.3762 9.857,4.3222 13.034,4.6962 3.1774,0.374 -6.1059,4.4252 -7.241,7.393 z"
         transform="matrix(-1,0,0,-0.62556,3110.2,771.92)" />
      <path
         style="fill:#552200"
         inkscape:connector-curvature="0"
         id="path190"
         d="m 1561.3,466.66 c -1.1351,2.9679 -2.2371,10.151 -5.7178,9.9476 -3.4807,-0.2034 -10.631,-19.27 -9.8882,-22.56 0.7427,-3.2902 7.0396,2.8996 9.8126,0.52336 2.7729,-2.3762 9.857,4.3222 13.034,4.6962 3.1774,0.374 -6.1059,4.4252 -7.241,7.393 z"
         transform="matrix(-0.73957,0,0,-0.62556,2712,789.26)" />
      <path
         style="fill:#2b1100"
         inkscape:connector-curvature="0"
         id="path192"
         d="m 1601.5,541.33 c -3.2863,1.159 -20.169,-8.9777 -23.77,-10.837 -3.6002,-1.8597 6.0154,-3.3785 9.4068,-4.6068 3.3914,-1.2283 15.527,-8.5003 18.027,-7.539 2.5,0.96131 -0.037,7.91 2.1464,10.743 2.1836,2.8325 -2.5241,11.082 -5.8105,12.241 z"
         transform="matrix(0.9477,0.012198,0.019981,-0.57856,76.963,763.52)" />
    </g>
    <g
       style="fill-opacity:0.98925003"
       id="g264"
       transform="matrix(-0.45375,-0.065131,-0.066617,0.4641,1220.2,307.02)">
      <path
         style="fill:#552200"
         inkscape:connector-curvature="0"
         id="path196"
         d="m 1527.7,507.54 c -5.7875,-0.20078 -26.73,-11.945 -32.319,-10.428 -5.589,1.517 -1.228,-21.596 1.9288,-26.384 3.1568,-4.788 15.707,0.61207 20.339,-4.4575 4.632,-5.06957 22.313,11.27 27.242,15.591 4.929,4.321 -11.403,25.879 -17.19,25.679 z"
         transform="matrix(1,0,0,0.62556,48.818,186.82)" />
      <path
         style="fill:#2b1100"
         inkscape:connector-curvature="0"
         id="path198"
         d="m 1601.5,541.33 c -3.2863,1.159 -20.169,-8.9777 -23.77,-10.837 -3.6002,-1.8597 6.0154,-3.3785 9.4068,-4.6068 3.3914,-1.2283 15.527,-8.5003 18.027,-7.539 2.5,0.96131 -0.037,7.91 2.1464,10.743 2.1836,2.8325 -2.5241,11.082 -5.8105,12.241 z"
         transform="matrix(-0.9477,-0.012198,-0.019981,0.57856,3138.2,187.11)" />
      <path
         style="fill:#ffff00"
         inkscape:connector-curvature="0"
         id="path200"
         d="m 1527.7,507.54 c -5.7875,-0.20078 -26.73,-11.945 -32.319,-10.428 -5.589,1.517 -1.228,-21.596 1.9288,-26.384 3.1568,-4.788 15.707,0.61207 20.339,-4.4575 4.632,-5.06957 22.313,11.27 27.242,15.591 4.929,4.321 -11.403,25.879 -17.19,25.679 z"
         transform="matrix(-0.9477,0.012198,-0.019981,-0.57856,3030.4,748.69)" />
      <path
         style="fill:#ffff00"
         inkscape:connector-curvature="0"
         id="path202"
         d="m 1589,480.64 c -3.9274,1.1174 -0.091,-13.164 -0.2085,-18.346 -0.118,-5.182 -21.122,-6.6078 -17.403,-7.9545 3.719,-1.3467 18.207,-0.95945 21.11,-2.294 2.9032,-1.3346 13.969,8.2031 16.436,11.901 2.4674,3.6981 -16.007,15.576 -19.935,16.693 z"
         transform="matrix(-0.9477,0.012198,-0.019981,-0.57856,3037,748.16)" />
      <path
         style="fill:#ffff00"
         inkscape:connector-curvature="0"
         id="path204"
         d="m 1561.3,466.66 c -1.1351,2.9679 -2.2371,10.151 -5.7178,9.9476 -3.4807,-0.2034 -10.631,-19.27 -9.8882,-22.56 0.7427,-3.2902 7.0396,2.8996 9.8126,0.52336 2.7729,-2.3762 9.857,4.3222 13.034,4.6962 3.1774,0.374 -6.1059,4.4252 -7.241,7.393 z"
         transform="matrix(-0.9477,0.012198,-0.019981,-0.57856,3026.6,749.23)" />
      <path
         style="fill:#ffff00"
         inkscape:connector-curvature="0"
         id="path206"
         d="m 1548.5,535.74 c -2.9465,-0.3568 -13.67,-1.2755 -16.466,0.0645 -2.796,1.34 -17.445,-6.3823 -17.857,-9.463 -0.4122,-3.0807 9.3769,-19.178 12.988,-19.985 3.6109,-0.80724 19.888,2.8073 20.217,6.925 0.329,4.1177 4.0641,22.815 1.1176,22.459 z"
         transform="matrix(-0.9477,0.012198,-0.019981,-0.57856,3026.6,749.23)" />
      <path
         style="fill:#2b1100"
         inkscape:connector-curvature="0"
         id="path208"
         d="m 1527.7,507.54 c -5.7875,-0.20078 -26.73,-11.945 -32.319,-10.428 -5.589,1.517 -1.228,-21.596 1.9288,-26.384 3.1568,-4.788 15.707,0.61207 20.339,-4.4575 4.632,-5.06957 22.313,11.27 27.242,15.591 4.929,4.321 -11.403,25.879 -17.19,25.679 z"
         transform="matrix(0.9477,0.012198,0.019981,-0.57856,81.44,749.7)" />
      <path
         style="fill:#2b1100"
         inkscape:connector-curvature="0"
         id="path210"
         d="m 1589,480.64 c -3.9274,1.1174 -0.091,-13.164 -0.2085,-18.346 -0.118,-5.182 -21.122,-6.6078 -17.403,-7.9545 3.719,-1.3467 18.207,-0.95945 21.11,-2.294 2.9032,-1.3346 13.969,8.2031 16.436,11.901 2.4674,3.6981 -16.007,15.576 -19.935,16.693 z"
         transform="matrix(0.9477,0.012198,0.019981,-0.57856,81.44,749.7)" />
      <path
         style="fill:#2b1100"
         inkscape:connector-curvature="0"
         id="path212"
         d="m 1585.2,504.95 c -2.7139,0.62715 -20.46,4.0007 -21.355,2.2501 -0.8953,-1.7506 2.4053,-4.9838 3.5823,-7.1829 1.1769,-2.1991 3.4393,-6.5728 5.9271,-6.9038 2.4877,-0.33101 17.409,6.0914 19.345,7.4086 1.9363,1.3172 -4.7854,3.8008 -7.4993,4.428 z"
         transform="matrix(0.9477,0.012198,0.019981,-0.57856,81.44,749.7)" />
      <path
         style="fill:#2b1100"
         inkscape:connector-curvature="0"
         id="path214"
         d="m 1561.3,466.66 c -1.1351,2.9679 -2.2371,10.151 -5.7178,9.9476 -3.4807,-0.2034 -10.631,-19.27 -9.8882,-22.56 0.7427,-3.2902 7.0396,2.8996 9.8126,0.52336 2.7729,-2.3762 9.857,4.3222 13.034,4.6962 3.1774,0.374 -6.1059,4.4252 -7.241,7.393 z"
         transform="matrix(0.9477,0.012198,0.019981,-0.57856,81.44,749.7)" />
      <path
         style="fill:#2b1100"
         inkscape:connector-curvature="0"
         id="path216"
         d="m 1548.5,535.74 c -2.9465,-0.3568 -13.67,-1.2755 -16.466,0.0645 -2.796,1.34 -17.445,-6.3823 -17.857,-9.463 -0.4122,-3.0807 9.3769,-19.178 12.988,-19.985 3.6109,-0.80724 19.888,2.8073 20.217,6.925 0.329,4.1177 4.0641,22.815 1.1176,22.459 z"
         transform="matrix(0.9477,0.012198,0.019981,-0.57856,81.44,749.7)" />
      <path
         style="fill:#ff6600"
         inkscape:connector-curvature="0"
         id="path218"
         d="m 1527.7,507.54 c -5.7875,-0.20078 -26.73,-11.945 -32.319,-10.428 -5.589,1.517 -1.228,-21.596 1.9288,-26.384 3.1568,-4.788 15.707,0.61207 20.339,-4.4575 4.632,-5.06957 22.313,11.27 27.242,15.591 4.929,4.321 -11.403,25.879 -17.19,25.679 z"
         transform="matrix(-0.96072,0.012528,-0.020256,-0.59418,3061.3,756.23)" />
      <path
         style="fill:#ff6600"
         inkscape:connector-curvature="0"
         id="path220"
         d="m 1589,480.64 c -3.9274,1.1174 -0.091,-13.164 -0.2085,-18.346 -0.118,-5.182 -21.122,-6.6078 -17.403,-7.9545 3.719,-1.3467 18.207,-0.95945 21.11,-2.294 2.9032,-1.3346 13.969,8.2031 16.436,11.901 2.4674,3.6981 -16.007,15.576 -19.935,16.693 z"
         transform="matrix(-0.96072,0.012528,-0.020256,-0.59418,3061.3,756.23)" />
      <path
         style="fill:#ffff00"
         inkscape:connector-curvature="0"
         id="path222"
         d="m 1585.2,504.95 c -2.7139,0.62715 -20.46,4.0007 -21.355,2.2501 -0.8953,-1.7506 2.4053,-4.9838 3.5823,-7.1829 1.1769,-2.1991 3.4393,-6.5728 5.9271,-6.9038 2.4877,-0.33101 17.409,6.0914 19.345,7.4086 1.9363,1.3172 -4.7854,3.8008 -7.4993,4.428 z"
         transform="matrix(-0.9477,0.012198,-0.019981,-0.57856,3026.6,749.23)" />
      <path
         style="fill:#ffff00"
         inkscape:connector-curvature="0"
         id="path224"
         d="m 1594.6,542.46 c -1.3078,1.2126 -9.8084,-6.5065 -12.299,-7.3251 -2.4907,-0.81858 -5.4781,-15.748 -5.376,-18.668 0.1022,-2.9196 23.283,6.1101 25.625,5.6555 2.3415,-0.45462 1.2953,8.9591 1.6874,11.787 0.3921,2.8279 -8.3292,7.338 -9.637,8.5505 z"
         transform="matrix(-0.9477,0.012198,-0.019981,-0.57856,3036,749.49)" />
      <path
         style="fill:#ff6600"
         inkscape:connector-curvature="0"
         id="path226"
         d="m 1585.2,504.95 c -2.7139,0.62715 -20.46,4.0007 -21.355,2.2501 -0.8953,-1.7506 2.4053,-4.9838 3.5823,-7.1829 1.1769,-2.1991 3.4393,-6.5728 5.9271,-6.9038 2.4877,-0.33101 17.409,6.0914 19.345,7.4086 1.9363,1.3172 -4.7854,3.8008 -7.4993,4.428 z"
         transform="matrix(-0.96072,0.012528,-0.020256,-0.59418,3061.3,756.23)" />
      <path
         style="fill:#ff6600"
         inkscape:connector-curvature="0"
         id="path228"
         d="m 1594.6,542.46 c -1.3078,1.2126 -9.8084,-6.5065 -12.299,-7.3251 -2.4907,-0.81858 -5.4781,-15.748 -5.376,-18.668 0.1022,-2.9196 23.283,6.1101 25.625,5.6555 2.3415,-0.45462 1.2953,8.9591 1.6874,11.787 0.3921,2.8279 -8.3292,7.338 -9.637,8.5505 z"
         transform="matrix(-0.96072,0.012528,-0.020256,-0.59418,3061.3,756.23)" />
      <path
         style="fill:#ff6600"
         inkscape:connector-curvature="0"
         id="path230"
         d="m 1561.3,466.66 c -1.1351,2.9679 -2.2371,10.151 -5.7178,9.9476 -3.4807,-0.2034 -10.631,-19.27 -9.8882,-22.56 0.7427,-3.2902 7.0396,2.8996 9.8126,0.52336 2.7729,-2.3762 9.857,4.3222 13.034,4.6962 3.1774,0.374 -6.1059,4.4252 -7.241,7.393 z"
         transform="matrix(-0.96072,0.012528,-0.020256,-0.59418,3061.3,756.23)" />
      <path
         style="fill:#ff6600"
         inkscape:connector-curvature="0"
         id="path232"
         d="m 1548.5,535.74 c -2.9465,-0.3568 -13.67,-1.2755 -16.466,0.0645 -2.796,1.34 -17.445,-6.3823 -17.857,-9.463 -0.4122,-3.0807 9.3769,-19.178 12.988,-19.985 3.6109,-0.80724 19.888,2.8073 20.217,6.925 0.329,4.1177 4.0641,22.815 1.1176,22.459 z"
         transform="matrix(-0.96072,0.012528,-0.020256,-0.59418,3061.3,756.23)" />
      <path
         style="fill:#552200"
         inkscape:connector-curvature="0"
         id="path234"
         d="m 1527.7,507.54 c -5.7875,-0.20078 -26.73,-11.945 -32.319,-10.428 -5.589,1.517 -1.228,-21.596 1.9288,-26.384 3.1568,-4.788 15.707,0.61207 20.339,-4.4575 4.632,-5.06957 22.313,11.27 27.242,15.591 4.929,4.321 -11.403,25.879 -17.19,25.679 z"
         transform="matrix(1,0,0,0.62556,0,169.22)" />
      <path
         style="fill:#552200"
         inkscape:connector-curvature="0"
         id="path236"
         d="m 1589,480.64 c -3.9274,1.1174 -0.091,-13.164 -0.2085,-18.346 -0.118,-5.182 -21.122,-6.6078 -17.403,-7.9545 3.719,-1.3467 18.207,-0.95945 21.11,-2.294 2.9032,-1.3346 13.969,8.2031 16.436,11.901 2.4674,3.6981 -16.007,15.576 -19.935,16.693 z"
         transform="matrix(1,0,0,0.62556,-4.0015,174.55)" />
      <path
         style="fill:#552200"
         inkscape:connector-curvature="0"
         id="path238"
         d="m 1585.2,504.95 c -2.7139,0.62715 -20.46,4.0007 -21.355,2.2501 -0.8953,-1.7506 2.4053,-4.9838 3.5823,-7.1829 1.1769,-2.1991 3.4393,-6.5728 5.9271,-6.9038 2.4877,-0.33101 17.409,6.0914 19.345,7.4086 1.9363,1.3172 -4.7854,3.8008 -7.4993,4.428 z"
         transform="matrix(1,0,0,0.62556,0,169.22)" />
      <path
         style="fill:#552200"
         inkscape:connector-curvature="0"
         id="path240"
         d="m 1594.6,542.46 c -1.3078,1.2126 -9.8084,-6.5065 -12.299,-7.3251 -2.4907,-0.81858 -5.4781,-15.748 -5.376,-18.668 0.1022,-2.9196 23.283,6.1101 25.625,5.6555 2.3415,-0.45462 1.2953,8.9591 1.6874,11.787 0.3921,2.8279 -8.3292,7.338 -9.637,8.5505 z"
         transform="matrix(1,0,0,0.62556,0,169.22)" />
      <path
         style="fill:#552200"
         inkscape:connector-curvature="0"
         id="path242"
         d="m 1561.3,466.66 c -1.1351,2.9679 -2.2371,10.151 -5.7178,9.9476 -3.4807,-0.2034 -10.631,-19.27 -9.8882,-22.56 0.7427,-3.2902 7.0396,2.8996 9.8126,0.52336 2.7729,-2.3762 9.857,4.3222 13.034,4.6962 3.1774,0.374 -6.1059,4.4252 -7.241,7.393 z"
         transform="matrix(1,0,0,0.62556,10.937,177.75)" />
      <path
         style="fill:#552200"
         inkscape:connector-curvature="0"
         id="path244"
         d="m 1548.5,535.74 c -2.9465,-0.3568 -13.67,-1.2755 -16.466,0.0645 -2.796,1.34 -17.445,-6.3823 -17.857,-9.463 -0.4122,-3.0807 9.3769,-19.178 12.988,-19.985 3.6109,-0.80724 19.888,2.8073 20.217,6.925 0.329,4.1177 4.0641,22.815 1.1176,22.459 z"
         transform="matrix(1,0,0,0.62556,0,169.22)" />
      <path
         style="fill:#2b1100"
         inkscape:connector-curvature="0"
         id="path246"
         d="m 1601.5,541.33 c -3.2863,1.159 -20.169,-8.9777 -23.77,-10.837 -3.6002,-1.8597 6.0154,-3.3785 9.4068,-4.6068 3.3914,-1.2283 15.527,-8.5003 18.027,-7.539 2.5,0.96131 -0.037,7.91 2.1464,10.743 2.1836,2.8325 -2.5241,11.082 -5.8105,12.241 z"
         transform="matrix(0.9477,0.012198,0.019981,-0.57856,86.775,772.37)" />
      <g
         id="g256"
         transform="translate(35.48,17.606)">
        <path
           style="fill:#ffff00"
           inkscape:connector-curvature="0"
           id="path248"
           d="m 1585.2,504.95 c -2.7139,0.62715 -20.46,4.0007 -21.355,2.2501 -0.8953,-1.7506 2.4053,-4.9838 3.5823,-7.1829 1.1769,-2.1991 3.4393,-6.5728 5.9271,-6.9038 2.4877,-0.33101 17.409,6.0914 19.345,7.4086 1.9363,1.3172 -4.7854,3.8008 -7.4993,4.428 z"
           transform="matrix(-0.9477,0.012198,-0.019981,-0.57856,3026.6,749.23)" />
        <path
           style="fill:#ffff00"
           inkscape:connector-curvature="0"
           id="path250"
           d="m 1594.6,542.46 c -1.3078,1.2126 -9.8084,-6.5065 -12.299,-7.3251 -2.4907,-0.81858 -5.4781,-15.748 -5.376,-18.668 0.1022,-2.9196 23.283,6.1101 25.625,5.6555 2.3415,-0.45462 1.2953,8.9591 1.6874,11.787 0.3921,2.8279 -8.3292,7.338 -9.637,8.5505 z"
           transform="matrix(-0.9477,0.012198,-0.019981,-0.57856,3036,749.49)" />
        <path
           style="fill:#ff6600"
           inkscape:connector-curvature="0"
           id="path252"
           d="m 1585.2,504.95 c -2.7139,0.62715 -20.46,4.0007 -21.355,2.2501 -0.8953,-1.7506 2.4053,-4.9838 3.5823,-7.1829 1.1769,-2.1991 3.4393,-6.5728 5.9271,-6.9038 2.4877,-0.33101 17.409,6.0914 19.345,7.4086 1.9363,1.3172 -4.7854,3.8008 -7.4993,4.428 z"
           transform="matrix(-0.96072,0.012528,-0.020256,-0.59418,3061.3,756.23)" />
        <path
           style="fill:#ff6600"
           inkscape:connector-curvature="0"
           id="path254"
           d="m 1594.6,542.46 c -1.3078,1.2126 -9.8084,-6.5065 -12.299,-7.3251 -2.4907,-0.81858 -5.4781,-15.748 -5.376,-18.668 0.1022,-2.9196 23.283,6.1101 25.625,5.6555 2.3415,-0.45462 1.2953,8.9591 1.6874,11.787 0.3921,2.8279 -8.3292,7.338 -9.637,8.5505 z"
           transform="matrix(-0.96072,0.012528,-0.020256,-0.59418,3061.3,756.23)" />
      </g>
      <path
         style="fill:#552200"
         inkscape:connector-curvature="0"
         id="path258"
         d="m 1561.3,466.66 c -1.1351,2.9679 -2.2371,10.151 -5.7178,9.9476 -3.4807,-0.2034 -10.631,-19.27 -9.8882,-22.56 0.7427,-3.2902 7.0396,2.8996 9.8126,0.52336 2.7729,-2.3762 9.857,4.3222 13.034,4.6962 3.1774,0.374 -6.1059,4.4252 -7.241,7.393 z"
         transform="matrix(-1,0,0,-0.62556,3110.2,771.92)" />
      <path
         style="fill:#552200"
         inkscape:connector-curvature="0"
         id="path260"
         d="m 1561.3,466.66 c -1.1351,2.9679 -2.2371,10.151 -5.7178,9.9476 -3.4807,-0.2034 -10.631,-19.27 -9.8882,-22.56 0.7427,-3.2902 7.0396,2.8996 9.8126,0.52336 2.7729,-2.3762 9.857,4.3222 13.034,4.6962 3.1774,0.374 -6.1059,4.4252 -7.241,7.393 z"
         transform="matrix(-0.73957,0,0,-0.62556,2712,789.26)" />
      <path
         style="fill:#2b1100"
         inkscape:connector-curvature="0"
         id="path262"
         d="m 1601.5,541.33 c -3.2863,1.159 -20.169,-8.9777 -23.77,-10.837 -3.6002,-1.8597 6.0154,-3.3785 9.4068,-4.6068 3.3914,-1.2283 15.527,-8.5003 18.027,-7.539 2.5,0.96131 -0.037,7.91 2.1464,10.743 2.1836,2.8325 -2.5241,11.082 -5.8105,12.241 z"
         transform="matrix(0.9477,0.012198,0.019981,-0.57856,76.963,763.52)" />
    </g>
    <path
       style="color:#000000;fill:url(#linearGradient1217);stroke:#ffffff;stroke-width:0.60341001;stroke-linecap:round"
       inkscape:connector-curvature="0"
       id="path266"
       d="m 529.02,441.23 c -30.366,0 -43.728,2.0068 -72.938,-5.3158 0,0 -9.9245,-2.0436 -14.703,-3.6857 -4.1621,-1.4304 -11.117,-7.1356 -11.117,-7.1356 l -0.5437,15.908 10.535,16.693 c 5.2032,13.221 43.68,23.559 89.676,23.559 45.659,0 82.625,-10.189 86.61,-23.271 l 13.514,-14.494 -0.8818,-15.41 c -28.088,10.313 -68.433,12.895 -100.15,13.152 z" />
    <path
       style="fill:#666666"
       inkscape:connector-curvature="0"
       id="path268"
       d="m 544.18,368.26 c -5.3461,0.011 -10.923,0.0326 -16.75,0.0937 -21.666,0.22753 -65,0 -65,0 v 43.907 c 0,0 43.4,1.8152 65,0 69.459,-5.8372 99.201,6.6368 101.25,8.7812 v -21.625 l 1.0938,-24.906 c 0,0 -0.53945,-0.84632 -2.0312,-1.4688 -2.2895,-0.95523 -6.6951,-1.9296 -8.9062,-2.2188 -11.705,-1.5307 -37.233,-2.6392 -74.656,-2.5624 z m 84.5,52.781 v 0.3125 c 0.16015,-0.0305 0.15614,-0.14911 0,-0.3125 z M 478.02,376.885 c 2.8305,0 5.125,2.0147 5.125,4.5 0,2.4853 -2.2945,4.5 -5.125,4.5 -2.8305,0 -5.125,-2.0147 -5.125,-4.5 0,-2.4853 2.2945,-4.5 5.125,-4.5 z" />
    <g
       id="g278"
       transform="translate(20.94,12.396)">
      <rect
         style="fill:#666666"
         id="rect270"
         height="0.95422"
         width="166.13"
         y="405.75"
         x="420.92001"
         transform="matrix(0.99948,-0.03218,0.03218,0.99948,0,0)" />
      <rect
         style="fill:#ffffff"
         id="rect272"
         height="0.95422"
         width="166.13"
         y="406.72"
         x="421.13"
         transform="matrix(0.99948,-0.03218,0.03218,0.99948,0,0)" />
      <rect
         id="rect274"
         height="0.95422"
         width="166.13"
         y="407.48999"
         x="420.82001"
         transform="matrix(0.99948,-0.03218,0.03218,0.99948,0,0)" />
      <path
         style="fill:#b3b3b3"
         inkscape:connector-curvature="0"
         id="path276"
         d="m 434.45,393.46 c 0,0.76436 -0.25593,1.384 -0.57164,1.384 -0.31571,0 -0.57165,-0.61963 -0.57165,-1.384 0,-0.76435 0.25594,-1.384 0.57165,-1.384 0.31571,0 0.57164,0.61963 0.57164,1.384 z"
         transform="matrix(1,0,0,0.98463,0,5.9206)" />
    </g>
    <rect
       style="fill:#666666"
       id="rect280"
       height="0.95422"
       width="166.13"
       y="405.75"
       x="420.92001"
       transform="matrix(0.99948,-0.03218,0.03218,0.99948,0,0)" />
    <rect
       style="fill:#ffffff"
       id="rect282"
       height="0.95422"
       width="166.13"
       y="406.72"
       x="421.13"
       transform="matrix(0.99948,-0.03218,0.03218,0.99948,0,0)" />
    <rect
       id="rect284"
       height="0.95422"
       width="166.13"
       y="407.48999"
       x="420.82001"
       transform="matrix(0.99948,-0.03218,0.03218,0.99948,0,0)" />
    <path
       style="fill:#b3b3b3"
       inkscape:connector-curvature="0"
       id="path286"
       d="m 434.45,393.46 c 0,0.76436 -0.25593,1.384 -0.57164,1.384 -0.31571,0 -0.57165,-0.61963 -0.57165,-1.384 0,-0.76435 0.25594,-1.384 0.57165,-1.384 0.31571,0 0.57164,0.61963 0.57164,1.384 z"
       transform="matrix(1,0,0,0.98463,0,5.9206)" />
    <g
       id="g296"
       transform="matrix(0.61709,0,0,0.64496,58.936,127.87)">
      <rect
         style="fill:#ffffff"
         id="rect288"
         height="79.668999"
         width="2.0459001"
         y="808.64001"
         x="10.457"
         transform="matrix(0.50017,-0.86593,0.86593,0.50017,0,0)" />
      <rect
         style="fill:#808080"
         id="rect290"
         height="79.668999"
         width="2.0459001"
         y="807.13"
         x="8.9928999"
         transform="matrix(0.50017,-0.86593,0.86593,0.50017,0,0)" />
      <rect
         id="rect292"
         height="79.668999"
         width="2.0459001"
         y="806.76001"
         x="9.9623003"
         transform="matrix(0.50017,-0.86593,0.86593,0.50017,0,0)" />
      <path
         style="fill:#ffffff"
         inkscape:connector-curvature="0"
         id="path294"
         d="m 775.33,434.55 c 0,1.1045 -0.6096,1.9998 -1.3616,1.9998 -0.752,0 -1.3616,-0.89534 -1.3616,-1.9998 0,-1.10446 0.6096,-1.9998 1.3616,-1.9998 0.752,0 1.3616,0.89534 1.3616,1.9998 z"
         transform="rotate(20.355872,773.97976,434.5694)" />
    </g>
    <g
       id="g306"
       transform="matrix(0.61709,0,0,0.64496,78.191,128.59)">
      <rect
         style="fill:#ffffff"
         id="rect298"
         height="79.668999"
         width="2.0459001"
         y="808.64001"
         x="10.457"
         transform="matrix(0.50017,-0.86593,0.86593,0.50017,0,0)" />
      <rect
         style="fill:#808080"
         id="rect300"
         height="79.668999"
         width="2.0459001"
         y="807.13"
         x="8.9928999"
         transform="matrix(0.50017,-0.86593,0.86593,0.50017,0,0)" />
      <rect
         id="rect302"
         height="79.668999"
         width="2.0459001"
         y="806.76001"
         x="9.9623003"
         transform="matrix(0.50017,-0.86593,0.86593,0.50017,0,0)" />
      <path
         style="fill:#ffffff"
         inkscape:connector-curvature="0"
         id="path304"
         d="m 775.33,434.55 c 0,1.1045 -0.6096,1.9998 -1.3616,1.9998 -0.752,0 -1.3616,-0.89534 -1.3616,-1.9998 0,-1.10446 0.6096,-1.9998 1.3616,-1.9998 0.752,0 1.3616,0.89534 1.3616,1.9998 z"
         transform="rotate(20.355872,773.97976,434.5694)" />
    </g>
    <g
       id="g316"
       transform="matrix(0.61709,0,0,0.64496,96.484,128.83)">
      <rect
         style="fill:#ffffff"
         id="rect308"
         height="79.668999"
         width="2.0459001"
         y="808.64001"
         x="10.457"
         transform="matrix(0.50017,-0.86593,0.86593,0.50017,0,0)" />
      <rect
         style="fill:#808080"
         id="rect310"
         height="79.668999"
         width="2.0459001"
         y="807.13"
         x="8.9928999"
         transform="matrix(0.50017,-0.86593,0.86593,0.50017,0,0)" />
      <rect
         id="rect312"
         height="79.668999"
         width="2.0459001"
         y="806.76001"
         x="9.9623003"
         transform="matrix(0.50017,-0.86593,0.86593,0.50017,0,0)" />
      <path
         style="fill:#ffffff"
         inkscape:connector-curvature="0"
         id="path314"
         d="m 775.33,434.55 c 0,1.1045 -0.6096,1.9998 -1.3616,1.9998 -0.752,0 -1.3616,-0.89534 -1.3616,-1.9998 0,-1.10446 0.6096,-1.9998 1.3616,-1.9998 0.752,0 1.3616,0.89534 1.3616,1.9998 z"
         transform="rotate(20.355872,773.97976,434.5694)" />
    </g>
    <g
       id="g348"
       transform="translate(-237.32,-19.737)">
      <g
         id="g326"
         transform="matrix(0.61709,0,0,0.64496,376.89,151.46)">
        <rect
           style="fill:#ffffff"
           id="rect318"
           height="79.668999"
           width="2.0459001"
           y="808.64001"
           x="10.457"
           transform="matrix(0.50017,-0.86593,0.86593,0.50017,0,0)" />
        <rect
           style="fill:#808080"
           id="rect320"
           height="79.668999"
           width="2.0459001"
           y="807.13"
           x="8.9928999"
           transform="matrix(0.50017,-0.86593,0.86593,0.50017,0,0)" />
        <rect
           id="rect322"
           height="79.668999"
           width="2.0459001"
           y="806.76001"
           x="9.9623003"
           transform="matrix(0.50017,-0.86593,0.86593,0.50017,0,0)" />
        <path
           style="fill:#ffffff"
           inkscape:connector-curvature="0"
           id="path324"
           d="m 775.33,434.55 c 0,1.1045 -0.6096,1.9998 -1.3616,1.9998 -0.752,0 -1.3616,-0.89534 -1.3616,-1.9998 0,-1.10446 0.6096,-1.9998 1.3616,-1.9998 0.752,0 1.3616,0.89534 1.3616,1.9998 z"
           transform="rotate(20.355872,773.97976,434.5694)" />
      </g>
      <g
         id="g336"
         transform="matrix(0.61709,0,0,0.64496,352.82,148.57)">
        <rect
           style="fill:#ffffff"
           id="rect328"
           height="79.668999"
           width="2.0459001"
           y="808.64001"
           x="10.457"
           transform="matrix(0.50017,-0.86593,0.86593,0.50017,0,0)" />
        <rect
           style="fill:#808080"
           id="rect330"
           height="79.668999"
           width="2.0459001"
           y="807.13"
           x="8.9928999"
           transform="matrix(0.50017,-0.86593,0.86593,0.50017,0,0)" />
        <rect
           id="rect332"
           height="79.668999"
           width="2.0459001"
           y="806.76001"
           x="9.9623003"
           transform="matrix(0.50017,-0.86593,0.86593,0.50017,0,0)" />
        <path
           style="fill:#ffffff"
           inkscape:connector-curvature="0"
           id="path334"
           d="m 775.33,434.55 c 0,1.1045 -0.6096,1.9998 -1.3616,1.9998 -0.752,0 -1.3616,-0.89534 -1.3616,-1.9998 0,-1.10446 0.6096,-1.9998 1.3616,-1.9998 0.752,0 1.3616,0.89534 1.3616,1.9998 z"
           transform="rotate(20.355872,773.97976,434.5694)" />
      </g>
      <g
         id="g346"
         transform="matrix(0.48347,0,0,0.47847,489.41,217.87)">
        <rect
           style="fill:#ffffff"
           id="rect338"
           height="79.668999"
           width="2.0459001"
           y="808.64001"
           x="10.457"
           transform="matrix(0.50017,-0.86593,0.86593,0.50017,0,0)" />
        <rect
           style="fill:#808080"
           id="rect340"
           height="79.668999"
           width="2.0459001"
           y="807.13"
           x="8.9928999"
           transform="matrix(0.50017,-0.86593,0.86593,0.50017,0,0)" />
        <rect
           id="rect342"
           height="79.668999"
           width="2.0459001"
           y="806.76001"
           x="9.9623003"
           transform="matrix(0.50017,-0.86593,0.86593,0.50017,0,0)" />
        <path
           style="fill:#ffffff"
           inkscape:connector-curvature="0"
           id="path344"
           d="m 775.33,434.55 c 0,1.1045 -0.6096,1.9998 -1.3616,1.9998 -0.752,0 -1.3616,-0.89534 -1.3616,-1.9998 0,-1.10446 0.6096,-1.9998 1.3616,-1.9998 0.752,0 1.3616,0.89534 1.3616,1.9998 z"
           transform="rotate(20.355872,773.97976,434.5694)" />
      </g>
    </g>
    <path
       inkscape:connector-curvature="0"
       id="path350"
       d="m 629.62,374.92 c 0,0 -6.7224,6.0714 -18.75,9.5938 -12.028,3.5223 -29.548,4.9274 -39.438,6.2188 -21.504,2.8081 -64.812,2.25 -64.812,2.25 v 21.75 l 0.48139,26.323 c 0,0 43.242,0.4434 64.278,-1.9003 40.389,-4.4999 59.178,-10.731 58.053,-13.83 v -39.092 z m -106.06,28.188 c 2.8305,0 5.125,2.0147 5.125,4.5 0,2.4853 -2.2945,4.5 -5.125,4.5 -2.8305,0 -5.125,-2.0147 -5.125,-4.5 0,-2.4853 2.2945,-4.5 5.125,-4.5 z" />
    <g
       id="g360"
       transform="matrix(0.92441,0,0,0.90581,-183.47,21.714)">
      <rect
         style="fill:#ffffff"
         id="rect352"
         height="79.668999"
         width="2.0459001"
         y="808.64001"
         x="10.457"
         transform="matrix(0.50017,-0.86593,0.86593,0.50017,0,0)" />
      <rect
         style="fill:#808080"
         id="rect354"
         height="79.668999"
         width="2.0459001"
         y="807.13"
         x="8.9928999"
         transform="matrix(0.50017,-0.86593,0.86593,0.50017,0,0)" />
      <rect
         id="rect356"
         height="79.668999"
         width="2.0459001"
         y="806.76001"
         x="9.9623003"
         transform="matrix(0.50017,-0.86593,0.86593,0.50017,0,0)" />
      <path
         style="fill:#ffffff"
         inkscape:connector-curvature="0"
         id="path358"
         d="m 775.33,434.55 c 0,1.1045 -0.6096,1.9998 -1.3616,1.9998 -0.752,0 -1.3616,-0.89534 -1.3616,-1.9998 0,-1.10446 0.6096,-1.9998 1.3616,-1.9998 0.752,0 1.3616,0.89534 1.3616,1.9998 z"
         transform="rotate(20.355872,773.97976,434.5694)" />
    </g>
    <path
       inkscape:connector-curvature="0"
       id="path362"
       d="m 522.68,393.01 -15.969,0.15625 -0.25,28.125 16.219,-0.15625 v -9.125 c -2.2371,-0.48332 -3.9062,-2.2304 -3.9062,-4.3438 0,-2.1134 1.6692,-3.8604 3.9062,-4.3438 v -10.312 z" />
    <path
       style="fill:#666666"
       inkscape:connector-curvature="0"
       id="path364"
       d="m 461.96,367.98 0.91154,20.612 14.432,1.6364 v -4.3418 c -2.5257,-0.27874 -4.4688,-2.1442 -4.4688,-4.4375 0,-2.2933 1.943,-4.1588 4.4688,-4.4375 v -8.1562 l -8.2188,-0.71875 z" />
    <g
       id="g374"
       transform="matrix(0.45842,0,0,0.47847,112.66,199.94)">
      <rect
         style="fill:#ffffff"
         id="rect366"
         height="79.668999"
         width="2.0459001"
         y="808.64001"
         x="10.457"
         transform="matrix(0.50017,-0.86593,0.86593,0.50017,0,0)" />
      <rect
         style="fill:#808080"
         id="rect368"
         height="79.668999"
         width="2.0459001"
         y="807.13"
         x="8.9928999"
         transform="matrix(0.50017,-0.86593,0.86593,0.50017,0,0)" />
      <rect
         id="rect370"
         height="79.668999"
         width="2.0459001"
         y="806.76001"
         x="9.9623003"
         transform="matrix(0.50017,-0.86593,0.86593,0.50017,0,0)" />
      <path
         style="fill:#ffffff"
         inkscape:connector-curvature="0"
         id="path372"
         d="m 775.33,434.55 c 0,1.1045 -0.6096,1.9998 -1.3616,1.9998 -0.752,0 -1.3616,-0.89534 -1.3616,-1.9998 0,-1.10446 0.6096,-1.9998 1.3616,-1.9998 0.752,0 1.3616,0.89534 1.3616,1.9998 z"
         transform="rotate(20.355872,773.97976,434.5694)" />
    </g>
    <g
       id="g384"
       transform="matrix(0.61709,0,0,0.64496,25.961,129.31)">
      <rect
         style="fill:#ffffff"
         id="rect376"
         height="79.668999"
         width="2.0459001"
         y="808.64001"
         x="10.457"
         transform="matrix(0.50017,-0.86593,0.86593,0.50017,0,0)" />
      <rect
         style="fill:#808080"
         id="rect378"
         height="79.668999"
         width="2.0459001"
         y="807.13"
         x="8.9928999"
         transform="matrix(0.50017,-0.86593,0.86593,0.50017,0,0)" />
      <rect
         id="rect380"
         height="79.668999"
         width="2.0459001"
         y="806.76001"
         x="9.9623003"
         transform="matrix(0.50017,-0.86593,0.86593,0.50017,0,0)" />
      <path
         style="fill:#ffffff"
         inkscape:connector-curvature="0"
         id="path382"
         d="m 775.33,434.55 c 0,1.1045 -0.6096,1.9998 -1.3616,1.9998 -0.752,0 -1.3616,-0.89534 -1.3616,-1.9998 0,-1.10446 0.6096,-1.9998 1.3616,-1.9998 0.752,0 1.3616,0.89534 1.3616,1.9998 z"
         transform="rotate(20.355872,773.97976,434.5694)" />
    </g>
    <g
       id="g394"
       transform="matrix(0.61709,0,0,0.64496,10.797,129.79)">
      <rect
         style="fill:#ffffff"
         id="rect386"
         height="79.668999"
         width="2.0459001"
         y="808.64001"
         x="10.457"
         transform="matrix(0.50017,-0.86593,0.86593,0.50017,0,0)" />
      <rect
         style="fill:#808080"
         id="rect388"
         height="79.668999"
         width="2.0459001"
         y="807.13"
         x="8.9928999"
         transform="matrix(0.50017,-0.86593,0.86593,0.50017,0,0)" />
      <rect
         id="rect390"
         height="79.668999"
         width="2.0459001"
         y="806.76001"
         x="9.9623003"
         transform="matrix(0.50017,-0.86593,0.86593,0.50017,0,0)" />
      <path
         style="fill:#ffffff"
         inkscape:connector-curvature="0"
         id="path392"
         d="m 775.33,434.55 c 0,1.1045 -0.6096,1.9998 -1.3616,1.9998 -0.752,0 -1.3616,-0.89534 -1.3616,-1.9998 0,-1.10446 0.6096,-1.9998 1.3616,-1.9998 0.752,0 1.3616,0.89534 1.3616,1.9998 z"
         transform="rotate(20.355872,773.97976,434.5694)" />
    </g>
  </g>
</svg>
