<?xml version="1.0" encoding="UTF-8"?>
<svg viewBox="0 0 800 700" xmlns="http://www.w3.org/2000/svg" xmlns:xlink="http://www.w3.org/1999/xlink">
 <defs>
  <filter id="bi">
   <feGaussianBlur stdDeviation=".9389"/>
  </filter>
  <filter id="q">
   <feGaussianBlur stdDeviation=".7965"/>
  </filter>
  <filter id="bh">
   <feGaussianBlur stdDeviation="1.4567"/>
  </filter>
  <filter id="h">
   <feGaussianBlur stdDeviation=".8837"/>
  </filter>
  <filter id="bg">
   <feGaussianBlur stdDeviation="2.0715"/>
  </filter>
  <filter id="bf">
   <feGaussianBlur stdDeviation="2.7803"/>
  </filter>
  <filter id="p">
   <feGaussianBlur stdDeviation=".927"/>
  </filter>
  <filter id="be">
   <feGaussianBlur stdDeviation="1.1921"/>
  </filter>
  <filter id="bd">
   <feGaussianBlur stdDeviation=".5748"/>
  </filter>
  <filter id="b"/>
  <filter id="g" x="-.09842" y="-.11964" width="1.1968" height="1.2393">
   <feGaussianBlur stdDeviation="6.8545"/>
  </filter>
  <filter id="o" x="-.09816" y="-.15435" width="1.1963" height="1.3087">
   <feGaussianBlur stdDeviation="1.0638"/>
  </filter>
  <linearGradient id="c">
   <stop stop-color="#fff" stop-opacity="0" offset="0"/>
   <stop stop-color="#fff" offset=".3537"/>
   <stop stop-color="#fff" offset=".6711"/>
   <stop stop-color="#fff" stop-opacity="0" offset="1"/>
  </linearGradient>
  <linearGradient id="a">
   <stop stop-color="#fff" stop-opacity="0" offset="0"/>
   <stop stop-color="#fff" offset=".4938"/>
   <stop stop-color="#fff" offset=".5557"/>
   <stop stop-color="#fff" stop-opacity="0" offset="1"/>
  </linearGradient>
  <linearGradient id="k">
   <stop stop-color="#fc0" offset="0"/>
   <stop stop-color="#fff" offset=".2473"/>
   <stop stop-color="#520" offset=".4441"/>
   <stop stop-color="#520" offset=".558"/>
   <stop stop-color="#fc0" offset=".7674"/>
   <stop stop-color="#520" offset=".9402"/>
   <stop stop-color="#28170b" offset="1"/>
  </linearGradient>
  <linearGradient id="l">
   <stop stop-color="#2b1100" offset="0"/>
   <stop stop-color="#2b1100" offset="1"/>
  </linearGradient>
  <linearGradient id="d">
   <stop stop-color="#fff6d5" stop-opacity=".0161" offset="0"/>
   <stop stop-color="#fff" offset=".378"/>
   <stop stop-color="#fff6d5" stop-opacity="0" offset="1"/>
  </linearGradient>
  <linearGradient id="e">
   <stop stop-color="#45060b" offset="0"/>
   <stop stop-color="#803300" offset=".2357"/>
   <stop stop-color="#f60" offset=".4921"/>
   <stop stop-color="#803300" offset=".7798"/>
   <stop stop-color="#520" offset="1"/>
  </linearGradient>
  <linearGradient id="m">
   <stop offset="0"/>
   <stop stop-color="#000080" offset="1"/>
  </linearGradient>
  <linearGradient id="f">
   <stop stop-color="#fc0" offset="0"/>
   <stop stop-color="#520" offset=".5"/>
   <stop stop-color="#592600" offset=".6888"/>
   <stop stop-color="#fc0" offset="1"/>
  </linearGradient>
  <linearGradient id="n">
   <stop stop-color="#fea" offset="0"/>
   <stop stop-color="#ffd42a" offset=".13"/>
   <stop stop-color="#540" offset=".2337"/>
   <stop stop-color="#fc0" offset=".7033"/>
   <stop stop-color="#806600" offset=".8599"/>
   <stop stop-color="#fc0" offset="1"/>
  </linearGradient>
  <linearGradient id="az" x1="216.99" x2="364.3" gradientUnits="userSpaceOnUse">
   <stop stop-color="#fff" offset="0"/>
   <stop stop-color="#fff" stop-opacity=".5847" offset=".2287"/>
   <stop stop-color="#fff" stop-opacity="0" offset="1"/>
  </linearGradient>
  <linearGradient id="ay" x1="176.85" x2="347.43" gradientUnits="userSpaceOnUse">
   <stop stop-color="#2b1100" offset="0"/>
   <stop stop-color="#a40" offset="1"/>
  </linearGradient>
  <linearGradient id="ax" x1="174.7" x2="350.03" y1="711.49" y2="708.08" gradientTransform="matrix(.8306 -.60844 .62264 .81166 -370.04 174.28)" gradientUnits="userSpaceOnUse">
   <stop stop-color="#fff6d5" offset="0"/>
   <stop stop-color="#806600" offset="1"/>
  </linearGradient>
  <linearGradient id="aw" x1="225.5" x2="356.28" y1="490.22" y2="682.36" gradientUnits="userSpaceOnUse">
   <stop stop-color="#fc0" offset="0"/>
   <stop stop-color="#fff" offset=".32"/>
   <stop stop-color="#520" offset=".4265"/>
   <stop stop-color="#520" offset=".5181"/>
   <stop stop-color="#fc0" offset=".7197"/>
   <stop stop-color="#520" offset=".9407"/>
   <stop stop-color="#28170b" offset="1"/>
  </linearGradient>
  <linearGradient id="av" x1="189.07" x2="398.07" gradientUnits="userSpaceOnUse">
   <stop stop-color="#fff" offset="0"/>
   <stop stop-color="#520" offset="1"/>
  </linearGradient>
  <linearGradient id="au" x1="241.65" x2="340.02" y1="641.93" y2="546.38" gradientUnits="userSpaceOnUse">
   <stop stop-color="#540" offset="0"/>
   <stop stop-color="#a80" offset="1"/>
  </linearGradient>
  <linearGradient id="as" x1="142.96" x2="237.26" y1="653.92" y2="738.84" gradientUnits="userSpaceOnUse">
   <stop stop-color="#fd5" offset="0"/>
   <stop stop-color="#fff" offset=".5"/>
   <stop stop-color="#ffe680" offset="1"/>
  </linearGradient>
  <linearGradient id="ap" x1="263.69" x2="322.44" y1="564.31" y2="625.02" gradientUnits="userSpaceOnUse">
   <stop stop-color="#fff" offset="0"/>
   <stop stop-color="#fff" stop-opacity="0" offset="1"/>
  </linearGradient>
  <linearGradient id="al" x1="428.93" x2="550.64" y1="374.15" y2="515.22" gradientUnits="userSpaceOnUse">
   <stop stop-color="#fc0" offset="0"/>
   <stop stop-color="#fff" offset=".2473"/>
   <stop stop-color="#520" offset=".4079"/>
   <stop stop-color="#520" offset=".5181"/>
   <stop stop-color="#fc0" offset=".7197"/>
   <stop stop-color="#520" offset=".9132"/>
   <stop stop-color="#28170b" offset="1"/>
  </linearGradient>
  <linearGradient id="af" x1="843.83" x2="886.26" y1="116.5" y2="165.25" gradientUnits="userSpaceOnUse">
   <stop stop-color="#a80" offset="0"/>
   <stop stop-color="#fc0" offset=".2473"/>
   <stop stop-color="#520" offset=".5185"/>
   <stop stop-color="#520" offset=".6359"/>
   <stop stop-color="#fc0" offset=".7674"/>
   <stop stop-color="#520" offset=".9402"/>
   <stop stop-color="#28170b" offset="1"/>
  </linearGradient>
  <linearGradient id="ae" x1="813.83" x2="867.87" y1="128.82" y2="192.57" gradientUnits="userSpaceOnUse">
   <stop stop-color="#a80" offset="0"/>
   <stop stop-color="#fc0" offset=".2473"/>
   <stop stop-color="#520" offset=".4839"/>
   <stop stop-color="#520" offset=".6359"/>
   <stop stop-color="#fc0" offset=".7674"/>
   <stop stop-color="#520" offset=".9402"/>
   <stop stop-color="#28170b" offset="1"/>
  </linearGradient>
  <linearGradient id="ac" x1="785.26" x2="839.3" y1="185.61" y2="249.36" gradientTransform="matrix(.8505 0 0 .71932 199.06 -35.424)" gradientUnits="userSpaceOnUse">
   <stop stop-color="#a80" offset="0"/>
   <stop stop-color="#fc0" offset=".2473"/>
   <stop stop-color="#520" offset=".4495"/>
   <stop stop-color="#520" offset=".695"/>
   <stop stop-color="#fc0" offset=".8059"/>
   <stop stop-color="#520" offset=".9402"/>
   <stop stop-color="#28170b" offset="1"/>
  </linearGradient>
  <linearGradient id="ab" x1="769.93" x2="827.87" y1="192.66" y2="252.57" gradientTransform="matrix(.8505 0 0 .71932 208.78 -37.736)" gradientUnits="userSpaceOnUse">
   <stop stop-color="#2b1100" offset="0"/>
   <stop stop-color="#fff" offset=".2473"/>
   <stop stop-color="#520" offset=".4441"/>
   <stop stop-color="#520" offset=".558"/>
   <stop stop-color="#fc0" offset=".7674"/>
   <stop stop-color="#520" offset=".9402"/>
   <stop stop-color="#28170b" offset="1"/>
  </linearGradient>
  <linearGradient id="j" x1="873.63" x2="891.81" y1="97.43" y2="110.18" gradientUnits="userSpaceOnUse">
   <stop stop-color="#fff" stop-opacity="0" offset="0"/>
   <stop stop-color="#fff" offset=".2257"/>
   <stop stop-color="#fff" offset=".5557"/>
   <stop stop-color="#fff" stop-opacity="0" offset="1"/>
  </linearGradient>
  <linearGradient id="bc" x1="733.11" x2="787.47" y1="191.47" y2="264.14" gradientUnits="userSpaceOnUse" xlink:href="#e"/>
  <linearGradient id="bb" x1="343.57" x2="450" y1="435.93" y2="575.93" gradientUnits="userSpaceOnUse" xlink:href="#e"/>
  <linearGradient id="ba" x1="534.29" x2="610.88" y1="317.6" y2="424.62" gradientUnits="userSpaceOnUse" xlink:href="#e"/>
  <linearGradient id="at" x1="314.98" x2="363.54" y1="514.68" y2="561.82" gradientUnits="userSpaceOnUse" xlink:href="#f"/>
  <linearGradient id="ar" x1="270.7" x2="319.25" y1="695.4" y2="742.54" gradientUnits="userSpaceOnUse" xlink:href="#f"/>
  <linearGradient id="aq" x1="270.7" x2="328.54" y1="695.4" y2="738.61" gradientUnits="userSpaceOnUse" xlink:href="#f"/>
  <linearGradient id="ao" x1="408.43" x2="442.76" y1="462" y2="507" gradientUnits="userSpaceOnUse" xlink:href="#d"/>
  <linearGradient id="an" x1="555.91" x2="590.24" y1="346.84" y2="391.84" gradientUnits="userSpaceOnUse" xlink:href="#d"/>
  <linearGradient id="am" x1="728.65" x2="762.98" y1="211.48" y2="256.48" gradientUnits="userSpaceOnUse" xlink:href="#d"/>
  <linearGradient id="ak" x1="441.19" x2="542.78" y1="361.38" y2="460.83" gradientUnits="userSpaceOnUse" xlink:href="#n"/>
  <linearGradient id="aj" x1="465.32" x2="504.27" y1="401.93" y2="530.22" gradientUnits="userSpaceOnUse" xlink:href="#l"/>
  <linearGradient id="ai" x1="614.67" x2="700.71" y1="247.8" y2="366.19" gradientUnits="userSpaceOnUse" xlink:href="#k"/>
  <linearGradient id="ah" x1="614.67" x2="700.71" y1="247.8" y2="366.19" gradientUnits="userSpaceOnUse" xlink:href="#n"/>
  <linearGradient id="ag" x1="640.32" x2="679.27" y1="239.07" y2="367.36" gradientUnits="userSpaceOnUse" xlink:href="#l"/>
  <linearGradient id="ad" x1="809.93" x2="867.87" y1="132.66" y2="192.57" gradientUnits="userSpaceOnUse" xlink:href="#k"/>
  <linearGradient id="i" x1="862.52" x2="878.68" y1="103.49" y2="121.67" gradientUnits="userSpaceOnUse" xlink:href="#a"/>
  <linearGradient id="aa" x1="776.65" x2="786" y1="180.01" y2="192.89" gradientUnits="userSpaceOnUse" xlink:href="#c"/>
  <linearGradient id="z" x1="860.47" x2="876.63" y1="106.18" y2="124.36" gradientUnits="userSpaceOnUse" xlink:href="#a"/>
  <linearGradient id="y" x1="851.94" x2="868.11" y1="113.69" y2="131.88" gradientUnits="userSpaceOnUse" xlink:href="#a"/>
  <linearGradient id="x" x1="689.57" x2="705.73" y1="233.48" y2="251.67" gradientUnits="userSpaceOnUse" xlink:href="#a"/>
  <linearGradient id="w" x1="612.25" x2="621.59" y1="304.76" y2="317.64" gradientUnits="userSpaceOnUse" xlink:href="#c"/>
  <linearGradient id="v" x1="431.19" x2="440.54" y1="442.73" y2="455.61" gradientUnits="userSpaceOnUse" xlink:href="#c"/>
  <linearGradient id="u" x1="510.77" x2="526.93" y1="369.85" y2="388.04" gradientUnits="userSpaceOnUse" xlink:href="#a"/>
  <radialGradient id="r" cx="846.71" cy="187.66" r="30.238" gradientTransform="matrix(1.0048 .8265 -.41924 .50967 112.29 -671.32)" gradientUnits="userSpaceOnUse">
   <stop stop-color="#fff" offset="0"/>
   <stop stop-color="#2b2200" stop-opacity=".5517" offset="1"/>
  </radialGradient>
  <radialGradient id="t" cx="245.03" cy="604.31" r="75.926" gradientUnits="userSpaceOnUse" xlink:href="#m"/>
  <radialGradient id="s" cx="268.55" cy="677.35" r="55.38" gradientTransform="matrix(.67814 -1.5276 2.0595 .91425 -1297.4 443.87)" gradientUnits="userSpaceOnUse" xlink:href="#m"/>
 </defs>
 <g transform="translate(-149.07 -51.969)">
  <path d="m818.29 136.32 43.036-32.232c31.387-6.3005 44.357 22.405 42.857 43.571l-45 41.25c1.5311-38.398-22.463-42.468-40.893-52.589z" fill="url(#af)"/>
  <path d="m651.4 251.39 156.79-114.72c41.301-8.0738 64.617 31.296 49.075 60.451l-150.67 125.92-54.483-73.076" fill="url(#bc)"/>
  <path d="m452.59 377.52 156.79-114.72c62.122-20.024 111.84 56.695 78.36 101.16l-156.38 128.78-78.054-116.65" fill="url(#ba)"/>
  <path d="m267.86 488.79 135.71-97.857c84.007-18.306 158 77.834 105 139.29l-130 110.71-110.71-152.14" fill="url(#bb)"/>
  <path d="m369.88 530.87c38.207 49.065 35.017 113.49-7.126 143.9s-107.28 15.29-145.49-33.775-35.017-113.49 7.126-143.9 107.28-15.29 145.49 33.775z" fill="url(#aw)" fill-rule="evenodd" stroke="url(#av)" stroke-width="3"/>
  <path d="m361.17 536.32c36.352 47.388 33.317 109.62-6.7801 138.99s-102.07 14.768-138.42-32.621-33.317-109.62 6.7801-138.99 102.07-14.768 138.42 32.621z" fill="#fc0" fill-rule="evenodd" stroke="url(#ax)" stroke-opacity=".5847" stroke-width="3"/>
  <path d="m228.75 520.81c-30.903 21.591-27.014 73.902 3.4511 111.78s80.344 48.046 111.24 26.458 27.945-67.907-2.5221-105.79-81.269-54.041-112.17-32.45z" fill="url(#au)" fill-rule="evenodd" filter="url(#q)" stroke="#efe460" stroke-width="3"/>
  <path d="m235.31 524.34c-30.903 21.591-22.468 68.852 7.9968 106.73s70.242 33.904 101.14 12.316 26.935-52.25-3.5323-90.13-74.703-50.506-105.61-28.915z" fill-rule="evenodd" filter="url(#q)"/>
  <path d="m233.39 518.35c-29.524 20.569-24.888 72.426 4.2172 108.51s77.287 45.677 106.81 25.11 26.698-64.694-2.4096-100.78-79.091-53.409-108.62-32.84z" fill="url(#t)" fill-rule="evenodd"/>
  <path d="m263.52 558.11c-21.535 15.003-18.153 52.827 3.076 79.147s56.372 33.317 77.904 18.315 19.473-47.187-1.7575-73.509-57.688-38.956-79.223-23.953z" fill="url(#s)" fill-rule="evenodd" filter="url(#bf)"/>
  <path d="m263.52 558.11c-21.535 15.003-18.153 52.827 3.076 79.147s56.372 33.317 77.904 18.315 19.473-47.187-1.7575-73.509-57.688-38.956-79.223-23.953z" fill="url(#ap)" fill-rule="evenodd"/>
  <path d="m259.38 512.39c-7.6891 0.29185-15.001 2.6662-21.688 6.6875-29.524 20.569-25.324 68.259 3.7812 104.34 15.421 19.119 34.724 30.957 53.844 34.812-40.576-49.759-69.78-99.061-35.938-145.84zm22.625 1.75c-24.417 29.539-1.1309 97.701 26.688 145.47 12.282 0.0415 24.073-3.3881 34.281-10.5 29.521-20.567 26.701-59.694-2.4062-95.781-16.555-20.525-37.769-34.263-58.562-39.188z" fill="url(#az)" fill-rule="evenodd"/>
  <path d="m262.31 512.3c-10.621 0.21614-16.701 2.2819-25.362 7.442-1.5133 0.90163-4.3915 3.5051-5.0893 5.1384 36.877-6.2774 82.356 9.5418 112.58 39.183 5.3196 5.217 9.9049 10.605 13.812 16.062-3.8704-9.1014-9.3014-18.166-16.25-26.781-20.921-25.938-52.55-41.597-79.692-41.045z" fill="#fff" fill-rule="evenodd" filter="url(#bh)" opacity=".8123"/>
  <path transform="matrix(.8306 -.60844 .62264 .81166 -370.04 174.28)" d="m262.16 604.97c-46.02 0-83.844 45.855-83.844 103.09s37.825 103.12 83.844 103.12 83.812-45.886 83.812-103.12-37.793-103.09-83.812-103.09z" fill="none" filter="url(#bi)" stroke="url(#ay)" stroke-opacity=".5847" stroke-width="3.898"/>
  <path d="m309.62 518.9c20.828 13.753 37.015 30.022 47.834 49.972l9.4739-10.663c-10.036-19.901-25.268-36.724-47.656-49.497l-9.1168 10.01" fill="url(#at)" filter="url(#h)"/>
  <path transform="matrix(0 1 1 0 -458.72 443.37)" d="m147.93 667.2c24.804 1.3647 68.822 36.337 75.602 66.668l8.7596-1.9126c-0.40129-26.786-53.167-70.98-81.763-73.069l-2.5989 8.3132z" fill="url(#as)" filter="url(#bg)"/>
  <path transform="matrix(0 1 -1 0 1053.5 365.51)" d="m267.48 689.61c24.609 6.8218 36.548 26.473 39.977 59.972l10.902-7.0912c-2.3559-19.474-10.129-47.629-41.941-60.926l-7.6882 7.8667" fill="url(#ar)" filter="url(#h)"/>
  <path transform="matrix(-1 0 0 1 528.34 -190.36)" d="m265.96 695.59c17.066 1.8218 49.198 12.276 55.424 45.775l8.0453 6.4802c5.2052-28.799-30.211-67.105-70.513-64.14l7.044 11.885z" fill="url(#aq)" filter="url(#h)"/>
  <path d="m348.45 503.25c15.828 11.792 28.28 27.805 40.357 44.286l126.79-91.429c-10.306-19.165-23.166-35.456-41.071-46.071l-126.07 93.214" fill="url(#ao)" filter="url(#g)"/>
  <path d="m495.93 388.09c15.828 11.792 28.28 27.805 40.357 44.286l153.05-117.69c-10.306-19.165-22.156-27.375-40.061-37.99l-153.35 111.4" fill="url(#an)" filter="url(#g)"/>
  <path d="m679.78 256.77c15.828 11.792 18.179 15.683 30.256 32.164l143.96-116.68c-10.306-19.165-5.9933-13.233-23.899-23.848l-149.3 112.41" fill="url(#am)" filter="url(#g)"/>
  <path d="m437.5 391.83c60.469 4.4471 128.22 92.083 51.265 153.04 67.275-69.224 11.425-144.03-51.265-153.04" fill="url(#aj)" filter="url(#p)"/>
  <path d="m441.09 373.31c-14.54 0.0589-28.494 4.1916-40.219 12.812-5.6614 4.1626-11.589 10.885-16.247 16.427 1.7302-0.50578 2.3599-1.3426 2.8673-1.7034 33.236-23.636 85.08-12.964 115.55 25.603s26.629 85.328-4.4643 113.07c-3.4677 3.0941-7.9723 7.4212-10.381 9.588 9.9804-1.7473 17.6-8.6795 25.921-14.798 34.108-25.079 36.399-78.579 5.125-119.5-20.523-26.854-50.398-41.612-78.156-41.5z" fill="url(#al)" fill-rule="evenodd" stroke="url(#ak)" stroke-width="3"/>
  <path d="m602.05 268.61c55.355-29.646 128.57 43.662 67.986 109.53 71.74-59.428-13.042-143.83-67.986-109.53z" fill="url(#ag)" filter="url(#p)"/>
  <path d="m643.13 250.32c-10.752 0.0437-25.49 2.0987-34.161 8.4928-4.1865 3.0874-10.248 8.0232-13.132 12.133 1.1221-1.1607 2.2492-1.8063 2.6244-2.0739 24.578-17.531 62.94-10.263 84.561 19.039 21.107 28.605 18.225 67.106-5.3748 85.933-2.8663 2.2866-2.0749 1.4731-7.8868 6.2228 6.749 0.4718 13.539-5.685 19.511-10.46 24.844-19.864 29.983-60.176 6.8562-90.527-15.177-19.918-32.471-28.843-52.997-28.76z" fill="url(#ai)" fill-rule="evenodd" stroke="url(#ah)" stroke-width="3"/>
  <path d="m803.25 139.8c0.13036-0.5251 0.20862-0.99811 0.79812-1.9824 3.9423-4.3873 10.063-8.2567 12.104-8.7319 40.71-1.2538 58.935 35.689 53.75 59.107-2.8345 4.41-7.053 8.1963-11.438 10.755-1.1426 0.64108-2.269 1.1023-3.294 0.45013 1.0294-0.60565 2.5735-2.3195 2.7016-3.4694 4.2915-38.507-31.795-57.309-51.12-57.491-1.1335-0.0107-2.7802 0.76609-3.5012 1.3618z" fill="url(#ae)" stroke="url(#ad)"/>
  <path transform="translate(40,-60)" d="m773.47 190.75c-0.25354 0.11601-0.84671 0.68771-2.8438 2.0625-0.8648 0.59534-3.7666 1.5468-1.625 3.2812 8.8403 2.1343 25.712 6.4612 35.777 15.737 10.589 9.7577 15.924 26.092 17.004 43.076 2.492-1.9382 3.7619-3.1225 5.5-5.6562 0.38492-9.4451-4.3758-27.457-13.281-38.402-9.0051-11.067-25.245-18.24-40.531-20.098z" fill="#520" filter="url(#be)"/>
  <path d="m811.35 132.36c-0.18661 0.33597-0.29545 0.41668-0.93941 0.87818 9.1056 2.7852 20.172 5.8079 30.637 12.926 13.576 9.2334 22.849 32.454 23.525 48.395 0.41497-0.53864 0.34011-0.78096 0.78601-0.56439 8.3e-4 -8.2108-5.0699-28.655-12.699-39.098-7.2012-9.8575-23.856-21.414-41.309-22.536z"/>
  <path d="m804.77 139.92c13.738 1.2258 31.04 8.949 39.52 18.683 8.7929 10.094 12.723 25.723 10.42 40.283 0.41497-0.53864 1.4657-1.7388 1.9116-1.5222 2.8976-8.0846-1.8916-28.55-10.158-38.709-8.3627-10.277-25.786-17.291-39.678-19.363 0.83662-0.33507-3.0621 0.22465-2.0164 0.6275z" fill="#2b1100" filter="url(#bd)"/>
  <path d="m857.92 105.98c0.11087-0.3777 0.80877-0.33914 1.3101-1.0471 4.363-2.9033 6.4116-6.318 9.5365-11.711 34.272-1.7273 51.425 28.67 50.386 46.684-5.7523 1.4038-10.766 6.0317-16.57 9.1966 0.87555-0.43566 1.8192-1.9162 1.7927-2.7482-0.78113-24.453-29.416-39.296-43.478-41.354-0.94998-0.13905-2.3646 0.55106-2.9777 0.97953z" fill="url(#ac)" stroke="url(#ab)"/>
  <path d="m857.92 105.98c0.11087-0.3777 0.80877-0.33914 1.3101-1.0471 4.363-2.9033 5.7802-5.1816 8.9052-10.574 34.401-2.2353 51.721 27.815 50.26 46.305-5.7523 1.4038-10.008 5.2741-15.813 8.439 0.87555-0.43566 1.7616-1.9163 1.7927-2.7482 0.95348-25.493-28.921-39.593-43.478-41.354-0.95315-0.11531-2.3646 0.55106-2.9777 0.97953z" fill="url(#r)"/>
  <path d="m875.52 95.536c6.9094 1.0742 15.618 6.0524 20.582 10.417l-8.8388 8.7126c-5.4711-3.6905-10.988-7.7065-18.435-9.0914 2.5592-2.5034 5.8022-6.8673 6.6923-10.038z" fill="url(#j)" filter="url(#o)"/>
  <path d="m864.16 106.71c6.7271 1.9854 14.707 5.8752 19.824 9.4702l-34.724 27.148c-4.5182-4.0717-11.148-9.5113-18.562-11.617 2.5592-2.5034 29.162-21.704 33.461-25.001z" fill="url(#i)" filter="url(#o)"/>
  <path d="m865.8 111.13c6.7271 1.9854 5.1102 2.2134 10.228 5.8084l-28.663 22.35c-3.1657-2.3448-4.3518-3.8098-9.3439-5.8084 2.5592-2.5034 25.248-20.062 27.779-22.35z" fill="url(#i)"/>
  <path d="m878.81 98.062c5.5907 1.7329 9.0245 3.5393 14.142 7.1342-1.5438 3.2569-5.0142 5.7451-7.7024 7.1973-4.9315-3.7138-6.2662-4.4846-12.501-6.566 2.5592-2.5034 4.9183-4.847 6.0609-7.7655z" fill="url(#j)"/>
  <path d="m822.63 145.5c5.2986 3.0569 6.6037 3.7989 10.302 6.6272l-147.55 112.85c-3.0764-2.9698-4.709-4.2996-8.4384-6.8032 2.5592-2.5034 143.16-110.39 145.69-112.67z" fill="url(#aa)"/>
  <path d="m836.91 134.37c4.2271 1.9854 5.378 3.1063 10.049 6.3441l-1.6415 1.2627c-3.1657-2.3448-4.5304-3.2741-9.3439-5.8084 0.32701-0.27131 0.81536-1.029 0.93618-1.7984z" fill="url(#z)" filter="url(#b)"/>
  <path d="m828.38 141.88c4.2271 1.9854 5.378 3.1063 10.049 6.3441l-1.6415 1.2627c-3.1657-2.3448-4.5304-3.2741-9.3439-5.8084 0.32701-0.27131 0.81536-1.029 0.93618-1.7984z" fill="url(#y)" filter="url(#b)"/>
  <path d="m673.24 260.42c3.6021 2.0747 4.5744 3.2849 8.7099 6.6119l-9.1415 6.8877c-3.1657-2.3448-4.2626-3.8991-9.076-6.4334 0.32701-0.27131 8.6725-6.4755 9.5076-7.0662z" fill="url(#x)" filter="url(#b)"/>
  <path d="m658.23 270.25c5.2986 3.0569 6.6037 3.7989 10.302 6.6272l-159.67 123.52c-3.0764-2.9698-5.6542-6.0438-9.3835-8.5475 2.5592-2.5034 156.22-119.31 158.76-121.6z" fill="url(#w)"/>
  <path d="m478.96 407.51c5.2986 3.0569 6.2466 5.5846 9.9446 8.413l-130.39 99.591c-3.0764-2.9698-7.0827-6.7581-10.812-9.2618 2.5592-2.5034 128.72-96.455 131.26-98.743z" fill="url(#v)"/>
  <path d="m495.15 395.01c3.6021 2.0747 5.6459 4.3563 9.7814 7.6834l-12.356 8.6734c-3.1657-2.3448-4.2626-4.2563-9.076-6.7905-1.1016 0.44297 10.815-8.9755 11.65-9.5662z" fill="url(#u)" filter="url(#b)"/>
 </g>
</svg>
