<?xml version="1.0" encoding="UTF-8"?>
<!DOCTYPE svg  PUBLIC '-//W3C//DTD SVG 1.1//EN'  'http://www.w3.org/Graphics/SVG/1.1/DTD/svg11.dtd'>
<svg enable-background="new 0 0 47.75 47.4" version="1.1" viewBox="0 0 47.75 47.4" xml:space="preserve" xmlns="http://www.w3.org/2000/svg">
<g clip-rule="evenodd" fill-rule="evenodd">
	<path d="m43.85 31.25h0.65c0.033 0.134 0.2 0.25 0.5 0.35 0.1 0.034 0.2 0.067 0.3 0.101-0.333 0-0.666-0.05-1-0.15-0.3-0.034-0.45-0.134-0.45-0.301zm-0.1-0.05c-0.267 0.033-0.583 0-0.95-0.101-0.3-0.033-0.45-0.133-0.45-0.3l-1-0.1c-0.267-0.101-0.433-0.217-0.5-0.351-0.433 0-0.75-0.033-0.949-0.1-0.301-0.1-0.45-0.2-0.45-0.3l-0.951-0.098c-0.3-0.1-0.45-0.216-0.45-0.35-0.467 0-0.8-0.033-1-0.1-0.267-0.034-0.399-0.134-0.399-0.301-0.467 0-0.801-0.033-1-0.1-0.267-0.1-0.4-0.2-0.4-0.3l-0.951-0.099c-0.366-0.133-0.5-0.267-0.399-0.399 0.166-0.033 0.35-0.066 0.55-0.101-0.233 0.167-0.117 0.317 0.35 0.45 0.334 0.101 0.65 0.134 0.95 0.101 0 0.133 0.15 0.25 0.45 0.35l1 0.1c0 0.101 0.133 0.2 0.399 0.301 0.2 0.066 0.534 0.1 1 0.1 0 0.134 0.15 0.25 0.45 0.35l1 0.101c0 0.1 0.15 0.2 0.45 0.3 0.333 0.1 0.667 0.134 1 0.1 0 0.134 0.167 0.25 0.5 0.351 0.2 0.066 0.533 0.1 1 0.1 0 0.134 0.167 0.25 0.5 0.351 0.066 0.029 0.15 0.045 0.25 0.045zm-32 15.7c2.067-0.434 4.117-0.4 6.15 0.1l28.85-13.25c-0.634-0.333-1.05-0.684-1.25-1.05-0.167-0.334-0.1-0.65 0.2-0.95 0.233 0 0.483-0.033 0.75-0.1h0.05c-0.733 0.733-0.4 1.449 1 2.149l-29.25 13.501c-2.167-0.533-4.333-0.533-6.5 0l-0.05-0.05c0.1-0.134 0.117-0.25 0.05-0.35zm-5.8-2.6c0.367 0 0.683 0.066 0.95 0.2 0.2 0.1 0.317 0.233 0.35 0.4-0.067-0.067-0.15-0.117-0.25-0.15-0.233-0.134-0.567-0.2-1-0.2 0.033-0.1 0.017-0.184-0.05-0.25zm2.7 1.2c-0.066-0.066-0.133-0.116-0.2-0.15-0.3-0.1-0.65-0.15-1.05-0.15 0-0.101-0.033-0.184-0.1-0.25 0.367-0.066 0.7-0.017 1 0.149 0.2 0.101 0.317 0.234 0.35 0.401zm1.45 0.6c-0.067-0.033-0.133-0.066-0.2-0.1-0.333-0.134-0.7-0.184-1.1-0.15 0.034-0.1 0.017-0.199-0.05-0.3 0.367 0 0.683 0.05 0.95 0.15s0.4 0.234 0.4 0.4zm-4.2-1.8c-0.066-0.066-0.15-0.116-0.25-0.149-0.3-0.134-0.65-0.184-1.05-0.151 0.033-0.1 0.033-0.184 0-0.25 0.333-0.066 0.65-0.017 0.95 0.15 0.233 0.1 0.35 0.234 0.35 0.4zm-1.35-0.55c-0.033-0.1-0.117-0.167-0.25-0.2-0.3-0.133-0.65-0.184-1.05-0.15 0.033-0.101 0.033-0.184 0-0.25 0.4 0 0.717 0.05 0.95 0.149 0.3 0.101 0.417 0.251 0.35 0.451zm-1.35-0.6c-0.034-0.101-0.117-0.167-0.25-0.2-0.3-0.167-0.633-0.217-1-0.15 0-0.233-0.117-0.383-0.35-0.45-0.4-0.166-0.833-0.199-1.3-0.1v-0.05c0.1-0.066 0.2-0.134 0.3-0.2 0.4-0.033 0.717 0.017 0.95 0.15 0.3 0.1 0.417 0.233 0.35 0.399 0.367 0 0.7 0.05 1 0.15 0.233 0.167 0.333 0.318 0.3 0.451zm-2.05-2.65c-0.133-0.267-0.35-0.517-0.65-0.75l0.15-0.05c0.267 0.267 0.433 0.533 0.5 0.8zm10.4 6.25c-0.066-0.033-0.133-0.066-0.2-0.1-0.267-0.134-0.633-0.2-1.1-0.2 0.033-0.101 0.017-0.2-0.05-0.3 0.4 0 0.716 0.066 0.95 0.199 0.233 0.101 0.367 0.234 0.4 0.401zm17.4-18.5l0.1-0.05c0.653 0.116 1.312 0.184 1.976 0.2-0.714-4e-3 -1.407-0.054-2.076-0.15z" fill="#8E672A"/>
	<path d="m28.95 28.25c0.669 0.096 1.361 0.146 2.075 0.15h0.649c0.055 2e-3 0.113 2e-3 0.175 0 0.7-0.034 1.4-0.117 2.101-0.25l-0.05 0.05c-0.1 0.133 0.034 0.267 0.4 0.4l0.95 0.101c0 0.1 0.134 0.2 0.4 0.3 0.199 0.066 0.533 0.1 1 0.1 0 0.167 0.133 0.267 0.399 0.301 0.2 0.066 0.533 0.1 1 0.1 0 0.134 0.15 0.25 0.45 0.35l0.95 0.101c0 0.1 0.149 0.2 0.45 0.3 0.199 0.066 0.517 0.1 0.949 0.1 0.067 0.134 0.233 0.25 0.5 0.351l1 0.1c0 0.167 0.15 0.267 0.45 0.3 0.367 0.101 0.684 0.134 0.95 0.101h0.1v0.05c0 0.167 0.15 0.267 0.45 0.3 0.334 0.101 0.667 0.15 1 0.15 0.134-0.033 0.283-0.066 0.45-0.101v0.051c-0.033 0.033-0.05 0.066-0.05 0.1-0.3 0.3-0.367 0.616-0.2 0.95 0.2 0.366 0.616 0.717 1.25 1.05l-28.848 13.245c-2.033-0.5-4.083-0.533-6.15-0.1-0.1 0-0.183 0.017-0.25 0.05h-0.05c0.066-0.066 0.1-0.134 0.1-0.2-0.033-0.167-0.167-0.3-0.4-0.4-0.233-0.133-0.55-0.199-0.95-0.199h-0.15c0-0.034 0.017-0.051 0.05-0.051 0-0.166-0.133-0.3-0.4-0.399-0.267-0.101-0.583-0.15-0.95-0.15h-0.1v-0.051c-0.033-0.167-0.15-0.3-0.35-0.4-0.3-0.166-0.633-0.216-1-0.149h-0.05v-0.051c-0.033-0.167-0.15-0.3-0.35-0.4-0.267-0.134-0.583-0.2-0.95-0.2h-0.05c0-0.166-0.117-0.3-0.35-0.399-0.3-0.167-0.617-0.217-0.95-0.15h-0.05c0.067-0.2-0.05-0.35-0.35-0.45-0.233-0.1-0.55-0.149-0.95-0.149h-0.05c0.033-0.134-0.067-0.284-0.3-0.45-0.3-0.101-0.633-0.15-1-0.15 0.067-0.166-0.05-0.3-0.35-0.399-0.233-0.136-0.55-0.186-0.95-0.153h-0.35c0.667-0.5 0.967-1 0.9-1.5-0.066-0.267-0.233-0.533-0.5-0.8-0.033-0.066-0.083-0.117-0.15-0.15l28.15-11.35c0.1 0 0.2 0.017 0.3 0.05zm13.8 4.1c-0.233 0.534 0.05 1.017 0.85 1.45l-25.7 11.65c-1.533-0.267-3.033-0.283-4.5-0.05l-9.75-4.15c0.567-0.634 0.55-1.217-0.05-1.75l25.15-10.25c1.267 0.167 2.517 0.167 3.75 0l10.25 3.1zm0.7 0l0.05-0.05-10.9-3.3h-0.2c-1.233 0.2-2.434 0.2-3.601 0l-0.2-0.05-25.799 10.5 0.1 0.1c0.6 0.5 0.617 1.066 0.05 1.7l-0.1 0.05 10.35 4.45h0.25c1.566-0.267 3.033-0.25 4.4 0.05l0.25 0.05 26.35-12-0.15-0.05c-0.833-0.467-1.116-0.95-0.85-1.45zm-35.15 6.4c0 0.4 0.367 0.75 1.1 1.05 0.767 0.334 1.633 0.5 2.6 0.5 0.967 0.033 1.817-0.1 2.55-0.399 0.767-0.301 1.15-0.65 1.15-1.051-0.034-0.399-0.417-0.767-1.15-1.1-0.7-0.3-1.55-0.45-2.55-0.45-1-0.033-1.867 0.101-2.6 0.4s-1.1 0.65-1.1 1.05zm4.9-2.55c-0.367 0.166-0.383 0.316-0.05 0.45l3.95 1.75c0.4 0.1 0.767 0.1 1.1 0 0.333-0.167 0.333-0.317 0-0.45l-2.55-1.15 5.2 0.351 0.7-0.101c0.333-0.166 0.333-0.316 0-0.45l-3.85-1.7c-0.3-0.167-0.667-0.184-1.1-0.051-0.367 0.167-0.383 0.317-0.05 0.45l2.6 1.15-5.25-0.349-0.7 0.1zm5.65-2.2c-0.333 0.2-0.317 0.366 0.05 0.5l3.75 1.65c0.333 0.166 0.7 0.166 1.1 0l1.85-0.75c0.167-0.034 0.25-0.101 0.25-0.2 0-0.066-0.066-0.134-0.199-0.2-0.334-0.134-0.667-0.134-1 0l-1.351 0.55-1-0.45 1.2-0.5c0.333-0.133 0.35-0.267 0.05-0.399-0.333-0.134-0.667-0.134-1 0l-1.2 0.45-1-0.4 1.3-0.55c0.167-0.033 0.25-0.101 0.25-0.2 0-0.066-0.066-0.134-0.2-0.2-0.333-0.133-0.667-0.133-1 0l-1.85 0.699zm-6.6 8.65l0.7-0.25c0.933-0.4 2.05-0.367 3.35 0.1 1.167 0.467 1.317 0.884 0.45 1.25l-0.75 0.3-3.75-1.4zm1.95-3.8c0.066 0.233-0.133 0.45-0.6 0.65-0.934 0.333-1.934 0.283-3-0.15-0.467-0.199-0.717-0.399-0.75-0.6-0.1-0.267 0.083-0.483 0.55-0.65 1-0.366 2-0.316 3 0.15 0.467 0.2 0.733 0.4 0.8 0.6zm4.7 4.3c-0.066-0.4-0.533-0.767-1.4-1.101-2.067-0.8-3.983-0.833-5.75-0.1l-1.2 0.5c-0.367 0.166-0.333 0.333 0.1 0.5l4.8 1.75c0.367 0.166 0.767 0.166 1.2 0l1.25-0.5c0.767-0.333 1.1-0.682 1-1.049zm-2.15-3.45l-1.3 0.5c-0.367 0.166-0.333 0.333 0.1 0.5l4.75 1.85c0.467 0.167 0.867 0.167 1.2 0 0.3-0.166 0.267-0.316-0.1-0.45l-1.8-0.7v-0.05l3.85 0.2c0.267 0.066 0.483 0.033 0.649-0.1 0.335-0.1 0.301-0.25-0.099-0.45l-0.5-0.1-2.75-0.051c0.733-0.433 0.65-0.833-0.25-1.199-1.3-0.5-2.55-0.483-3.75 0.05zm3.2-1.3c-0.367 0.166-0.317 0.333 0.15 0.5l4.7 1.85c0.4 0.167 0.783 0.184 1.15 0.05 0.366-0.166 0.333-0.333-0.101-0.5l-4.7-1.85c-0.399-0.134-0.799-0.15-1.199-0.05zm-2 1.75c0.433-0.233 0.9-0.233 1.4 0 0.5 0.199 0.533 0.383 0.1 0.55l-0.75 0.35-1.5-0.6 0.75-0.3zm17.4-6.6l0.301 1.25 0.8-0.149c0.633-0.101 1.1-0.25 1.399-0.45l0.051-0.05c0.6-0.267 0.949-0.601 1.05-1-0.267-0.034-0.684-0.034-1.25 0l-1.65 0.05-1.2-0.4c-0.3-0.066-0.517-0.217-0.649-0.45l-1.15-2.399-6.649 2.8 6.699 0.1c0.4 0 0.801 0.084 1.2 0.25l1.048 0.448zm-3.85-1.3c0.434 0.134 0.95 0.217 1.55 0.25h-4.65l3-1.25c-0.8 0.434-0.766 0.767 0.1 1zm0.3 3.3l-0.149-1.2c0-0.199-0.101-0.333-0.301-0.399-0.366-0.167-0.733-0.167-1.1 0-0.134 0.033-0.2 0.116-0.2 0.25l0.351 1.6-1.75-0.7c-0.367-0.166-0.75-0.183-1.15-0.05-0.3 0.167-0.283 0.334 0.05 0.5l4.7 1.9c0.366 0.166 0.733 0.184 1.1 0.05 0.334-0.167 0.317-0.316-0.05-0.45l-2.05-0.85 4.1 0.149c0.467 0 0.767-0.033 0.9-0.1 0.4-0.134 0.4-0.283 0-0.45-0.167-0.066-0.467-0.1-0.9-0.1l-3.551-0.15zm5.85-1.6l-1.1 0.35-0.25-0.45c0.2 0.1 0.65 0.133 1.35 0.1zm-10.95 2.2c-0.434-0.2-0.834-0.217-1.2-0.051-0.3 0.167-0.267 0.334 0.1 0.5l3.101 1.25-5.801-0.449-0.75 0.1c-0.367 0.134-0.333 0.3 0.1 0.5l4.7 1.85c0.434 0.167 0.816 0.167 1.149 0 0.167-0.066 0.233-0.133 0.2-0.199 0-0.101-0.1-0.184-0.3-0.25l-3-1.25 5.65 0.449 0.699-0.1c0.167-0.033 0.25-0.1 0.25-0.2s-0.1-0.184-0.3-0.25l-4.598-1.9z" fill="#D6932C"/>
	<path d="m43.45 32.35c-0.267 0.5 0.017 0.983 0.85 1.45l0.15 0.05-26.35 12-0.25-0.05c-1.367-0.3-2.833-0.316-4.4-0.05h-0.25l-10.35-4.45 0.1-0.05c0.566-0.634 0.55-1.2-0.05-1.7l-0.1-0.1 25.8-10.5 0.2 0.05c1.167 0.2 2.367 0.2 3.601 0h0.199l10.9 3.3-0.05 0.05zm-0.7 0l-10.25-3.1c-1.233 0.167-2.483 0.167-3.75 0l-25.15 10.25c0.6 0.533 0.617 1.116 0.05 1.75l9.75 4.15c1.467-0.233 2.967-0.217 4.5 0.05l25.7-11.65c-0.8-0.434-1.083-0.916-0.85-1.45zm-23.9 1.65l1.85-0.7c0.333-0.133 0.667-0.133 1 0 0.133 0.066 0.2 0.134 0.2 0.2 0 0.1-0.083 0.167-0.25 0.2l-1.3 0.55 1 0.4 1.2-0.45c0.333-0.134 0.667-0.134 1 0 0.3 0.133 0.283 0.267-0.05 0.399l-1.2 0.5 1 0.45 1.35-0.549c0.333-0.134 0.666-0.134 1 0 0.133 0.066 0.199 0.134 0.199 0.2 0 0.1-0.083 0.166-0.25 0.2l-1.85 0.75c-0.4 0.166-0.767 0.166-1.1 0l-3.749-1.65c-0.367-0.134-0.383-0.3-0.05-0.5zm-5.65 2.2l0.7-0.101 5.25 0.351-2.6-1.15c-0.333-0.133-0.316-0.283 0.05-0.45 0.433-0.133 0.8-0.116 1.1 0.051l3.85 1.699c0.333 0.134 0.333 0.284 0 0.45l-0.7 0.101-5.2-0.351 2.55 1.15c0.333 0.133 0.333 0.283 0 0.45-0.333 0.1-0.7 0.1-1.1 0l-3.95-1.75c-0.333-0.133-0.317-0.284 0.05-0.45zm-4.9 2.55c0-0.4 0.367-0.75 1.1-1.05s1.6-0.434 2.6-0.4c1 0 1.85 0.15 2.55 0.45 0.733 0.333 1.117 0.7 1.15 1.1 0 0.4-0.383 0.75-1.15 1.051-0.733 0.3-1.583 0.433-2.55 0.399-0.967 0-1.833-0.166-2.6-0.5-0.733-0.3-1.1-0.65-1.1-1.05zm9.65 1.4l-0.75 0.3 1.5 0.6 0.75-0.35c0.433-0.167 0.4-0.351-0.1-0.55-0.5-0.233-0.967-0.233-1.4 0zm2-1.75c0.4-0.101 0.8-0.084 1.2 0.05l4.7 1.85c0.434 0.167 0.467 0.334 0.101 0.5-0.367 0.134-0.75 0.117-1.15-0.05l-4.7-1.85c-0.468-0.167-0.518-0.334-0.151-0.5zm-3.2 1.3c1.2-0.533 2.45-0.55 3.75-0.05 0.9 0.366 0.983 0.767 0.25 1.199l2.75 0.051 0.5 0.1c0.4 0.2 0.434 0.35 0.1 0.45-0.166 0.133-0.383 0.166-0.649 0.1l-3.85-0.2v0.05l1.8 0.699c0.367 0.134 0.4 0.284 0.1 0.45-0.333 0.167-0.733 0.167-1.2 0l-4.75-1.85c-0.433-0.167-0.466-0.334-0.1-0.5l1.299-0.499zm2.15 3.45c0.1 0.366-0.233 0.716-1 1.05l-1.25 0.5c-0.433 0.166-0.833 0.166-1.2 0l-4.8-1.75c-0.433-0.167-0.467-0.334-0.1-0.5l1.2-0.5c1.767-0.733 3.683-0.7 5.75 0.1 0.867 0.334 1.333 0.7 1.4 1.1zm-4.7-4.3c-0.067-0.199-0.333-0.399-0.8-0.6-1-0.467-2-0.517-3-0.15-0.467 0.167-0.65 0.384-0.55 0.65 0.033 0.2 0.283 0.4 0.75 0.6 1.066 0.434 2.066 0.483 3 0.15 0.467-0.2 0.667-0.417 0.6-0.65zm-1.95 3.8l3.75 1.4 0.75-0.3c0.867-0.366 0.717-0.783-0.45-1.25-1.3-0.467-2.417-0.5-3.35-0.1l-0.7 0.25zm19.25-10.4c-0.866-0.233-0.9-0.566-0.1-1l-3 1.25h4.649c-0.599-0.033-1.115-0.116-1.549-0.25zm3.85 1.3l-1.05-0.45c-0.399-0.166-0.8-0.25-1.2-0.25l-6.699-0.1 6.649-2.8 1.15 2.399c0.133 0.233 0.35 0.384 0.649 0.45l1.2 0.4 1.65-0.05c0.566-0.034 0.983-0.034 1.25 0-0.101 0.399-0.45 0.733-1.05 1l-0.049 0.051c-0.3 0.2-0.767 0.35-1.399 0.45l-0.8 0.149-0.301-1.249zm-3.55 2l3.55 0.15c0.434 0 0.733 0.033 0.9 0.1 0.4 0.167 0.4 0.316 0 0.45-0.134 0.066-0.434 0.1-0.9 0.1l-4.1-0.149 2.05 0.85c0.367 0.134 0.384 0.283 0.05 0.45-0.366 0.134-0.733 0.116-1.1-0.05l-4.7-1.9c-0.333-0.166-0.35-0.333-0.05-0.5 0.4-0.133 0.783-0.116 1.15 0.05l1.75 0.7-0.351-1.6c0-0.134 0.066-0.217 0.2-0.25 0.366-0.167 0.733-0.167 1.1 0 0.2 0.066 0.301 0.2 0.301 0.399l0.15 1.2zm5.85-1.6c-0.7 0.033-1.15 0-1.351-0.101l0.25 0.45 1.101-0.349zm-10.95 2.2l4.6 1.899c0.2 0.066 0.3 0.15 0.3 0.25 0 0.101-0.083 0.167-0.25 0.2l-0.699 0.1-5.651-0.449 3 1.25c0.2 0.066 0.3 0.149 0.3 0.25 0.033 0.066-0.033 0.133-0.2 0.199-0.333 0.167-0.716 0.167-1.149 0l-4.701-1.849c-0.433-0.2-0.467-0.366-0.1-0.5l0.75-0.1 5.8 0.449-3.1-1.249c-0.366-0.166-0.399-0.333-0.1-0.5 0.366-0.166 0.767-0.15 1.2 0.05z" fill="#933410"/>
</g>
</svg>
