<?xml version="1.0" encoding="UTF-8"?>
<svg viewBox="0 0 744.09447 1052.362179" xmlns="http://www.w3.org/2000/svg">
 <defs>
  <linearGradient id="b" x1="231.55" x2="320.7" gradientUnits="userSpaceOnUse">
   <stop stop-color="#a11f7c" offset="0"/>
   <stop stop-color="#541f31" stop-opacity=".984" offset="1"/>
  </linearGradient>
  <radialGradient id="a" cx="639.48" cy="347.09" r="32.771" gradientTransform="matrix(1.2656 1.1972 -1.3215 1.397 287.5 -902.59)" gradientUnits="userSpaceOnUse">
   <stop stop-color="#800000" offset="0"/>
   <stop stop-color="#b576a3" offset="1"/>
  </radialGradient>
 </defs>
 <g transform="matrix(1.1352 0 0 1.4099 -45.339 -357.06)">
  <path d="m278.6 534.76s-31.9-28.787-49.497-41.012c-14.742-10.242-34.265-13.894-46.669-26.87-10.635-11.126-19.066-25.772-21.213-41.012-2.3475-16.661 3.512-33.931 9.8995-49.497 7.4948-18.265 19.46-34.698 32.527-49.497 11.066-12.534 23.507-24.517 38.184-32.527 18.588-10.145 39.829-15.526 60.811-18.385 20.557-2.8013 41.731-1.8151 62.225 1.4142 27.698 4.3644 55.442 11.681 80.61 24.042 16.675 8.1894 34.822 17.156 45.255 32.527 8.732 12.866 10.491 29.727 11.314 45.255 1.2594 23.767-0.8224 48.71-9.8995 70.711-7.1915 17.431-21.721 30.894-33.941 45.255-11.451 13.457-36.77 38.184-36.77 38.184l-1.4142 8.4853 14.142 21.213s43.091-9.8687 65.054-11.314c23.068-1.5177 46.296 0.50258 69.296 2.8284 17.58 1.7777 35.827 2.1607 52.326 8.4853 7.3259 2.8082 14.871 6.6229 19.799 12.728 5.0596 6.2681 7.2515 14.667 8.4853 22.627 2.8195 18.192 1.2431 37.201-2.8284 55.154-1.3554 5.9765-2.0275 13.489-7.0711 16.971-12.033 8.3054-29.262 2.5324-43.841 1.4142-22.954-1.7606-46.062-5.3878-67.882-12.728-18.983-6.3855-53.74-26.87-53.74-26.87s10.995 26.898 14.142 41.012c2.8892 12.957 5.667 26.4 4.2426 39.598-0.47986 4.4463-4.2426 12.728-4.2426 12.728s51.888 25.662 76.368 41.012c19.732 12.373 39.784 24.865 56.569 41.012 12.097 11.638 29.417 22.898 31.113 39.598 2.4484 24.12-16.24 47.095-32.527 65.054-13.092 14.435-31.154 24.534-49.497 31.113-17.447 6.257-37.964 14.004-55.154 7.0711-37.006-14.925-54.831-58.881-74.953-93.338-12.802-21.922-28.284-70.711-28.284-70.711s-26.86 10.582-41.012 12.728c-12.118 1.8372-24.743 2.3648-36.77 0-10.995-2.1619-31.113-12.728-31.113-12.728s-7.1474 56.11-14.142 83.439c-6.432 25.13-10.266 52.512-25.456 73.539-5.9076 8.1779-14.486 15.15-24.042 18.385-18.307 6.1975-38.777 2.167-57.983 0-16.818-1.8976-34.349-3.7651-49.497-11.314-10.48-5.2225-20.36-12.894-26.87-22.627-6.0503-9.0465-10.406-20.241-9.8995-31.113 0.78698-16.88 10.951-32.272 19.799-46.669 10.334-16.816 24.725-30.818 38.184-45.255 15.686-16.825 31.265-34.059 49.497-48.083 10.894-8.3793 30.096-8.5157 35.355-21.213 4.4628-10.774-7.401-22.33-8.4853-33.941-1.4928-15.986-0.5942-32.397 2.8284-48.083 1.9408-8.8951 9.8995-25.456 9.8995-25.456s-20.803 18.237-32.527 25.456c-15.083 9.2881-31.321 16.9-48.083 22.627-12.338 4.2158-25.168 9.2542-38.184 8.4853-9.9715-0.58903-20.572-3.5518-28.284-9.8995-12.235-10.07-18.052-26.341-24.042-41.012-5.877-14.396-16.139-30.473-11.314-45.255 3.4277-10.5 25.456-21.213 25.456-21.213s27.147-7.5444 41.012-9.8995c18.683-3.1735 37.635-4.8733 56.569-5.6569 27.793-1.1502 83.439 1.4142 83.439 1.4142z" fill="#d4aa00" stroke="#000" stroke-width="7.0866"/>
  <path d="m281.43 543.25s-16.879-29.805-30.909-36.719c-57.71-28.439-78.421-48.774-85.764-72.882-8.1449-26.741 12.278-64.261 12.278-64.261s90.399 181.51 175.11 161.84c47.217-10.961 139.09-87.888 139.09-87.888 4.5626 4.5626-20.807 37.465-33.027 51.826-11.451 13.457-45.255 48.083-45.255 48.083z" fill="#a80"/>
  <path d="m183.88 607.88c-46.594 0.58884-86.448 9.529-100.16 44.875-2.9682 7.6533 4.8667 16.611 11.031 22.031 7.5014 6.596 18.31 9.286 28.281 9.875 13.016 0.76886 25.849-4.2529 38.188-8.4688 16.762-5.7276 33.01-13.337 48.094-22.625 11.723-7.2191 32.531-25.469 32.531-25.469l-9.9062 25.469-2.8438 48.062 8.5 33.969 16.625 55.188c9.8587 32.703-35.469 137.09-35.469 137.09-16.758-11.105-144.24-109.18-114.09 0.03125l26.875 22.625 49.5 11.312h57.969l24.031-18.375 25.469-73.531 14.156-83.438 31.094 12.719h36.781l41-12.719 28.281 70.688c23.681 39.582 55.219 89.706 83.969 96.344l43.312-12.188s-5.3618-16.523-9.6562-24c-11.269-19.621-41.594-53.625-41.594-53.625l-81.562-80.031 53.625-58 4.25-12.75-4.25-39.594-14.156-41 53.75 26.875 67.875 12.719 43.844-1.4062c8.9359-22.196 19.007-24.273 5.4062-53.75 0 0-42.318 11.855-64.094 13.375-38.666 2.6994-77.305-1.4044-115.97-6.3125 10.335 29.364 12.38 63.181 3.4375 92.531-4.7038 15.438-16.757 28.776-30 38-23.009 16.026-52.047 23.792-80 26-25.568 2.0193-55.909 3.9418-76-12-18.038-14.313-21.383-41.441-26-64-6.076-29.689-8.2205-56.332-0.15504-84.257-20.449-1.3539-52.453-12.49-71.97-12.243z" fill="#a80"/>
  <path d="m88.719 566.59c-11.173 0.50151-21.344 11.205-26.5 21.188-2.8144 5.4489-1.7313 12.363-0.6875 18.406 2.3764 13.759 9.8848 26.105 15.531 38.875 3.7089 8.3878 6.2179 17.657 12.031 24.75 4.6914 5.7244 10.746 10.87 17.688 13.438 7.5291 2.7852 18.268 6.9941 24.031 1.4062 12.189-11.817 1.5824-34.194-1.4062-50.906-2.9786-16.656-6.6494-34.183-16.281-48.094-5.721-8.2626-13.264-18.912-23.312-19.062-0.36238-5e-3 -0.73334-0.0162-1.0938 0z" fill="#806600" opacity=".8" stroke="#000" stroke-dasharray="2.9976378, 2.9976378" stroke-width=".99921"/>
  <path d="m98.5 882.36 32 2 55 29 53.5 31.5 8.5 14-13.5 6-49-3.5-19.5-2-33-7.5-30.5-26.5-6.5-28.5z" fill="#806600" opacity=".8053" stroke="#000" stroke-dasharray="1.9984252, 1.9984252" stroke-width=".99921"/>
  <path d="m617.66 674.06c-8.2081-2.5555-16.88-6.9352-21.567-14.142-4.3621-6.7082-2.861-15.753-3.8891-23.688-1.2777-9.8619-3.8388-19.806-2.8284-29.698 0.81428-7.9733 3.8621-15.637 7.0711-22.981 3.7633-8.6131 5.1377-21.699 14.142-24.395 8.5834-2.5697 17.403 6.0041 24.042 12.021 5.5724 5.0501 9.3539 12.06 12.021 19.092 3.346 8.8222 4.2594 18.501 4.5962 27.931 0.3675 10.29-0.91965 20.641-2.8284 30.759-1.0234 5.4245-1.6278 11.256-4.5962 15.91-2.6052 4.0847-6.4035 7.8999-10.96 9.5459-4.7675 1.7222-10.363 1.1533-15.203-0.35356z" fill="#806600" opacity=".7876" stroke="#000" stroke-dasharray="2.9976378, 2.9976378" stroke-width=".99921"/>
  <path d="m519.72 954.78c-8.5466-1.7515-17.441-8.0956-20.506-16.263-3.2002-8.5266 0.55332-18.894 4.9498-26.87 8.052-14.608 22.919-24.647 36.77-33.941 16.199-10.87 34.882-17.601 53.033-24.749 17.061-6.7182 36.288-25.859 52.326-16.971 5.1 2.8267 4.4474 11.143 4.2426 16.971-0.40041 11.397-5.14 22.518-10.607 32.527-7.1466 13.084-16.586 25.406-28.284 34.648-13.152 10.391-29.56 16.037-45.255 21.92-15.098 5.66-30.873 15.965-46.669 12.728z" fill="#806600" opacity=".72" stroke="#000" stroke-dasharray="2.9976378, 2.9976378" stroke-width=".99921"/>
  <path d="m287 542.36s72.493 11.556 91 3c25.891-11.97 32-3 32-3" fill="#540"/>
  <path d="m134 613.36c0-3.4515 39.751-2.0204 56 2 29.767 7.3652 55.277-5.5539 55-5" fill="#540"/>
  <path d="m467.92 627.34s49.23-10.025 85.171 9.5839c11.247 6.1363 32.912-5.5485 32.912-5.5485" fill="#540"/>
  <path d="m221 929.36s2.0156-40.709 28-86c19.189-33.447 20.122-65.061 20-65" fill="#2b2200"/>
  <path d="m431 782.36s60.386 35.228 94 95c10.256 18.237 7 1 7 1" fill="#2b2200"/>
  <path d="m263 565.36s-13.234 22.589-17 35c-2.8334 9.3378-4 29-4 29" fill="#540"/>
  <path d="m437 574.36s14.659 19.908 23 29c15.83 17.256 9 30 9 30" fill="#540"/>
  <path d="m242 732.36s42.064 11.794 34 36c-3.9334 11.808 27 14 27 14" fill="#540"/>
  <path d="m409 779.36s21.141-24.533 38-27c37.399-5.4738 37-28 37-28" fill="#540"/>
  <path d="m296.17659,538.12388c.0202,1.85807 2.08423,3.69368 1.86892,5.56336-.002.0175-.33994,1.02748-.4387,1.32299-.0198,1.30757.10605,2.61075.10724,3.91955h-2.82842c.002-1.62981-.27842-3.27639.063-4.88615 .0803-.21176.10469-.45438.24094-.63529 .0562-.0746-.004.19087.0275.2789 .0146.0412.11402.12502.10115.0833-.48361-1.56872-1.49797-2.94644-1.76777-4.5962l2.62613-1.05045z" fill="#ffd42a"/>
  <path d="m311.279,539.33571c.70806,1.58911 2.09018,3.43529 1.79253,5.3238-.0654.41463-.28061.79332-.4667,1.16955-.25352.51255-.56077.45375-.24605.48419 .25266,1.57333.22375,3.17249.19881,4.76029-.021,1.09418-.0132.57766-.0248,1.54954l-2.82822-.0338c.0119-.9893.004-.46909.0249-1.56063 .0293-1.82785-.11492-3.63804-.0995-5.45961 .22656-.5965.41634-1.22371.54945-1.19519 .0954.0204-.002.3581.0636.28566 .52436-.58135-1.30187-3.59747-1.38945-3.86858l2.42535-1.45522z" fill="#ffd42a"/>
  <path d="m323.47389,538.37176c.54322,4.30115.11882,1.51555.88388,5.48007 .30243,1.56716.76125,3.01426.0469,4.4963 .0265-.008.0728-.0498.0795-.0231 .17564.70032.0879,2.64687.0944,3.45549l-.006.70721-2.82834-.0228 .006-.66281c-.0118-1.63278-.30806-3.34027.22912-4.90922-.0152.0928.0277.37517.0252.28112-.0492-1.85015-.67535-3.71186-.96716-5.5211-.14582-.90406-.22467-1.81765-.33701-2.72648l2.7735-.5547z" fill="#ffd42a"/>
  <path d="m343.97999,540.34067c-.45416,1.15246-.25036,2.41055-.51152,3.59113-.81821,3.69872-.0661-.36538-.8116,1.89726-.0194.0588.0896.0943.10222.15491 .0403.19329.0354.3933.0532.58995 .23556,1.48158.16428,2.9756.12861,4.46691-.008,1.40958.009,2.81912.008,4.22874-.002.94155-.001.47095-.002,1.4118l-2.82842-.004c.001-.94132.00057-.47118.002-1.41042 .001-1.43132-.0175-2.86256-.007-4.29383 .0342-1.41996.10459-2.83967-.12551-4.25039-.0391-1.20963-.12566-1.10096.24378-2.34873 .32908-1.11147.0112,1.26312.42583-.75439 .25984-1.26445.10739-2.59525.54915-3.83349l2.7735.5547z" fill="#ffd42a"/>
  <path d="m362.64463,539.17433c-.41477,1.24901-.81573,2.21325-.99319,3.49387-.56181.74747.26952.33673.23793.74014-.0473.60442-.19236,1.19719-.28854,1.79579-.74615,1.11948-.34251,2.36604-.24062,3.61287 .0187,1.4408-.0441,2.8803-.0356,4.32162 .002.235.004.47.005.70501l-2.82834.0221-.006-.71059c-.008-1.37162.0395-2.74144.0445-4.11256-.13939-1.78806-.50011-3.5866.57697-5.19282 .0806.27451.22851.53774.24179.82352 .008.17073-.16816-.29957-.22493-.46078-.11142-.31639-.2402-.63386-.27793-.96717-.19931-1.76086.68592-3.4957 1.16181-5.12142l2.62613,1.05045z" fill="#ffd42a"/>
  <path d="m379.21349,538.3702c.61358,1.8165 1.65872,4.70985 2.04225,6.61791 .213,1.0597.27809,2.14397.39546,3.21848 .20874,1.91096.39306,3.79096.31759,5.70953-.22971,1.36525-.15833,2.73746-.12599,4.11214 .008.99264.007.49734.003,1.48589l-2.82841-.0108c.004-.94127.005-.47166-.002-1.40883-.0336-1.43838-.10684-2.8785.12813-4.30684 .0942-1.75708-.12182-3.50311-.30114-5.25063-.0956-.93153-.12896-1.8735-.31164-2.79193-.32444-1.63117-1.32686-4.52632-1.84684-6.11002l2.52983-1.26491z" fill="#ffd42a"/>
  <path d="m395.2 536.43c1.0266 2.6572 1.5765 5.4366 2.4749 8.1317l-2.6833 0.89443c-0.8987-2.6961-1.4555-5.4715-2.4749-8.1317l2.6833-0.89442z" fill="#ffd42a"/>
  <path d="m436.82032,579.40889c4.65408-1.34341.57413-.28228 5.08315-1.14536 1.22269-.23404 1.98157-.65555 3.21102-.40397 1.29979.16317 2.6193.0439 3.92577.0231l3.50256.0136v2.82843l-3.45803-.014c-1.5808.0246-3.18637.18734-4.74733-.13158 .29693-.12745.65295-.18653-.46173.10057-1.99986.5151-4.05945.60891-6.00496,1.35529l-1.05045-2.62613z" fill="#ffd42a"/>
  <path d="m444.16421,598.22796c.4998-.88377.87071-1.85406 1.49939-2.6513 1.93151-2.44934 5.15085-4.57646 8.23068-5.24438 .40385-.0876.82339-.0712 1.23509-.10681 .72208.17056 2.72313.45713-.53854.7329-.15126.0128.13827-.2838.26093-.37322 1.12591-.82078 1.0383-.65838 2.29812-.7899l.16609,2.82355c-.12601-.01-.32355.085-.37802-.029-.0569-.11911.14451-.22187.20126-.34104 .0209-.0439-.0489.0915-.0926.11291-1.78823.8744-1.68841,1.43141-1.77598.68871-2.16592-.0749-5.87566,2.36339-7.15124,3.92958-.55889.68622-.88602,1.53231-1.32903,2.29846l-2.62613-1.05045z" fill="#ffd42a"/>
  <path d="m453.96255,610.42044h5.3033c2.70462,0 3.33378.21682 5.06247-1.84618 .31817-.89815.4657-1.85655 1.04117-2.64785 .24245-.33338.58236-.58488.84826-.89988 .26196-.31032.44249-.68135.67688-1.01298 .14818-.70064.0218-.2566.53279-1.27845l2.51463,1.29485c-.48626.9028-.22531.37116-.73779,1.61627-.16382.2317-.88867,1.26517-1.02459,1.41769-.44691.50146-.31797-.0552-.62769.69174-.14772.35627-.20791.74491-.35713,1.10056-.2353.56078-.52925,1.0951-.79387,1.64265-1.23694,1.25302-1.45382,1.77561-3.11603,2.36278-2.69101.9506-6.50088.0934-9.3224.38723v-2.82843z" fill="#ffd42a"/>
  <path d="m461.36667,623.70345c.73883-.37096 1.47112-.75523 2.21648-1.11289 .65765-.31557 1.33928-.58034 1.99179-.90642 2.1304-1.06464 4.13944-2.36407 6.25525-3.46002 .43595-.21065 1.72723-.76291 2.15964-1.19215 .0472-.0468-.0914-.0966-.13706-.14488 .0803-.14054.10522-.33352.24103-.42163 1.07214-.69554 1.3178-.68299 2.32975-.89773 1.27591-.2034 1.04617.18364 1.28716-.40796l1.57579,2.34881c-1.54708.83824-.76371.58936-2.32018.83501-.84288.1553-2.0481.5905-.42134-.46684 .0994-.0646-.11298.20893-.17881.30758-.27532.41249-.49004.87794-.84418,1.22513-.46582.4567-1.83016,1.05578-2.39236,1.32692-3.44729,1.78036-6.72888,3.86688-10.30774,5.39243l-1.45522-2.42536z" fill="#ffd42a"/>
  <path d="m485.68121,625.09801c.35725.95237.70457,1.90852 1.07177,2.85709 .33995.87823.68249,1.75575 1.04955,2.62299 .0116.0275 1.1753,2.45509 1.25344,2.95875 .0603.38892.31665,1.33402-.0455,1.17984-.77509-.33001-1.10648-1.27058-1.65972-1.90588 1.84164-.30344 1.0109-.42233 2.5128.15536l-1.22395,2.54989c-.1613-.31017-.10983-.10451.43567-.46337-.93626-.34066-1.83279-.82178-2.80877-1.02199-.16021-.0329.19895.62164.1313.47274-1.23802-2.72528-2.28533-5.5531-3.34275-8.35496l2.62613-1.05046z" fill="#ffd42a"/>
  <path d="m504.5 620.55c-0.34906 2.6819-0.78911 5.4258-0.30936 8.1087 0.0403 1.5066-0.0363 3.0125-0.036 4.5193h-2.8284c2.5e-4 -1.3518 0.0308-2.7033 0.0745-4.0543-0.41307-3.0119-0.19581-6.0318 0.30936-9.0387l2.79 0.46499z" fill="#ffd42a"/>
  <path d="m521.74 623.32c-0.63368 2.0878-1.211 4.1699-1.6941 6.2929-0.099 0.43511-0.61436 1.7363-0.50286 2.3301 0.25138 1.6319 0.23975 3.2851 0.19841 4.9308l-2.8275-0.0725c0.0425-1.6236 0.0288-3.2465-0.19934-4.8582 0.0439-1.0343 0.32576-1.8739 0.55779-2.8848 0.52585-2.291 1.1284-4.5432 1.8415-6.7886l2.6261 1.0504z" fill="#ffd42a"/>
  <path d="m543.5276,626.76126c-1.46844,2.4338-3.26015,4.56716-3.67904,7.44783-.0214.14729.0707-.29507.0551-.44309 .10348.27334.3508.53055.31045.82003-.54941,3.94138-.3146.71776-.96203,2.07359-.0273.0571.0327.1229.0384.18592 .0529.57625.0762,1.15483.11832,1.73196l.0934,1.29619-2.82112.20322c-.0315-.43709-.063-.87418-.0944-1.31127-.086-1.39512-.2169-2.67459.51032-3.93785 .11547-.20058.31864-.71434.45319-.52603 .37656.527-.2871,1.43802 8e-005,1.03317-.12402-.23555-.29963-.45048-.37207-.70663-.77172-2.72907 2.74928-7.32107 3.99599-9.43597l2.3534,1.56893z" fill="#ffd42a"/>
  <path d="m562.07732,627.83822c-.36245,1.81135-1.1489,3.67244-.98809,5.56319 .008.0931.0394-.18625.0275-.2789-.009-.0695-.1171-.25455-.0881-.19077l.46038,1.01056c.079,1.66778-.0543,3.33752-.0685,5.00695-.003.41198-.0588.82823.0002,1.23597 .0465.32141.20823.61523.31234.92284l.33544.93548-2.66559.94585-.39376-1.11956c-.13895-.56153-.33643-1.11175-.41686-1.68461-.0595-.42355-.004-.85542.0002-1.2831 .0123-1.42347.027-2.85712.15251-4.27382 .76627.8199-.36624-.35096-.48417-1.22689-.29159-2.16594.78335-4.39156 1.13324-6.45762l2.68328.89443z" fill="#ffd42a"/>
  <path d="m581.24 626.68v10.032c0 0.22833 0.1972 0.80012 0 0.68501-0.56606-0.33043-0.88085-0.97086-1.3213-1.4563l0.52125 2.78c-0.67613-0.44124-1.4547-0.7556-2.0284-1.3237-0.10549-0.10447 0.069-2.1863 0-2.4086v-8.3085h2.8284z" fill="#ffd42a"/>
  <path d="m592.32299,572.60947c1.76964-.15756 3.56362-.6785 5.35902-.54957 .62258.0447 1.21526.19304 1.84621.22315 1.35106-.006 3.16784-.36701 3.98572,1.11423 .19146.34675.31034.72887.4655,1.09331 .29071.54131.096.5658.43409.39772l-1.6411,2.30365c-1.33037-1.20835-.87106-.53691-1.51046-1.91694 .58904.0815-.60301-.0493-.13261-.29815 .21595-.11423.73905-.15644.72764.0876-.003.0542-2.36136.0391-2.48567.0427-.18109-.0111-1.51579-.20655-1.68932-.21879-1.64088-.11578-3.2759.3761-4.89403.51109l-.46499-2.78995z" fill="#ffd42a"/>
  <path d="m590.90877,590.99425c2.00284-.28408 4.03221-.64825 6.06613-.54957 .14544.007 1.12104.27533 1.32446.23189 .91451-.0293 1.82898-.0532 2.74386-.066l.0393,2.82816c-1.04477.0143-2.08917.0678-3.13396.0444-.32736-.0554-.64208-.19273-.97364-.21005-1.87835-.0981-3.75171.25185-5.60114.51109l-.46499-2.78994z" fill="#ffd42a"/>
  <path d="m588.38905,583.9314c1.84804-.33662 3.62297-1.32455 5.52493-1.42243 .84501-.0435 1.72667.30482 2.5665.38858 1.50958.0867 3.01267-.0826 4.52265-.0708l-.0242,2.82832c-1.61372-.0152-3.22216.18993-4.83547.0507-.44162-.059-.88625-.0987-1.32487-.17693-.17366-.031-.35125-.068-.50755-.14982-.031-.0162.10281-.0829.0679-.0802-1.87274.14492-3.60466,1.07622-5.43522,1.40599l-.5547-2.7735z" fill="#ffd42a"/>
  <path d="m587.68 613.63c2.0626-0.5358 4.1333-1.3403 6.2891-1.4308 0.99576-0.0418 1.8628 0.26715 2.8267 0.40413 1.4139 0.0489 2.8226-0.0887 4.238-0.078l-0.023 2.8283c-1.5543-0.0137-3.104 0.17408-4.6561 0.0435-0.52179-0.0879-1.4677-0.40831-2.0347-0.39136-2.0876 0.0624-4.084 0.92372-6.0852 1.3977l-0.5547-2.7735z" fill="#ffd42a"/>
  <path d="m584.60564,646.58404c6.67636-1.92715-.91549.17206 4.69166-1.139 1.47048-.34383 1.17004-.64417 2.93729-.45507 1.74281.19161 3.49083.10337 5.23712.0679l2.12941.0108-.021,2.82834c-.68415-.005-1.36829-.0132-2.05246-.0113-1.87529.0361-3.75266.12575-5.6236-.0867-.19536-.0262-.41348.0165-.58606-.0787-.0815-.0449.34639-.13577.26006-.10115-1.92562.77207-3.96893.8844-5.92202,1.59099l-1.05045-2.62613z" fill="#ffd42a"/>
  <path d="m585.66162,636.18619c4.2138-2.64961 1.60035-1.10306 5.69802-3.3255 .52619-.28539 1.06423-.55164 1.5697-.8723 .82835-.52549-.10496-.6448 1.60336-.77744 .41294-.0321.81528.14671 1.22292.22007 .51077.14798 1.2079.4723 1.76909.31372 .20833-.0589.37085-.22587.56893-.31321 .95627-.42166 1.10537-.41471 2.10464-.66513 1.02393-.16645 2.01345.14386 3.02685.21425l-.22276,2.81964c-.72414-.062-1.42979-.18391-2.14663-.28293-2.25224.49908-3.52478,1.65997-5.93192.61701 .0699-.12636.35182-.44604.2314-.36631-.30527.20212-.54453.49449-.85227.69282-.53279.34336-4.10812,2.21965-4.17992,2.26111-.91552.52863-1.79633,1.11522-2.6945,1.67283l-1.76691-2.20863z" fill="#ffd42a"/>
  <path d="m592.9697,663.86767 4.77297-4.77297c.2357-.23571.42528-.5291.7071-.70711 .62819-.39679.99552-.44133 1.60654-.56353 1.51274-.144 3.03552-.0161 4.55313-.0164 .0867-.45442-.022-.16834.72862-.55866l1.3049,2.50943c-1.11629.58047-.44851.26562-2.03352.87765-1.33319-.00028-2.66627-.0776-3.99843-.0385-.14732.0295-.35045.20755-.44194.0884-.0832-.1083.37928-.39286.2807-.29836-1.86447,1.78728-3.62201,3.68611-5.48007,5.48008l-2-2z" fill="#ffd42a"/>
  <path d="m249.27564,572.79177c1.76504.70199 2.8878,2.40789 4.59619,3.18198 .70669.3202.34741.005 1.12855.0636 .53615.0404 1.06348.15934 1.59521.23901 1.87995.44999 3.77192.29103 5.66723.17753 .97134-.006 1.94237.0236 2.91367.0324l-.0257,2.82831c-.90989-.008-1.81949-.0311-2.72936-.0367-2.09836.10723-4.19589.28114-6.27626-.20917-.38161-.0676-.75934-.16289-1.14483-.20293-.50051-.052-1.01268.0169-1.50787-.0726-2.25745-.40776-3.63937-2.71531-5.67208-3.57611l1.45521-2.42535z" fill="#ffd42a"/>
  <path d="m243.59829,588.50013c2.61739.19011 5.31668-.40977 7.87874.38102 1.73019.53402 3.17051,1.68725 4.63561,2.69743 1.01246.74225 2.47557,1.22063 3.242,2.28328 .25151.34871.21228,1.43011.78171,1.28471 .76824-.3039 1.50944,1.03138 1.90386,1.42357 .0851.0846.21181.11281.31771.16922l.65181.78182-2.27983,1.67404c-.18288-.5825.0629.082-.93083-.8996-.95135-.93972 1.38411-.0118-1.41623-.92977-.39984-.37544-.98677-.76722-1.11781-1.36771-.0137-.0625.22235.01.187-.0434-.65108-.98263-2.09314-1.33927-2.94518-2.04775-1.11192-.76702-2.28793-1.80231-3.58452-2.25232-2.35357-.81685-4.91139-.0468-7.32404-.32609v-2.82843z" fill="#ffd42a"/>
  <path d="m242.12341,603.05648c1.75415,1.52911 3.1879,3.42957 4.94975,4.94975 .0368.0318-.2402-.19151.0485-.29836 4.86792,1.17933-.68121-.24306 2.18583.65358 .34195.10694.73089-.0203 1.07082.0929 .91058.3032 1.00311.42361 1.56554.87627-.25522-.47605 1.73803,1.10033 1.8582,1.18887l-1.68573,2.2712c-.40602-.30415-.91211-.50035-1.23103-.89487-.0679-.084.4184.0855.32204.0366-.33103-.16783-.69269-.26677-1.03903-.40016-.1046-.0846-.37543-.13411-.3138-.25366 .0677-.13126.59014.0159.44303.003-.74838-.0655-2.22698-.0767-2.83689-.622-.0695-.0622.14381-.11885.21572-.17828-1.82036.29319-2.38025-.25221-3.66384-1.5358l-3.88909-3.88909 2-2z" fill="#ffd42a"/>
  <path d="m236.17 623.15h16.23v2.8284h-16.23v-2.8284z" fill="#ffd42a"/>
  <path d="m219.2031,617.49151c.22099-1.83041-.5799-6.74791.53989-8.21465 .30596-.40077.7903-.62637 1.18545-.93955 1.38821-.88456-1.66878.54778.56644-1.09681 .74115-.5453 2.03912-.83867 2.95076-1.05777l-.1789-.0905 1.93774,2.06038-1.10698.78237c-.24944.058-.50065.10884-.74832.17398-.33302.0876-.67763.42188-.99319.28407-.21033-.0919.32071-.33157.44962-.52145 .0149-.0219-.0484-.0749-.0607-.0514-.91609,1.74357-.09.84412-1.31737,1.91559-.13588-.0331-.37241-.27643-.39598-.13859-.0596.34849 0,.70711 0,1.06066v5.83363h-2.82843z" fill="#ffd42a"/>
  <path d="m197.65559,619.13822c-.82585-3.13958-2.49346-7.0691-.71359-10.21527 .28651-.50645.75163-.88847 1.12745-1.3327 .73589-1.07069 1.99802-1.06451 3.08357-1.45214 .13765-.0491.22823-.18615.35842-.25257 .27797-.14182.57353-.24616.86029-.36923-.63921-.33123 1.39935-1.7559 1.74745-1.92291 .36741-.17627.75483-.32225 1.15436-.40251 .38645-.0776.7871-.0444 1.18066-.0666-.97567.13313.73662-.73253-.41413.0103l2.68426.89148c-.79003,1.33852-.78736,1.42934-2.2406,1.92651-.68154-.0839-.76749.0594-1.38642.36562-.0539.0267-.14344-.0332-.1797.0148-.20618.2725-.29137.62565-.506.89154-.27152.33638-.62479.5976-.93719.89639-.59845.24876-1.1686.56492-1.77545.79241-.15329.0575-.32621.039-.48433.0814-.23125.062-.44074.23306-.68015.23088-.0905-.00082.20706-.29038.13479-.23584-.20655.15586-.36615.36571-.54922.54857-.18398.14502-.41158.2475-.55193.43507-1.52426,2.03709.37945,6.60882.8774,8.69983l-2.78994.46499z" fill="#ffd42a"/>
  <path d="m189.40347,604.93526c-.76408,2.56594-2.25198,4.87841-2.58672,7.57095-.056.45049.0475.90757.0362,1.36138-.0187.75233-.0797.94757-.21046,1.58842-.009,1.15849.0445,2.32608.0447,3.48839-.0169,1.39783-.0138,2.79573-.0111,4.19363 .00092.95212.00069.47646.00069,1.42697h-2.82843c0-.94686.00023-.47303-.00068-1.42149-.003-1.39972-.006-2.79945.011-4.19911 .00024-1.36594-.12286-2.74459.0226-4.10197 .26325-.988.0366-1.9549.17932-2.97222 .39716-2.83197 1.86456-5.29263 2.71658-7.9854l2.62613,1.05045z" fill="#ffd42a"/>
  <path d="m171.04727,604.5037-1.10244,2.58474c-.22177.67049-.39346,1.35967-.66533,2.01145-.17169.41162-.45984.76537-.65929,1.16428-.0379.0759-.12707.28017-.0478.24993 .29282-.11169-.0308-.73235.26517.0779 .45325,1.83998.17083,3.7505.13863,5.62154 .006.63871.0175,1.27732.025,1.91601l-2.82824.0333c-.008-.66691-.0209-1.33374-.0247-2.0007 .0296-1.55493.24113-3.13269.006-4.67569-.2995-.94511-.42117-1.75394.0406-2.67743 .10805-.21608.31053-.37962.40137-.60349 .29497-.72693.49925-1.48746.74888-2.23119l1.01889-2.365 2.68328.89443z" fill="#ffd42a"/>
  <path d="m149.90664,609.71334v7.07107 .57452c0,1.92121-.33864-.679.37464.63585 .47784.88085.43638,1.4781.44858.82797l-2,2-.70292-.93022c.0303-.0253.10932-.041.0908-.0759-.0857-.16166-.26013-.26253-.35355-.41984-.63092-1.06246-.76882-1.48877-.68602-2.61242v-7.07107h2.82843z" fill="#ffd42a"/>
  <path d="m105.6 582.06c1.7928-1.9418 3.2303-4.6006 5.9834-5.3127 1.505-0.38928 3.1116 0.17529 4.5746 0.46775 1.3257 0.23711 2.6418-0.0571 3.9763-0.0606l1.5174 0.0335-0.0628 2.8277-1.4546-0.0328c-1.5169-5e-3 -3.0222 0.36173-4.531 6e-3 -0.76918-0.15392-2.2207-0.64958-3.0268-0.59291-2.115 0.14869-3.2008 3.0915-4.6232 4.2333l-2.3534-1.5689z" fill="#ffd42a"/>
  <path d="m112.84419,606.59202c1.10461-1.59051 2.48192-2.94287 3.98373-4.1523 .24828-.19993.47717-.43607.76394-.57527 .461-.22377.98473-.28877 1.46197-.47543 .98603-.16171 1.85128-.64904 2.82508-.87472 .37289-.0864.76062-.0957 1.13445-.17801 .11137-.0245-.44586.0509-.3421.004 .49342-.225 1.0216-.36426 1.53241-.54639 1.7158-.34334 3.42534.0807 5.1452.0522l.66367-.0195 .0825,2.82723-.70911.0205c-1.49635.0155-2.972-.27449-4.46703-.14389-.98201-.0909.16246-.066-1.50553.60627-.22475.0906-.48523.0343-.72171.0871-.94125.21044-1.79172.69555-2.74339.84886-.24835.0767-.48602.20854-.74505.23011-.0648.005.14269-.20652.0857-.17522-1.83304,1.00707-3.1331,2.93107-4.44472,4.46483l-2-2z" fill="#ffd42a"/>
  <path d="m123.36963,630.77452 2.06447-1.37823c.56288-.31448 1.14788-.59228 1.68865-.94343 .1022-.0664.11066-.23482.21713-.29409 .93988-.52324 1.80098-.51608 2.73212-1.02711 1.62773-1.04814 3.28233-.46222 5.0258-.38478 .92646-.0228 1.8517-.0651 2.77847-.078l.0384,2.82816c-.99227.013-1.98269.0694-2.97506.0739-1.31735-.0841-2.42576-.59994-3.64731.1124-.22977.10168-1.71878.87754-2.23317.77386-.13386-.027.38569-.3857.28071-.29837-.29208.24299-.52946.55277-.84353.76658-1.19005.81017-2.6568,1.17763-3.6715,2.27453l-1.45522-2.42536z" fill="#ffd42a"/>
  <path d="m124.1579,615.78441c1.12488-.91257 4.5789-3.67489 6.13708-3.73075 .99764-.0358 1.23338.19214 1.95449.60125l-1.45522,2.42536c-.51784-.35619-.0944.0251.18673-.28263 .0787-.0861-.24266-.0165-.34846.0327-.42177.1959-.80961.45787-1.21148.6919-2.12816,1.23933-1.22281.64362-3.26314,2.2622l-2-2z" fill="#ffd42a"/>
  <path d="m131.16831,653.55396c2.9528.172 9.85517-1.08725 11.41162,2.54776 .23327.54479.13979,1.177.20968,1.7655 .002.46-.007.24787.0211.63666l-2.82292.17643c-.0344-.61236-.0254-.29428-.0231-.95433 .0994-.00076.26248.0905.29808-.002 .19687-.51305-.94226-.98251-1.01847-1.00701-2.60294-.83684-5.41925-.0643-8.07601-.33432v-2.82842z" fill="#ffd42a"/>
  <path d="m254.05559,731.26105c-1.6254,2.91505-2.73406,6.15738-4.73049,8.84657 .0587.0409.163.0523.17596.12264 .12466.6763.0124,1.37556.0406,2.06268 .0368.90019.0859,1.79648.0946,2.69741-.0332,1.87192-.0383,3.744-.0283,5.61614 .004.62746.002,1.25494.002,1.88241l-2.82843-.003c.00064-.62147.002-1.24296-.002-1.86443-.01-1.86889-.006-3.73775.0283-5.60641-.0173-2.24798-.49327-4.56682.34431-6.71825 .26166-.42139.59412-.79776.83798-1.2297 1.29393-2.29186 2.25432-4.77203 3.53553-7.07107l2.52983,1.26491z" fill="#ffd42a"/>
  <path d="m270.512,746.71484c-1.23883,1.35592-2.37439,2.82078-3.2504,4.44035-.0554.1025.17482-.17223.20154-.28566 .0378-.1607-.01-.65988-.0177-.49498-.0281.58803-.0287,1.17705-.0431,1.76558-.0823.11563-.19219.21592-.24687.34689-.0883.21154.0901.47081.0155.68756-.12228.35508-.89882,1.54024-.79577,1.71763 .24645,1.34793.25995,2.71692.21998,4.0815l-2.82717-.0844c.0476-1.56152-.14753-3.09353-.14462-4.651 .10913-.33627.18797-.68392.32738-1.00881 .0723-.16859.15396-.35228.30272-.45965 .0531-.0383.0835.23352.0988.16984 .19384-.80729.0551-1.70087.69667-2.3685 .0446.50014.54118,1.207.13371,1.50041-.35736.25733-.48435-.76634-.54801-1.20208-.25179-1.72352 2.82856-4.78089 3.66866-5.92159l2.20863,1.7669z" fill="#ffd42a"/>
  <path d="m283.94703,760.85698c-.8063,1.19518-2.8738,2.2162-3.19816,3.81487-.0147.0722.14609.0894.1493.16304 .004.0978-.16563,1.8505-.18315,2.03443-.82357,2.05096-1.66853,4.05853-2.35233,6.16056 .009.95114.17935,1.88971.27221,2.83445l-2.81522.27299c-.12712-1.33207-.41648-2.65683-.14211-3.99631 .40277-1.20043.17731-.60804.67691-1.77694 .1654-.47461.25401-.97472.4339-1.44403 .10897-.28429.31001-.52614.42873-.80649 .16745-.39542.25084-.82384.42741-1.21527 .0537-.11894.16988-.19808.25482-.29712 .0818-.85859.0841-2.44307.3197-3.19422 .56415-1.79878 2.32854-2.99695 3.51936-4.31686l2.20863,1.7669z" fill="#ffd42a"/>
  <path d="m302.23 773.35c-2.4545 3.42-5.33 6.6684-6.9829 10.593-0.0505 0.11999 0.33265-0.14763 0.28385-0.26835-0.60797-1.5038-1.5581-1.0451-0.21238-1.3825 0.52423 0.1878 1.217 0.13496 1.5727 0.5634 0.95018 1.1444 0.2358 3.2668 0.0608 4.5374l-2.8019-0.38646c0.0414-0.29964 0.32584-2.4202 0.36514-2.4582 0.37509-0.3636 0.84849 1.839 1.4893 0.48793-1.7587 0.43849-3.9496-0.0856-3.2873-2.358 0.27443-0.94164 0.81755-1.788 1.3256-2.6269 2.0658-3.4107 3.7758-5.503 6.1871-8.7008l2 2z" fill="#ffd42a"/>
  <path d="m416.40969,769.19338c.69216.11511 1.39407.18204 2.07647.34533 .0295.007 2.36562.72247 2.7676.96579 .33866.20499.65255.46017.91672.75501 .86781.96856.18297.9045.73522.92192 1.58738,1.02855 3.42874,1.55539 5.18028,2.25031 1.38238.74999 2.4897,1.69326 3.16991,3.15326 .22293.4785.27276,1.02103.44829,1.51887 .0849.24072.26106.44001.36526.67302l-2.59141,1.1334c-.15756-.37522-.38497-.72138-.51448-1.10718-.0824-.24558-.0462-.52188-.13452-.76541-.33133-.9137-.98566-1.48724-1.79089-1.97879-2.0134-.80792-4.14764-1.40418-5.92351-2.68839-.27283-.26355-.57284-.50159-.81848-.79065-.0743-.0874-.10246-.20802-.12567-.32036-.009-.0434.0711-.10643.0328-.12888-1.28457-.75418-2.93164-.92759-4.34832-1.16375l.5547-2.7735z" fill="#ffd42a"/>
  <path d="m433.04224,753.67023c2.00029,1.67544 4.0507,3.29019 5.95647,5.07535 .38299.35875.81222.68293 1.1146,1.11183 .52907.75044.51142,1.00975.59099,1.70711-.55919,1.57347-.25383,1.23335-.79022-1.12067l-.89443,2.68328c-1.08598-2.41783-.81419-3.00332-1.14378-1.56261 .0181.10004-.01.22114.0544.30012 .0385.0474.22146.0402.18302-.007-1.9696-2.43115-4.85671-4.01649-7.07107-6.18718l2-2z" fill="#ffd42a"/>
  <path d="m450.42702,745.47784c.89162.12259 1.81259.10992 2.67487.36777 2.36275.70653 5.52901,2.5562 5.5366,5.39807 .001.39484-.14836.77561-.22254,1.16341 .0686-.2425-.0245-.62533.20592-.72749 .22122-.0981.40767.26719.63295.35552 .21809.0855.46943.0671.68408.16089 1.83764.80286 1.68851,1.78757 1.31541,3.44439l-.26197.80829-2.69062-.87213 .25731-.79375c.36141-.3409.0905-.19302.75049.31977 .0825.0641-.13499-.17-.23058-.21204-.90176-.39659-1.97458-.49428-2.61625-1.38394-.39525-.548-.5109-1.25102-.76634-1.87654 .27686-.15644.24027-.75675.0496-.97004-1.38288-1.54708-3.3031-2.24062-5.31894-2.35375v-2.82843z" fill="#ffd42a"/>
  <path d="m467.01657,735.65455c1.20908,4.00471.67844,2.65529 2.21904,6.27962 .22193.52212.61152.99346.69173,1.55509 .0435.30468-.26529-.71912-.57303-.724-.56884-.009-1.26228,1.17441-1.56095.6902s.87707-.72529 1.31561-1.08794c2.11537-1.00399 1.30833,2.20303 2.50691,2.3039 .19615.0165.32112-.29103.51782-.28385 .36041.0131.70978.12843 1.06467.19264l.60754.30683-1.37037,2.47428-.11061-.0909c.7357-.2874-.30088.14166-1.14096.0176-1.19943-.17719-1.78156-.61489-2.47239-1.56639-.21665-.2984-.79239-.80589-.47755-.99787 .42385-.25845.95309.27821 1.42964.41732 2.17632-2.48992-.14787.28643-.86406.39774-.56419.0877-1.08407-.46835-1.45692-.90077-.38747-.44939-.49213-1.08006-.72247-1.62689-1.64317-3.90095-1.10133-2.52369-2.37715-6.80185l2.7735-.5547z" fill="#ffd42a"/>
  <path d="m444.12372,800.69283c2.06408-1.51128 3.25439-3.79407 5.12652-5.48008 .24597-.22151.48116-.49281.79673-.59273 1.27881-.40492 1.50921-.15883 2.59252.22152 2.0544.4078 4.10285.27267 6.15689.0986l.1987,2.82144c-.5111.0199-1.00244.14984-1.51722.17454-1.94853.0935-3.90019-.0861-5.81617-.44055-.36562-.1453-1.36118-.36095.0293-.57397 .17403-.0267-.30898.17434-.44072.29115-1.88297,1.66951-3.0483,3.98842-5.12652,5.48008l-2-2z" fill="#ffd42a"/>
  <path d="m459.32651,813.7743c1.67669-1.27374 3.43483-2.43515 5.12776-3.68632 1.83792-1.35833 2.00321-1.89281 4.25695-2.35728 .0395-.12169-.34412-.10304-.29552-.21467 .44962-1.03272 1.12422-1.96982 2.05346-2.6281 .71335-.50534 1.56537-.78903 2.29076-1.27693 1.58828-.83833.19227-.0153-.10345.45048l2.73495-.72116c.0829,1.09966.3066,2.21618-1.09229,2.64362-.32852.2079-.6403.44497-.98556.62371-.79209.41008-1.04291.22867-1.63181.91721-.57164.66836-.72271,1.63609-1.31152,2.28938-.29059.32242-.73621.45997-1.10432.68996-.17309.0339-.34322.11222-.51929.10164-.0463-.003.007-.15587-.0342-.13492-.69207.35031-2.19226,1.6068-2.61412,1.91864-.94636.69955-3.76129,2.6734-4.77175,3.38474l-2-2z" fill="#ffd42a"/>
  <path d="m471.27 830.18c2.387-1.7442 4.8718-3.3654 7.0701-5.3538 0.49367-0.44654 0.9214-0.96191 1.408-1.4162 0.75404-0.70399 1.2692-1.0777 2.0413-1.6702 2.1435-1.4174 4.1406-3.7427 6.9239-3.7446 0.3514-2.4e-4 0.69588 0.0984 1.0438 0.14754l-0.52817 2.7787c-1.9146-0.69625-4.2387 2.2781-5.7214 3.0652-1.2248 0.93277-2.2109 1.9807-3.3567 3.0124-2.3106 2.0807-4.9126 3.789-7.4256 5.6063l-1.4552-2.4254z" fill="#ffd42a"/>
  <path d="m484.92 844.1c1.8554-2.3044 4.2994-3.9284 6.8174-5.4153 0.75408-0.44526 2.0427-0.86504 2.6319-1.6188 2.4379-2.1367 3.5378-2.4233 6.7443-1.7837 2.0338 0.205 4.0793-8e-3 6.1178-0.0219l0.0176 2.8284c-2.2315 0.012-4.4747 0.26582-6.6971-0.0344-2.3452-0.4843-2.2045-0.5983-4.1827 1.0116-0.98187 0.90458-1.9622 1.3271-3.1134 2.0051-2.1375 1.2589-4.2586 2.6041-5.9105 4.4842l-2.4254-1.4552z" fill="#ffd42a"/>
  <path d="m500.6316,855.07939c2.35041-.19506 4.71946.15959 7.07107,0 .57321-.0389 1.13777-.17776 1.69156-.33074 .12808-.0354.43171-.30967.32763-.22706-.6742.53513-.40786.47201-.86849.52403-.25553-2.34926.73699-2.25395 2.40923-2.97131 .0927-.0398.13982-.14935.22691-.20029 .20444-.11961.42888-.2013.6407-.30727l-.43095.20233c.40663-.84447.26846-.38461.37839-1.38993l2.78471.49536c-.37703,1.7684-.098,1.05133-.66017,2.2119-.29096.34733-.54615.72809-.87289,1.04201-.23037.22134-1.52526.87014-1.67188.62319-.0859-.14463-.019-.33585-.0285-.50377l-.12722-.19534c.11199.47872.41917.95161.33597,1.43616-.10038.58458-.44274,1.1324-.8509,1.56275-.52532.55386-3.0256.83832-3.28411.85641-2.35128.1645-4.72107-.20106-7.07107,0v-2.82843z" fill="#ffd42a"/>
  <path d="m516.49785,872.22716c2.96221-3.45678 5.26872-6.33711 8.5694-9.4651 .8092-.76687 1.59745-1.6361 2.62134-2.07718 .63617-.27405 1.58851-.43771 2.0774.053 .0358.0359.67693,2.566.89989,3.44303-.0777-.34841-.40826-.73419-.2331-1.04523 .25179-.44714 3.64342-.97218 4.30239-1.16727 .0587-.0174-.10217-.10053-.16182-.0868-.0882.0203-.13993.11488-.2099.17233l2.49568,1.33102c-.89819,1.26582-1.40333,1.26551-2.84802,1.6119-.60999.14626-1.20729.34258-1.81758.48763-.71035.16884-1.42672.5957-2.14291.45369-.83099-.16478-1.45176-.8736-2.17765-1.3104-.0601-.50943-.48136-1.11295-.18032-1.52828 .21863-.30164.70988.32721 1.08021.28673 .27076-.0296.87572-.64765.66319-.47731-.7674.61503-1.61435,1.13567-2.32841,1.81191-3.25145,3.07923-5.48009,5.86618-8.40116,9.27323l-2.20863-1.76691z" fill="#ffd42a"/>
  <path d="m499.51028,911.35504c-.44911.93504 3.24788,1.61717 3.49678,2.29818 .0746.20427-.39283-.20382-.60769-.23752-.17218-.027-.68681.0126-.5193.0607 .63846.1834 1.30749.23565 1.96124.35347 .0607.0295.13826.0372.18221.0885 .45325.52853.72181,1.20178 1.19215,1.71517 .0696.076.20364.0432.29601.0889 .23082.11398.47498.21712.66816.38727 .41963.3696.76931.81174 1.15397,1.21761 .80229,1.76618.4691.96041 1.02982,2.40457l-2.63669,1.02366c-.44161-1.13755-.27805-.60923-.52803-1.57291-.15304-.21284-.26107-.46678-.45912-.63854-1.71442-1.48685-.0849.60832-1.93054-1.42421-.20588-.22671-.36425-.49935-.4824-.78188-.0185-.0443.16088-.0315.12774-.0662-.17407-.18216-.40885-.29458-.61328-.44187 .5359-2e-005 1.17737-.31947 1.60769-8e-005 .30203.22419-.67493.38136-1.04963.4143-.8493.0747-.81306-.21094-1.33956-.50286-2.69661-1.49514-.77058-.14673-3.54953-2.38623l2-2z" fill="#ffd42a"/>
  <path d="m511.162,894.35128c2.88783.52572 5.6089,1.58127 8.36205,2.54167 .0453.0158 2.32146.65338 2.5028.77381 .41701.27694.70351.71235 1.05527,1.06852 .0798.17051.40375.6032.23933.51153-.29979-.16714-1.01238-.64269-.69106-.76337 .94174-.35371 1.80124,2.77242 2.02834,3.49 .74796,2.71749-.49858-.0922.44982,1.0471l-2.17436,1.80892c-.48468-.583-1.02723-1.21062-.97544-2.01335-.1919-.62592-.56028-1.20807-.63536-1.85843-.0132-.11398.1882.13526.29481.17767 .14662.0583.5769.22473.45749.12159-1.46978-1.26957-1.2214-.34584-1.37981-1.00315 .14552.0321.5739.15401.43655.0963-.58078-.24423-2.18775-.6651-2.62373-.81719-2.6016-.90753-5.17156-1.91172-7.9014-2.40807l.5547-2.7735z" fill="#ffd42a"/>
  <path d="m539.52247,873.46417c.95447.25384 1.95885.36498 2.86339.76152 2.35631,1.03298 5.27178,3.50082 5.95505,6.11917 .10569.40502.0725.83402.10879,1.25103-.38596,1.25734-.18569.7285-.55073,1.60459l-2.61086-1.08785c.23546-.5651.0309-.55338.33316-.51674 .26774-.40161.18373-.17889-.22698-1.01823-.71848-1.46833-2.3303-2.91322-3.78546-3.63237-.65326-.32285-1.3909-.43513-2.08636-.6527v-2.82842z" fill="#ffd42a"/>
  <path d="m557.98461,856.73112c2.22488,1.94556 4.66711,3.84794 6.4539,6.24105 .31165.41741.49772.91527.74406,1.37426 .0311.058.12264.1205.0884.17678-.43387.71283-.96113,1.36444-1.44169,2.04667 1.9799-3.02931 1.3089-1.61873 1.89905.0531 .0168.0476.10094-.096.1383-.062 .15267.13896.26916.32028.35279.50902 .14927.33687.22598.70141.33897,1.05211-.0643,1.54339-.23807,3.05475-.18194,4.60375 .007.23383.0136.46765.0203.70148l-2.82724.0818c-.007-.22745-.0131-.4549-.0197-.68235-.0482-1.3677-.0681-2.75557.2462-4.09698 .24978-.13738.0916-.009-.19213-.4718-.22665-.36967-.48524-.72458-.65719-1.12265-.083-.19204-.0486-.41641-.0957-.62024-.33645-1.45782-.69648.64552.97827-2.77375-.36271.68222-.67666,1.3927-1.08813,2.04667-.0176.0279-.37615-.88561-.40499-.92384-1.65835-2.19833-3.87192-3.97635-5.92047-5.77977l1.56893-2.35339z" fill="#ffd42a"/>
  <path d="m582.1009,853.99823c.91882,1.76854 3.93959,4.60371 3.28091,6.84963-.0612.2088-.6632,1.02906-.9466,1.41954 .4234.20743.38363,2.92614.38072,3.4684-.008.23982-.0152.47964-.0228.71947l-2.82696-.0912c.007-.21685.0143-.4337.0214-.65055 .0192-1.74689-.54967-3.52951.21499-5.18262 .14189-.1765.20445-.48105.42567-.5295 .14615-.032-.0818.30106-.0464.44645 .0184.0757.20829.21377.18852.13836-.51093-1.94952-2.2095-3.38251-3.09479-5.13278l2.42536-1.45521z" fill="#ffd42a"/>
  <path d="m591.51532,841.49234c2.74267,2.28107 5.65146,4.3927 7.92414,7.16725 1.2478,3.29537.23646.773.3253.71312s.81597.50036 1.14448,1.12305c.53783,1.01945.38755,1.46418.34147,2.52612 .2797.50314.13111.193.38868.95567l-2.68328.89443c-.40695-1.23377-.21521-.5386-.52283-2.09926 .26561-1.22515.34866-.35237-.66852-1.40001-1.00264-1.03267-.99855-.99628-.51438-.92206-2.06408-2.52597-4.73288-4.41454-7.19027-6.53295l1.45521-2.42536z" fill="#ffd42a"/>
  <path d="m617.23 834.95c1.9486 0.91708 3.6878 2.1578 5.1421 3.7455 0.59481 0.64935 1.0531 1.4078 1.6264 2.0752 0.66432 1.3345 0.44452 0.61435 0.62115 2.1716l-2.827 0.0912c0.1329-0.25198 0.10255-0.10907 0.0466-0.43582-0.51156-0.61133-0.9388-1.3086-1.4672-1.9022-1.0603-1.1913-2.3578-2.1203-3.6968-2.972l0.5547-2.7735z" fill="#ffd42a"/>
  <path d="m216.14218,916.97048c3.4956-.30029 6.88777-1.33495 10.41492-1.34331 .91202-.002 1.96012.13044 2.87293.22726 1.44395.0789 3.30829.42799 3.97418,1.94143 .1894.43046.15173.92825.22759,1.39238 .16184-.28773.0538-.1807.29912.34459l-2.56348,1.19524c-.34984-.75181-.14421-.27562-.56267-1.45079 .13101-.008.49287.0662.39324-.0192-.18431-.15802-.46488-.18331-.63524-.35628-.0481-.0488.23489-.0996.16873-.1174-.51724-.13941-1.09515.12103-1.60279-.11763-.61179-.0663-1.8257-.213-2.43036-.21469-3.41832-.01-6.70177,1.04087-10.09118,1.30835l-.46499-2.78994z" fill="#ffd42a"/>
  <path d="m219.2 901.04h8.0433c1.2917 0.28361 2.3477 0.354 3.4232 1.2366 0.44821 0.36783 0.71233 0.91507 1.0685 1.3726l-2.3985 1.4991c-0.0946-1.0282-1.3224-1.0112-2.0932-1.2799h-8.0433v-2.8284z" fill="#ffd42a"/>
  <path d="m226.19797,879.50204c2.15921.54936 4.14519,1.52381 6.0663,2.62538 .46073.26418.89612.57274 1.36663.81906 .78887.41298.76264.44676.62234.11199 .17158-.55657 2.90534-.50426 3.45111-.50125l-.0341,2.82822c-1.10787-.0232-2.1768.004-3.20011.49312-.40274-.0176-.81458.0341-1.20822-.0528-.77412-.17096-1.73435-.85749-2.37128-1.22586-1.16276-.67249-2.02692-1.15865-3.29595-1.66237-.63843-.25342-1.30097-.44134-1.95145-.662l.5547-2.7735z" fill="#ffd42a"/>
  <path d="m233.60513,862.93014c3.03796-.67754 6.15215-1.31149 9.28605-1.13324 .39238.0223.79295.067 1.16123.20424 .64168.23908 1.286.97442.61872.26517 1.16594-.23876 2.13121.16257 3.05174.87338l-1.75262,2.21998c-.10093-.0828-.31986-.11891-.30279-.24833 .0156-.11863.46674-.0809.34745-.0902-.63095-.0491-1.26651.17495-1.89848.0187-.3882-.15838-.77923-.30998-1.16459-.47514-.17919-.0768.68373.0721.54587.20998-.14723.14723-.39871-.13655-.60653-.14932-2.83058-.17386-5.64236.39762-8.39162.98809l-.89443-2.68328z" fill="#ffd42a"/>
  <path d="m244.65895,844.47279h8.83883 .88388c.0589,0 .22622-.0321.17678,0-.4113.26669-.85573.47844-1.2836.71766-.18069-1.40282.88775-2.22627 1.84477-2.94375l1.30834,2.50764c.0197-.092.12518-.34316.0592-.27608-.14355.14588-.15087.40086-.30936.53033-.0559.0456-.10372-.25321-.11672-.18225-.0631.34459-.0281.70007-.0422,1.05011-.48679.47492-.94736.9783-1.46038,1.42477-.0444.0387-.11785,0-.17678,0h-.88388-8.83883v-2.82843z" fill="#ffd42a"/>
  <path d="m250.392,825.76192c2.51251-.36109 2.71488-.455 5.30981-.55466 .73792-.0283 1.47906.053 2.21539-.003 .70812-.0539 1.50502-.4596 2.20107-.6267-.25671.13067-.51415.52406-.77014.39199-.21082-.10877.31136-.36195.42839-.56831 .0177-.0311-.12882.0309-.10737.002 1.03822-1.38672 1.27358-.99594 2.75639-1.58132-.71569-1.03301 2.65573-4.13824 3.61456-4.82111l1.40286,2.45601c-.071-.49102.0227-.0294-.72823.76938-.5966.6346-1.14294.90646-1.5816,1.68151-1.44885,2.55993.26446.71058-1.79164,2.59022-.36472.11518-.71426.30137-1.09418.34554-.18404.0214.2002-.70482.10512-.5458-1.08379,1.81278.42411.0701-1.59816,2.03564-.96356.20821-1.83488.61359-2.83707.69913-.6733.0575-1.35193-.0271-2.02725-.003-2.42075.0861-2.58699.17156-4.94325.506l-.5547-2.7735z" fill="#ffd42a"/>
  <path d="m256.83332,805.24258c3.24834-.52251 6.96755-.067 10.03714-1.54267 .29506-.14184.16181-.59848.27263-.81368 .12894-.2504.32358-.46108.48537-.69163-.0251.006-.0871.0411-.0753.0181 .28488-.5514.74844-1.25465 1.22486-1.64461 .36007-.29472.80747-.46488 1.18963-.73032 .0922-.0641.14936-.16772.22403-.25158l.74834-.43128-.39959.21752 2.47429,1.37037-.79734.93567c-.51948.0769.18929-.0537-.91693.65402-.1245.0796-.30275.0462-.42345.13146-.50695.35828-.77725.92508-1.01594,1.46711-1.74257,1.35738.3501,1.24619-2.15882,2.47217-3.04373,1.48732-7.22078,1.16269-10.46894,1.63932l-.4-2.8z" fill="#ffd42a"/>
  <path d="m127.43124,878.08086c-1.43992,2.20642-2.43946,4.64201-3.44279,7.06417-.20653.49861-.46008.98059-.61645,1.49713-.0802.26486-.0329.55418-.0867.82563-.0629.3176-.17466.62354-.26199.9353-.0391.1581-.0947.31301-.11734.47429-.0647.46053.10459,1.3716.11761,1.73714 .0448,1.25767.0361,1.888.0406,3.16868-.0134,1.55232-.004.85483-.0251,2.09254l-2.828-.0489c.0209-1.20208.0113-.52406.0247-2.03409-.007-2.05326-.29366-4.1696.074-6.18771 .33077-1.04277.14458-.3721.44681-2.03977 .15519-.52102.41259-1.00596.62098-1.50807 1.05748-2.54799 2.12147-5.10593 3.62828-7.43152l2.42536,1.45521z" fill="#ffd42a"/>
  <path d="m146.57535,888.94586c-.9876,2.02258-2.12277,4.05281-2.76916,6.22807-.0367.12336.0244.26175-.009.38596-.0959.35363-.27151.68103-.38848,1.02826 .15903,1.54617.16236,3.12682.15077,4.6852-.0149.80844-.008.40782-.0194,1.20183l-2.82816-.0393c.0111-.797.005-.40212.0192-1.18465 .0155-1.88554-.21493-3.78636.0292-5.65623 .70585-1.80085-.51728,1.76512.39775-1.41421 .65445-2.27395 1.8791-4.38314 2.88768-6.49986l2.52982,1.26491z" fill="#ffd42a"/>
  <path d="m168.44343,896.46564c-.46633.8163-.94255,1.62704-1.39901,2.44891-.41666.75021-.74282,1.55379-1.22014,2.26693-.79919,1.19402-2.42408,2.27762-3.01827,3.52008-.0529.1106.002.2452.003.3678-.21251,1.6034-.3205,3.15721-.66803,4.74497-.0562.2568-.51836,1.54635-.3652,1.99716l-2.82331.17007c-.0185-1.48393.54854-2.78846.74619-4.24806 .082-.60527.0572-1.22108.12447-1.82816 .0579-.52209.16705-1.0372.25058-1.5558 .1483-.43719.2292-.90341.44489-1.31158 .68567-1.29758 2.02031-1.99943 2.81537-3.19744 .48766-.73481.82635-1.55839 1.25473-2.32926 .4664-.83929.95294-1.66723 1.42942-2.50084l2.42535,1.45522z" fill="#ffd42a"/>
  <path d="m184.55 906.7v12.231l-0.0849-0.68672-1.9514 2.0474-0.79205-1.3607v-12.231h2.8284z" fill="#ffd42a"/>
  <path d="m204.67995,917.22858c-.27004,1.08265-.99895,3.93205-1.24619,5.16718-.0739.36937-.12718.74375-.15477,1.11943-.002.0276.0814-.008.0751-.0354-.0441-.18992-.3529-.67847-.20998-.54588 .21204.19672.2883.50152.43245.75228 .26948,1.7583.0436,3.55113.0536,5.3281 .0141,1.30665.008.67985.0193,1.88038l-2.8283.0273c-.0116-1.20255-.005-.57165-.0194-1.8927-.007-1.38856-.0651-2.87314.1751-4.22889 .51508.41122-.14843-.0883-.39625-.76587-.62568-1.71077 1.16478-5.65366 1.32583-7.36061l2.7735.5547z" fill="#ffd42a"/>
  <path d="m219.03143,935.79071c1.9041-1.30943 4.31424-1.73992 6.18754-3.09679 .47561-.12106-.0923-.21901-.0213-.28 .47088-.40443.98622-.75401 1.47933-1.13101 1.8219-.51416.9798-.19837 2.54029-.90914l1.14059,2.58825c-1.85699.79798-.97298.50308-2.63043.94702 .0512-.20023.27405-.76855.15351-.60069-.97172,1.35311.23799.72827-1.25872,1.84133-1.95903,1.45688-4.54956,1.863-6.54038,3.26716l-1.05045-2.62613z" fill="#ffd42a"/>
  <path d="m232.97118,947.55836c1.7422-.36125 3.04056-2.07937 4.79858-2.39848 1.87959-.34118.61059.16033 2.17084.34245 .0792.009.0817-.13688.12256-.20532 .36846-.70901 1.01428-1.22793 1.40623-1.92227 .0855-.15145.0713-.3417.13147-.50489 .34574-.93846.39756-.86658 1.04334-1.75897 1.19218-.7548 2.12743-1.30808 2.74353-2.57785l2.43152,1.4449c-.77091,1.18499-1.51399,2.40138-2.94647,2.87461-.61374.65453-.68515,1.4287-1.13433,2.2108-.75491,1.31443-1.8756,2.37078-3.23416,3.02748-.51894.0199-1.03876.096-1.55682.0598-.17567-.0123-.42987-.0363-.48789-.20258-.0434-.12443.48626-.2019.36063-.16207-1.57391.49897-2.82631,1.66903-4.39381,2.19771l-1.45522-2.42536z" fill="#ffd42a"/>
  <path d="m487.49 379.77-46.483 116.21s-2.3767 2.6938-2.9982 3.639 0.5102 0.13352 7.5443-6.7798c4.1967-4.1246 8.48-18.516 13.734-33.994s11.485-32.021 19.576-40.374c10.383-10.718 12.525-20.416 12.087-27.413s-3.4603-11.288-3.4603-11.288z" fill="#540"/>
  <path d="m435.22422,485.26254h9.41336c2.16155.56198 2.29193.99991 3.27971,2.83354 .60807,1.12876-.12142-.21342.44408.4405 .22197.25667.39404.55258.59106.82887 .0198-.0303.0333-.11588.0593-.0908 .69932.67615.8297.98786.9237,2.02902 .0311.34411-.0856.68731-.0876,1.03281-.00073.12752-.0417-.35073.0838-.37326s.14557.21268.21835.31902l.34139.94044c-.009-.10106-.10984-.36343-.0282-.30318 .21897.16151.30253.45697.49601.64827 .0758.075-.0546-.28328.0468-.31634 .17888-.0584.37257-.0531.55885-.0796l1.28655.41367-1.35414,2.4832 .37228-.0849c-.817.0733-1.46056.2158-2.27642-.11095-.53692-.21504-1.832-1.43575-1.80174-2.02953-.46461-.71633-.5582-.75466-.75436-1.82201-.22449-1.22145 1.54568.62837-.47185-1.13899-.23698-.66253.11702.22293-.85099-.99941-.54345-.68624-.27372-1.30299-1.0766-1.79197h-9.41336v-2.82843z" fill="#ffd42a"/>
  <path d="m450.42702,471.12041c2.26525.0862 4.50639-.28859 6.70696.39578 2.30488.7168.18042.32443 1.41421.53033l-.68599,2.74397c-.52028-.14819-2.02665-.79692-2.48543-.84165-1.64213-.16014-3.31022.21351-4.94975,0v-2.82843z" fill="#ffd42a"/>
  <path d="m453.96 457.69c1.8679 0 3.0095-0.12905 4.8287 0.37279 1.8937 0.52241 3.4532 1.7691 5.1691 2.6509 0.52916 0.27195 1.0874 0.4832 1.6311 0.7248 0.12011 0.0492 3.0823 1.2526 3.2471 1.3598 0.81632 0.53128 1.4954 1.3328 2.1497 2.0534l-2.099 1.8959c-0.39691-0.44227-0.66613-1.0265-1.1649-1.3495-0.15992-0.10359-3.2595-1.3662-3.2936-1.3802-0.63482-0.28873-1.284-0.5478-1.9044-0.86619-1.3746-0.70536-2.7015-1.8506-4.2-2.2989-1.5981-0.47809-2.6727-0.33431-4.3637-0.33431v-2.8284z" fill="#ffd42a"/>
  <path d="m459.79 438.69c0.75097 0.3217 4.078 1.7198 4.8404 2.1503 1.5489 0.87466 2.0479 1.4753 3.3844 2.4778 0.63574 0.47689 1.3041 0.90894 1.9442 1.38 0.63192 0.0684 0.19102-0.0288 1.11 0.77613l-2.2627 1.697c0.77744 0.37121 0.61232 0.28373-0.52513-0.19614-0.66962-0.49404-1.3675-0.94919-2.0333-1.4484-0.87337-0.65491-1.857-1.5833-2.8028-2.1184-0.73944-0.41838-3.9816-1.7819-4.7056-2.0923l1.0504-2.6261z" fill="#ffd42a"/>
  <path d="m467.39758,418.79451c2.26673.25175 4.47849.55767 6.6344,1.31001 .32574.11367.7146.14156.9619.38213 1.09104,1.06135.94241,1.23312.97737,2.37372 .61211-.17486-.5655-.85242-.25503-.91567 .35803-.0729.71544.15879 1.05878.28376 2.28881.83313 2.41606,1.06361 3.22968,3.25862l.11308.37167-2.7135.79809-.16313-.56745c.30716-.22033.44964-.21765-.1891-.65602-1.54674-1.06152-3.29507-.28735-3.9092-2.573 .009-.11379-.0814-.37569.0275-.34137 .30991.0977.81242.27121.77313.59377-.035.28752-.534-.22506-.80587-.32497-1.8575-.68267-3.78647-.89012-5.73997-1.16487v-2.82842z" fill="#ffd42a"/>
  <path d="m475.88286,404.65237h4.5962c.41248,0 .83559-.0931 1.23744,0 1.44962.33572 1.0851.47539 1.92686,1.27279 .0678.0643-.0969-.15973-.14536-.2396 1.10969.59318 3.40576.33575 4.07465,1.48954 .23311.4021.35517.85903.53276,1.28854-.0119-.11732-.1222-.43209-.0357-.35196 .51221.47447.47116,1.18699.66429,1.78699 .48122,1.49508.0243.10076.38751.28104 .23543.11685.39703.34451.59554.51677 .3149-.30415 1.57314,1.43038 1.67985,1.57119l-2.47382,1.37122c.0763.0245.28601.12986.22905.0734-.21098-.20896-.51331-.31784-.70488-.54472-.0741-.0877.21971.0668.32956.10021l-.93809-.45666c-.34403-.3178-1.45103-1.33986-1.46378-1.35749-.47119-.65169-.33804-2.01714-1.05948-2.52504 1.09061,1.0398.20755.19918.20832.19687 .0264-.0794.32602-.0437.24384-.0593-1.19454-.2265-2.43752-.21589-3.53454-.85085-.28416-.19772-.58249-.37649-.85247-.59316-.0348-.028.72653-.0953.33588-.14142-1.91783-.22632-3.91349.20661-5.83364,0v-2.82843z" fill="#ffd42a"/>
  <path d="m473.52905,393.71146c1.76964-.15757 3.56362-.6785 5.35902-.54957 .33271.0239.85652.28237 1.20138.22798 1.44111-.0395 2.88152-.0682 4.32325-.0567 1.00815-.18131 1.81505.53672 2.69739.86565 .13162.0491.29293-.001.41618.0661 .4356.23808.8068.57904 1.22095.85274 .1983.16402.37577.35713.5949.49207 .10875.067.2636.0301.36937.10171 .31617.2139.57241.50598.87426.73964 .0616.0477.15977.0417.21089.10039 .70843.8139.76422,1.36223.67232.76569 1.7676,2.4759-.48322-.60258 1.21837,1.05741 1.11672,1.08943.57438.81376 1.59904,1.58391l-1.71693,2.2477c-.47223-.36499-1.00011-.72994-1.37573-1.20402-.0546-.069.0113-.19769-.052-.25882-.46217-.44625-1.21076-.54003-1.52249-1.18182-.0258-.0264.0732-.01.10983-.0144-.24521-.24429-.52587-.45752-.73562-.73285-.0565-.0741.32811.16865.25855.10659-.2044-.18235-.46882-.28959-.67092-.47448-.0357-.0326.0347-.1191-.006-.14494-2.02589-1.28062-.32478.0839-1.50922-.9095-.16841-.13002-.40043-.20489-.50522-.39006-.0476-.0841.38015.0441.28986.01-.32641-.1249-.68169-.16239-1.00908-.28471-1.05474-.39406-.38335-.59028-1.45133-.56514-1.5281-.0124-3.05422.0406-4.58188.0427-.24948-.0366-.50048-.064-.74844-.10974-.0658-.0121-.10477-.0995-.1715-.10421-1.64088-.11578-3.2759.3761-4.89403.51109l-.46499-2.78994z" fill="#ffd42a"/>
  <path d="m446.18 471.12h8.3527v2.8284h-8.3527v-2.8284z" fill="#ffd42a"/>
  <path d="m235.47 481.73s47.105 4.8285 70.711 4.2426c23.705-0.58838 48.181-9.6113 70.711-7.7782 16.695 1.3584 50.205 2.1213 50.205 2.1213" fill="#540"/>
  <path d="m261.07442,472.16057c1.80016,3.14946 1.26432,1.84927 2.42706,5.40692 .63006,1.92778 1.03879,3.20216.11558,5.06729 .0342.53398-.0519,1.22438.0663,1.7304 .10074.43115.4845.74812.64737,1.15984 .11492.29051.18567.5966.2785.89489 .0192,1.49804-.22976,2.95084-.17496,4.45714 .008.23772.0161.47544.0242.71317l-2.82679.096-.0241-.70933c-.0435-1.26342-.0791-2.563.27941-3.78922-.19445-.89834.0707.1692-.5093-1.25017-.6146-1.50417-.84643-3.12163-.23314-4.67637 .64375-.65726-.1432-2.21255-.32637-2.79927-.99186-3.17708-.42752-1.79749-2.16914-4.84613l2.42536-1.45521z" fill="#ffd42a"/>
  <path d="m283.87591,480.389c1.22811,4.26799.18785.41249 1.23744,5.12652 .46496,2.08831.99797,3.56438.66885,5.69384-.16983.90633-.11412.47804-.18393,1.28257l-2.81527-.27244c.10815-1.04294.0339-.54282.21381-1.50167 .3474-1.58127-.3168-3.11382-.65696-4.6476-1.04723-4.72182.11607-.3582-1.23744-5.12652l2.7735-.5547z" fill="#ffd42a"/>
  <path d="m302.3318,474.83315c.81635,1.21926 1.88533,2.55841 2.30933,4.0214 .46024.70921-.05,1.5213.12189,2.25374 .0166.0706.16012.0172.20425.0746 .14493.18883.22432.41991.33648.62986 .63836,1.238.17221,2.57388.25201,3.86942 .0455.73876.49629,1.58132.70055,2.29411 .0869,1.44723-.13541,2.87941-.10152,4.33602 .006.23748.0128.47496.0192.71244l-2.8274.0761c-.007-.24175-.013-.4835-.0195-.72525-.0262-1.21378-.0264-2.43173.20783-3.6286-.30497-1.09366-.72062-2.08172-.80205-3.24121-.072-1.02515.1419-1.15155.13338-2.00017-.001-.12214-.0388-.24119-.0581-.36179-.37568-.70546-.67589-1.19658-.87348-2.03553-.0608-.2581-.0291-.53193 0-.79549 .0122-.11022.15156-.20268.12188-.30952-.35985-1.29538-1.20345-2.30323-1.93331-3.40323l2.20863-1.7669z" fill="#ffd42a"/>
  <path d="m320.65368,475.13055c.8621,2.49108.92816,5.16731 1.74479,7.66768 .13537.41449.38136.78514.54237,1.19036 .28631.72061.50691,1.46582.77983,2.1916 .15167.77846.45845,1.45898.83748,2.14919 .0647.11774-.25515-.42487-.12779-.38218 .24582.0824.94228.97333 1.08555,1.14549 .75977,1.70378 1.20669,1.24942-1.05549.79226l1.90466,2.09099c-1.49552.10565-2.7393.72716-3.03318-1.08599-.72206-.89116-.29644-.17159-1.37348-1.4464-.31164-.36885-.78851-1.74217-.88609-2.27023-.25397-.67894-.46012-1.37541-.72277-2.05104-.21492-.55284-.51243-1.07374-.69507-1.63806-.83339-2.57493-.90787-5.32405-1.79075-7.88868l2.78994-.46499z" fill="#ffd42a"/>
  <path d="m345.77522,477.48437c.29766,2.30478.28957,3.07756 1.01843,5.31386 .70497,2.16298.80919,1.44588 1.3664,3.38196 .2483.86276.0388,1.37523.2059.92477l-2.4565-.21766 2.64834.99313-2.72166.48944-.31516-.81059c-.003-.12866.0274-.2626-.009-.38596-.37771-1.27107-1.06158-2.42806-1.46204-3.6891-.80501-2.53503-.78589-3.38734-1.10288-5.99985h2.82843z" fill="#ffd42a"/>
  <path d="m366.99 475.01c-0.60869 3.4515 0.80899 6.7701 0.88388 10.165h-2.8284c0.0576-1.1042-0.37373-2.4115-0.52065-3.4587-0.49738-3.5453-0.36324-2.9886-0.36324-6.706h2.8284z" fill="#ffd42a"/>
  <path d="m384.91 477.28c1.1854 3.2544 1.8984 6.6288 1.7053 10.103-0.0694 1.2481-0.42138 2.4267-0.69913 3.6326 0.19496 0.57721 0.17166 1.2387 0.20053 1.8395l-2.8256 0.12652c-0.0354-0.87097-0.21195-1.731-0.13093-2.602 0.22842-0.98811 0.55733-1.979 0.6267-2.9966 0.21063-3.0899-0.43825-6.0897-1.4766-8.9888l2.5997-1.1142z" fill="#ffd42a"/>
  <path d="m399.33 471.48c1.867 4.1784 1.0354 2.2007 2.5601 6.01 0.23582 0.58921 0.52465 1.1599 0.7071 1.7678 0.29907 0.99638 0.40748 2.1918 0.53341 3.2326-0.0236 1.3885-0.11114 2.7692-0.0899 4.1601l-2.8281 0.0425c-0.0192-1.2939 0.0176-2.5821 0.10896-3.8722-0.0702-0.61867-0.18803-1.9828-0.35048-2.5126-0.77662-2.5331-2.1437-4.9644-3.0968-7.425l2.4558-1.4033z" fill="#ffd42a"/>
  <path d="m275.75 341.73c-17.443 0.13879-33.71 10.112-39.906 26.062l-0.0625 0.0937c-7.8575 20.398 3.7855 42.801 26 50.062 22.256 7.2753 46.725-3.3959 54.656-23.812s-3.6816-42.85-25.938-50.125c-4.8685-1.5915-9.8658-2.3201-14.75-2.2812zm-6.7812 21.906c0.62555 0.0269 1.2542 0.17275 1.875 0.40625 3.3108 1.2453 5.0235 5.0678 3.8438 8.5625s-4.8142 5.3391-8.125 4.0938c-3.3046-1.243-5.0439-5.071-3.875-8.5625l0.0312-0.0312c0.95857-2.8395 3.5393-4.5855 6.25-4.4688zm22.625 4.5938c0.62555 0.0269 1.2542 0.17275 1.875 0.40625 3.3108 1.2453 5.0235 5.0678 3.8438 8.5625s-4.8142 5.3391-8.125 4.0938c-3.3046-1.243-5.0126-5.071-3.8438-8.5625v-0.0312c0.95857-2.8395 3.5393-4.5855 6.25-4.4688zm-28.906 16.281c0.8253-0.0504 1.6723 0.0637 2.5 0.375 3.3108 1.2453 5.0235 5.099 3.8438 8.5938s-4.8142 5.3078-8.125 4.0625c-3.3046-1.243-5.0439-5.071-3.875-8.5625h0.0312c0.88484-2.621 3.1491-4.3174 5.625-4.4688zm21.219 3.5312c0.8253-0.0504 1.6723 0.0637 2.5 0.375 3.3108 1.2453 5.0235 5.099 3.8438 8.5938s-4.8142 5.3078-8.125 4.0625c-3.3046-1.243-5.0439-5.071-3.875-8.5625 0.88484-2.621 3.1804-4.3174 5.6562-4.4688z" fill="url(#b)" stroke="#000" stroke-opacity=".6296" stroke-width="3.5433"/>
  <path d="m269.57936,371.5195c.65671.38702 1.34398.72634 1.97014,1.16105 1.03221.71659 2.35592,1.89317 2.85813,3.11479 .0999.24304.45591,1.96104.19654.72806 .53901.82906 1.22533,1.6838 2.01711,2.28516 .14885.11305.34525.14335.51788.21503l.71981.60942c.31026.70696.40553,1.85368.91344,2.09923 .073.0353.16141-.0151.24212-.0226l.74884.6334c1.32481,1.38183 2.2981,2.91113 1.8224,4.90528-.0466.19545.0195-.40139.0293-.60208 1.05913.88874 1.11675,1.58364 1.4688,2.8397 .13064.46608.33144.91015.47041,1.3738 .0589.43059.24494,1.4096.1062,1.86093-.0641.20866-.18296-.47565-.0551-.65256 .0856-.1184.21962.20128.28793.33042 .56995,1.07753.44185.98076.51225,2.15594l-.35188.95661-2.26536-1.69356-.21102.76819c.0167-.10918-.004-.23103.05-.32754 .0216-.0388.15281.0381.13326-.002-.0686-.13992-.23133-.21635-.30703-.35257-.60561-1.08986-.60652-1.23324-.6107-2.23886-.17119-.58315-.41605-1.14529-.55276-1.73748-.10764-.46626.25094-.23798-.11081-.71567-.18017-.23791-.41857-.4255-.62785-.63824l-.3775-.49866c-.12576-.43225-.30655-.85217-.37726-1.29676-.0767-.48218.22451-.2757.17579-.68796-.0833-.70458-.76628-1.08839-1.11173-1.65425-.55776-.61778-.14147-.1961-1.40796-1.08518-.15453-.15511-1.13132-1.7692-.96834-2.14503 .0879-.2027.29514.32886.44271.49329-.44288-.62944.24743.29778-1.29242-.87703-.8277-.63148-1.66156-1.6073-2.20344-2.48781l-.53454-.97053c.0374-.0231.12745-.0279.11236-.0692-.54743-1.49868-2.24115-2.38205-3.48023-3.14878l1.05046-2.62613z" fill="#241f1c" stroke="#000" stroke-opacity=".6296" stroke-width="3.5433"/>
  <path d="m263.45794,388.80313c1.17108-.94017 2.03298-2.21772 3.18198-3.18198 .4452-.37363 1.28512-.87884 1.87014-1.23719 .15302-.12055.31144-.23454.45906-.36165 .24996-.21524.52522-.40862.73301-.6648 .53648-.66141-.18023-.63154.84673-1.2453 .96224-.57506 2.01901-.46459 1.2585-.52579 .58423-.18445 1.06475-.50793 1.43717-1.02163 .51605-.7118-.41811-.4679.77182-1.22668 .43314-.2762.95966-.3669 1.43949-.55034 .44132-.20167.9474-.1536 1.39775-.31196 .0947-.0333-.26241.0578-.29918-.0356-.048-.1219.0767-.25263.14082-.36688 .17347-.30934.32988-.63714.56908-.899 .3109-.34036.70777-.59083 1.06165-.88624 .61264-.84964 1.41697-.73314 2.33519-.83912 .0536-.006-.8031.15219-.45399-.2344 .25815-.28587.57583-.51174.86374-.76761 .41494-1.02987 1.36519-.92333 2.25581-1.17515 .0944-.0267-.35441.0501-.29323-.0266 .22893-.28718 1.37266-.47187 1.52735-.50828 1.6873-.0235.29472-.0317 1.86615.0481 .16682.008-.39708.0896-.49929-.0425-.0632-.0817.7393-.5569 1.26604-.69086 .36071-.0917.74196-.0599 1.11294-.0898 1.21043.10375.62948.0482 1.74311.16394l-.29241,2.81327c-.98214-.10214-.51855-.0519-1.39091-.14941-.0868-.0203-.17971-.023-.26045-.0608-.0318-.0149-.0274-.10596-.0576-.0881-.18237.10795-.29859.31097-.48604.40986-1.03975.54853-1.47801.60234-2.5217.47367-.34309-.049-.10062-.0525-.53362.13507-.34923.1513-.6846.34812-1.05442.43801-.087.0211.28219-.26946.0436-.26487l-.64552.8126c-.6959.42136-.2506.10246-1.14823,1.17534-3.0535,2.15715.24167-1.13139-1.73041.76762-.80009.25703-.89976,1.33294-1.45808,1.89164-.83733.83792-1.62954.86083-2.68348,1.11152 .10786-.13373.25445-.2439.32359-.40118 .0463-.10525-.18642.14137-.25115.23639-.75735,1.11175-1.34638,2.2732-2.79621,2.67221-.27552.1055-.53621.36885-.82656.3165-.17696-.0319.2667-.24757.36149-.40036 .0651-.1049-.19767.15335-.27022.25323-.87881,1.20988-1.22747,1.8692-2.59654,2.64574 .0341-.21487-.34254.26902-.52356.38971-.19112.12741-.43691.16839-.61149.31765-1.14013.97474-2.022,2.22872-3.18198,3.18198l-2-2z" fill="#241f1c" stroke="#000" stroke-opacity=".6296" stroke-width="3.5433"/>
  <path d="m379.00924,407.12724c-.0448-2.60218-.0266-5.3538.73456-7.87874 .23122-.76697.63608-1.47077.97849-2.19495 .14434-.28759.32726-.55887.43302-.86277 .66495-1.91059-1.44255,1.93867.56625-1.83975 .64574-1.2146 1.69721-2.05189 2.5517-3.10248 .98624-1.74003.30404-.71606 1.88159-2.54263 .33764-.39093.63205-.82134 1.00033-1.18355 .43177-.42466.97865-.72517 1.39118-1.16856 .19213-.2065.23084-.51864.39319-.74929 .27247-.38709.60315-.72975.90472-1.09462 .88781-1.31085 1.92197-2.51806 3.02701-3.64979 .29681-.30398.64052-.56224.91943-.88273 .55578-.63864.9828-1.37919 1.49661-2.05205 2.55577-2.87047.13775-.33424 3.13199-2.94721 .51891-.45284.97211-.9772 1.48792-1.43357 1.0156-.89858 2.1307-1.67506 3.1423-2.58213 .69243-.65638 1.19326-1.53489 2.16294-1.84962 1.55311-.5041 1.28684.36492 2.0306-1.05991 .93734-1.3326 1.76599-2.79299 2.98616-3.90277 1.4139-1.28598 3.18968-2.30797 4.818-3.28964 1.35213-.836 2.81225-1.32014 4.30737-1.79011 .0947-.0298-.33165.12932-.29538.037 .0816-.20777.31278-.31852.46867-.47827l.70111-.72058c.62304-.635 1.04157-1.19064 1.92305-1.51847 .43284-.16097.91543-.12899 1.36657-.22766 .059-.0129-.21985.0117-.17834-.0322 .092-.0972.24382-.11057.36574-.16586l.91418-.17749 .89281.00099-.0471,2.82804-.49721-.0222c-.21427-.11301-1.07402.35698-1.2771.39182-.065.0111-.0963-.0901-.1444-.13508l-.49178.21597c-.29731.23732-.53286.54307-.79929.8146-.66794.68642-1.31758,1.51382-2.20798,1.93147-.24767.11617-.54333.0877-.80044.18112-.7208.26196-2.0695.95657-2.74467,1.29191-2.11951,1.26644-.85878.46509-2.98702,1.94268-.39168.27194-.82244.49323-1.1798.80891-1.20604,1.06538-1.96097,2.53777-2.90654,3.8099-.39862.42154-.71306.94291-1.19586,1.26464-.51711.3446-1.13771.50877-1.73297.68712-.1192.0357.20256-.50688-.20846-.16486-.50692.42182-.80495,1.06118-1.35871,1.43805-.99031.88151-2.08105,1.64076-3.07125,2.51645-.58776.51979-1.11243,1.10869-1.70597,1.62186-2.67129,2.30956-.10167-.37404-2.62206,2.43284-.60283.78772-1.14093,1.62696-1.7886,2.37823-.24192.28062-.5452.50231-.80484.76661-1.07581,1.09512-2.06836,2.27272-2.9323,3.54282-.60328.70018-1.05175,1.52654-1.67138,2.21228-.29109.32215-.71414.50115-1.02293.80637-.3909.38638-.69992.84798-1.06575,1.25818-1.46523,1.64293-.44217.18689-1.79757,2.44579-.31523.37496-.61093.76725-.94569,1.12488-.61828.66053-.69643.43891-1.1651,1.24167-.44445.76127-.45976,1.37046-.75958,2.22611-.011.0313-.0649.0141-.0973.0211-.0803.2642-.13553.53741-.24104.79261-.32419.78411-.415.32733-.72501,1.34347-.71591,2.34649-.73462,4.90628-.67965,7.32404h-2.82842z" fill="#241f1c" stroke="#000" stroke-opacity=".6296" stroke-width="3.5433"/>
  <path d="m369.61947,361.88106c2.75504.64525 5.5237.64041 8.07768,1.90842 .18626.0925.37929.18196.53709.3174 .65205.55964.76727,1.06792.62211.55095 .0109-.0434-.0112-.12129.0327-.13018 .97211-.19687 1.80609.0529 2.79321.2162 1.66961.27619 3.22828.80447 4.86693,1.20873 1.48608.75936 3.27483.9624 4.61817,2.01206 .31108.24308.57061.54575.85591.81863 1.07681.72137 2.27497,1.63637 3.44876,2.17877 .28327.13089.61125.12899.91078.21648 1.05595.30843 1.19415.4258 2.24497.91528 .35115.35518.75058.66839 1.05346,1.06554 .24373.31961.34666.72836.56964,1.06278 .0992.14879.89085.28792.89213.28851 .34058.15566.63912.39041.95868.58561 .41519,1.14471.11344,1.57132.88205,1.59443 .0933.003.19402-.069.27844-.0292 .97784.63682.56646.43844 1.1751.70455 .54405-.50137 3.51717,2.54975 3.80396,2.84051 .81044,1.2692 1.81444,2.45077 2.444,3.83215 .0343.0752.50379,1.60908.72909,1.93082 .0934.13334-.10867-.30688-.16301-.46032 1.49352.74696 1.11253,1.5659 1.15955,2.80588 .004.1081-.009-.3381.0956-.31012 .12065.0323.40522.91893.10293.0482 .88162.64899 1.5569,1.40186 1.85214,2.49198 .10828.39982.0582.8285.1378,1.235 .013.0663.008-.22554.0666-.19128 .12177.0717.14796.24082.22194.36124-.0917-.14374-.43565-.48819-.27498-.4312 1.08519.38492.9216,1.05225 1.37097,1.9941 .0178.0374.0506-.13227.0751-.0989 .41328.56268.41389,1.01555.55943,1.70507-.005.331-.009.662-.0141.993l-2.82638-.10752 .0418-.47633c.0523-.29928.0723-.1847-.10147-.52643-.16561-.32579-.42138-.61477-.51452-.96817-.0416-.15774.37268.34352.46532.15149l-1.19194-.75577c-.32075-.52325-.50588-.77994-.70109-1.47762-.0372-.13282.0425-.27422.0376-.41206-.0182-.51489-.10789-.34872-.41444-.8294-.0186-.0292-.004-.0691-.006-.10371-.37805-.27673-.79652-.50537-1.13416-.83018-.29602-.28478-1.42218-2.9526-.007-1.56911 .0634.062-.14792-.098-.22189-.147-.40288-.32029-.87406-.56977-1.20865-.96086-.41974-.49063-.35437-1.12299-.60059-1.67273-.5204-1.16196-1.36756-2.1371-1.99518-3.23594-.49991-.50887-.88817-.92284-1.41426-1.39273-.15077-.13467-.30658-.26417-.46922-.38424-.17841-.13172-.48262-.15989-.55276-.37028-.0471-.14112.58841.0803.44408.0443-.35739-.0893-.72401-.13641-1.08601-.20462-.22583-.12282-.46442-.22463-.6775-.36846-.0633-.0427-.0713-.14653-.13869-.18246-.41039-.21871-.89367-.30149-1.27331-.57005-.20693-.14638-1.33025-1.29047-1.16445-1.8052 .0628-.19506.32194.25367.48291.3805 .42464-.3567-.0102.0539-1.08485-.4509-.90515-.42521-1.65985-1.25754-1.87575-2.23724-1.11922-.54326-2.30981-.77208-3.43488-1.2839-.43542-.19808-.80909-.51071-1.21909-.75713-2.17396-1.30665-.94485-.43442-2.74296-1.82948-1.09996-1.2139-2.72838-1.38326-4.15334-2.08177-1.01173-.25411-1.99406-.61721-3.00624-.86956-.54598-.13612-1.10892-.19207-1.66172-.29714-.40097-.0762-.79225-.21725-1.19934-.24669-.43632-.0316-.87411.0918-1.31075.0651-.40739-.0248-.80318-.14571-1.20477-.21856-.4401-.31804-1.14835-1.04918-1.75606-1.21952-.69164-.19386-6.34669-1.20531-6.41956-1.21862l.31235-2.81113z" fill="#241f1c" stroke="#000" stroke-opacity=".6296" stroke-width="3.5433"/>
  <path d="m355.83283,582.1735c1.65324.74022 5.85116,2.27341 6.50002,4.27436 .14288.44063-.0322.92615-.029,1.38936 .65543.84453 1.25688,1.71448 1.97263,2.51316 .44415.49561 1.12642,1.00771 1.348,1.69325 .0832.25731.0254.54024.0381.81036 .0618.69648.30128,1.18869.6316,1.78072 .1366.24482.20119.53173.37101.75479 .0943.1239.27902.1458.39427.2505 .25824.23457.47924.5071.71886.76065 .9051,1.58552 1.36496,3.2933 1.08791,5.10138l-.6982-.11188c.26813-1.59012-.16988-3.08573-.90601-4.50636-.20969-.2266-.40642-.46592-.62907-.6798-.18882-.18139-.44128-.29753-.60285-.50357-.16037-.20451-.21931-.47154-.34162-.70085-.39113-.73331-.67105-1.31251-.7329-2.15809 .0201-.14604.10139-.29659.0602-.43812-.18245-.62645-.90677-1.17997-1.28155-1.59922-.81207-.90842-1.585-1.8753-2.13743-2.96692 .001-.20817-.027-.41859.004-.62452 .0195-.13174.18177-.24483.14422-.37261-.54508-1.85473-4.74584-3.36411-6.2279-4.03414l.31623-.63245z" fill="#241f1c" stroke="#000" stroke-width="3.5433"/>
  <path d="m375.90473,599.94653c1.41541-2.27279 3.22743-3.71265 2.84244-6.49412 .11573-.19539.17804-.43464.34718-.58617 .46724-.41859 1.11934-.57523 1.63333-.93487 1.01772-.71209.94548-1.02416 1.64244-1.89232 .5477-1.05665 3.08808-.34301 3.759-.90345 .11468-.0958.0525-.29676.11077-.43438 .0743-.17563.1888-.33137.2832-.49706 .70798-.82167.27592-.4826 1.3248-.97964l.27795.65019c-.76061.27387-.42667.0539-.98849.67971-.15974.27992-.63052,1.13353-.80202,1.25755-.96751.69967-2.48236-.20729-3.41704.67374-.33585.40481-.53016.91773-.8831,1.30774-.63654.7034-1.67874,1.30412-2.58711,1.56551 .38999,3.02499-1.40578,4.57798-2.99119,7.0293l-.55216-.44173z" fill="#241f1c" stroke="#000" stroke-width="3.5433"/>
  <path d="m378.30213,607.23846h5.48008c.2357,0 .50021-.11291.7071,0 .371.20248.43271.62663.51978.97491 .536.39843.47173,1.25045 1.14853,1.49834 .15596.0571.3347-.0244.49826.005 .9247.16357.90263.2748 1.73081.80778 .24407.13495.51893.22515.73222.40485 .19797.1668.30435.4199.47632.61339 .58287.65578 1.42964,1.21033 2.20257,1.59025l-.32016.63047c-.85127-.44387-1.83254-1.05397-2.45992-1.8127-.0998-.12075-.1206-.30381-.24183-.40308-.23063-.18885-.52095-.28989-.78143-.43483-.78576-.54724-.5304-.48053-1.42907-.69483-.28813-.0687-.60616-.0411-.87176-.17224-.76657-.37845-.81287-1.29516-1.37054-1.86043-.0295-.11785-.13138-.23993-.0884-.35355 .0317-.0838.3426-.0691.25461-.0858-.23158-.0439-.4714,0-.7071,0h-5.48008v-.70711z" fill="#241f1c" stroke="#000" stroke-width="3.5433"/>
  <path d="m372.99883,613.95598c.36065,3.58849.23807,2.85945.70355,5.96041 .0643.42853.31698.87621.18033,1.28743-.3364,1.01231-.19843-.0863-.26872.93389-.0174.82515.0469,1.6488.0914,2.47208l-.70608.0382c-.047-.86919-.11736-1.73902-.0854-2.61024 .0481-.25495.0961-.50989.14422-.76484 .0391-.023.0926-.031.11739-.0691 .21825-.33521-.11392-.79185-.17322-1.18743-.47239-3.15158-.34649-2.40065-.71066-6.06041h.70711z" fill="#241f1c" stroke="#000" stroke-width="3.5433"/>
  <path d="m361.55381,607.21318c-2.08602-.42572-4.042-1.38522-6.14162-1.75304-1.17961-.20665.11283.18388-1.05456.17373-.28965-.003-.56743-.11674-.85114-.17511-1.85595-.7558-3.91373-.42902-5.86089-.32007-1.32672.009-2.65288-.032-3.98003-.0271-.46537.12257-.97574-.11138-1.44143.007-.78958.20054-.76419,1.11109-1.06682,1.71962-.16139.32453-.36977.62347-.55465.93521-.44352.89995-1.62954,1.21353-1.95888,2.18058-.0527.15477.048.33029.0143.49028-.0603.28685-.24288.53361-.35924.80265l-.64816-.28264c.0861-.19615.25321-.35875.30188-.56737 .0638-.27341.002-.57404.10335-.83589 .3662-.94693 1.42596-1.31294 1.94014-2.15097 1.25008-2.06396.74582-3.17608 3.66687-3.00548 1.31485-.005 2.62873.0345 3.94316.0282 2.02065-.11303 4.15472-.43593 6.08258.34284 .8613.32377 1.02018-.15253 1.895-.001 2.13166.36828 4.11572,1.35283 6.23275,1.78249l-.26262.65654z" fill="#241f1c" stroke="#000" stroke-width="3.5433"/>
  <path d="m366.59 606.02 256-244 10 14-263.5 234z" fill="#e3dedb" stroke="#bcc4c6"/>
  <path transform="translate(-.5,-2)" d="m614.98 346.13c5.7453-15.083 23.473-22.952 39.596-17.578s24.536 21.958 18.79 37.041-23.473 22.952-39.596 17.578c-16.093-5.3646-24.51-21.9-18.818-36.969" fill="url(#a)" stroke="#000" stroke-opacity=".3122" stroke-width="1.4173"/>
 </g>
</svg>
